<?xml version="0.9"?>

<!--
CSMP_Simulation
-->

<VTKFile type="UnstructuredGrid" version="0.9" byte_order="LittleEndian">
	<UnstructuredGrid>
		<Piece NumberOfPoints="251" NumberOfCells="446">
			<Points>
				<DataArray type="Float32" Name="Position" NumberOfComponents="3" format="ascii">
					444.0292358398438	691.4931030273438	0	347.3041381835938	729.0657958984375	0	455.0791015625	592.86328125	0	363.5693664550781	637.45166015625	0
					117.1280517578125	734.96484375	0	74.80567169189453	659.9843139648438	0	80.20956420898438	346.4862976074219	0	55.85615539550781	273.7942504882812	0
					1907.029663085938	274.6231994628906	0	363.8961181640625	351.4490356445312	0	1845.479248046875	767.3401489257812	0	1916.025146484375	718.3967895507812	0
					1821.0703125	850.4891357421875	0	1822.112670898438	692.2723999023438	0	1906.139404296875	537.5574951171875	0	1881.845703125	642.0671997070312	0
					1661.390625	798.9315795898438	0	1663.987182617188	890.9298706054688	0	1572.307739257812	850.0752563476562	0	1562.084716796875	756.604248046875	0
					1439.922729492188	706.70556640625	0	1753.970458984375	767.9512329101562	0	1664.871948242188	713.8508911132812	0	1725.013061523438	846.256103515625	0
					1741.481689453125	676.3453369140625	0	1453.950073242188	587.9808959960938	0	1352.436401367188	623.6679077148438	0	1623.268920898438	550.771728515625	0
					1682.430053710938	615.6346435546875	0	1451.853637695312	489.4089965820312	0	1537.483154296875	528.4066772460938	0	1570.080322265625	639.0679931640625	0
					1535.278564453125	435.9169921875	0	1833.550170898438	926.3088989257812	0	1748.430053710938	914.5433349609375	0	1444.535888671875	397.2592163085938	0
					1385.880249023438	535.0053100585938	0	1359.657958984375	448.2867736816406	0	1800.969604492188	138.3014373779297	0	1845.60205078125	206.7539672851562	0
					1713.618896484375	92.03340911865234	0	1741.32177734375	205.0218353271484	0	139.7021942138672	274.4800415039062	0	180.5857543945312	184.9621429443359	0
					80.89103698730469	201.2761688232422	0	179.1585845947266	372.755859375	0	277.3750610351562	400.565185546875	0	257.0708618164062	287.0548706054688	0
					105.0784301757812	99.57007598876953	0	230.9305267333984	98.75180816650391	0	178.6130981445312	791.3143310546875	0	235.6675567626953	829.1356811523438	0
					118.1869354248047	468.4128112792969	0	85.63798522949219	580.07373046875	0	93.30758666992188	815.2734375	0	189.6664276123047	726.3458251953125	0
					539.5303955078125	653.1708984375	0	552.78564453125	548.893798828125	0	459.3392028808594	492.7688903808594	0	368.6993103027344	444.31591796875	0
					455.3706970214844	398.4713745117188	0	375.7555541992188	536.2129516601562	0	551.8046264648438	814.6939086914062	0	445.55078125	799.2880859375	0
					517.8927612304688	738.16845703125	0	319.0675964355469	826.5247802734375	0	256.0542297363281	760.4264526367188	0	153.0114288330078	646.3218383789062	0
					255.8549652099609	661.9578247070312	0	608.3348999023438	728.3058471679688	0	657.9911499023438	618.6204223632812	0	509.0098876953125	908.93994140625	0
					300.5480346679688	573.8759765625	0	286.912841796875	495.3517761230469	0	199.4953460693359	556.1704711914062	0	217.5049743652344	454.1373901367188	0
					552.2906494140625	439.6001892089844	0	651.4436645507812	495.5817260742188	0	293.0205078125	179.4436340332031	0	1149.972900390625	582.6150512695312	0
					1049.95947265625	533.465576171875	0	1153.8525390625	682.232421875	0	1058.19287109375	658.2222900390625	0	1208.065551757812	921.0326538085938	0
					1011.881713867188	919.3593139648438	0	964.9313354492188	840.3820190429688	0	1060.873901367188	837.9325561523438	0	870.3629760742188	834.564208984375	0
					766.5013427734375	825.33349609375	0	1589.116333007812	930.7666625976562	0	1508.510620117188	924.969482421875	0	1380.536987304688	800.3782348632812	0
					1475.038452148438	823.721923828125	0	1388.12158203125	898.2648315429688	0	1288.822875976562	940.0347290039062	0	1309.339599609375	717.7919921875	0
					1171.104248046875	159.6822814941406	0	1217.2353515625	232.9223327636719	0	1462.092163085938	81.28457641601562	0	1353.817993164062	73.10636901855469	0
					1281.958251953125	51.86545562744141	0	1389.6982421875	151.5031433105469	0	1437.159545898438	221.9389190673828	0	1523.810791015625	252.0222778320312	0
					1487.711791992188	159.4125061035156	0	1202.611938476562	73.91384124755859	0	593.6303100585938	70.88201904296875	0	474.2533264160156	216.7665710449219	0
					535.9974365234375	141.5718383789062	0	636.6951904296875	143.1131744384766	0	685.46533203125	75.00312805175781	0	744.52685546875	246.8442840576172	0
					944.9660034179688	597.0908813476562	0	435.2001037597656	309.2849731445312	0	367.8102722167969	254.2534484863281	0	937.4230346679688	692.021484375	0
					874.1049194335938	641.7809448242188	0	782.447265625	637.6834716796875	0	385.8057556152344	169.0618133544922	0	446.1583862304688	112.1454925537109	0
					516.2918090820312	68.80141448974609	0	350.5238037109375	93.40596008300781	0	817.6038818359375	482.6073608398438	0	921.398681640625	474.4161071777344	0
					839.7522583007812	391.1126708984375	0	950.5672607421875	338.1645202636719	0	669.166748046875	207.2004699707031	0	585.1712646484375	220.2483520507812	0
					536.7532348632812	319.1719665527344	0	657.10009765625	291.4598388671875	0	746.3372802734375	339.8505249023438	0	642.001220703125	389.1047058105469	0
					744.6666870117188	437.8630065917969	0	852.1451416015625	561.776123046875	0	752.0538940429688	539.3736572265625	0	724.9949951171875	153.0371246337891	0
					783.1351318359375	80.19184875488281	0	887.8463134765625	71.77266693115234	0	841.2927856445312	170.3407135009766	0	955.7697143554688	156.8094329833984	0
					841.5967407226562	291.1517944335938	0	923.9827880859375	238.3652801513672	0	966.7673950195312	58.52508163452148	0	1114.927978515625	69.58316040039062	0
					1031.6875	89.59866333007812	0	1248.578857421875	648.3079223632812	0	1282.651000976562	532.6465454101562	0	1721.93603515625	327.2227783203125	0
					1630.023071289062	282.3868713378906	0	1608.402587890625	184.3686370849609	0	1434.546264648438	315.1999206542969	0	1528.375366210938	340.3812255859375	0
					1573.601806640625	91.10772705078125	0	1073.276611328125	170.5005187988281	0	1116.79345703125	241.0606689453125	0	1013.769836425781	242.4431610107422	0
					1159.292236328125	472.45166015625	0	1051.68310546875	422.5390930175781	0	1162.06982421875	350.4551391601562	0	1058.813232421875	312.0887451171875	0
					1351.879272460938	360.7216491699219	0	1270.761108398438	325.5962219238281	0	1263.181396484375	420.0801696777344	0	1811.36083984375	291.3341369628906	0
					1938.593383789062	182.526611328125	0	1898.546875	105.2851257324219	0	1705.518920898438	518.469482421875	0	1711.395385742188	423.238525390625	0
					1618.7001953125	474.3651428222656	0	1619.9306640625	380.2520446777344	0	1781.559936523438	371.6791076660156	0	1815.321655273438	467.8460083007812	0
					1915.815673828125	449.8241577148438	0	1874.990966796875	366.8116455078125	0	1788.751098632812	589.851318359375	0	1916.63916015625	811.0499877929688	0
					1919.0927734375	883.2927856445312	0	0	136.0333862304688	0	0	843.9852905273438	0	0	924.9603881835938	0
					1802.770385742188	1000	0	1670.674926757812	1000	0	1916.681274414062	1000	0	1060.317749023438	1000	0
					1157.769165039062	1000	0	175.5385589599609	1000	0	316.2447814941406	1000	0	75.05513763427734	1000	0
					602.3109130859375	1000	0	962.5164794921875	1000	0	1563.710571289062	1000	0	1453.602783203125	1000	0
					1253.451416015625	1000	0	1343.49169921875	1000	0	1423.498901367188	0	0	1242.124267578125	0	0
					1319.023193359375	0	0	541.8744506835938	0	0	839.7080688476562	0	0	0	628.0469970703125	0
					149.9026794433594	0	0	0	314.1230773925781	0	0	416.9874267578125	0	2000	366.2196960449219	0
					2000	226.4890747070312	0	297.2430725097656	0	0	436.6231384277344	0	0	1162.551147460938	836.28466796875	0
					1109.91796875	919.1209716796875	0	839.6807250976562	733.6224975585938	0	928.047119140625	773.7606201171875	0	1104.132446289062	760.5382690429688	0
					1008.732116699219	759.136962890625	0	263.3848266601562	906.2590942382812	0	378.0548400878906	903.424560546875	0	177.8618621826172	872.2982788085938	0
					97.69316864013672	898.7310791015625	0	802.8900756835938	915.0074462890625	0	694.3988647460938	917.3024291992188	0	914.0978393554688	918.5055541992188	0
					662.6865234375	812.7572631835938	0	718.95263671875	726.9476318359375	0	607.8546752929688	885.9344482421875	0	1208.873291015625	749.91796875	0
					1279.15283203125	842.0166625976562	0	1282.092163085938	139.9343414306641	0	1342.011962890625	249.6159973144531	0	640.3038940429688	0	0
					734.8947143554688	0	0	939.6983642578125	0	0	1031.854614257812	0	0	1140.2412109375	0	0
					1681.365478515625	0	0	1540.245971679688	0	0	2000	130.9672088623047	0	1828.780151367188	0	0
					2000	840.3326416015625	0	2000	916.7117309570312	0	2000	757.102783203125	0	2000	492.7944641113281	0
					2000	634.87158203125	0	0	232.026611328125	0	0	517.4840087890625	0	0	1000	0
					0	0	0	2000	0	0	2000	1000	0	726.4976196289062	1000	0
					848.9555053710938	1000	0	463.4651794433594	1000	0	0	742.026611328125	0	
				</DataArray>
			</Points>
			<Cells>
				<DataArray type="Int32" Name="connectivity" NumberOfComponents="1" format="ascii">
					83	224	94	83	207	224	83	184	208	83	94	192	83	208	207	82	211	212	81
					223	211	81	211	82	80	82	112	79	81	82	79	82	80	73	74	75	72	74
					73	71	222	188	69	221	220	69	70	221	68	74	72	67	74	68	65	214	213
					63	71	214	63	214	65	62	63	64	62	69	220	62	64	69	62	220	222	62
					71	63	62	222	71	61	72	73	59	61	73	58	59	60	58	61	59	58	60
					76	57	76	77	57	77	70	57	58	76	56	69	64	56	70	69	56	57	70
					55	67	68	55	68	66	54	215	216	178	54	216	53	74	67	52	75	74	52
					74	53	51	66	65	51	213	215	51	65	213	50	51	215	50	55	66	50	66
					51	50	215	54	242	52	53	46	59	73	46	73	75	45	47	46	45	75	52
					45	46	75	44	177	48	43	49	78	106	109	108	106	110	109	102	104	103	101
					104	102	100	105	195	99	100	196	98	101	99	225	99	101	225	101	226	96	225
					97	96	105	225	95	224	223	93	193	94	93	94	224	91	224	95	91	92	93
					91	93	224	90	93	92	191	93	90	190	90	89	43	78	47	43	48	49	43
					44	48	42	47	45	42	44	43	42	43	47	38	41	40	38	39	41	33	180
					34	29	36	37	29	37	35	29	32	30	29	35	32	27	31	30	27	28	31
					25	29	30	25	30	31	25	26	36	25	36	29	22	31	28	22	28	24	21
					22	24	20	26	25	20	95	26	20	25	31	20	92	91	20	91	95	19	20
					31	19	31	22	19	92	20	18	92	19	18	90	92	18	89	90	17	89	18
					17	34	181	17	181	89	17	23	34	16	17	18	16	21	23	16	22	21	16
					18	19	16	19	22	16	23	17	14	240	15	13	21	24	12	34	23	12	33
					34	12	23	21	11	15	240	11	13	15	10	21	13	10	13	11	10	12	21
					176	182	33	182	176	237	176	33	12	175	236	176	175	12	10	175	10	11	175
					11	238	175	176	12	174	14	15	174	15	13	174	13	24	28	174	24	172	239
					14	171	173	172	171	14	174	171	172	14	170	173	171	168	27	30	168	30	32
					168	32	169	167	168	169	167	170	171	166	171	174	166	174	28	166	168	167	166
					167	171	166	27	168	166	28	27	235	38	40	165	38	235	165	39	38	164	165
					234	164	39	165	163	173	170	163	41	39	161	97	226	160	162	161	160	37	162
					160	161	226	160	35	37	158	97	161	158	161	162	157	159	158	156	157	158	156
					80	157	156	79	80	156	158	162	154	97	158	154	96	97	154	158	159	154	159
					155	153	154	155	153	96	154	152	104	98	152	232	40	152	98	233	151	32	35
					151	169	32	150	226	102	150	160	226	150	151	35	150	102	103	150	103	151	150
					35	160	149	104	152	149	103	104	149	152	40	149	40	41	148	149	41	148	151
					103	148	169	151	148	103	149	147	170	167	147	163	170	147	148	41	147	167	169
					147	169	148	147	41	163	146	156	162	146	79	156	146	36	26	146	37	36	146
					162	37	145	146	26	145	223	81	145	95	223	145	26	95	145	79	146	145	81
					79	143	105	96	143	96	153	143	144	230	143	231	105	143	153	144	142	230	144
					139	144	153	139	142	144	139	153	155	139	155	141	138	141	140	138	139	141	138
					140	111	137	229	142	137	142	139	137	139	138	136	137	138	136	198	137	135	136
					138	135	110	136	135	109	110	135	138	111	134	70	77	132	134	77	131	77	76
					131	132	77	130	132	131	130	111	140	129	130	131	129	111	130	128	76	60	128
					129	131	128	131	76	127	129	128	127	107	108	127	128	107	127	108	109	126	135
					111	126	129	127	126	109	135	126	111	129	126	127	109	125	141	155	125	155	159
					125	159	157	125	140	141	124	130	140	124	132	130	124	140	125	123	124	125	123
					80	112	123	157	80	123	112	133	123	125	157	122	124	123	122	134	132	122	133
					134	122	123	133	122	132	124	228	136	110	227	110	106	121	78	49	205	121	49
					120	197	106	120	106	108	119	108	107	119	120	108	119	121	206	119	206	120	118
					119	107	118	78	121	118	121	119	117	70	134	117	209	221	117	134	133	117	221
					70	116	133	112	116	209	117	116	117	133	115	116	112	115	212	210	115	82	212
					115	112	82	115	210	209	115	209	116	114	47	78	114	78	118	114	118	107	113
					128	60	113	107	128	113	114	107	9	59	46	9	114	113	9	47	114	9	46
					47	9	60	59	9	113	60	8	39	164	8	163	39	8	173	163	204	8	164
					203	173	8	203	172	173	7	44	42	7	241	44	6	45	52	6	42	45	6
					7	42	6	52	202	201	7	6	200	49	48	5	53	67	5	199	53	4	50
					54	4	55	50	4	67	55	4	5	67	250	5	4	250	4	54	3	72	61
					3	68	72	2	58	57	2	57	56	2	61	58	2	3	61	1	65	66	1
					63	65	1	68	3	1	66	68	0	64	63	0	56	64	0	2	56	0	3
					2	0	1	3	0	63	1	249	214	71	179	216	187	248	217	219	247	218	217
					98	104	101	194	98	99	226	101	102	225	100	99	225	105	100	88	220	221	218
					220	88	185	216	215	87	217	88	87	88	209	85	87	210	85	219	87	85	212
					86	84	85	86	84	219	85	208	84	86	208	183	84	207	86	211	83	192	184
					181	190	89	178	216	179	242	53	199	100	195	196	94	193	192	191	193	93	190
					191	90	241	177	44	34	180	181	33	182	180	14	239	240	238	11	240	176	236
					237	237	246	182	175	238	236	204	164	234	232	235	40	152	233	232	231	195	105
					143	230	231	142	229	230	137	198	229	228	198	136	227	106	197	227	228	110	205
					206	121	205	49	200	120	206	197	203	8	204	203	239	172	245	234	165	235	245
					165	202	52	242	201	6	202	201	241	7	244	48	177	200	48	244	250	199	5
					250	54	178	249	71	188	249	186	214	187	243	179	248	219	189	247	217	248	194
					99	196	233	98	194	225	226	97	218	222	220	217	218	88	188	218	247	188	222
					218	186	213	214	185	187	216	185	215	213	185	213	186	209	88	221	87	219	217
					87	209	210	86	212	211	85	210	212	84	189	219	183	189	84	208	184	183	207
					211	223	207	223	224	207	208	86	
				</DataArray>
				<DataArray type="Int32" Name="offsets" NumberOfComponents="1" format="ascii">
					3	6	9	12	15	18	21	24	27	30	33	36	39	42	45	48	51	54	57
					60	63	66	69	72	75	78	81	84	87	90	93	96	99	102	105	108	111	114
					117	120	123	126	129	132	135	138	141	144	147	150	153	156	159	162	165	168	171
					174	177	180	183	186	189	192	195	198	201	204	207	210	213	216	219	222	225	228
					231	234	237	240	243	246	249	252	255	258	261	264	267	270	273	276	279	282	285
					288	291	294	297	300	303	306	309	312	315	318	321	324	327	330	333	336	339	342
					345	348	351	354	357	360	363	366	369	372	375	378	381	384	387	390	393	396	399
					402	405	408	411	414	417	420	423	426	429	432	435	438	441	444	447	450	453	456
					459	462	465	468	471	474	477	480	483	486	489	492	495	498	501	504	507	510	513
					516	519	522	525	528	531	534	537	540	543	546	549	552	555	558	561	564	567	570
					573	576	579	582	585	588	591	594	597	600	603	606	609	612	615	618	621	624	627
					630	633	636	639	642	645	648	651	654	657	660	663	666	669	672	675	678	681	684
					687	690	693	696	699	702	705	708	711	714	717	720	723	726	729	732	735	738	741
					744	747	750	753	756	759	762	765	768	771	774	777	780	783	786	789	792	795	798
					801	804	807	810	813	816	819	822	825	828	831	834	837	840	843	846	849	852	855
					858	861	864	867	870	873	876	879	882	885	888	891	894	897	900	903	906	909	912
					915	918	921	924	927	930	933	936	939	942	945	948	951	954	957	960	963	966	969
					972	975	978	981	984	987	990	993	996	999	1002	1005	1008	1011	1014	1017	1020	1023	1026
					1029	1032	1035	1038	1041	1044	1047	1050	1053	1056	1059	1062	1065	1068	1071	1074	1077	1080	1083
					1086	1089	1092	1095	1098	1101	1104	1107	1110	1113	1116	1119	1122	1125	1128	1131	1134	1137	1140
					1143	1146	1149	1152	1155	1158	1161	1164	1167	1170	1173	1176	1179	1182	1185	1188	1191	1194	1197
					1200	1203	1206	1209	1212	1215	1218	1221	1224	1227	1230	1233	1236	1239	1242	1245	1248	1251	1254
					1257	1260	1263	1266	1269	1272	1275	1278	1281	1284	1287	1290	1293	1296	1299	1302	1305	1308	1311
					1314	1317	1320	1323	1326	1329	1332	1335	1338	
				</DataArray>
				<DataArray type="UInt8" Name="types" NumberOfComponents="1" format="ascii">
					5	5	5	5	5	5	5	5	5	5	5	5	5	5	5	5	5	5	5
					5	5	5	5	5	5	5	5	5	5	5	5	5	5	5	5	5	5	5
					5	5	5	5	5	5	5	5	5	5	5	5	5	5	5	5	5	5	5
					5	5	5	5	5	5	5	5	5	5	5	5	5	5	5	5	5	5	5
					5	5	5	5	5	5	5	5	5	5	5	5	5	5	5	5	5	5	5
					5	5	5	5	5	5	5	5	5	5	5	5	5	5	5	5	5	5	5
					5	5	5	5	5	5	5	5	5	5	5	5	5	5	5	5	5	5	5
					5	5	5	5	5	5	5	5	5	5	5	5	5	5	5	5	5	5	5
					5	5	5	5	5	5	5	5	5	5	5	5	5	5	5	5	5	5	5
					5	5	5	5	5	5	5	5	5	5	5	5	5	5	5	5	5	5	5
					5	5	5	5	5	5	5	5	5	5	5	5	5	5	5	5	5	5	5
					5	5	5	5	5	5	5	5	5	5	5	5	5	5	5	5	5	5	5
					5	5	5	5	5	5	5	5	5	5	5	5	5	5	5	5	5	5	5
					5	5	5	5	5	5	5	5	5	5	5	5	5	5	5	5	5	5	5
					5	5	5	5	5	5	5	5	5	5	5	5	5	5	5	5	5	5	5
					5	5	5	5	5	5	5	5	5	5	5	5	5	5	5	5	5	5	5
					5	5	5	5	5	5	5	5	5	5	5	5	5	5	5	5	5	5	5
					5	5	5	5	5	5	5	5	5	5	5	5	5	5	5	5	5	5	5
					5	5	5	5	5	5	5	5	5	5	5	5	5	5	5	5	5	5	5
					5	5	5	5	5	5	5	5	5	5	5	5	5	5	5	5	5	5	5
					5	5	5	5	5	5	5	5	5	5	5	5	5	5	5	5	5	5	5
					5	5	5	5	5	5	5	5	5	5	5	5	5	5	5	5	5	5	5
					5	5	5	5	5	5	5	5	5	5	5	5	5	5	5	5	5	5	5
					5	5	5	5	5	5	5	5	5	
				</DataArray>
			</Cells>
			<CellData Scalars="region id">
				<DataArray type="Float64" Name="region id" NumberOfComponents="1" format="ascii">
					1	1	1	1	1	1	1	1
					1	1	1	1	1	1	1	1	1
					1	1	1	1	1	1	1	1	1
					1	1	1	1	1	1	1	1	1
					1	1	1	1	1	1	1	1	1
					1	1	1	1	1	1	1	1	1
					1	1	1	1	1	1	1	1	1
					1	1	1	1	1	1	1	1	1
					1	1	1	1	1	1	1	1	1
					1	1	1	1	1	1	1	1	1
					1	1	1	1	1	1	1	1	1
					1	1	1	1	1	1	1	1	1
					1	1	1	1	1	1	1	1	1
					1	1	1	1	1	1	1	1	1
					1	1	1	1	1	1	1	1	1
					1	1	1	1	1	1	1	1	1
					1	1	1	1	1	1	1	1	1
					1	1	1	1	1	1	1	1	1
					1	1	1	1	1	1	1	1	1
					1	1	1	1	1	1	1	1	1
					1	1	1	1	1	1	1	1	1
					1	1	1	1	1	1	1	1	1
					1	1	1	1	1	1	1	1	1
					1	1	1	1	1	1	1	1	1
					1	1	1	1	1	1	1	1	1
					1	1	1	1	1	1	1	1	1
					1	1	1	1	1	1	1	1	1
					1	1	1	1	1	1	1	1	1
					1	1	1	1	1	1	1	1	1
					1	1	1	1	1	1	1	1	1
					1	1	1	1	1	1	1	1	1
					1	1	1	1	1	1	1	1	1
					1	1	1	1	1	1	1	1	1
					1	1	1	1	1	1	1	1	1
					1	1	1	1	1	1	1	1	1
					1	1	1	1	1	1	1	1	1
					1	1	1	1	1	1	1	1	1
					1	1	1	1	1	1	1	1	1
					1	1	1	1	1	1	1	1	1
					1	1	1	1	1	1	1	1	1
					1	1	1	1	1	1	1	1	1
					1	1	1	1	1	1	1	1	1
					1	1	1	1	1	1	1	1	1
					1	1	1	1	1	1	1	1	1
					1	1	1	1	1	1	1	1	1
					1	1	1	1	1	1	1	1	1
					1	1	1	1	1	1	1	1	1
					1	1	1	1	1	1	1	1	1
					1	1	1	1	1	1	1	1	1
					1	1	1	1	1	1	
				</DataArray>
			</CellData>
		</Piece>
	</UnstructuredGrid>
</VTKFile>
