<?xml version="0.9"?>

<!--
CSMP_Simulation
-->

<VTKFile type="UnstructuredGrid" version="0.9" byte_order="LittleEndian">
	<UnstructuredGrid>
		<Piece NumberOfPoints="340" NumberOfCells="1401">
			<Points>
				<DataArray type="Float32" Name="Position" NumberOfComponents="3" format="ascii">
					-16.41062919392366	-0.04344045481634688	11.93148515941712	-0.25	0	7.5	-9.75	0	7.5	-4.99898214345562	-4.068627596068449	7.447377763250227
					-5	0	12.25	4.36596508279648	4.371359811276876	2.819111060162519	1.694170158415409	1.998660157669362	5.01396098739668	7.024751698374033	7.138632267104276	9.714282632558774
					6.813775394566266	7.208927821725516	5.052674674046374	-6.922536299254762	-7.414231784029285	6.202049881992746	2.203736814403202	-2.451056362530447	5.208069152268988	-7.330220177654803	2.37680406029668	14.01023116875372
					-12.5807523727417	1.800898671150208	10	-4.51998233795166	-5.990026473999023	10	-5.012715260986893	4.323492576628067	12.31529762011868	10	-1.87281608581543	5.692676544189453
					-20	1.840990216973216	13.54704431987745	-14.78628182924	-0.5433709327571815	10	-17.9973941550371	-0.05392970843467253	10	-20	2.956317283347909	7.983545939014265
					-17.99779468327936	1.121290830467353	8.516116385822098	-20	0.6670439656084746	10.14064514016041	10	-4.411351203918457	10.1984281539917	10	-1.218288757590392	8.860211090030852
					8.084873504963667	-1.19106743209854	8.615568283477341	10	-1.185620995108186	11.89730784815642	8.123356370959463	-1.188804520055291	11.02342877031749	10	1.537780250750135	9.85633479674755
					8.35642167369212	1.175559242959079	11.24720283190049	7.995956609702273	1.376272572817566	8.710899320500127	8.878342319813406	-0.002212577959212958	9.880545931502741	-7.375	-2.375	5.125
					-4.964188431760475	4.318459796978223	7.425129253527693	-3.680698394775391	1.858973145484924	10	-2.625	-2.375	5.125	-18.13024241345913	1.109169290113097	11.0562912000273
					-20	-2.877648647049048	9.345210593326204	-20	-0.3517687636487929	6.615554566939651	-18.67518110375454	-0.5284061345389143	7.583848180835679	5.171968323846558	-1.20450512813802	10
					4.519135676135586	0.4278880393879224	10	6.943512716345188	0.05282173411678283	12.3240895860954	7.99966977050291	-0.006833887058315502	10	-8.468432426452637	2.475738525390625	10
					-5	0	2.75	-7.375	2.375	5.125	-20	-10	16.46077728271484	-16.86516434136652	-7.172151118800038	14.48013330010325
					-15.52246952056885	-10	15.56201171875	-12.10653683099931	-7.240842167855021	14.56429132909513	-16.45646667480469	-10	20	-13.7137186782393	-5.384776366652374	16.59065767209038
					-9.47408390045166	-10	16.56399345397949	-11.3335018157959	-6.756801605224609	20	10	-10	15.80666732788086	6.875	-7.125	14.625
					6.170342922210693	-10	14.33465957641602	4.2986153421817	-4.978263927076965	16.99311379979866	6.17525577545166	-10	20	2.125	-7.125	14.625
					2.308799505233765	-10	20	-0.07111334800720215	-10	16.38828277587891	0.5402692556381226	-5.933781147003174	20	10	1.266973614692688	6.333827495574951
					-20	-0.6401834559977522	3.540179005876575	-20	1.851322770118713	4.961013317108154	10	-10	0	6.051163673400879	-6.831734180450439	0
					6.280885219573975	-10	0	-0.6128665804862976	-10	0	1.553369879722595	-6.454020977020264	0	-20	-10	0
					-17.07083846379535	-5.229090974425217	0	-8.326891899108887	-10	0	-11.85205364227295	-6.387950420379639	0	-16.97771453857422	-10	0
					-12.5418062210083	-10	3.68277907371521	-11.22405338287354	-10	0	10	10	0	6.274755459217182	6.311075021226565	0
					5.525126457214355	10	0	1.124913573265076	10	0	3.033475559118193	7.727878669160644	0	6.875	7.125	14.625
					2.125583642183925	7.118287826526077	14.98838459506259	0.7841534614562988	10	20	-14.99736404418945	6.497532367706299	0	-11.81916046142578	7.126478672027588	0
					-20	10	16.02075576782227	-17.04509200545253	7.607623963023642	13.96937130051221	-12.27667055300654	7.062153591697093	14.76533855019346	-16.46754837036133	10	20
					-10.40367889404297	6.589850425720215	20	-8.442468134736975	10	12.24550685060601	-8.967548370361328	10	20	-20	10	12.05893421173096
					-9.841781616210938	10	2.693759918212891	-13.00328731536865	10	0	-20	10	3.93653678894043	-16.50164413452148	10	0
					-14.83069072742631	3.9230524915595	10	-16.54650159257858	6.467219569298314	5.021310592841187	-16.78061306376936	7.417358490012004	10.06383716501147	-20	10	7.91784143447876
					-11.83093255731827	5.102623274792723	10	-11.86766870554682	7.380961332626455	5.186630423375526	-9.591691017150879	10	7.283824443817139	-15.92270374298096	10	15.68014144897461
					-14.76423454284668	10	4.647054195404053	-20	10	0	-20	6.116655826568604	0	-2.107923269271851	10	20
					-4.457089900970459	10	14.20405960083008	-7.331148923652603	7.653572245554082	14.36139448223685	-2.694610270604663	7.402718032186245	14.39045689490913	-4.683860724285227	5.066446560526722	16.99946899475971
					-7.152908802032471	10	16.53751564025879	-1.252204298973083	10	16.93770027160645	-6.204536914825439	5.744769096374512	20	-2.09284782409668	7.494810581207275	20
					-5	10	20	-0.4110061824321747	10	12.83469772338867	10	4.460089206695557	15.55993843078613	10	10	20
					6.634404182434082	6.520061492919922	20	10	10	16.40961456298828	10	10	12.78145122528076	-6.850967407226562	10	0
					-0.7701387405395508	6.070328235626221	0	-8.907914161682129	6.162669658660889	0	-5	5	0	-10.08462238311768	10	0
					0.8097023963928223	10	3.034948348999023	-0.1599157133999585	4.401852345064196	6.279522440320344	-2.842285836169104	7.610599123676105	5.571854550709215	1.773782634741706	7.395836436219783	5.334448500499054
					-0.25	0	2.75	2.162310838699341	2.677347660064697	0	-2.625	2.375	5.125	-5	4.75	2.75
					-3.034684419631958	1.757496237754822	0	10	10	4.493549346923828	3.979787774276048	4.335811656561084	10	10	10	8.944769859313965
					-0.848290741443634	5.685429573059082	10	0.2189625054597855	10	7.855678081512451	5.209271164531331	10	11.75226754937872	10	5.868676662445068	0
					-5.832253932952881	-2.277138471603394	0	-5	-6	0	-1.097282648086548	-2.771677494049072	0	-7.573779582977295	1.879743099212646	0
					-14.330153465271	-1.31411600112915	0	-12.10859966278076	2.96744179725647	0	-14.5	0	2.75	-20	-1.76874328713539	0
					-16.57268714904785	2.750137329101562	0	-18	0	0	-9.75	0	2.75	-15.79783355924616	-3.906103508436568	2.3590179572849
					-11.31910133751639	-1.725581985875889	4.576993178424471	-5	-4.75	2.75	-7.642890453338623	-6.167165756225586	0	-9.422802925109863	-10	3.041520595550537
					-20	-6.492098027256404	0	-20	-10	3.309376210129853	4.5	0	2.75	7.691259860992432	-3.339516162872314	0
					6.160296854229791	3.077772620856884	0	8	0	0	4.450113773345947	-2.041820049285889	0	4.5	-4.75	2.75
					-1.888225197792053	-7.045140266418457	0	-2.625	-7.125	5.125	-5.432077884674072	-10	4.192616939544678	10	-5.936059474945068	0
					10	-10	3.567758321762085	-2.140042781829834	3.772351026535034	20	-2.625	2.375	14.625	-9.851793097301167	4.840443220611572	16.93392232807679
					-0.5905379800091159	5.706007012680721	17.27751220664802	-20	1.270667314529419	2.227562189102173	-20	2.232609033584595	0	-14.5043367636522	4.746357458329916	2.650247094288143
					-16.68785618740657	2.331774983653659	5.380979120334788	-20	6.595645056712062	7.193233496902765	-20	5.463783740997314	14.73514842987061	-15.2367019928854	3.75069810874193	13.67285370516452
					-16.72053235884083	2.591476977749184	9.999999999999998	-16.8993644098994	-2.352936050151182	4.528593446182855	-12.125	2.375	5.125	4.607574014432584	4.134932727550748	12.75742483451075
					6.660768211489769	2.648284880989839	9.999999999999998	10	5.313294711755187	7.551409404407518	10	-0.3159707014820171	3.161375695936621	10	1.867955987204162	0
					6.840989186199501	2.44894390828861	5.16905303413933	6.412996215363425	-2.600706077281738	5.639880953049476	0.7036251425743103	1.422886252403259	10	10	-6.951382637023926	4.218895435333252
					10	-1.87255859375	0	-0.8280684351921082	-10	2.622761487960815	2.622630834579468	-10	0	0.3716573715209961	-0.4430972635746002	20
					-0.25	-4.75	17	-4.877655029296875	0.6482930779457092	20	-1.345600128173828	-10	20	-3.709712505340576	-4.872117042541504	20
					4.804481408007621	-4.28061918557616	12.54483477604229	1.977908512189549	-1.589790487730201	10	2.735139128070486	-10	11.81824888272911	-0.4645124121711095	-4.750804705619998	7.485995558704363
					-1.452535390853882	-5.77194881439209	10	1.272041626111202	-5.25329138311239	9.999999999999998	-0.25	0	12.25	2.125	-2.375	14.625
					-1.659992218017578	-2.488266468048096	10	-5	-4.75	12.25	-2.623003722723475	-2.373003722723475	13.42632343468279	-2.625	-7.125	14.625
					10	-5.682228565216064	13.57504463195801	10	-10	20	10	0	20	4.956797983429666	-3.392412756382854	20
					4.5	0	12.25	6.73536385555956	-2.659198965935955	14.18203383593349	6.875	2.375	14.625	10	-1.007492303848267	15.61367702484131
					2.086927215722587	2.403220967406102	13.79235038652362	-0.158707667812692	0.141004812290943	17.23028182534051	4.563458268739655	4.418138682056253	17.09900854235313	5.685362339019775	2.07647442817688	20
					2.089202642440796	5.631514549255371	20	10	-10	11.62204360961914	4.563060254785532	-4.062467890256604	9.999999999999998	7.893938160111253	-7.630562881320611	9.853944069368081
					7.453080090940407	-6.66939907093074	6.675566586266958	10	-10	7.14501428604126	2.125	-7.125	5.125	-0.4516690373420715	-10	7.637955665588379
					3.337546348571777	-10	3.968703031539917	7.007247924804688	-10	4.708295822143555	10	1.839352369308472	12.76122570037842	6.695496182247572	-2.615274774250679	10
					10	-5.183601379394531	7.014686107635498	-5	-10	20	-11.23279190063477	-2.869784593582153	20	-9.75	-4.75	17
					-7.557944297790527	-2.248668909072876	20	-8.956466674804688	-10	20	-7.96506929397583	-6.124561786651611	20	-2.519878149032593	-10	12.354905128479
					-7.375	-7.125	14.625	-4.958849696816327	-3.720346175029123	17.38399564884349	-14.5	-4.75	12.25	-10.82657909393311	-1.435200214385986	10
					-12.30764293670654	-10	11.78593158721924	-9.758904214701097	-5.053265402883236	7.696323527881051	-9.254358291625977	-5.668798446655273	10	-9.75	0	12.25
					-12.125	-2.375	14.625	-6.401674270629883	-1.87459659576416	10	-7.375	-2.375	14.625	-20	-10	20
					-20	-5.602235664442238	16.58787970728139	-20	0	20	-16.1713877260931	-4.58170944106004	20	-14.20591965839938	0.1662127362170071	12.46629656402118
					-16.50241037017122	-2.353762395207902	14.6741305883281	-16.83006992423789	2.583883346599832	14.71088858795402	-20	0.3242034333785493	16.13405087149685	-12.125	2.375	14.625
					-9.561438395794141	-0.1932096601283468	17.01831007339378	-14.39252457280351	4.917196504238048	16.94212117927009	-15.41316932708167	1.131849026586164	20	-9.886832237243652	1.993554949760437	20
					-20	-10	12.89457035064697	-13.9147423027826	-4.364317477642734	10	-17.8449415289212	-7.028992917559288	5.380704460562752	-16.875	-7.125	9.875
					-20	-10	8.248797416687012	-12.2553935196266	-6.971821336738601	5.276164257330367	-9.528562545776367	-10	7.357528209686279	-16.05571821741481	-10	3.016061842483776
					-20	-1.752953886985779	12.65622806549072	-16.55153762073792	-2.752112242455218	10	-20	-6.938681169675913	6.365465824913851	-20	10	20
					-9.75	4.75	7.5	-7.295896196067302	6.796016863049456	5.428841449126312	-8.121445078700075	5.823130006067081	10	-4.630979907018575	5.992332601577754	9.999999999999998
					-4.695627689361572	10	4.296627998352051	-0.1991695944070055	5.113053834380091	12.24792690324931	-9.7113898394204	4.540001462306336	12.67782068604125	-9.75	4.75	2.75
					-20	-5.711223261305088	11.85167703564031	-14.68370723724365	-10	7.705070018768311	-14.35582798619816	0.2137906507669607	17.22668096449092	-20	-5	20
					-9.364659044897918	-5.272334010823989	12.51208416455953	-4.275309085845947	-10	16.27210807800293	5.436019897460938	-10	8.88154125213623	4.5	0	17
					10	-5.524994057401457	20	0.4889598842804407	-4.830938147071429	12.97166299846069	-5.034673690795898	-10	8.77369499206543	10	-3.645519256591797	3.347800016403198
					4.480537127390229	-0.08492932269080199	7.476761903238084	10	4.041769504547119	3.560322761535645	10	5.586045742034912	11.18190765380859	-14.48959434958351	-0.3998980289616796	7.37506798805092
					-20	5.93789649064646	11.73220789106893	-20	4.248116970062256	2.950624704360962	-5.162753866307744	0.3153939176594658	17.27400234030556	-4.247288703918457	-10	0
					-0.25	-4.75	2.75	-9.75	-4.75	2.75	5.326545715332031	10	6.004919052124023	-0.25	4.75	2.75
					10	5	20	-3.994025468826294	10	17.53585433959961	-13.71702628555923	10	11.14637174937739	-20	5	20
					-12.89309406280518	10	20	5.39207649230957	10	20	-12.83901500701904	-10	20	-5	0	7.5
					-17.36250019073486	-10	11.19019079208374	3.447499990463256	-10	17.00624990463257	-13.95543146133423	-10	0	-11.7223482131958	10	15.30374526977539
					-5.055542945861816	10	9.208185195922852	-2.558072946965694	10	0	2.731193542480469	10	17.04726934432983	-10.56179308891296	-2.337904691696167	0
					10	-7.711653709411621	10.02036809921265	-7.241180658340454	-10	12.32546806335449	-13.87473583221436	5.325737595558167	20	-20	-3.680220707815831	5.178090953102171
									</DataArray>
			</Points>
			<Cells>
				<DataArray type="Int32" Name="connectivity" NumberOfComponents="1" format="ascii">
					160	31	317	158	190	2	311	160	45	31	327	2	158	2	45	190	2	158	31
					160	2	158	160	190	158	2	31	45	184	190	311	154	156	183	313	184	153	190
					295	183	154	183	153	156	183	154	190	184	183	154	184	156	154	183	190	153	159
					157	154	152	339	159	155	189	335	74	317	159	154	159	160	189	189	157	154	159
					154	159	152	160	154	189	184	64	184	181	313	156	157	189	155	159	154	189	64
					157	154	181	156	157	190	160	311	154	153	158	295	190	335	159	317	160	154	158
					152	153	158	154	160	190	158	154	190	153	154	158	160	152	339	164	72	278	273
					90	107	324	271	90	294	187	187	267	271	298	187	273	89	269	273	187	90	271
					187	298	271	273	187	273	90	89	311	38	18	20	21	35	18	20	18	38	36
					21	12	43	294	259	255	2	311	12	261	43	327	2	255	43	259	261	43	255
					2	261	12	43	259	255	43	12	2	255	311	285	18	38	268	254	296	285	260
					255	300	254	267	254	260	268	255	254	267	17	0	285	18	17	267	254	255	260
					187	298	273	269	269	188	267	0	12	271	294	187	100	187	188	267	187	267	298
					269	269	188	187	267	267	187	271	12	268	269	298	267	17	0	267	188	270	0
					268	284	284	0	268	285	269	312	187	188	100	17	188	311	260	259	300	255	271
					12	294	259	267	259	271	260	259	267	12	255	259	267	255	260	267	259	12	271
					264	46	47	50	323	88	107	89	51	266	298	268	266	50	264	47	266	47	264
					268	266	47	268	51	269	89	312	186	274	273	298	269	273	324	92	90	89	323
					186	273	273	186	89	269	323	269	273	274	323	107	273	89	323	269	186	273	266
					274	298	270	270	269	0	16	270	269	268	0	270	264	268	266	274	269	298	270
					323	270	269	274	328	256	279	47	277	300	255	254	254	256	279	277	51	49	326
					48	300	277	258	256	256	300	254	49	256	49	47	48	38	311	184	20	37	184
					19	38	339	36	285	38	286	285	278	339	160	2	311	255	31	261	327	2	257
					2	31	160	2	257	261	255	2	257	255	160	257	2	261	31	189	160	311	277
					281	160	317	159	281	189	160	159	281	189	277	160	281	278	277	189	281	278	189
					159	285	254	296	279	256	300	277	254	277	17	255	311	297	277	281	278	254	277
					279	285	277	300	258	255	256	49	254	47	285	286	279	296	286	279	278	285	285
					277	279	278	285	277	278	189	160	255	311	277	281	257	317	160	258	261	257	255
					257	282	297	281	257	277	255	160	257	277	258	255	257	281	277	160	283	278	72
					164	283	281	278	297	283	278	164	165	72	159	278	283	280	286	279	278	339	72
					155	159	328	47	296	276	328	47	279	296	105	87	295	183	102	108	322	105	183
					108	86	101	108	183	87	105	108	183	105	101	183	108	87	86	19	184	185	188
					184	19	38	20	190	45	295	288	12	2	311	190	43	45	327	2	288	2	43
					12	2	288	45	190	2	288	190	12	288	2	45	43	100	187	267	12	322	100
					104	187	104	12	294	187	102	312	100	187	100	267	17	12	100	312	102	185	100
					187	12	104	322	105	104	100	184	183	313	101	190	105	295	183	190	101	184	100
					190	183	184	101	190	101	100	105	190	183	101	105	102	101	105	100	184	185	188
					100	100	185	102	101	100	312	185	188	184	185	100	101	12	190	311	100	43	104
					288	12	105	190	295	288	190	104	100	12	104	190	288	12	105	190	288	104	190
					105	100	104	101	108	86	99	101	99	110	98	322	90	107	89	102	108	105	101
					185	103	102	101	185	184	313	101	172	70	316	201	173	34	316	161	13	173	9
					3	31	34	327	3	161	3	31	9	3	161	34	173	3	161	173	9	161	3
					34	31	162	9	317	163	174	163	9	162	173	172	316	201	174	201	172	173	9
					173	306	174	162	161	317	9	172	173	316	161	161	174	173	9	161	174	9	162
					174	161	173	172	337	49	52	252	337	300	256	49	217	258	337	300	13	9	306
					258	216	261	327	3	13	216	217	212	216	13	3	212	261	216	217	13	216	261
					3	13	251	59	305	219	251	59	210	305	217	258	13	337	337	217	300	252	13
					239	173	212	217	261	258	300	251	217	252	219	217	251	13	212	212	251	219	217
					337	251	13	217	213	209	305	208	210	235	302	234	213	216	305	209	13	212	173
					3	34	216	327	3	211	3	34	173	3	211	216	212	3	211	212	173	211	3
					216	34	238	173	316	201	239	201	173	238	210	55	208	59	212	213	305	210	239
					210	213	212	13	239	306	173	238	211	316	173	213	212	305	216	239	211	213	238
					211	239	212	173	211	239	173	238	239	211	212	213	281	74	317	163	76	163	74
					281	9	31	317	257	258	337	306	13	261	31	327	3	258	306	282	9	3	257
					31	9	258	3	257	261	257	3	31	261	13	251	239	212	337	300	49	252	9
					281	317	163	282	163	281	9	13	173	306	9	217	261	13	258	281	9	317	257
					257	297	277	281	258	9	257	3	258	282	257	9	282	257	9	281	114	84	293
					121	334	117	84	180	117	121	84	114	144	114	14	293	291	289	134	32	43	33
					327	32	291	43	14	290	43	291	32	290	33	43	14	291	43	33	32	291	113
					290	294	93	291	93	113	112	144	14	291	33	112	121	114	291	291	93	290	113
					113	14	294	290	144	121	114	293	290	93	291	332	113	291	114	14	113	291	112
					114	129	87	295	96	289	45	295	139	134	289	291	332	138	45	327	32	139	32
					138	134	32	139	45	289	32	139	289	134	139	32	45	138	128	134	319	132	139
					292	134	333	289	129	295	96	127	96	129	289	139	289	134	292	128	139	319	134
					129	289	295	139	127	139	289	129	135	82	319	132	82	318	132	135	134	138	319
					133	33	138	327	32	332	144	291	134	32	133	138	134	144	32	133	33	133	32
					138	33	144	114	291	14	332	121	291	144	82	8	318	135	134	135	319	132	333
					128	132	134	145	132	135	134	144	121	291	114	135	134	319	133	144	135	145	142
					144	134	133	32	144	134	135	133	144	135	142	133	104	90	294	93	322	89	95
					102	104	43	294	12	290	332	291	289	45	43	327	32	288	32	45	289	32	288
					43	290	32	288	290	289	288	32	43	45	105	289	295	96	106	96	289	105	290
					104	294	93	106	93	104	290	290	332	289	106	105	288	295	289	104	290	294	43
					106	288	104	105	288	106	290	289	288	106	289	105	106	288	290	104	228	84	293
					180	229	180	232	230	230	325	124	83	84	232	180	230	230	180	84	228	229	230
					303	228	178	33	293	214	218	4	314	178	261	33	327	43	214	4	216	218	4
					214	33	178	4	214	178	218	214	4	33	216	253	204	218	229	229	253	207	205
					215	218	305	204	229	215	303	57	253	229	314	205	229	204	218	215	230	231	203
					303	178	228	293	180	229	180	178	177	229	180	230	228	180	229	232	177	229	180
					228	178	230	203	232	229	218	178	314	229	215	214	305	218	228	178	293	214	229
					214	228	215	214	229	178	218	214	229	218	215	229	214	178	228	230	203	229	303
					334	230	325	232	203	57	303	223	222	226	303	231	334	83	325	230	55	54	304
					58	329	61	62	59	113	90	294	179	118	116	321	113	179	116	92	118	116	179
					90	113	116	179	113	118	179	116	90	92	11	43	294	14	178	4	314	11	216
					261	4	33	14	4	33	178	4	14	43	11	4	14	11	178	14	4	43	33
					177	178	314	115	114	178	293	180	115	180	114	119	180	115	178	177	180	115	177
					119	115	180	178	114	118	113	321	115	11	113	294	179	314	179	272	275	179	115
					113	118	115	179	113	11	119	321	115	118	178	11	314	115	114	14	293	178	113
					11	294	14	115	14	113	114	14	115	11	178	14	115	178	114	115	14	11	113
					150	34	316	136	138	34	327	44	136	44	138	140	44	136	34	150	44	136	150
					140	136	44	34	138	137	136	319	140	170	150	316	136	260	49	300	247	246	51
					298	260	49	326	53	51	247	51	53	246	51	247	49	260	51	247	260	246	247
					51	49	53	262	261	300	259	11	4	314	262	33	261	4	43	259	4	43	11
					4	259	261	262	4	259	262	11	259	4	261	43	314	11	272	179	271	11	294
					179	179	272	298	271	314	11	179	115	115	275	118	179	272	179	11	271	246	260
					298	272	262	260	300	247	272	247	262	248	247	272	260	246	247	272	246	248	272
					247	260	262	275	246	298	272	275	314	115	205	11	262	314	272	271	259	294	11
					260	262	300	259	272	259	260	271	259	272	262	11	259	272	11	271	272	259	262
					260	51	246	298	266	51	48	50	47	51	49	48	47	274	275	298	273	273	90
					89	107	219	59	305	204	207	61	301	219	204	61	62	207	61	204	59	219	61
					204	219	207	204	61	59	62	212	218	216	217	262	4	314	218	261	216	327	33
					217	4	261	262	4	217	216	218	4	217	218	262	217	4	216	261	248	262	314
					253	252	262	300	247	253	247	252	250	247	253	262	248	247	253	248	250	253	247
					262	252	207	219	301	253	218	219	305	204	229	253	204	207	204	253	219	207	229
					207	204	203	253	204	219	218	250	301	253	207	262	218	314	253	252	217	300	262
					212	219	218	217	253	217	219	252	217	253	218	262	217	253	262	252	253	217	218
					219	140	138	319	139	45	138	327	44	139	44	45	151	44	139	138	140	139	140
					44	151	139	44	138	45	129	139	295	151	333	134	139	128	29	27	192	28	27
					29	30	28	30	24	29	63	30	26	24	23	30	24	42	29	26	28	25	30
					30	26	42	24	28	42	192	29	25	41	26	225	42	30	29	28	25	28	26
					41	41	192	28	42	39	26	243	42	41	42	39	40	28	41	42	26	41	42
					26	39	18	20	38	21	21	20	38	19	36	285	38	18	0	269	35	16	0
					18	188	17	284	18	35	0	0	18	35	188	26	30	25	23	192	27	310	28
					198	40	224	209	209	40	224	39	39	42	243	24	40	39	308	42	255	17	267
					12	100	267	188	17	17	188	311	18	242	28	226	310	192	308	196	29	39	24
					243	197	196	308	197	24	40	198	308	209	308	192	42	29	41	224	226	191	39
					208	209	234	208	225	243	39	41	25	227	225	41	303	226	224	41	191	192	40
					41	191	226	192	41	224	191	40	25	28	41	242	243	39	225	26	41	26	225
					39	42	39	308	24	24	244	197	15	244	197	243	24	27	192	193	29	196	193
					192	29	19	21	20	35	285	311	189	38	38	311	189	184	37	189	184	38	17
					255	311	12	254	17	255	277	0	267	268	254	184	188	311	100	268	269	267	0
					0	254	285	17	0	254	268	285	0	267	254	17	284	35	16	0	269	188	0
					35	284	18	21	35	37	38	339	189	339	285	278	189	18	188	311	20	49	326
					52	53	334	180	84	232	64	157	189	155	266	50	47	51	257	297	258	277	210
					235	55	56	26	24	23	22	26	243	42	24	19	35	20	188	192	142	308	40
					39	197	243	234	285	277	311	17	329	59	55	56	331	116	92	90	184	37	64
					189	35	16	269	312	198	214	293	33	226	224	303	228	197	39	308	234	228	224
					303	215	226	122	310	83	225	227	303	223	168	5	309	79	196	166	308	6	197
					166	308	196	236	171	307	67	197	234	308	10	24	39	308	197	235	237	302	236
					7	191	310	83	6	133	319	138	7	8	142	135	126	7	310	83	8	141	309
					79	17	254	285	277	20	188	311	184	101	110	86	313	9	161	317	31	212	251
					305	219	238	239	302	213	332	144	134	145	33	144	293	198	7	135	142	145	218
					214	305	216	205	229	314	177	119	115	321	114	11	259	294	43	179	298	273	271
					84	228	293	191	230	226	303	228	230	191	83	226	191	230	84	228	191	230	228
					226	230	191	84	83	213	208	210	234	82	135	319	5	82	8	5	79	82	135
					5	8	82	8	80	318	51	268	298	260	51	254	47	268	254	51	49	260	254
					51	260	268	51	254	49	47	283	74	159	281	322	90	187	104	102	312	187	89
					201	240	70	238	146	293	191	84	334	84	146	83	96	108	87	105	59	215	305
					204	229	57	203	204	204	57	59	215	117	180	85	119	180	117	114	119	273	179
					92	275	179	298	275	273	52	247	53	250	52	247	49	53	151	45	295	158	158
					44	31	148	44	158	151	148	335	148	158	317	148	31	317	161	34	31	327	44
					161	44	34	150	44	161	31	148	44	161	148	150	161	44	31	34	149	174	172
					161	215	59	305	208	225	57	303	215	57	58	329	55	57	208	59	215	57	208
					215	225	216	198	1	33	209	216	214	198	216	209	1	198	226	191	310	192	198
					293	191	142	224	191	228	226	198	191	228	224	198	191	40	142	225	215	303	224
					208	224	215	225	225	208	224	39	224	208	215	209	225	22	243	26	41	227	242
					226	224	41	225	39	214	224	198	228	224	214	209	215	304	57	225	55	325	83
					125	124	122	125	83	124	304	55	225	220	57	225	303	223	304	57	223	225	226
					230	303	231	122	230	83	226	230	122	231	226	122	230	124	83	304	225	223	227
					222	303	227	223	137	82	319	5	196	24	63	29	196	24	197	15	196	15	197
					194	6	138	319	136	10	1	308	6	136	1	34	10	1	136	138	6	1	136
					6	10	136	1	138	34	197	10	308	166	167	171	307	197	170	10	316	171	171
					166	10	197	171	166	197	167	166	171	10	170	196	5	309	168	6	137	319	5
					166	5	6	196	5	166	137	168	5	166	168	196	166	5	137	6	197	194	307
					167	196	195	168	309	166	194	196	197	196	169	195	194	194	166	167	197	196	166
					169	194	10	6	308	166	170	136	316	10	137	6	319	136	166	136	137	170	136
					166	6	10	136	166	10	170	166	136	6	137	196	166	168	169	238	70	316	171
					236	240	302	238	171	240	67	236	240	171	70	238	240	171	238	236	171	240	70
					67	196	24	15	63	10	34	316	211	209	1	308	10	211	1	216	209	1	211
					34	10	1	211	10	209	211	1	34	216	235	208	22	243	39	234	209	308	208
					234	243	235	238	234	213	302	197	171	307	236	10	238	316	171	238	197	236	171
					238	197	234	236	238	10	234	197	238	10	197	171	302	236	238	234	22	235	243
					244	243	236	235	234	243	244	235	236	209	10	308	234	213	10	234	238	10	213
					211	238	209	10	234	213	10	209	211	213	220	208	225	22	67	307	236	199	235
					220	55	233	241	67	199	176	241	240	236	67	244	237	235	236	241	199	236	237
					241	67	236	199	198	293	228	191	293	142	144	146	191	146	83	7	146	121	293
					84	7	145	142	146	191	146	84	83	6	1	308	198	133	1	138	6	1	133
					33	198	1	133	198	6	133	1	33	138	196	6	308	142	8	5	309	196	135
					6	319	5	142	5	135	8	5	142	6	196	5	142	196	8	142	5	6	135
					142	146	145	144	192	191	310	7	293	142	146	191	142	191	7	146	191	142	7
					192	293	198	144	142	7	8	135	318	196	193	309	8	196	142	7	8	196	7
					192	193	196	7	193	8	196	142	192	7	6	198	308	142	135	133	319	6	144
					33	133	198	144	134	145	135	133	142	198	6	146	126	83	7	141	80	79	8
					7	8	318	143	193	143	8	7	335	160	158	152	154	64	184	181	212	218	305
					216	212	219	305	218	339	159	189	278	154	181	184	156	100	17	311	12	269	312
					188	35	13	9	258	3	291	113	290	14	18	36	285	284	335	160	317	158	337
					251	217	252	55	225	208	57	55	225	220	208	210	234	302	213	154	64	181	157
					144	14	33	293	144	32	33	291	258	3	261	13	19	35	188	312	41	192	226
					28	26	28	30	42	25	28	27	30	284	285	18	0	339	72	159	278	296	268
					264	47	337	258	256	300	335	159	160	152	329	62	57	59	5	8	309	79	150
					161	316	34	152	154	153	156	182	156	313	181	64	65	184	181	157	181	156	182
					157	182	155	181	156	313	86	110	88	323	91	287	89	88	186	323	296	268	284
					264	274	266	298	246	299	266	270	265	323	270	274	265	285	284	36	296	16	35
					21	312	299	266	264	270	270	264	284	268	328	256	47	48	280	286	278	165	283
					164	75	165	75	165	164	71	283	74	330	72	328	296	280	276	48	50	47	46
					276	47	46	48	51	48	326	50	165	286	278	164	165	278	280	297	296	279	280
					286	99	97	108	86	19	21	35	312	188	19	312	185	99	98	109	110	95	186
					89	88	95	312	89	186	323	88	91	107	98	103	101	108	101	108	99	98	95
					102	103	322	322	89	107	95	107	95	89	88	95	185	102	312	98	185	101	103
					95	103	102	185	69	201	70	172	201	69	70	202	174	163	162	73	282	174	9
					306	201	315	172	69	201	174	172	315	174	315	162	149	337	252	301	251	13	251
					306	239	251	61	210	59	337	252	52	301	329	59	210	61	329	59	56	210	239
					174	173	201	239	306	173	174	239	210	212	251	302	213	239	210	163	76	74	77
					337	13	251	306	258	337	282	306	256	328	279	297	282	76	281	163	282	163	9
					174	282	297	281	76	121	112	114	117	291	332	93	112	290	93	332	106	117	112
					114	321	331	116	94	92	334	84	117	121	331	90	324	107	96	127	129	131	131
					96	87	129	96	131	87	97	132	292	134	145	139	292	333	127	333	139	127	130
					332	291	121	112	132	145	135	318	134	332	145	292	292	96	289	106	322	331	90
					93	322	104	106	93	229	207	203	205	203	177	229	205	232	177	229	203	325	232
					230	124	223	60	57	58	223	62	57	60	222	122	227	226	223	203	57	62	115
					275	205	118	118	177	115	119	94	120	118	116	331	92	94	324	116	94	92	118
					119	117	321	111	119	85	117	111	321	119	120	118	118	205	115	177	119	111	321
					120	150	70	316	172	151	140	44	148	150	170	316	70	150	137	136	170	150	140
					136	137	246	248	272	275	266	53	51	246	338	273	323	91	266	326	51	53	264
					266	299	50	273	107	91	324	338	273	91	324	274	275	273	338	274	266	265	270
					323	270	186	269	329	61	60	62	250	207	253	248	61	206	62	207	61	206	60
					62	249	52	53	250	245	52	250	301	249	52	326	53	301	250	245	207	206	245
					207	301	245	249	250	52	128	137	319	140	129	151	295	153	140	139	130	151	139
					140	130	128	139	129	130	151	128	82	319	137	25	28	242	27	26	23	25	22
					30	63	27	23	18	36	284	21	37	36	339	38	38	19	37	21	38	21	37
					36	22	23	244	24	193	310	192	27	37	184	65	19	285	286	296	36	286	285
					339	36	52	48	49	256	170	169	166	167	148	140	44	150	72	157	159	152	72
					152	159	74	339	164	155	72	339	278	286	164	248	207	253	205	338	273	274	323
					124	232	230	231	310	122	226	242	122	227	226	242	244	307	197	15	186	312	269
					16	270	186	269	16	270	0	284	16	189	339	37	64	308	192	40	42	220	336
					235	22	307	194	197	15	10	136	316	34	168	166	137	170	168	166	170	169	169
					166	167	194	212	213	211	216	210	235	56	302	241	199	237	176	193	196	309	63
					7	135	145	318	40	308	198	142	192	142	196	308	146	143	7	318	181	184	313
					65	190	158	295	45	189	154	311	160	184	154	311	189	152	154	156	157	156	313
					110	182	269	187	312	89	255	259	300	261	268	267	298	260	311	285	17	18	260
					267	298	271	284	285	268	296	266	50	51	326	268	270	298	269	266	270	298	268
					279	254	296	47	339	285	189	38	160	257	317	31	277	297	279	278	285	277	189
					311	256	47	254	279	278	280	297	279	165	278	297	283	101	183	313	86	20	18
					188	35	290	104	288	43	102	187	100	322	184	100	311	190	101	99	86	110	102
					95	312	89	102	103	322	108	174	149	162	161	219	251	301	252	173	211	316	34
					261	258	300	255	257	282	258	297	290	14	294	43	113	112	321	114	134	139	319
					138	127	96	289	292	139	130	129	127	289	288	295	45	105	106	322	104	119	177
					180	232	229	215	57	204	177	229	314	178	215	229	303	228	231	303	223	203	275
					248	314	205	178	14	293	33	314	179	275	115	177	115	314	205	114	115	321	113
					116	120	118	321	140	136	319	138	250	248	247	246	248	272	314	262	275	248	272
					314	271	272	298	260	262	217	300	261	250	253	301	252	253	229	218	314	248	253
					314	205	252	253	301	219	206	301	207	61	151	139	295	45	320	125	124	123	125
					123	325	124	334	180	232	85	25	23	30	27	70	170	316	171	170	67	171	70
					167	67	171	170	329	55	58	56	210	55	59	56	210	208	235	234	208	210	59
					305	210	235	208	55	82	318	80	132	82	8	79	80	87	153	295	183	153	86
					183	87	156	86	183	153	49	260	300	254	74	281	317	159	283	159	278	281	283
					74	72	159	283	74	281	76	283	281	297	76	283	330	74	76	90	104	294	187
					102	103	108	101	323	107	91	273	100	188	187	312	322	105	100	102	74	162	317
					163	163	73	74	162	174	73	162	315	73	163	74	77	251	61	59	219	251	305
					210	212	251	61	219	301	70	238	316	201	302	239	238	240	67	202	240	70	240
					239	238	201	240	201	70	202	326	48	49	52	256	258	282	297	90	113	294	93
					321	112	113	116	93	116	90	113	116	112	113	93	322	331	107	90	82	128	319
					132	132	80	82	81	132	81	82	128	139	289	292	127	146	121	144	293	334	84
					121	146	146	145	144	121	87	105	295	96	322	106	105	108	86	97	108	87	108
					106	105	96	108	96	87	97	57	204	62	203	229	57	303	203	57	204	59	62
					84	114	293	180	117	119	321	114	180	117	84	114	140	139	319	128	90	271	294
					179	179	272	275	298	179	273	90	271	273	179	90	92	49	252	300	247	52	250
					301	252	247	52	49	252	247	52	252	250	57	58	60	329	264	50	263	46	31
					45	327	44	44	158	45	151	158	44	45	31	129	153	295	87	153	151	295	158
					335	158	151	153	335	158	148	151	335	317	162	148	335	317	74	162	172	161	316
					150	162	148	317	161	161	149	148	150	161	149	150	172	149	161	148	162	304	58
					223	57	208	57	59	55	308	29	42	24	30	63	29	27	26	243	24	22	30
					24	63	23	209	216	305	214	198	1	308	209	33	216	327	1	198	216	214	33
					142	40	192	191	41	192	42	40	243	208	22	225	209	215	305	208	208	209	224
					39	41	227	226	303	310	226	192	28	40	41	224	39	242	41	226	28	40	209
					308	39	228	214	293	198	215	209	305	214	224	214	215	228	214	224	209	198	54
					304	58	221	55	54	220	304	126	122	83	310	329	62	60	57	304	225	227	220
					231	124	320	122	230	122	124	231	41	303	224	225	28	242	27	310	41	25	242
					227	41	227	303	225	222	226	227	303	230	231	232	203	304	227	223	222	225	220
					22	25	304	58	57	55	220	227	25	225	222	122	226	231	222	122	231	320	137
					79	5	168	82	79	5	137	63	196	309	194	34	138	327	1	166	171	170	167
					167	175	307	67	168	309	195	147	167	194	307	200	196	169	168	195	194	169	195
					200	194	169	200	167	167	200	307	175	168	309	147	79	68	202	240	67	243	22
					244	24	24	15	63	23	196	15	194	63	24	244	15	23	216	34	327	1	208
					39	243	234	213	209	208	234	236	302	235	234	213	208	305	210	197	236	307	244
					243	236	234	197	243	244	236	197	216	213	211	209	238	10	316	211	233	220	55
					54	56	54	55	58	176	66	67	175	176	66	68	67	233	235	237	302	233	56
					55	235	233	235	302	56	56	233	55	54	67	199	176	175	241	240	302	236	241
					67	176	68	241	240	67	68	236	199	307	244	22	235	244	336	244	237	336	235
					241	236	302	237	67	307	199	175	334	83	146	125	196	308	24	29	29	63	196
					193	63	29	27	193	144	134	32	291	138	33	327	1	198	191	224	40	192	7
					310	193	133	142	144	198	133	135	142	6	146	125	83	126	126	125	83	122	147
					79	309	141	78	141	79	147	126	143	7	146	334	83	125	325	334	230	232	84
					143	141	8	318	318	141	8	80	80	141	79	78	141	193	8	309	310	7	126
					143	310	7	143	193	141	143	8	193	72	155	159	157	184	37	65	64	285	18
					17	277	285	17	13	258	261	255	261	258	255	277	17	255	258	277	243	39	42
					234	39	243	216	13	261	212	216	213	212	13	216	209	40	39	209	39	234	209
					234	213	209	213	216	198	209	216	198	40	209	192	42	40	100	12	17	12	255
					17	142	40	198	142	192	40	142	198	144	100	17	188	100	104	12	43	104	290
					43	261	255	43	255	12	43	12	104	43	290	291	33	144	198	33	198	216	33
					291	144	33	43	291	33	261	43	33	216	261	42	39	40	18	188	17	196	195
					309	194	289	332	292	106	284	35	21	16	101	110	313	98	283	72	330	75	334
					232	325	85	222	303	223	231	64	157	155	181	7	145	146	318	189	339	64	155
					275	298	246	274	338	92	273	324	338	92	275	273	264	50	299	263	264	276	296
					47	264	276	47	46	337	49	256	52	337	282	256	258	237	236	244	199	220	235
					208	22	336	233	235	237	185	101	313	98	19	184	188	20	19	65	185	184	185
					65	313	184	335	152	158	153	335	74	159	152	334	117	180	85	334	83	230	84
					333	139	130	128	333	134	132	292	333	81	132	128	289	32	291	290	332	121	144
					145	134	289	332	292	322	90	89	187	102	187	322	89	322	90	104	93	331	116
					90	93	331	92	324	90	283	164	72	75	330	77	74	76	57	329	59	55	256
					277	258	297	256	279	277	297	328	47	276	48	328	296	279	280	328	280	279	297
					122	125	124	320	191	226	310	83	26	25	225	22	171	167	307	67	235	220	233
					336	183	156	313	86	254	268	296	47	207	62	204	203	119	232	180	85	275	118
					179	92	250	246	247	53	148	158	317	31	315	174	172	149	220	235	55	208	
				</DataArray>
				<DataArray type="Int32" Name="offsets" NumberOfComponents="1" format="ascii">
					4	8	12	16	20	24	28	32	36	40	44	48	52	56	60	64	68	72	76
					80	84	88	92	96	100	104	108	112	116	120	124	128	132	136	140	144	148	152
					156	160	164	168	172	176	180	184	188	192	196	200	204	208	212	216	220	224	228
					232	236	240	244	248	252	256	260	264	268	272	276	280	284	288	292	296	300	304
					308	312	316	320	324	328	332	336	340	344	348	352	356	360	364	368	372	376	380
					384	388	392	396	400	404	408	412	416	420	424	428	432	436	440	444	448	452	456
					460	464	468	472	476	480	484	488	492	496	500	504	508	512	516	520	524	528	532
					536	540	544	548	552	556	560	564	568	572	576	580	584	588	592	596	600	604	608
					612	616	620	624	628	632	636	640	644	648	652	656	660	664	668	672	676	680	684
					688	692	696	700	704	708	712	716	720	724	728	732	736	740	744	748	752	756	760
					764	768	772	776	780	784	788	792	796	800	804	808	812	816	820	824	828	832	836
					840	844	848	852	856	860	864	868	872	876	880	884	888	892	896	900	904	908	912
					916	920	924	928	932	936	940	944	948	952	956	960	964	968	972	976	980	984	988
					992	996	1000	1004	1008	1012	1016	1020	1024	1028	1032	1036	1040	1044	1048	1052	1056	1060	1064
					1068	1072	1076	1080	1084	1088	1092	1096	1100	1104	1108	1112	1116	1120	1124	1128	1132	1136	1140
					1144	1148	1152	1156	1160	1164	1168	1172	1176	1180	1184	1188	1192	1196	1200	1204	1208	1212	1216
					1220	1224	1228	1232	1236	1240	1244	1248	1252	1256	1260	1264	1268	1272	1276	1280	1284	1288	1292
					1296	1300	1304	1308	1312	1316	1320	1324	1328	1332	1336	1340	1344	1348	1352	1356	1360	1364	1368
					1372	1376	1380	1384	1388	1392	1396	1400	1404	1408	1412	1416	1420	1424	1428	1432	1436	1440	1444
					1448	1452	1456	1460	1464	1468	1472	1476	1480	1484	1488	1492	1496	1500	1504	1508	1512	1516	1520
					1524	1528	1532	1536	1540	1544	1548	1552	1556	1560	1564	1568	1572	1576	1580	1584	1588	1592	1596
					1600	1604	1608	1612	1616	1620	1624	1628	1632	1636	1640	1644	1648	1652	1656	1660	1664	1668	1672
					1676	1680	1684	1688	1692	1696	1700	1704	1708	1712	1716	1720	1724	1728	1732	1736	1740	1744	1748
					1752	1756	1760	1764	1768	1772	1776	1780	1784	1788	1792	1796	1800	1804	1808	1812	1816	1820	1824
					1828	1832	1836	1840	1844	1848	1852	1856	1860	1864	1868	1872	1876	1880	1884	1888	1892	1896	1900
					1904	1908	1912	1916	1920	1924	1928	1932	1936	1940	1944	1948	1952	1956	1960	1964	1968	1972	1976
					1980	1984	1988	1992	1996	2000	2004	2008	2012	2016	2020	2024	2028	2032	2036	2040	2044	2048	2052
					2056	2060	2064	2068	2072	2076	2080	2084	2088	2092	2096	2100	2104	2108	2112	2116	2120	2124	2128
					2132	2136	2140	2144	2148	2152	2156	2160	2164	2168	2172	2176	2180	2184	2188	2192	2196	2200	2204
					2208	2212	2216	2220	2224	2228	2232	2236	2240	2244	2248	2252	2256	2260	2264	2268	2272	2276	2280
					2284	2288	2292	2296	2300	2304	2308	2312	2316	2320	2324	2328	2332	2336	2340	2344	2348	2352	2356
					2360	2364	2368	2372	2376	2380	2384	2388	2392	2396	2400	2404	2408	2412	2416	2420	2424	2428	2432
					2436	2440	2444	2448	2452	2456	2460	2464	2468	2472	2476	2480	2484	2488	2492	2496	2500	2504	2508
					2512	2516	2520	2524	2528	2532	2536	2540	2544	2548	2552	2556	2560	2564	2568	2572	2576	2580	2584
					2588	2592	2596	2600	2604	2608	2612	2616	2620	2624	2628	2632	2636	2640	2644	2648	2652	2656	2660
					2664	2668	2672	2676	2680	2684	2688	2692	2696	2700	2704	2708	2712	2716	2720	2724	2728	2732	2736
					2740	2744	2748	2752	2756	2760	2764	2768	2772	2776	2780	2784	2788	2792	2796	2800	2804	2808	2812
					2816	2820	2824	2828	2832	2836	2840	2844	2848	2852	2856	2860	2864	2868	2872	2876	2880	2884	2888
					2892	2896	2900	2904	2908	2912	2916	2920	2924	2928	2932	2936	2940	2944	2948	2952	2956	2960	2964
					2968	2972	2976	2980	2984	2988	2992	2996	3000	3004	3008	3012	3016	3020	3024	3028	3032	3036	3040
					3044	3048	3052	3056	3060	3064	3068	3072	3076	3080	3084	3088	3092	3096	3100	3104	3108	3112	3116
					3120	3124	3128	3132	3136	3140	3144	3148	3152	3156	3160	3164	3168	3172	3176	3180	3184	3188	3192
					3196	3200	3204	3208	3212	3216	3220	3224	3228	3232	3236	3240	3244	3248	3252	3256	3260	3264	3268
					3272	3276	3280	3284	3288	3292	3296	3300	3304	3308	3312	3316	3320	3324	3328	3332	3336	3340	3344
					3348	3352	3356	3360	3364	3368	3372	3376	3380	3384	3388	3392	3396	3400	3404	3408	3412	3416	3420
					3424	3428	3432	3436	3440	3444	3448	3452	3456	3460	3464	3468	3472	3476	3480	3484	3488	3492	3496
					3500	3504	3508	3512	3516	3520	3524	3528	3532	3536	3540	3544	3548	3552	3556	3560	3564	3568	3572
					3576	3580	3584	3588	3592	3596	3600	3604	3608	3612	3616	3620	3624	3628	3632	3636	3640	3644	3648
					3652	3656	3660	3664	3668	3672	3676	3680	3684	3688	3692	3696	3700	3704	3708	3712	3716	3720	3724
					3728	3732	3736	3740	3744	3748	3752	3756	3760	3764	3768	3772	3776	3780	3784	3788	3792	3796	3800
					3804	3808	3812	3816	3820	3824	3828	3832	3836	3840	3844	3848	3852	3856	3860	3864	3868	3872	3876
					3880	3884	3888	3892	3896	3900	3904	3908	3912	3916	3920	3924	3928	3932	3936	3940	3944	3948	3952
					3956	3960	3964	3968	3972	3976	3980	3984	3988	3992	3996	4000	4004	4008	4012	4016	4020	4024	4028
					4032	4036	4040	4044	4048	4052	4056	4060	4064	4068	4072	4076	4080	4084	4088	4092	4096	4100	4104
					4108	4112	4116	4120	4124	4128	4132	4136	4140	4144	4148	4152	4156	4160	4164	4168	4172	4176	4180
					4184	4188	4192	4196	4200	4204	4208	4212	4216	4220	4224	4228	4232	4236	4240	4244	4248	4252	4256
					4260	4264	4268	4272	4276	4280	4284	4288	4292	4296	4300	4304	4308	4312	4316	4320	4324	4328	4332
					4336	4340	4344	4348	4352	4356	4360	4364	4368	4372	4376	4380	4384	4388	4392	4396	4400	4404	4408
					4412	4416	4420	4424	4428	4432	4436	4440	4444	4448	4452	4456	4460	4464	4468	4472	4476	4480	4484
					4488	4492	4496	4500	4504	4508	4512	4516	4520	4524	4528	4532	4536	4540	4544	4548	4552	4556	4560
					4564	4568	4572	4576	4580	4584	4588	4592	4596	4600	4604	4608	4612	4616	4620	4624	4628	4632	4636
					4640	4644	4648	4652	4656	4660	4664	4668	4672	4676	4680	4684	4688	4692	4696	4700	4704	4708	4712
					4716	4720	4724	4728	4732	4736	4740	4744	4748	4752	4756	4760	4764	4768	4772	4776	4780	4784	4788
					4792	4796	4800	4804	4808	4812	4816	4820	4824	4828	4832	4836	4840	4844	4848	4852	4856	4860	4864
					4868	4872	4876	4880	4884	4888	4892	4896	4900	4904	4908	4912	4916	4920	4924	4928	4932	4936	4940
					4944	4948	4952	4956	4960	4964	4968	4972	4976	4980	4984	4988	4992	4996	5000	5004	5008	5012	5016
					5020	5024	5028	5032	5036	5040	5044	5048	5052	5056	5060	5064	5068	5072	5076	5080	5084	5088	5092
					5096	5100	5104	5108	5112	5116	5120	5124	5128	5132	5136	5140	5144	5148	5152	5156	5160	5164	5168
					5172	5176	5180	5184	5188	5192	5196	5200	5204	5207	5210	5213	5216	5219	5222	5225	5228	5231	5234
					5237	5240	5243	5246	5249	5252	5255	5258	5261	5264	5267	5270	5273	5276	5279	5282	5285	5288	5291
					5294	5297	5300	5303	5306	5309	5312	5315	5318	5322	5326	5330	5334	5338	5342	5346	5350	5354	5358
					5362	5366	5370	5374	5378	5382	5386	5390	5394	5398	5402	5406	5410	5414	5418	5422	5426	5430	5434
					5438	5442	5446	5450	5454	5458	5462	5466	5470	5474	5478	5482	5486	5490	5494	5498	5502	5506	5510
					5514	5518	5522	5526	5530	5534	5538	5542	5546	5550	5554	5558	5562	5566	
				</DataArray>
				<DataArray type="UInt8" Name="types" NumberOfComponents="1" format="ascii">
					10	10	10	10	10	10	10	10	10	10	10	10	10	10	10	10	10	10	10
					10	10	10	10	10	10	10	10	10	10	10	10	10	10	10	10	10	10	10
					10	10	10	10	10	10	10	10	10	10	10	10	10	10	10	10	10	10	10
					10	10	10	10	10	10	10	10	10	10	10	10	10	10	10	10	10	10	10
					10	10	10	10	10	10	10	10	10	10	10	10	10	10	10	10	10	10	10
					10	10	10	10	10	10	10	10	10	10	10	10	10	10	10	10	10	10	10
					10	10	10	10	10	10	10	10	10	10	10	10	10	10	10	10	10	10	10
					10	10	10	10	10	10	10	10	10	10	10	10	10	10	10	10	10	10	10
					10	10	10	10	10	10	10	10	10	10	10	10	10	10	10	10	10	10	10
					10	10	10	10	10	10	10	10	10	10	10	10	10	10	10	10	10	10	10
					10	10	10	10	10	10	10	10	10	10	10	10	10	10	10	10	10	10	10
					10	10	10	10	10	10	10	10	10	10	10	10	10	10	10	10	10	10	10
					10	10	10	10	10	10	10	10	10	10	10	10	10	10	10	10	10	10	10
					10	10	10	10	10	10	10	10	10	10	10	10	10	10	10	10	10	10	10
					10	10	10	10	10	10	10	10	10	10	10	10	10	10	10	10	10	10	10
					10	10	10	10	10	10	10	10	10	10	10	10	10	10	10	10	10	10	10
					10	10	10	10	10	10	10	10	10	10	10	10	10	10	10	10	10	10	10
					10	10	10	10	10	10	10	10	10	10	10	10	10	10	10	10	10	10	10
					10	10	10	10	10	10	10	10	10	10	10	10	10	10	10	10	10	10	10
					10	10	10	10	10	10	10	10	10	10	10	10	10	10	10	10	10	10	10
					10	10	10	10	10	10	10	10	10	10	10	10	10	10	10	10	10	10	10
					10	10	10	10	10	10	10	10	10	10	10	10	10	10	10	10	10	10	10
					10	10	10	10	10	10	10	10	10	10	10	10	10	10	10	10	10	10	10
					10	10	10	10	10	10	10	10	10	10	10	10	10	10	10	10	10	10	10
					10	10	10	10	10	10	10	10	10	10	10	10	10	10	10	10	10	10	10
					10	10	10	10	10	10	10	10	10	10	10	10	10	10	10	10	10	10	10
					10	10	10	10	10	10	10	10	10	10	10	10	10	10	10	10	10	10	10
					10	10	10	10	10	10	10	10	10	10	10	10	10	10	10	10	10	10	10
					10	10	10	10	10	10	10	10	10	10	10	10	10	10	10	10	10	10	10
					10	10	10	10	10	10	10	10	10	10	10	10	10	10	10	10	10	10	10
					10	10	10	10	10	10	10	10	10	10	10	10	10	10	10	10	10	10	10
					10	10	10	10	10	10	10	10	10	10	10	10	10	10	10	10	10	10	10
					10	10	10	10	10	10	10	10	10	10	10	10	10	10	10	10	10	10	10
					10	10	10	10	10	10	10	10	10	10	10	10	10	10	10	10	10	10	10
					10	10	10	10	10	10	10	10	10	10	10	10	10	10	10	10	10	10	10
					10	10	10	10	10	10	10	10	10	10	10	10	10	10	10	10	10	10	10
					10	10	10	10	10	10	10	10	10	10	10	10	10	10	10	10	10	10	10
					10	10	10	10	10	10	10	10	10	10	10	10	10	10	10	10	10	10	10
					10	10	10	10	10	10	10	10	10	10	10	10	10	10	10	10	10	10	10
					10	10	10	10	10	10	10	10	10	10	10	10	10	10	10	10	10	10	10
					10	10	10	10	10	10	10	10	10	10	10	10	10	10	10	10	10	10	10
					10	10	10	10	10	10	10	10	10	10	10	10	10	10	10	10	10	10	10
					10	10	10	10	10	10	10	10	10	10	10	10	10	10	10	10	10	10	10
					10	10	10	10	10	10	10	10	10	10	10	10	10	10	10	10	10	10	10
					10	10	10	10	10	10	10	10	10	10	10	10	10	10	10	10	10	10	10
					10	10	10	10	10	10	10	10	10	10	10	10	10	10	10	10	10	10	10
					10	10	10	10	10	10	10	10	10	10	10	10	10	10	10	10	10	10	10
					10	10	10	10	10	10	10	10	10	10	10	10	10	10	10	10	10	10	10
					10	10	10	10	10	10	10	10	10	10	10	10	10	10	10	10	10	10	10
					10	10	10	10	10	10	10	10	10	10	10	10	10	10	10	10	10	10	10
					10	10	10	10	10	10	10	10	10	10	10	10	10	10	10	10	10	10	10
					10	10	10	10	10	10	10	10	10	10	10	10	10	10	10	10	10	10	10
					10	10	10	10	10	10	10	10	10	10	10	10	10	10	10	10	10	10	10
					10	10	10	10	10	10	10	10	10	10	10	10	10	10	10	10	10	10	10
					10	10	10	10	10	10	10	10	10	10	10	10	10	10	10	10	10	10	10
					10	10	10	10	10	10	10	10	10	10	10	10	10	10	10	10	10	10	10
					10	10	10	10	10	10	10	10	10	10	10	10	10	10	10	10	10	10	10
					10	10	10	10	10	10	10	10	10	10	10	10	10	10	10	10	10	10	10
					10	10	10	10	10	10	10	10	10	10	10	10	10	10	10	10	10	10	10
					10	10	10	10	10	10	10	10	10	10	10	10	10	10	10	10	10	10	10
					10	10	10	10	10	10	10	10	10	10	10	10	10	10	10	10	10	10	10
					10	10	10	10	10	10	10	10	10	10	10	10	10	10	10	10	10	10	10
					10	10	10	10	10	10	10	10	10	10	10	10	10	10	10	10	10	10	10
					10	10	10	10	10	10	10	10	10	10	10	10	10	10	10	10	10	10	10
					10	10	10	10	10	10	10	10	10	10	10	10	10	10	10	10	10	10	10
					10	10	10	10	10	10	10	10	10	10	10	10	10	10	10	10	10	10	10
					10	10	10	10	10	10	10	10	10	10	10	10	10	10	10	10	10	10	10
					10	10	10	10	10	10	10	10	10	10	10	10	10	10	10	10	10	10	10
					10	10	10	10	10	10	10	10	10	5	5	5	5	5	5	5	5	5	5
					5	5	5	5	5	5	5	5	5	5	5	5	5	5	5	5	5	5	5
					5	5	5	5	5	5	5	5	5	10	10	10	10	10	10	10	10	10	10
					10	10	10	10	10	10	10	10	10	10	10	10	10	10	10	10	10	10	10
					10	10	10	10	10	10	10	10	10	10	10	10	10	10	10	10	10	10	10
					10	10	10	10	10	10	10	10	10	10	10	10	10	10	
				</DataArray>
			</Cells>
			<CellData Scalars="region id">
				<DataArray type="Float64" Name="region id" NumberOfComponents="1" format="ascii">
					2	2	2	2	2	2	2	2
					2	2	2	2	2	2	2	2	2
					2	2	2	2	2	2	2	2	2
					2	2	2	2	2	2	2	2	2
					2	2	2	2	2	2	2	2	2
					2	2	2	2	2	2	2	2	2
					2	2	2	2	2	2	2	2	2
					2	2	2	2	2	2	2	2	2
					2	2	2	2	2	2	2	2	2
					2	2	2	2	2	2	2	2	2
					2	2	2	2	2	2	2	2	2
					2	2	2	2	2	2	2	2	2
					2	2	2	2	2	2	2	2	2
					2	2	2	2	2	2	2	2	2
					2	2	2	2	2	2	2	2	2
					2	2	2	2	2	2	2	2	2
					2	2	2	2	2	2	2	2	2
					2	2	2	2	2	2	2	2	2
					2	2	2	2	2	2	2	2	2
					2	2	2	2	2	2	2	2	2
					2	2	2	2	2	2	2	2	2
					2	2	2	2	2	2	2	2	2
					2	2	2	2	2	2	2	2	2
					2	2	2	2	2	2	2	2	2
					2	2	2	2	2	2	2	2	2
					2	2	2	2	2	2	2	2	2
					2	2	2	2	2	2	2	2	2
					2	2	2	2	2	2	2	2	2
					2	2	2	2	2	2	2	2	2
					2	2	2	2	2	2	2	2	2
					2	2	2	2	2	2	2	2	2
					2	2	2	2	2	2	2	2	2
					2	2	2	2	2	2	2	2	2
					2	2	2	2	2	2	2	2	2
					2	2	2	2	2	2	2	2	2
					2	2	2	2	2	2	2	2	2
					2	2	2	2	2	2	2	2	2
					2	2	2	2	2	2	2	2	2
					2	2	2	2	2	2	2	2	2
					2	2	2	2	2	2	2	2	2
					2	2	2	2	2	2	2	2	2
					2	2	2	2	2	2	2	2	2
					2	2	2	2	2	2	2	2	2
					2	2	2	2	2	2	2	2	2
					2	2	2	2	2	2	2	2	2
					2	2	2	2	2	2	2	2	2
					2	2	2	2	2	2	2	2	2
					2	2	2	2	2	2	2	2	2
					2	2	2	2	2	2	2	2	2
					2	2	2	2	2	2	2	2	2
					2	2	2	2	2	2	2	2	2
					2	2	2	2	2	2	2	2	2
					2	2	2	2	2	2	2	2	2
					2	2	2	2	2	2	2	2	2
					2	2	2	2	2	2	2	2	2
					2	2	2	2	2	2	2	2	2
					2	2	2	2	2	2	2	2	2
					2	2	2	2	2	2	2	2	2
					2	2	2	2	2	2	2	2	2
					2	2	2	2	2	2	2	2	2
					2	2	2	2	2	2	2	2	2
					2	2	2	2	2	2	2	2	2
					2	2	2	2	2	2	2	2	2
					2	2	2	2	2	2	2	2	2
					2	2	2	2	2	2	2	2	2
					2	2	2	2	2	2	2	2	2
					2	2	2	2	2	2	2	2	2
					2	2	2	2	2	2	2	2	2
					2	2	2	2	2	2	2	2	2
					2	2	2	2	2	2	2	2	2
					2	2	2	2	2	2	2	2	2
					2	2	2	2	2	2	2	2	2
					2	2	2	2	2	2	2	2	2
					2	2	2	2	2	2	2	2	2
					2	2	2	2	2	2	2	2	2
					2	2	2	2	2	2	2	2	2
					2	2	2	2	2	2	2	2	2
					2	2	2	2	2	2	2	2	2
					2	2	2	2	2	2	2	2	2
					2	2	2	2	2	2	2	2	2
					2	2	2	2	2	2	2	2	2
					2	2	2	2	2	2	2	2	2
					2	2	2	2	2	2	2	2	2
					2	2	2	2	2	2	2	2	2
					2	2	2	2	2	2	2	2	2
					2	2	2	2	2	2	2	2	2
					2	2	2	2	2	2	2	2	2
					2	2	2	2	2	2	2	2	2
					2	2	2	2	2	2	2	2	2
					2	2	2	2	2	2	2	2	2
					2	2	2	2	2	2	2	2	2
					2	2	2	2	2	2	2	2	2
					2	2	2	2	2	2	2	2	2
					2	2	2	2	2	2	2	2	2
					2	2	2	2	2	2	2	2	2
					2	2	2	2	2	2	2	2	2
					2	2	2	2	2	2	2	2	2
					2	2	2	2	2	2	2	2	2
					2	2	2	2	2	2	2	2	2
					2	2	2	2	2	2	2	2	2
					2	2	2	2	2	2	2	2	2
					2	2	2	2	2	2	2	2	2
					2	2	2	2	2	2	2	2	2
					2	2	2	2	2	2	2	2	2
					2	2	2	2	2	2	2	2	2
					2	2	2	2	2	2	2	2	2
					2	2	2	2	2	2	2	2	2
					2	2	2	2	2	2	2	2	2
					2	2	2	2	2	2	2	2	2
					2	2	2	2	2	2	2	2	2
					2	2	2	2	2	2	2	2	2
					2	2	2	2	2	2	2	2	2
					2	2	2	2	2	2	2	2	2
					2	2	2	2	2	2	2	2	2
					2	2	2	2	2	2	2	2	2
					2	2	2	2	2	2	2	2	2
					2	2	2	2	2	2	2	2	2
					2	2	2	2	2	2	2	2	2
					2	2	2	2	2	2	2	2	2
					2	2	2	2	2	2	2	2	2
					2	2	2	2	2	2	2	2	2
					2	2	2	2	2	2	2	2	2
					2	2	2	2	2	2	2	2	2
					2	2	2	2	2	2	2	2	2
					2	2	2	2	2	2	2	2	2
					2	2	2	2	2	2	2	2	2
					2	2	2	2	2	2	2	2	2
					2	2	2	2	2	2	2	2	2
					2	2	2	2	2	2	2	2	2
					2	2	2	2	2	2	2	2	2
					2	2	2	2	2	2	2	2	2
					2	2	2	2	2	2	2	2	2
					2	2	2	2	2	2	2	2	2
					2	2	2	2	2	2	2	2	2
					2	2	2	2	2	2	2	2	2
					2	2	2	2	2	2	2	2	2
					2	2	2	2	2	2	2	2	2
					2	2	2	2	2	2	2	2	2
					2	2	2	2	2	2	2	2	2
					2	2	2	2	2	2	2	2	2
					2	2	2	2	2	2	2	2	2
					2	2	2	2	2	2	2	2	2
					2	2	2	2	2	2	2	2	2
					2	2	2	2	2	2	2	2	2
					2	2	2	2	2	2	1	1	1
					1	1	1	1	1	1	1	1	1
					1	1	1	1	1	1	1	1	1
					1	1	1	1	1	1	1	1	1
					1	1	1	1	1	1	1	1	2
					2	2	2	2	2	2	2	2	2
					2	2	2	2	2	2	2	2	2
					2	2	2	2	2	2	2	2	2
					2	2	2	2	2	2	2	2	2
					2	2	2	2	2	2	2	2	2
					2	2	2	2	2	2	2	2	2
					2	2	2	2	2	2	2	
				</DataArray>
			</CellData>
		</Piece>
	</UnstructuredGrid>
</VTKFile>
