<?xml version="1.0" encoding="UTF-8" standalone="no"?>
<!DOCTYPE svg PUBLIC "-//W3C//DTD SVG 1.1//EN"
 "http://www.w3.org/Graphics/SVG/1.1/DTD/svg11.dtd">
<!-- Generated by graphviz version 12.2.1 (20241206.2353)
 -->
<!-- Title: csmp::StokesEinsteinDiffusivity&lt; dim &gt; Pages: 1 -->
<svg width="156pt" height="486pt"
 viewBox="0.00 0.00 156.25 486.25" xmlns="http://www.w3.org/2000/svg" xmlns:xlink="http://www.w3.org/1999/xlink">
<g id="graph0" class="graph" transform="scale(1 1) rotate(0) translate(4 482.25)">
<title>csmp::StokesEinsteinDiffusivity&lt; dim &gt;</title>
<!-- Node1 -->
<g id="Node000001" class="node">
<title>Node1</title>
<g id="a_Node000001"><a xlink:title=" ">
<polygon fill="#999999" stroke="none" points="148.25,-91.5 0,-91.5 0,0 148.25,0 148.25,-91.5"/>
<text text-anchor="start" x="4" y="-78" font-family="Helvetica,sans-Serif" font-size="10.00">csmp::StokesEinsteinDiffusivity</text>
<text text-anchor="start" x="57.25" y="-66.75" font-family="Helvetica,sans-Serif" font-size="10.00">&lt; dim &gt;</text>
<text text-anchor="start" x="72.62" y="-51.5" font-family="Helvetica,sans-Serif" font-size="10.00"> </text>
<text text-anchor="start" x="6" y="-36.25" font-family="Helvetica,sans-Serif" font-size="10.00">+</text>
<text text-anchor="start" x="18" y="-36.25" font-family="Helvetica,sans-Serif" font-size="10.00">StokesEinsteinDiffusivity()</text>
<text text-anchor="start" x="6" y="-21" font-family="Helvetica,sans-Serif" font-size="10.00">+</text>
<text text-anchor="start" x="18" y="-21" font-family="Helvetica,sans-Serif" font-size="10.00">~StokesEinsteinDiffusivity()</text>
<text text-anchor="start" x="6" y="-5.75" font-family="Helvetica,sans-Serif" font-size="10.00">+</text>
<text text-anchor="start" x="18" y="-5.75" font-family="Helvetica,sans-Serif" font-size="10.00">Calculate()</text>
<polygon fill="#666666" stroke="#666666" points="0,-63 0,-63 148.25,-63 148.25,-63 0,-63"/>
<polygon fill="#666666" stroke="#666666" points="0,-47.75 0,-47.75 148.25,-47.75 148.25,-47.75 0,-47.75"/>
<polygon fill="none" stroke="#666666" points="0,0 0,-91.5 148.25,-91.5 148.25,0 0,0"/>
</a>
</g>
</g>
<!-- Node2 -->
<g id="Node000002" class="node">
<title>Node2</title>
<g id="a_Node000002"><a xlink:href="classcsmp_1_1_interrelation.html" target="_top" xlink:title=" ">
<polygon fill="white" stroke="none" points="128.5,-478.25 19.75,-478.25 19.75,-127.5 128.5,-127.5 128.5,-478.25"/>
<text text-anchor="start" x="33.62" y="-464.75" font-family="Helvetica,sans-Serif" font-size="10.00">csmp::Interrelation</text>
<text text-anchor="start" x="57.25" y="-453.5" font-family="Helvetica,sans-Serif" font-size="10.00">&lt; dim &gt;</text>
<text text-anchor="start" x="24.12" y="-438.25" font-family="Helvetica,sans-Serif" font-size="10.00">#</text>
<text text-anchor="start" x="33.75" y="-438.25" font-family="Helvetica,sans-Serif" font-size="10.00">p_ref</text>
<text text-anchor="start" x="24.12" y="-423" font-family="Helvetica,sans-Serif" font-size="10.00">#</text>
<text text-anchor="start" x="33.75" y="-423" font-family="Helvetica,sans-Serif" font-size="10.00">name_</text>
<text text-anchor="start" x="24.12" y="-407.75" font-family="Helvetica,sans-Serif" font-size="10.00">#</text>
<text text-anchor="start" x="33.75" y="-407.75" font-family="Helvetica,sans-Serif" font-size="10.00">result_property_</text>
<text text-anchor="start" x="24.12" y="-392.5" font-family="Helvetica,sans-Serif" font-size="10.00">#</text>
<text text-anchor="start" x="33.75" y="-392.5" font-family="Helvetica,sans-Serif" font-size="10.00">application_level_</text>
<text text-anchor="start" x="24.12" y="-377.25" font-family="Helvetica,sans-Serif" font-size="10.00">#</text>
<text text-anchor="start" x="33.75" y="-377.25" font-family="Helvetica,sans-Serif" font-size="10.00">operand_list_</text>
<text text-anchor="start" x="24.12" y="-362" font-family="Helvetica,sans-Serif" font-size="10.00">#</text>
<text text-anchor="start" x="33.75" y="-362" font-family="Helvetica,sans-Serif" font-size="10.00">result_</text>
<text text-anchor="start" x="23.75" y="-346.75" font-family="Helvetica,sans-Serif" font-size="10.00">+</text>
<text text-anchor="start" x="33.75" y="-346.75" font-family="Helvetica,sans-Serif" font-size="10.00">Interrelation()</text>
<text text-anchor="start" x="23.75" y="-331.5" font-family="Helvetica,sans-Serif" font-size="10.00">+</text>
<text text-anchor="start" x="33.75" y="-331.5" font-family="Helvetica,sans-Serif" font-size="10.00">~Interrelation()</text>
<text text-anchor="start" x="23.75" y="-316.25" font-family="Helvetica,sans-Serif" font-size="10.00">+</text>
<text text-anchor="start" x="33.75" y="-316.25" font-family="Helvetica,sans-Serif" font-size="10.00">Name()</text>
<text text-anchor="start" x="23.75" y="-301" font-family="Helvetica,sans-Serif" font-size="10.00">+</text>
<text text-anchor="start" x="33.75" y="-301" font-family="Helvetica,sans-Serif" font-size="10.00">ApplicationLevel()</text>
<text text-anchor="start" x="23.75" y="-285.75" font-family="Helvetica,sans-Serif" font-size="10.00">+</text>
<text text-anchor="start" x="33.75" y="-285.75" font-family="Helvetica,sans-Serif" font-size="10.00">Apply()</text>
<text text-anchor="start" x="23.75" y="-270.5" font-family="Helvetica,sans-Serif" font-size="10.00">+</text>
<text text-anchor="start" x="33.75" y="-270.5" font-family="Helvetica,sans-Serif" font-size="10.00">Apply()</text>
<text text-anchor="start" x="23.75" y="-255.25" font-family="Helvetica,sans-Serif" font-size="10.00">+</text>
<text text-anchor="start" x="33.75" y="-255.25" font-family="Helvetica,sans-Serif" font-size="10.00">Calculate()</text>
<text text-anchor="start" x="23.75" y="-240" font-family="Helvetica,sans-Serif" font-size="10.00">+</text>
<text text-anchor="start" x="33.75" y="-240" font-family="Helvetica,sans-Serif" font-size="10.00">ResultWithinRange()</text>
<text text-anchor="start" x="23.75" y="-224.75" font-family="Helvetica,sans-Serif" font-size="10.00">+</text>
<text text-anchor="start" x="33.75" y="-224.75" font-family="Helvetica,sans-Serif" font-size="10.00">OperandsBegin()</text>
<text text-anchor="start" x="23.75" y="-209.5" font-family="Helvetica,sans-Serif" font-size="10.00">+</text>
<text text-anchor="start" x="33.75" y="-209.5" font-family="Helvetica,sans-Serif" font-size="10.00">OperandsEnd()</text>
<text text-anchor="start" x="23.75" y="-194.25" font-family="Helvetica,sans-Serif" font-size="10.00">+</text>
<text text-anchor="start" x="33.75" y="-194.25" font-family="Helvetica,sans-Serif" font-size="10.00">Result()</text>
<text text-anchor="start" x="24.12" y="-179" font-family="Helvetica,sans-Serif" font-size="10.00">#</text>
<text text-anchor="start" x="33.75" y="-179" font-family="Helvetica,sans-Serif" font-size="10.00">Interrelation()</text>
<text text-anchor="start" x="24.12" y="-163.75" font-family="Helvetica,sans-Serif" font-size="10.00">#</text>
<text text-anchor="start" x="33.75" y="-163.75" font-family="Helvetica,sans-Serif" font-size="10.00">GlobalProperty()</text>
<text text-anchor="start" x="24.12" y="-148.5" font-family="Helvetica,sans-Serif" font-size="10.00">#</text>
<text text-anchor="start" x="33.75" y="-148.5" font-family="Helvetica,sans-Serif" font-size="10.00">ResultProperty()</text>
<text text-anchor="start" x="24.12" y="-133.25" font-family="Helvetica,sans-Serif" font-size="10.00">#</text>
<text text-anchor="start" x="33.75" y="-133.25" font-family="Helvetica,sans-Serif" font-size="10.00">OutputCondition()</text>
<polygon fill="#666666" stroke="#666666" points="19.75,-449.75 19.75,-449.75 128.5,-449.75 128.5,-449.75 19.75,-449.75"/>
<polygon fill="#666666" stroke="#666666" points="19.75,-358.25 19.75,-358.25 31.75,-358.25 31.75,-358.25 19.75,-358.25"/>
<polygon fill="#666666" stroke="#666666" points="31.75,-358.25 31.75,-358.25 128.5,-358.25 128.5,-358.25 31.75,-358.25"/>
<polygon fill="none" stroke="#666666" points="19.75,-127.5 19.75,-478.25 128.5,-478.25 128.5,-127.5 19.75,-127.5"/>
</a>
</g>
</g>
<!-- Node2&#45;&gt;Node1 -->
<g id="edge1_Node000001_Node000002" class="edge">
<title>Node2&#45;&gt;Node1</title>
<g id="a_edge1_Node000001_Node000002"><a xlink:title=" ">
<path fill="none" stroke="#63b8ff" d="M74.12,-116.6C74.12,-107.58 74.12,-99.05 74.12,-91.25"/>
<polygon fill="none" stroke="#63b8ff" points="70.63,-116.31 74.13,-126.31 77.63,-116.31 70.63,-116.31"/>
</a>
</g>
</g>
</g>
</svg>
