<?xml version="1.0" encoding="UTF-8" standalone="no"?>
<!DOCTYPE svg PUBLIC "-//W3C//DTD SVG 1.1//EN"
 "http://www.w3.org/Graphics/SVG/1.1/DTD/svg11.dtd">
<!-- Generated by graphviz version 12.2.1 (20241206.2353)
 -->
<!-- Title: csmp::EOS_CO2H2ONaCl_Spycher04::y_Co2 Pages: 1 -->
<!--zoomable 467 -->

<svg id="main" version="1.1" xmlns="http://www.w3.org/2000/svg" xmlns:xlink="http://www.w3.org/1999/xlink" xml:space="preserve" onload="init(evt)">

<style type="text/css"><![CDATA[
.node, .edge {opacity: 0.7;}
.node.selected, .edge.selected {opacity: 1;}
.edge:hover path { stroke: red; }
.edge:hover polygon { stroke: red; fill: red; }
]]></style>

<defs>
  <circle id="rim" cx="0" cy="0" r="7"/>
  <circle id="rim2" cx="0" cy="0" r="3.5"/>
  <g id="zoomPlus">
    <use xlink:href="#rim" fill="#404040"><set attributeName="fill" to="#808080" begin="zoomplus.mouseover" end="zoomplus.mouseout"/></use>
    <path d="M-4,0h8M0,-4v8" fill="none" stroke="white" stroke-width="1.5" pointer-events="none"/>
  </g>
  <g id="zoomMin">
    <use xlink:href="#rim" fill="#404040"><set attributeName="fill" to="#808080" begin="zoomminus.mouseover" end="zoomminus.mouseout"/></use>
    <path d="M-4,0h8" fill="none" stroke="white" stroke-width="1.5" pointer-events="none"/>
  </g>
  <g id="arrowUp" transform="translate(30 24)">
    <use xlink:href="#rim"/>
    <path pointer-events="none" fill="none" stroke="white" stroke-width="1.5" d="M0,-3.0v7 M-2.5,-0.5L0,-3.0L2.5,-0.5"/>
  </g>
  <g id="arrowRight" transform="rotate(90) translate(36 -43)">
    <use xlink:href="#rim"/>
    <path pointer-events="none" fill="none" stroke="white" stroke-width="1.5" d="M0,-3.0v7 M-2.5,-0.5L0,-3.0L2.5,-0.5"/>
  </g>
  <g id="arrowDown" transform="rotate(180) translate(-30 -48)">
    <use xlink:href="#rim"/>
    <path pointer-events="none" fill="none" stroke="white" stroke-width="1.5" d="M0,-3.0v7 M-2.5,-0.5L0,-3.0L2.5,-0.5"/>
  </g>
  <g id="arrowLeft" transform="rotate(270) translate(-36 17)">
    <use xlink:href="#rim"/>
    <path pointer-events="none" fill="none" stroke="white" stroke-width="1.5" d="M0,-3.0v7 M-2.5,-0.5L0,-3.0L2.5,-0.5"/>
  </g>
  <g id="resetDef">
    <use xlink:href="#rim2" fill="#404040"><set attributeName="fill" to="#808080" begin="reset.mouseover" end="reset.mouseout"/></use>
  </g>
</defs>
<script type="application/ecmascript">
var viewWidth = 1113;
var viewHeight = 467;
var sectionId = 'dynsection-67';
</script>
<script type="application/ecmascript" xlink:href="svg.min.js"/>
<svg id="graph" class="graph">
<g id="viewport">
<title>csmp::EOS_CO2H2ONaCl_Spycher04::y_Co2</title>
<!-- Node1 -->
<g id="Node000001" class="node">
<title>Node1</title>
<g id="a_Node000001"><a xlink:title="mole fraction (0..1) of CO2 in carbonic phase (the rest is H2O)">
<polygon fill="#999999" stroke="#666666" points="135.25,-271.5 0,-271.5 0,-241 135.25,-241 135.25,-271.5"/>
<text text-anchor="start" x="8" y="-258" font-family="Helvetica,sans-Serif" font-size="10.00">csmp::EOS_CO2H2ONaCl</text>
<text text-anchor="middle" x="67.62" y="-246.75" font-family="Helvetica,sans-Serif" font-size="10.00">_Spycher04::y_Co2</text>
</a>
</g>
</g>
<!-- Node2 -->
<g id="Node000002" class="node">
<title>Node2</title>
<g id="a_Node000002"><a xlink:href="classcsmp_1_1_e_o_s___c_o2_h2_o_na_cl___spycher04.html#ad36569b8f0ae897ac2dc64209ca81dfb" target="_top" xlink:title="returns yCo2Brine calculated from 1&#45;yH2oBrine">
<polygon fill="white" stroke="#666666" points="338,-296.5 171.25,-296.5 171.25,-266 338,-266 338,-296.5"/>
<text text-anchor="start" x="179.25" y="-283" font-family="Helvetica,sans-Serif" font-size="10.00">csmp::EOS_CO2H2ONaCl</text>
<text text-anchor="middle" x="254.62" y="-271.75" font-family="Helvetica,sans-Serif" font-size="10.00">_Spycher04::molarFracCo2Carbon</text>
</a>
</g>
</g>
<!-- Node1&#45;&gt;Node2 -->
<g id="edge1_Node000001_Node000002" class="edge">
<title>Node1&#45;&gt;Node2</title>
<g id="a_edge1_Node000001_Node000002"><a xlink:title=" ">
<path fill="none" stroke="#63b8ff" d="M135.68,-265.31C143.48,-266.37 151.54,-267.45 159.62,-268.55"/>
<polygon fill="#63b8ff" stroke="#63b8ff" points="159.15,-272.01 169.53,-269.89 160.08,-265.08 159.15,-272.01"/>
</a>
</g>
</g>
<!-- Node3 -->
<g id="Node000003" class="node">
<title>Node3</title>
<g id="a_Node000003"><a xlink:href="classcsmp_1_1_e_o_s___c_o2_h2_o_na_cl___spycher04.html#a74efbc1440ff4d9a809a471c2f6c0d71" target="_top" xlink:title="mole fraction (0..1) of H20 in carbonic phase">
<polygon fill="white" stroke="#666666" points="322.25,-247.5 187,-247.5 187,-217 322.25,-217 322.25,-247.5"/>
<text text-anchor="start" x="195" y="-234" font-family="Helvetica,sans-Serif" font-size="10.00">csmp::EOS_CO2H2ONaCl</text>
<text text-anchor="middle" x="254.62" y="-222.75" font-family="Helvetica,sans-Serif" font-size="10.00">_Spycher04::y_H2o</text>
</a>
</g>
</g>
<!-- Node1&#45;&gt;Node3 -->
<g id="edge2_Node000001_Node000003" class="edge">
<title>Node1&#45;&gt;Node3</title>
<g id="a_edge2_Node000001_Node000003"><a xlink:title=" ">
<path fill="none" stroke="#63b8ff" d="M135.68,-247.55C148.68,-245.86 162.42,-244.08 175.74,-242.35"/>
<polygon fill="#63b8ff" stroke="#63b8ff" points="175.84,-245.87 185.3,-241.11 174.93,-238.93 175.84,-245.87"/>
</a>
</g>
</g>
<!-- Node4 -->
<g id="Node000004" class="node">
<title>Node4</title>
<g id="a_Node000004"><a xlink:href="classcsmp_1_1_e_o_s___c_o2_h2_o_na_cl___spycher04.html#a7f025230a96da96c6f9ff917a0b27427" target="_top" xlink:title=" ">
<polygon fill="white" stroke="#666666" points="536.25,-459.12 383.75,-459.12 383.75,-417.38 536.25,-417.38 536.25,-459.12"/>
<text text-anchor="start" x="391.75" y="-445.62" font-family="Helvetica,sans-Serif" font-size="10.00">csmp::EOS_CO2H2ONaCl</text>
<text text-anchor="start" x="391.75" y="-434.38" font-family="Helvetica,sans-Serif" font-size="10.00">_Spycher04::activityCoefficient</text>
<text text-anchor="middle" x="460" y="-423.12" font-family="Helvetica,sans-Serif" font-size="10.00">DuanSun2003</text>
</a>
</g>
</g>
<!-- Node3&#45;&gt;Node4 -->
<g id="edge3_Node000003_Node000004" class="edge">
<title>Node3&#45;&gt;Node4</title>
<g id="a_edge3_Node000003_Node000004"><a xlink:title=" ">
<path fill="none" stroke="#63b8ff" d="M322.66,-245.65C328.35,-248.76 333.6,-252.57 338,-257.25 385.28,-307.49 327.85,-356.97 374,-408.25 374.37,-408.66 374.74,-409.06 375.12,-409.45"/>
<polygon fill="#63b8ff" stroke="#63b8ff" points="372.82,-412.09 382.66,-416.01 377.41,-406.81 372.82,-412.09"/>
</a>
</g>
</g>
<!-- Node5 -->
<g id="Node000005" class="node">
<title>Node5</title>
<g id="a_Node000005"><a xlink:href="classcsmp_1_1_e_o_s___c_o2_h2_o_na_cl___spycher04.html#aae46bcc6a3083999f6403a288ac41962" target="_top" xlink:title=" ">
<polygon fill="white" stroke="#666666" points="537.75,-399.5 382.25,-399.5 382.25,-369 537.75,-369 537.75,-399.5"/>
<text text-anchor="start" x="390.25" y="-386" font-family="Helvetica,sans-Serif" font-size="10.00">csmp::EOS_CO2H2ONaCl</text>
<text text-anchor="middle" x="460" y="-374.75" font-family="Helvetica,sans-Serif" font-size="10.00">_Spycher04::calculateSpycherA</text>
</a>
</g>
</g>
<!-- Node3&#45;&gt;Node5 -->
<g id="edge4_Node000003_Node000005" class="edge">
<title>Node3&#45;&gt;Node5</title>
<g id="a_edge4_Node000003_Node000005"><a xlink:title=" ">
<path fill="none" stroke="#63b8ff" d="M322.57,-246.36C328.2,-249.32 333.46,-252.91 338,-257.25 372.74,-290.48 339.11,-326.17 374,-359.25 375.07,-360.26 376.17,-361.23 377.31,-362.17"/>
<polygon fill="#63b8ff" stroke="#63b8ff" points="375.19,-364.95 385.41,-367.72 379.14,-359.18 375.19,-364.95"/>
</a>
</g>
</g>
<!-- Node6 -->
<g id="Node000006" class="node">
<title>Node6</title>
<g id="a_Node000006"><a xlink:href="classcsmp_1_1_e_o_s___c_o2_h2_o_na_cl___spycher04.html#abd86d4f882296aa81b7077df5799e3bb" target="_top" xlink:title=" ">
<polygon fill="white" stroke="#666666" points="537.75,-350.5 382.25,-350.5 382.25,-320 537.75,-320 537.75,-350.5"/>
<text text-anchor="start" x="390.25" y="-337" font-family="Helvetica,sans-Serif" font-size="10.00">csmp::EOS_CO2H2ONaCl</text>
<text text-anchor="middle" x="460" y="-325.75" font-family="Helvetica,sans-Serif" font-size="10.00">_Spycher04::calculateSpycherB</text>
</a>
</g>
</g>
<!-- Node3&#45;&gt;Node6 -->
<g id="edge5_Node000003_Node000006" class="edge">
<title>Node3&#45;&gt;Node6</title>
<g id="a_edge5_Node000003_Node000006"><a xlink:title=" ">
<path fill="none" stroke="#63b8ff" d="M321.33,-247.85C327.22,-250.51 332.88,-253.62 338,-257.25 360.06,-272.86 352.21,-290.26 374,-306.25 378.33,-309.43 383.03,-312.27 387.93,-314.82"/>
<polygon fill="#63b8ff" stroke="#63b8ff" points="386.29,-317.92 396.83,-319 389.26,-311.58 386.29,-317.92"/>
</a>
</g>
</g>
<!-- Node7 -->
<g id="Node000007" class="node">
<title>Node7</title>
<g id="a_Node000007"><a xlink:href="classcsmp_1_1_e_o_s___c_o2_h2_o_na_cl___spycher04.html#aaa041ed091d036d932bde93f3b382b06" target="_top" xlink:title=" ">
<polygon fill="white" stroke="#666666" points="739.75,-307.5 604.5,-307.5 604.5,-277 739.75,-277 739.75,-307.5"/>
<text text-anchor="start" x="612.5" y="-294" font-family="Helvetica,sans-Serif" font-size="10.00">csmp::EOS_CO2H2ONaCl</text>
<text text-anchor="middle" x="672.12" y="-282.75" font-family="Helvetica,sans-Serif" font-size="10.00">_Spycher04::FugacityCo2</text>
</a>
</g>
</g>
<!-- Node3&#45;&gt;Node7 -->
<g id="edge6_Node000003_Node000007" class="edge">
<title>Node3&#45;&gt;Node7</title>
<g id="a_edge6_Node000003_Node000007"><a xlink:title=" ">
<path fill="none" stroke="#63b8ff" d="M322.57,-243.26C339.35,-245.95 357.33,-248.76 374,-251.25 448.15,-262.32 532.87,-273.9 592.82,-281.92"/>
<polygon fill="#63b8ff" stroke="#63b8ff" points="592.22,-285.37 602.6,-283.23 593.15,-278.44 592.22,-285.37"/>
</a>
</g>
</g>
<!-- Node10 -->
<g id="Node000010" class="node">
<title>Node10</title>
<g id="a_Node000010"><a xlink:href="classcsmp_1_1_e_o_s___c_o2_h2_o_na_cl___spycher04.html#a1f91407fe0dbbfaa7a983fa23ca1537e" target="_top" xlink:title=" ">
<polygon fill="white" stroke="#666666" points="739.75,-258.5 604.5,-258.5 604.5,-228 739.75,-228 739.75,-258.5"/>
<text text-anchor="start" x="612.5" y="-245" font-family="Helvetica,sans-Serif" font-size="10.00">csmp::EOS_CO2H2ONaCl</text>
<text text-anchor="middle" x="672.12" y="-233.75" font-family="Helvetica,sans-Serif" font-size="10.00">_Spycher04::FugacityH2o</text>
</a>
</g>
</g>
<!-- Node3&#45;&gt;Node10 -->
<g id="edge10_Node000003_Node000010" class="edge">
<title>Node3&#45;&gt;Node10</title>
<g id="a_edge10_Node000003_Node000010"><a xlink:title=" ">
<path fill="none" stroke="#63b8ff" d="M322.38,-234.02C396.18,-235.97 514.9,-239.11 592.98,-241.18"/>
<polygon fill="#63b8ff" stroke="#63b8ff" points="592.59,-244.67 602.68,-241.44 592.77,-237.67 592.59,-244.67"/>
</a>
</g>
</g>
<!-- Node11 -->
<g id="Node000011" class="node">
<title>Node11</title>
<g id="a_Node000011"><a xlink:href="classcsmp_1_1_e_o_s___c_o2_h2_o_na_cl___spycher04.html#aec512b061b8958862e14cda6b8462833" target="_top" xlink:title=" ">
<polygon fill="white" stroke="#666666" points="543.38,-226.5 376.62,-226.5 376.62,-196 543.38,-196 543.38,-226.5"/>
<text text-anchor="start" x="384.62" y="-213" font-family="Helvetica,sans-Serif" font-size="10.00">csmp::EOS_CO2H2ONaCl</text>
<text text-anchor="middle" x="460" y="-201.75" font-family="Helvetica,sans-Serif" font-size="10.00">_Spycher04::molarFracH2oCarbon</text>
</a>
</g>
</g>
<!-- Node3&#45;&gt;Node11 -->
<g id="edge12_Node000003_Node000011" class="edge">
<title>Node3&#45;&gt;Node11</title>
<g id="a_edge12_Node000003_Node000011"><a xlink:title=" ">
<path fill="none" stroke="#63b8ff" d="M322.5,-225.34C336.11,-223.94 350.67,-222.44 365.02,-220.95"/>
<polygon fill="#63b8ff" stroke="#63b8ff" points="365.37,-224.44 374.96,-219.93 364.65,-217.47 365.37,-224.44"/>
</a>
</g>
</g>
<!-- Node12 -->
<g id="Node000012" class="node">
<title>Node12</title>
<g id="a_Node000012"><a xlink:href="classcsmp_1_1_e_o_s___c_o2_h2_o_na_cl___spycher04.html#a8309a70ac33d2235ab946d21b5b00585" target="_top" xlink:title=" ">
<polygon fill="white" stroke="#666666" points="546,-177.5 374,-177.5 374,-147 546,-147 546,-177.5"/>
<text text-anchor="start" x="382" y="-164" font-family="Helvetica,sans-Serif" font-size="10.00">csmp::EOS_CO2H2ONaCl</text>
<text text-anchor="middle" x="460" y="-152.75" font-family="Helvetica,sans-Serif" font-size="10.00">_Spycher04::thermEquilConstCo2G</text>
</a>
</g>
</g>
<!-- Node3&#45;&gt;Node12 -->
<g id="edge13_Node000003_Node000012" class="edge">
<title>Node3&#45;&gt;Node12</title>
<g id="a_edge13_Node000003_Node000012"><a xlink:title=" ">
<path fill="none" stroke="#63b8ff" d="M294.54,-216.59C317.5,-207.57 347.22,-196.26 374,-187.25 380.07,-185.21 386.42,-183.17 392.78,-181.18"/>
<polygon fill="#63b8ff" stroke="#63b8ff" points="393.5,-184.63 402.03,-178.35 391.45,-177.93 393.5,-184.63"/>
</a>
</g>
</g>
<!-- Node13 -->
<g id="Node000013" class="node">
<title>Node13</title>
<g id="a_Node000013"><a xlink:href="classcsmp_1_1_e_o_s___c_o2_h2_o_na_cl___spycher04.html#a7bebc42253e66321b50baa44292387b4" target="_top" xlink:title=" ">
<polygon fill="white" stroke="#666666" points="544.88,-128.5 375.12,-128.5 375.12,-98 544.88,-98 544.88,-128.5"/>
<text text-anchor="start" x="383.12" y="-115" font-family="Helvetica,sans-Serif" font-size="10.00">csmp::EOS_CO2H2ONaCl</text>
<text text-anchor="middle" x="460" y="-103.75" font-family="Helvetica,sans-Serif" font-size="10.00">_Spycher04::thermEquilConstCo2L</text>
</a>
</g>
</g>
<!-- Node3&#45;&gt;Node13 -->
<g id="edge14_Node000003_Node000013" class="edge">
<title>Node3&#45;&gt;Node13</title>
<g id="a_edge14_Node000003_Node000013"><a xlink:title=" ">
<path fill="none" stroke="#63b8ff" d="M271.07,-216.68C292.43,-195.97 333,-159.52 374,-138.25 377.63,-136.37 381.42,-134.61 385.3,-132.96"/>
<polygon fill="#63b8ff" stroke="#63b8ff" points="386.28,-136.34 394.31,-129.43 383.73,-129.82 386.28,-136.34"/>
</a>
</g>
</g>
<!-- Node14 -->
<g id="Node000014" class="node">
<title>Node14</title>
<g id="a_Node000014"><a xlink:href="classcsmp_1_1_e_o_s___c_o2_h2_o_na_cl___spycher04.html#ad91f5469dd2a2de597ff003450c0b399" target="_top" xlink:title=" ">
<polygon fill="white" stroke="#666666" points="542.25,-79.5 377.75,-79.5 377.75,-49 542.25,-49 542.25,-79.5"/>
<text text-anchor="start" x="385.75" y="-66" font-family="Helvetica,sans-Serif" font-size="10.00">csmp::EOS_CO2H2ONaCl</text>
<text text-anchor="middle" x="460" y="-54.75" font-family="Helvetica,sans-Serif" font-size="10.00">_Spycher04::thermEquilConstH2o</text>
</a>
</g>
</g>
<!-- Node3&#45;&gt;Node14 -->
<g id="edge15_Node000003_Node000014" class="edge">
<title>Node3&#45;&gt;Node14</title>
<g id="a_edge15_Node000003_Node000014"><a xlink:title=" ">
<path fill="none" stroke="#63b8ff" d="M264.17,-216.75C281.16,-187.37 322.06,-123.48 374,-89.25 376.28,-87.75 378.64,-86.34 381.08,-85.01"/>
<polygon fill="#63b8ff" stroke="#63b8ff" points="382.59,-88.17 390.06,-80.66 379.53,-81.87 382.59,-88.17"/>
</a>
</g>
</g>
<!-- Node15 -->
<g id="Node000015" class="node">
<title>Node15</title>
<g id="a_Node000015"><a xlink:href="classcsmp_1_1_e_o_s___c_o2_h2_o_na_cl___spycher04.html#aba193f357734c78d5ac6fe60e589dc0f" target="_top" xlink:title="compressed volume molar CO2">
<polygon fill="white" stroke="#666666" points="527.62,-30.5 392.38,-30.5 392.38,0 527.62,0 527.62,-30.5"/>
<text text-anchor="start" x="400.38" y="-17" font-family="Helvetica,sans-Serif" font-size="10.00">csmp::EOS_CO2H2ONaCl</text>
<text text-anchor="middle" x="460" y="-5.75" font-family="Helvetica,sans-Serif" font-size="10.00">_Spycher04::V_Co2</text>
</a>
</g>
</g>
<!-- Node3&#45;&gt;Node15 -->
<g id="edge16_Node000003_Node000015" class="edge">
<title>Node3&#45;&gt;Node15</title>
<g id="a_edge16_Node000003_Node000015"><a xlink:title=" ">
<path fill="none" stroke="#63b8ff" d="M260.81,-216.63C273.78,-180.05 311.13,-88.26 374,-40.25 376.58,-38.28 379.31,-36.47 382.15,-34.79"/>
<polygon fill="#63b8ff" stroke="#63b8ff" points="383.53,-38.02 390.82,-30.33 380.33,-31.8 383.53,-38.02"/>
</a>
</g>
</g>
<!-- Node8 -->
<g id="Node000008" class="node">
<title>Node8</title>
<g id="a_Node000008"><a xlink:href="classcsmp_1_1_e_o_s___c_o2_h2_o_na_cl___spycher04.html#a011005facf6bac559db9a48bcc0edbba" target="_top" xlink:title=" ">
<polygon fill="white" stroke="#666666" points="1104.75,-282.5 969.5,-282.5 969.5,-252 1104.75,-252 1104.75,-282.5"/>
<text text-anchor="start" x="977.5" y="-269" font-family="Helvetica,sans-Serif" font-size="10.00">csmp::EOS_CO2H2ONaCl</text>
<text text-anchor="middle" x="1037.12" y="-257.75" font-family="Helvetica,sans-Serif" font-size="10.00">_Spycher04::a_Co2</text>
</a>
</g>
</g>
<!-- Node7&#45;&gt;Node8 -->
<g id="edge7_Node000007_Node000008" class="edge">
<title>Node7&#45;&gt;Node8</title>
<g id="a_edge7_Node000007_Node000008"><a xlink:title=" ">
<path fill="none" stroke="#63b8ff" d="M740.13,-287.64C801.68,-283.4 892.92,-277.11 957.81,-272.64"/>
<polygon fill="#63b8ff" stroke="#63b8ff" points="957.96,-276.14 967.7,-271.96 957.48,-269.16 957.96,-276.14"/>
</a>
</g>
</g>
<!-- Node9 -->
<g id="Node000009" class="node">
<title>Node9</title>
<g id="a_Node000009"><a xlink:href="classcsmp_1_1_e_o_s___c_o2_h2_o_na_cl___spycher04.html#a809be0c93aa4d76e041d6a51fd76d7e0" target="_top" xlink:title="activity of mixture">
<polygon fill="white" stroke="#666666" points="933.5,-261.5 798.25,-261.5 798.25,-231 933.5,-231 933.5,-261.5"/>
<text text-anchor="start" x="806.25" y="-248" font-family="Helvetica,sans-Serif" font-size="10.00">csmp::EOS_CO2H2ONaCl</text>
<text text-anchor="middle" x="865.88" y="-236.75" font-family="Helvetica,sans-Serif" font-size="10.00">_Spycher04::a_mix</text>
</a>
</g>
</g>
<!-- Node7&#45;&gt;Node9 -->
<g id="edge8_Node000007_Node000009" class="edge">
<title>Node7&#45;&gt;Node9</title>
<g id="a_edge8_Node000007_Node000009"><a xlink:title=" ">
<path fill="none" stroke="#63b8ff" d="M738.58,-276.55C754.69,-272.68 772.07,-268.51 788.64,-264.54"/>
<polygon fill="#63b8ff" stroke="#63b8ff" points="789.01,-268.05 797.92,-262.31 787.38,-261.24 789.01,-268.05"/>
</a>
</g>
</g>
<!-- Node9&#45;&gt;Node8 -->
<g id="edge9_Node000009_Node000008" class="edge">
<title>Node9&#45;&gt;Node8</title>
<g id="a_edge9_Node000009_Node000008"><a xlink:title=" ">
<path fill="none" stroke="#63b8ff" d="M933.77,-254.55C941.68,-255.53 949.81,-256.54 957.86,-257.54"/>
<polygon fill="#63b8ff" stroke="#63b8ff" points="957.31,-261 967.66,-258.76 958.17,-254.05 957.31,-261"/>
</a>
</g>
</g>
<!-- Node10&#45;&gt;Node9 -->
<g id="edge11_Node000010_Node000009" class="edge">
<title>Node10&#45;&gt;Node9</title>
<g id="a_edge11_Node000010_Node000009"><a xlink:title=" ">
<path fill="none" stroke="#63b8ff" d="M740.19,-244.3C755.22,-244.53 771.3,-244.79 786.74,-245.03"/>
<polygon fill="#63b8ff" stroke="#63b8ff" points="786.28,-248.52 796.33,-245.18 786.39,-241.52 786.28,-248.52"/>
</a>
</g>
</g>
<!-- Node16 -->
<g id="Node000016" class="node">
<title>Node16</title>
<g id="a_Node000016"><a xlink:href="classcsmp_1_1_e_o_s___c_o2_h2_o_na_cl___spycher04.html#a62501eb7250b9755f378f5803a302d28" target="_top" xlink:title="returns the compressed volume of CO2.">
<polygon fill="white" stroke="#666666" points="762.25,-120.5 582,-120.5 582,-90 762.25,-90 762.25,-120.5"/>
<text text-anchor="start" x="590" y="-107" font-family="Helvetica,sans-Serif" font-size="10.00">csmp::EOS_CO2H2ONaCl</text>
<text text-anchor="middle" x="672.12" y="-95.75" font-family="Helvetica,sans-Serif" font-size="10.00">_Spycher04::CompressedVolumeCo2</text>
</a>
</g>
</g>
<!-- Node15&#45;&gt;Node16 -->
<g id="edge17_Node000015_Node000016" class="edge">
<title>Node15&#45;&gt;Node16</title>
<g id="a_edge17_Node000015_Node000016"><a xlink:title=" ">
<path fill="none" stroke="#63b8ff" d="M519.58,-30.86C528.53,-33.71 537.58,-36.86 546,-40.25 577,-52.72 610.51,-70.38 635.05,-84.14"/>
<polygon fill="#63b8ff" stroke="#63b8ff" points="633.24,-87.13 643.66,-89.02 636.69,-81.05 633.24,-87.13"/>
</a>
</g>
</g>
<!-- Node16&#45;&gt;Node9 -->
<g id="edge18_Node000016_Node000009" class="edge">
<title>Node16&#45;&gt;Node9</title>
<g id="a_edge18_Node000016_Node000009"><a xlink:title=" ">
<path fill="none" stroke="#63b8ff" d="M694.38,-120.88C728.5,-145.97 795.63,-195.33 834.7,-224.06"/>
<polygon fill="#63b8ff" stroke="#63b8ff" points="832.18,-226.55 842.31,-229.66 836.32,-220.91 832.18,-226.55"/>
</a>
</g>
</g>
</g>
</svg>

<g id="navigator" transform="translate(0 0)" fill="#404254">
  <rect fill="#f2f5e9" fill-opacity="0.5" stroke="#606060" stroke-width=".5" x="0" y="0" width="60" height="60"/>
  <use id="zoomplus" xlink:href="#zoomPlus" x="17" y="9" onmousedown="handleZoom(evt,'in')"/>
  <use id="zoomminus" xlink:href="#zoomMin" x="42" y="9" onmousedown="handleZoom(evt,'out')"/>
  <use id="reset" xlink:href="#resetDef" x="30" y="36" onmousedown="handleReset()"/>
   <use id="arrowup" xlink:href="#arrowUp" x="0" y="0" onmousedown="handlePan(0,-1)"/>
  <use id="arrowright" xlink:href="#arrowRight" x="0" y="0" onmousedown="handlePan(1,0)"/>
  <use id="arrowdown" xlink:href="#arrowDown" x="0" y="0" onmousedown="handlePan(0,1)"/>
  <use id="arrowleft" xlink:href="#arrowLeft" x="0" y="0" onmousedown="handlePan(-1,0)"/>
</g>
<svg viewBox="0 0 15 15" width="100%" height="30px" preserveAspectRatio="xMaxYMin meet">
 <g id="arrow_out" transform="scale(0.3 0.3)">
  <a xlink:href="classcsmp_1_1_e_o_s___c_o2_h2_o_na_cl___spycher04_a4f2d3cafc60b55de099ee7a1d94e129f_cgraph_org.svg" target="_base">
   <rect id="button" ry="5" rx="5" y="6" x="6" height="38" width="38"
        fill="#f2f5e9" fill-opacity="0.5" stroke="#606060" stroke-width="1.0"/>
   <path id="arrow"
     d="M 11.500037,31.436501 C 11.940474,20.09759 22.043105,11.32322 32.158766,21.979434 L 37.068811,17.246167 C 37.068811,17.246167 37.088388,32 37.088388,32 L 22.160133,31.978069 C 22.160133,31.978069 26.997745,27.140456 26.997745,27.140456 C 18.528582,18.264221 13.291696,25.230495 11.500037,31.436501 z"
     style="fill:#404040;"/>
  </a>
 </g>
</svg>

<style type='text/css'>
<![CDATA[
[data-mouse-over-selected='false'] { opacity: 0.7; }
[data-mouse-over-selected='true']  { opacity: 1.0; }
]]>
</style>
<script type="application/ecmascript"><![CDATA[
document.addEventListener('DOMContentLoaded', (event) => {
  highlightEdges();
  highlightAdjacentNodes();
});
]]></script>
</svg>
