<?xml version="1.0" encoding="UTF-8" standalone="no"?>
<!DOCTYPE svg PUBLIC "-//W3C//DTD SVG 1.1//EN"
 "http://www.w3.org/Graphics/SVG/1.1/DTD/svg11.dtd">
<!-- Generated by graphviz version 12.2.1 (20241206.2353)
 -->
<!-- Title: csmp::Colony_Test::run Pages: 1 -->
<svg width="352pt" height="98pt"
 viewBox="0.00 0.00 352.00 98.12" xmlns="http://www.w3.org/2000/svg" xmlns:xlink="http://www.w3.org/1999/xlink">
<g id="graph0" class="graph" transform="scale(1 1) rotate(0) translate(4 94.12)">
<title>csmp::Colony_Test::run</title>
<!-- Node1 -->
<g id="Node000001" class="node">
<title>Node1</title>
<g id="a_Node000001"><a xlink:title=" ">
<polygon fill="#999999" stroke="#666666" points="120.25,-57.5 0,-57.5 0,-38.25 120.25,-38.25 120.25,-57.5"/>
<text text-anchor="middle" x="60.12" y="-44" font-family="Helvetica,sans-Serif" font-size="10.00">csmp::Colony_Test::run</text>
</a>
</g>
</g>
<!-- Node2 -->
<g id="Node000002" class="node">
<title>Node2</title>
<g id="a_Node000002"><a xlink:href="classcsmp_1_1_colony___test.html#acbeccf28aeeccf0924f2570972c48d11" target="_top" xlink:title="using a quadrilateral element for testing">
<polygon fill="white" stroke="#666666" points="303.5,-90.12 196.75,-90.12 196.75,-59.62 303.5,-59.62 303.5,-90.12"/>
<text text-anchor="start" x="204.75" y="-76.62" font-family="Helvetica,sans-Serif" font-size="10.00">csmp::Colony_Test::</text>
<text text-anchor="middle" x="250.12" y="-65.38" font-family="Helvetica,sans-Serif" font-size="10.00">TestColonyWith_int</text>
</a>
</g>
</g>
<!-- Node1&#45;&gt;Node2 -->
<g id="edge1_Node000001_Node000002" class="edge">
<title>Node1&#45;&gt;Node2</title>
<g id="a_edge1_Node000001_Node000002"><a xlink:title=" ">
<path fill="none" stroke="#63b8ff" d="M120.61,-56.42C141.12,-59.36 164.18,-62.68 185.05,-65.67"/>
<polygon fill="#63b8ff" stroke="#63b8ff" points="184.49,-69.13 194.88,-67.08 185.48,-62.2 184.49,-69.13"/>
</a>
</g>
</g>
<!-- Node3 -->
<g id="Node000003" class="node">
<title>Node3</title>
<g id="a_Node000003"><a xlink:href="classcsmp_1_1_colony___test.html#a86c072c2b071662ace0300cf8260630c" target="_top" xlink:title=" ">
<polygon fill="white" stroke="#666666" points="344,-41.75 156.25,-41.75 156.25,0 344,0 344,-41.75"/>
<text text-anchor="start" x="164.25" y="-28.25" font-family="Helvetica,sans-Serif" font-size="10.00">csmp::Colony_Test::</text>
<text text-anchor="start" x="164.25" y="-17" font-family="Helvetica,sans-Serif" font-size="10.00">TestThatElementIsCopyableAssignable</text>
<text text-anchor="middle" x="250.12" y="-5.75" font-family="Helvetica,sans-Serif" font-size="10.00">Movable</text>
</a>
</g>
</g>
<!-- Node1&#45;&gt;Node3 -->
<g id="edge2_Node000001_Node000003" class="edge">
<title>Node1&#45;&gt;Node3</title>
<g id="a_edge2_Node000001_Node000003"><a xlink:title=" ">
<path fill="none" stroke="#63b8ff" d="M120.61,-39.33C128.37,-38.22 136.51,-37.05 144.74,-35.87"/>
<polygon fill="#63b8ff" stroke="#63b8ff" points="145.12,-39.35 154.52,-34.46 144.13,-32.42 145.12,-39.35"/>
</a>
</g>
</g>
</g>
</svg>
