<?xml version="1.0" encoding="UTF-8" standalone="no"?>
<!DOCTYPE svg PUBLIC "-//W3C//DTD SVG 1.1//EN"
 "http://www.w3.org/Graphics/SVG/1.1/DTD/svg11.dtd">
<!-- Generated by graphviz version 12.2.1 (20241206.2353)
 -->
<!-- Title: csmp::InterFace_Test::run Pages: 1 -->
<svg width="537pt" height="294pt"
 viewBox="0.00 0.00 536.75 294.12" xmlns="http://www.w3.org/2000/svg" xmlns:xlink="http://www.w3.org/1999/xlink">
<g id="graph0" class="graph" transform="scale(1 1) rotate(0) translate(4 290.12)">
<title>csmp::InterFace_Test::run</title>
<!-- Node1 -->
<g id="Node000001" class="node">
<title>Node1</title>
<g id="a_Node000001"><a xlink:title=" ">
<polygon fill="#999999" stroke="#666666" points="130.75,-157.5 0,-157.5 0,-138.25 130.75,-138.25 130.75,-157.5"/>
<text text-anchor="middle" x="65.38" y="-144" font-family="Helvetica,sans-Serif" font-size="10.00">csmp::InterFace_Test::run</text>
</a>
</g>
</g>
<!-- Node2 -->
<g id="Node000002" class="node">
<title>Node2</title>
<g id="a_Node000002"><a xlink:href="classcsmp_1_1_inter_face___test.html#a3c7674dab26b361276b55176e88c3764" target="_top" xlink:title=" ">
<polygon fill="white" stroke="#666666" points="338.75,-286.12 166.75,-286.12 166.75,-255.62 338.75,-255.62 338.75,-286.12"/>
<text text-anchor="start" x="174.75" y="-272.62" font-family="Helvetica,sans-Serif" font-size="10.00">csmp::InterFace_Test</text>
<text text-anchor="middle" x="252.75" y="-261.38" font-family="Helvetica,sans-Serif" font-size="10.00">::Assign_Geometry_quadratic2_test</text>
</a>
</g>
</g>
<!-- Node1&#45;&gt;Node2 -->
<g id="edge1_Node000001_Node000002" class="edge">
<title>Node1&#45;&gt;Node2</title>
<g id="a_edge1_Node000001_Node000002"><a xlink:title=" ">
<path fill="none" stroke="#63b8ff" d="M73.78,-157.83C88.98,-177.58 125.77,-221.88 166.75,-245.88 169.71,-247.61 172.79,-249.23 175.96,-250.74"/>
<polygon fill="#63b8ff" stroke="#63b8ff" points="174.37,-253.86 184.93,-254.62 177.15,-247.44 174.37,-253.86"/>
</a>
</g>
</g>
<!-- Node4 -->
<g id="Node000004" class="node">
<title>Node4</title>
<g id="a_Node000004"><a xlink:href="classcsmp_1_1_inter_face___test.html#ae8b8eef2ff710176a5f7f5ccfe89201f" target="_top" xlink:title=" ">
<polygon fill="white" stroke="#666666" points="336.12,-237.12 169.38,-237.12 169.38,-206.62 336.12,-206.62 336.12,-237.12"/>
<text text-anchor="start" x="177.38" y="-223.62" font-family="Helvetica,sans-Serif" font-size="10.00">csmp::InterFace_Test</text>
<text text-anchor="middle" x="252.75" y="-212.38" font-family="Helvetica,sans-Serif" font-size="10.00">::Assign_Geometry_quadratic_test</text>
</a>
</g>
</g>
<!-- Node1&#45;&gt;Node4 -->
<g id="edge3_Node000001_Node000004" class="edge">
<title>Node1&#45;&gt;Node4</title>
<g id="a_edge3_Node000001_Node000004"><a xlink:title=" ">
<path fill="none" stroke="#63b8ff" d="M84.46,-157.85C104.25,-168.5 137.1,-185.37 166.75,-196.88 171.99,-198.91 177.47,-200.87 183.01,-202.74"/>
<polygon fill="#63b8ff" stroke="#63b8ff" points="181.67,-205.99 192.26,-205.75 183.84,-199.33 181.67,-205.99"/>
</a>
</g>
</g>
<!-- Node5 -->
<g id="Node000005" class="node">
<title>Node5</title>
<g id="a_Node000005"><a xlink:href="classcsmp_1_1_inter_face___test.html#a57a5460a60788cd424c21cf9a2fadee5" target="_top" xlink:title=" ">
<polygon fill="white" stroke="#666666" points="308.38,-188.12 197.12,-188.12 197.12,-157.62 308.38,-157.62 308.38,-188.12"/>
<text text-anchor="start" x="205.12" y="-174.62" font-family="Helvetica,sans-Serif" font-size="10.00">csmp::InterFace_Test</text>
<text text-anchor="middle" x="252.75" y="-163.38" font-family="Helvetica,sans-Serif" font-size="10.00">::Assign_tests</text>
</a>
</g>
</g>
<!-- Node1&#45;&gt;Node5 -->
<g id="edge5_Node000001_Node000005" class="edge">
<title>Node1&#45;&gt;Node5</title>
<g id="a_edge5_Node000001_Node000005"><a xlink:title=" ">
<path fill="none" stroke="#63b8ff" d="M131.21,-156.62C148.77,-158.99 167.8,-161.55 185.43,-163.93"/>
<polygon fill="#63b8ff" stroke="#63b8ff" points="184.92,-167.39 195.29,-165.26 185.85,-160.46 184.92,-167.39"/>
</a>
</g>
</g>
<!-- Node7 -->
<g id="Node000007" class="node">
<title>Node7</title>
<g id="a_Node000007"><a xlink:href="classcsmp_1_1_inter_face___test.html#a290c0ca75b53600098b9501dd26c1115" target="_top" xlink:title=" ">
<polygon fill="white" stroke="#666666" points="315.5,-139.12 190,-139.12 190,-108.62 315.5,-108.62 315.5,-139.12"/>
<text text-anchor="start" x="198" y="-125.62" font-family="Helvetica,sans-Serif" font-size="10.00">csmp::InterFace_Test</text>
<text text-anchor="middle" x="252.75" y="-114.38" font-family="Helvetica,sans-Serif" font-size="10.00">::Assign_tests_linear_3D</text>
</a>
</g>
</g>
<!-- Node1&#45;&gt;Node7 -->
<g id="edge7_Node000001_Node000007" class="edge">
<title>Node1&#45;&gt;Node7</title>
<g id="a_edge7_Node000001_Node000007"><a xlink:title=" ">
<path fill="none" stroke="#63b8ff" d="M131.21,-139.48C146.5,-137.5 162.91,-135.38 178.54,-133.35"/>
<polygon fill="#63b8ff" stroke="#63b8ff" points="178.79,-136.85 188.26,-132.1 177.89,-129.91 178.79,-136.85"/>
</a>
</g>
</g>
<!-- Node8 -->
<g id="Node000008" class="node">
<title>Node8</title>
<g id="a_Node000008"><a xlink:href="classcsmp_1_1_inter_face___test.html#a932961b6114dcac19b5c887889c82da7" target="_top" xlink:title=" ">
<polygon fill="white" stroke="#666666" points="308.38,-90.12 197.12,-90.12 197.12,-59.62 308.38,-59.62 308.38,-90.12"/>
<text text-anchor="start" x="205.12" y="-76.62" font-family="Helvetica,sans-Serif" font-size="10.00">csmp::InterFace_Test</text>
<text text-anchor="middle" x="252.75" y="-65.38" font-family="Helvetica,sans-Serif" font-size="10.00">::Geometry_tests</text>
</a>
</g>
</g>
<!-- Node1&#45;&gt;Node8 -->
<g id="edge8_Node000001_Node000008" class="edge">
<title>Node1&#45;&gt;Node8</title>
<g id="a_edge8_Node000001_Node000008"><a xlink:title=" ">
<path fill="none" stroke="#63b8ff" d="M84.85,-137.94C104.7,-127.52 137.35,-111.14 166.75,-99.88 173.07,-97.45 179.72,-95.13 186.41,-92.93"/>
<polygon fill="#63b8ff" stroke="#63b8ff" points="186.99,-96.42 195.46,-90.06 184.87,-89.75 186.99,-96.42"/>
</a>
</g>
</g>
<!-- Node9 -->
<g id="Node000009" class="node">
<title>Node9</title>
<g id="a_Node000009"><a xlink:href="classcsmp_1_1_inter_face___test.html#ae78896c92f9f07abb16fe93f2040d35d" target="_top" xlink:title=" ">
<polygon fill="white" stroke="#666666" points="312.5,-41.75 193,-41.75 193,0 312.5,0 312.5,-41.75"/>
<text text-anchor="start" x="201" y="-28.25" font-family="Helvetica,sans-Serif" font-size="10.00">csmp::InterFace_Test</text>
<text text-anchor="start" x="201" y="-17" font-family="Helvetica,sans-Serif" font-size="10.00">::NodeCoordinateMatrix</text>
<text text-anchor="middle" x="252.75" y="-5.75" font-family="Helvetica,sans-Serif" font-size="10.00">_linear_test</text>
</a>
</g>
</g>
<!-- Node1&#45;&gt;Node9 -->
<g id="edge10_Node000001_Node000009" class="edge">
<title>Node1&#45;&gt;Node9</title>
<g id="a_edge10_Node000001_Node000009"><a xlink:title=" ">
<path fill="none" stroke="#63b8ff" d="M74.15,-137.91C89.74,-118.56 126.76,-75.6 166.75,-50.88 171.62,-47.87 176.83,-45.1 182.18,-42.58"/>
<polygon fill="#63b8ff" stroke="#63b8ff" points="183.47,-45.84 191.23,-38.63 180.66,-39.43 183.47,-45.84"/>
</a>
</g>
</g>
<!-- Node3 -->
<g id="Node000003" class="node">
<title>Node3</title>
<g id="a_Node000003"><a xlink:href="classcsmp_1_1_inter_face___test.html#aba2095a16a3a2f50d0ebcdca6d13108e" target="_top" xlink:title=" ">
<polygon fill="white" stroke="#666666" points="528.75,-266.75 374.75,-266.75 374.75,-225 528.75,-225 528.75,-266.75"/>
<text text-anchor="start" x="382.75" y="-253.25" font-family="Helvetica,sans-Serif" font-size="10.00">csmp::InterFace_Test</text>
<text text-anchor="start" x="382.75" y="-242" font-family="Helvetica,sans-Serif" font-size="10.00">::ConstructInterFaceIngredients</text>
<text text-anchor="middle" x="451.75" y="-230.75" font-family="Helvetica,sans-Serif" font-size="10.00">_quadratic</text>
</a>
</g>
</g>
<!-- Node2&#45;&gt;Node3 -->
<g id="edge2_Node000002_Node000003" class="edge">
<title>Node2&#45;&gt;Node3</title>
<g id="a_edge2_Node000002_Node000003"><a xlink:title=" ">
<path fill="none" stroke="#63b8ff" d="M339.01,-260.06C347,-259.04 355.1,-258.01 363.11,-257"/>
<polygon fill="#63b8ff" stroke="#63b8ff" points="363.36,-260.49 372.84,-255.76 362.48,-253.55 363.36,-260.49"/>
</a>
</g>
</g>
<!-- Node4&#45;&gt;Node3 -->
<g id="edge4_Node000004_Node000003" class="edge">
<title>Node4&#45;&gt;Node3</title>
<g id="a_edge4_Node000004_Node000003"><a xlink:title=" ">
<path fill="none" stroke="#63b8ff" d="M336.44,-231.95C345.32,-233.03 354.38,-234.14 363.32,-235.22"/>
<polygon fill="#63b8ff" stroke="#63b8ff" points="362.7,-238.67 373.05,-236.41 363.55,-231.73 362.7,-238.67"/>
</a>
</g>
</g>
<!-- Node6 -->
<g id="Node000006" class="node">
<title>Node6</title>
<g id="a_Node000006"><a xlink:href="classcsmp_1_1_inter_face___test.html#a6ce9953efdd05501aff554771af576e7" target="_top" xlink:title="Data for test.">
<polygon fill="white" stroke="#666666" points="528.75,-90.12 374.75,-90.12 374.75,-59.62 528.75,-59.62 528.75,-90.12"/>
<text text-anchor="start" x="382.75" y="-76.62" font-family="Helvetica,sans-Serif" font-size="10.00">csmp::InterFace_Test</text>
<text text-anchor="middle" x="451.75" y="-65.38" font-family="Helvetica,sans-Serif" font-size="10.00">::ConstructInterFaceIngredients</text>
</a>
</g>
</g>
<!-- Node5&#45;&gt;Node6 -->
<g id="edge6_Node000005_Node000006" class="edge">
<title>Node5&#45;&gt;Node6</title>
<g id="a_edge6_Node000005_Node000006"><a xlink:title=" ">
<path fill="none" stroke="#63b8ff" d="M308.57,-159.31C318.8,-156.07 329.25,-152.25 338.75,-147.88 368.68,-134.08 399.86,-113.13 421.7,-97.21"/>
<polygon fill="#63b8ff" stroke="#63b8ff" points="423.58,-100.17 429.53,-91.41 419.41,-94.55 423.58,-100.17"/>
</a>
</g>
</g>
<!-- Node8&#45;&gt;Node6 -->
<g id="edge9_Node000008_Node000006" class="edge">
<title>Node8&#45;&gt;Node6</title>
<g id="a_edge9_Node000008_Node000006"><a xlink:title=" ">
<path fill="none" stroke="#63b8ff" d="M308.63,-74.88C325.5,-74.88 344.52,-74.88 363.02,-74.88"/>
<polygon fill="#63b8ff" stroke="#63b8ff" points="362.94,-78.38 372.94,-74.88 362.94,-71.38 362.94,-78.38"/>
</a>
</g>
</g>
<!-- Node9&#45;&gt;Node6 -->
<g id="edge11_Node000009_Node000006" class="edge">
<title>Node9&#45;&gt;Node6</title>
<g id="a_edge11_Node000009_Node000006"><a xlink:title=" ">
<path fill="none" stroke="#63b8ff" d="M312.86,-37.08C334.77,-43.08 359.8,-49.94 382.47,-56.16"/>
<polygon fill="#63b8ff" stroke="#63b8ff" points="381.35,-59.48 391.92,-58.75 383.2,-52.73 381.35,-59.48"/>
</a>
</g>
</g>
</g>
</svg>
