<?xml version="1.0" encoding="UTF-8" standalone="no"?>
<!DOCTYPE svg PUBLIC "-//W3C//DTD SVG 1.1//EN"
 "http://www.w3.org/Graphics/SVG/1.1/DTD/svg11.dtd">
<!-- Generated by graphviz version 12.2.1 (20241206.2353)
 -->
<!-- Title: csmp::BoreHole_stability_VerticalWell3D_VVCase Pages: 1 -->
<svg width="144pt" height="410pt"
 viewBox="0.00 0.00 143.75 410.00" xmlns="http://www.w3.org/2000/svg" xmlns:xlink="http://www.w3.org/1999/xlink">
<g id="graph0" class="graph" transform="scale(1 1) rotate(0) translate(4 406)">
<title>csmp::BoreHole_stability_VerticalWell3D_VVCase</title>
<!-- Node1 -->
<g id="Node000001" class="node">
<title>Node1</title>
<g id="a_Node000001"><a xlink:title=" ">
<polygon fill="#999999" stroke="none" points="135.75,-87.5 0,-87.5 0,0 135.75,0 135.75,-87.5"/>
<text text-anchor="start" x="12" y="-74" font-family="Helvetica,sans-Serif" font-size="10.00">csmp::BoreHole_stability</text>
<text text-anchor="start" x="12" y="-62.75" font-family="Helvetica,sans-Serif" font-size="10.00">_VerticalWell3D_VVCase</text>
<text text-anchor="start" x="66.38" y="-47.5" font-family="Helvetica,sans-Serif" font-size="10.00"> </text>
<text text-anchor="start" x="4" y="-32.25" font-family="Helvetica,sans-Serif" font-size="10.00">+</text>
<text text-anchor="start" x="14" y="-32.25" font-family="Helvetica,sans-Serif" font-size="10.00">BoreHole_stability</text>
<text text-anchor="start" x="14" y="-21" font-family="Helvetica,sans-Serif" font-size="10.00">_VerticalWell3D_VVCase()</text>
<text text-anchor="start" x="4" y="-5.75" font-family="Helvetica,sans-Serif" font-size="10.00">+</text>
<text text-anchor="start" x="14" y="-5.75" font-family="Helvetica,sans-Serif" font-size="10.00">run()</text>
<polygon fill="#666666" stroke="#666666" points="0,-59 0,-59 135.75,-59 135.75,-59 0,-59"/>
<polygon fill="#666666" stroke="#666666" points="0,-43.75 0,-43.75 135.75,-43.75 135.75,-43.75 0,-43.75"/>
<polygon fill="none" stroke="#666666" points="0,0 0,-87.5 135.75,-87.5 135.75,0 0,0"/>
</a>
</g>
</g>
<!-- Node2 -->
<g id="Node000002" class="node">
<title>Node2</title>
<g id="a_Node000002"><a xlink:href="classcsmp_1_1_test.html" target="_top" xlink:title=" ">
<polygon fill="white" stroke="none" points="113.62,-402 22.12,-402 22.12,-123.5 113.62,-123.5 113.62,-402"/>
<text text-anchor="start" x="43.5" y="-388.5" font-family="Helvetica,sans-Serif" font-size="10.00">csmp::Test</text>
<text text-anchor="start" x="26.5" y="-373.25" font-family="Helvetica,sans-Serif" font-size="10.00">#</text>
<text text-anchor="start" x="36.12" y="-373.25" font-family="Helvetica,sans-Serif" font-size="10.00">prefix_</text>
<text text-anchor="start" x="26.12" y="-358" font-family="Helvetica,sans-Serif" font-size="10.00">+</text>
<text text-anchor="start" x="36.12" y="-358" font-family="Helvetica,sans-Serif" font-size="10.00">Test()</text>
<text text-anchor="start" x="26.12" y="-342.75" font-family="Helvetica,sans-Serif" font-size="10.00">+</text>
<text text-anchor="start" x="36.12" y="-342.75" font-family="Helvetica,sans-Serif" font-size="10.00">~Test()</text>
<text text-anchor="start" x="26.12" y="-327.5" font-family="Helvetica,sans-Serif" font-size="10.00">+</text>
<text text-anchor="start" x="36.12" y="-327.5" font-family="Helvetica,sans-Serif" font-size="10.00">run()</text>
<text text-anchor="start" x="26.12" y="-312.25" font-family="Helvetica,sans-Serif" font-size="10.00">+</text>
<text text-anchor="start" x="36.12" y="-312.25" font-family="Helvetica,sans-Serif" font-size="10.00">getNumPassed()</text>
<text text-anchor="start" x="26.12" y="-297" font-family="Helvetica,sans-Serif" font-size="10.00">+</text>
<text text-anchor="start" x="36.12" y="-297" font-family="Helvetica,sans-Serif" font-size="10.00">getNumFailed()</text>
<text text-anchor="start" x="26.12" y="-281.75" font-family="Helvetica,sans-Serif" font-size="10.00">+</text>
<text text-anchor="start" x="36.12" y="-281.75" font-family="Helvetica,sans-Serif" font-size="10.00">getStream()</text>
<text text-anchor="start" x="26.12" y="-266.5" font-family="Helvetica,sans-Serif" font-size="10.00">+</text>
<text text-anchor="start" x="36.12" y="-266.5" font-family="Helvetica,sans-Serif" font-size="10.00">setStream()</text>
<text text-anchor="start" x="26.12" y="-251.25" font-family="Helvetica,sans-Serif" font-size="10.00">+</text>
<text text-anchor="start" x="36.12" y="-251.25" font-family="Helvetica,sans-Serif" font-size="10.00">setName()</text>
<text text-anchor="start" x="26.12" y="-236" font-family="Helvetica,sans-Serif" font-size="10.00">+</text>
<text text-anchor="start" x="36.12" y="-236" font-family="Helvetica,sans-Serif" font-size="10.00">getName()</text>
<text text-anchor="start" x="26.12" y="-220.75" font-family="Helvetica,sans-Serif" font-size="10.00">+</text>
<text text-anchor="start" x="36.12" y="-220.75" font-family="Helvetica,sans-Serif" font-size="10.00">hasName()</text>
<text text-anchor="start" x="26.12" y="-205.5" font-family="Helvetica,sans-Serif" font-size="10.00">+</text>
<text text-anchor="start" x="36.12" y="-205.5" font-family="Helvetica,sans-Serif" font-size="10.00">do_succeed()</text>
<text text-anchor="start" x="26.12" y="-190.25" font-family="Helvetica,sans-Serif" font-size="10.00">+</text>
<text text-anchor="start" x="36.12" y="-190.25" font-family="Helvetica,sans-Serif" font-size="10.00">report()</text>
<text text-anchor="start" x="26.12" y="-175" font-family="Helvetica,sans-Serif" font-size="10.00">+</text>
<text text-anchor="start" x="36.12" y="-175" font-family="Helvetica,sans-Serif" font-size="10.00">reset()</text>
<text text-anchor="start" x="26.5" y="-159.75" font-family="Helvetica,sans-Serif" font-size="10.00">#</text>
<text text-anchor="start" x="36.12" y="-159.75" font-family="Helvetica,sans-Serif" font-size="10.00">do_equal()</text>
<text text-anchor="start" x="26.5" y="-144.5" font-family="Helvetica,sans-Serif" font-size="10.00">#</text>
<text text-anchor="start" x="36.12" y="-144.5" font-family="Helvetica,sans-Serif" font-size="10.00">do_test()</text>
<text text-anchor="start" x="26.5" y="-129.25" font-family="Helvetica,sans-Serif" font-size="10.00">#</text>
<text text-anchor="start" x="36.12" y="-129.25" font-family="Helvetica,sans-Serif" font-size="10.00">do_fail()</text>
<polygon fill="#666666" stroke="#666666" points="22.12,-384.75 22.12,-384.75 113.62,-384.75 113.62,-384.75 22.12,-384.75"/>
<polygon fill="#666666" stroke="#666666" points="22.12,-369.5 22.12,-369.5 34.12,-369.5 34.12,-369.5 22.12,-369.5"/>
<polygon fill="#666666" stroke="#666666" points="34.12,-369.5 34.12,-369.5 113.62,-369.5 113.62,-369.5 34.12,-369.5"/>
<polygon fill="none" stroke="#666666" points="22.12,-123.5 22.12,-402 113.62,-402 113.62,-123.5 22.12,-123.5"/>
</a>
</g>
</g>
<!-- Node2&#45;&gt;Node1 -->
<g id="edge1_Node000001_Node000002" class="edge">
<title>Node2&#45;&gt;Node1</title>
<g id="a_edge1_Node000001_Node000002"><a xlink:title=" ">
<path fill="none" stroke="#63b8ff" d="M67.88,-112.28C67.88,-103.42 67.88,-94.99 67.88,-87.27"/>
<polygon fill="none" stroke="#63b8ff" points="64.38,-112.19 67.88,-122.19 71.38,-112.19 64.38,-112.19"/>
</a>
</g>
</g>
</g>
</svg>
