<?xml version="1.0" encoding="UTF-8" standalone="no"?>
<!DOCTYPE svg PUBLIC "-//W3C//DTD SVG 1.1//EN"
 "http://www.w3.org/Graphics/SVG/1.1/DTD/svg11.dtd">
<!-- Generated by graphviz version 12.2.1 (20241206.2353)
 -->
<!-- Title: Graphical Class Hierarchy Pages: 1 -->
<svg width="289pt" height="137pt"
 viewBox="0.00 0.00 289.00 136.50" xmlns="http://www.w3.org/2000/svg" xmlns:xlink="http://www.w3.org/1999/xlink">
<g id="graph0" class="graph" transform="scale(1 1) rotate(0) translate(4 132.5)">
<title>Graphical Class Hierarchy</title>
<!-- Node0 -->
<g id="Node000000" class="node">
<title>Node0</title>
<g id="a_Node000000"><a xlink:href="classcsmp_1_1_math_operator_r_h_s.html" target="_top" xlink:title=" ">
<polygon fill="white" stroke="#666666" points="127,-79.5 0,-79.5 0,-49 127,-49 127,-79.5"/>
<text text-anchor="start" x="8" y="-66" font-family="Helvetica,sans-Serif" font-size="10.00">csmp::MathOperatorRHS</text>
<text text-anchor="middle" x="63.5" y="-54.75" font-family="Helvetica,sans-Serif" font-size="10.00">&lt; dim, Face &gt;</text>
</a>
</g>
</g>
<!-- Node1 -->
<g id="Node000001" class="node">
<title>Node1</title>
<g id="a_Node000001"><a xlink:href="classcsmp_1_1_integral___n_t__op__d_s.html" target="_top" xlink:title="works only if there are faces">
<polygon fill="white" stroke="#666666" points="278.38,-128.5 165.62,-128.5 165.62,-98 278.38,-98 278.38,-128.5"/>
<text text-anchor="start" x="173.62" y="-115" font-family="Helvetica,sans-Serif" font-size="10.00">csmp::Integral_NT_op</text>
<text text-anchor="middle" x="222" y="-103.75" font-family="Helvetica,sans-Serif" font-size="10.00">_dS&lt; dim &gt;</text>
</a>
</g>
</g>
<!-- Node0&#45;&gt;Node1 -->
<g id="edge333_Node000000_Node000001" class="edge">
<title>Node0&#45;&gt;Node1</title>
<g id="a_edge333_Node000000_Node000001"><a xlink:title=" ">
<path fill="none" stroke="#63b8ff" d="M125.21,-83.26C140.27,-87.97 156.23,-92.97 170.72,-97.51"/>
<polygon fill="#63b8ff" stroke="#63b8ff" points="126.48,-79.99 115.89,-80.34 124.39,-86.67 126.48,-79.99"/>
</a>
</g>
</g>
<!-- Node2 -->
<g id="Node000002" class="node">
<title>Node2</title>
<g id="a_Node000002"><a xlink:href="classcsmp_1_1_num_integral___n_t__op___n__d_s.html" target="_top" xlink:title="Known as: &quot;mass matrix&quot;, &quot;fluid sources or sinks&quot;, or &quot;capacitance matrix&quot;.">
<polygon fill="white" stroke="#666666" points="281,-79.5 163,-79.5 163,-49 281,-49 281,-79.5"/>
<text text-anchor="start" x="171" y="-66" font-family="Helvetica,sans-Serif" font-size="10.00">csmp::NumIntegral_NT</text>
<text text-anchor="middle" x="222" y="-54.75" font-family="Helvetica,sans-Serif" font-size="10.00">_op_N_dS&lt; dim &gt;</text>
</a>
</g>
</g>
<!-- Node0&#45;&gt;Node2 -->
<g id="edge334_Node000000_Node000002" class="edge">
<title>Node0&#45;&gt;Node2</title>
<g id="a_edge334_Node000000_Node000002"><a xlink:title=" ">
<path fill="none" stroke="#63b8ff" d="M138.56,-64.25C146.61,-64.25 154.72,-64.25 162.55,-64.25"/>
<polygon fill="#63b8ff" stroke="#63b8ff" points="138.77,-60.75 128.77,-64.25 138.77,-67.75 138.77,-60.75"/>
</a>
</g>
</g>
<!-- Node3 -->
<g id="Node000003" class="node">
<title>Node3</title>
<g id="a_Node000003"><a xlink:href="classcsmp_1_1_num_integral___p_t__op__d_s.html" target="_top" xlink:title=" ">
<polygon fill="white" stroke="#666666" points="280.62,-30.5 163.38,-30.5 163.38,0 280.62,0 280.62,-30.5"/>
<text text-anchor="start" x="171.38" y="-17" font-family="Helvetica,sans-Serif" font-size="10.00">csmp::NumIntegral_PT</text>
<text text-anchor="middle" x="222" y="-5.75" font-family="Helvetica,sans-Serif" font-size="10.00">_op_dS&lt; dim &gt;</text>
</a>
</g>
</g>
<!-- Node0&#45;&gt;Node3 -->
<g id="edge335_Node000000_Node000003" class="edge">
<title>Node0&#45;&gt;Node3</title>
<g id="a_edge335_Node000000_Node000003"><a xlink:title=" ">
<path fill="none" stroke="#63b8ff" d="M125.21,-45.24C140.27,-40.53 156.23,-35.53 170.72,-30.99"/>
<polygon fill="#63b8ff" stroke="#63b8ff" points="124.39,-41.83 115.89,-48.16 126.48,-48.51 124.39,-41.83"/>
</a>
</g>
</g>
</g>
</svg>
