<?xml version="1.0" encoding="UTF-8" standalone="no"?>
<!DOCTYPE svg PUBLIC "-//W3C//DTD SVG 1.1//EN"
 "http://www.w3.org/Graphics/SVG/1.1/DTD/svg11.dtd">
<!-- Generated by graphviz version 12.2.1 (20241206.2353)
 -->
<!-- Title: csmp::LinearAlgebraicSystem Pages: 1 -->
<svg width="147pt" height="344pt"
 viewBox="0.00 0.00 146.50 343.75" xmlns="http://www.w3.org/2000/svg" xmlns:xlink="http://www.w3.org/1999/xlink">
<g id="graph0" class="graph" transform="scale(1 1) rotate(0) translate(4 339.75)">
<title>csmp::LinearAlgebraicSystem</title>
<!-- Node1 -->
<g id="Node000001" class="node">
<title>Node1</title>
<g id="a_Node000001"><a xlink:title=" ">
<polygon fill="#999999" stroke="none" points="138.5,-80.25 0,-80.25 0,0 138.5,0 138.5,-80.25"/>
<text text-anchor="start" x="4" y="-66.75" font-family="Helvetica,sans-Serif" font-size="10.00">csmp::LinearAlgebraicSystem</text>
<text text-anchor="start" x="7.5" y="-51.5" font-family="Helvetica,sans-Serif" font-size="10.00">+</text>
<text text-anchor="start" x="21" y="-51.5" font-family="Helvetica,sans-Serif" font-size="10.00">RHS</text>
<text text-anchor="start" x="7.5" y="-36.25" font-family="Helvetica,sans-Serif" font-size="10.00">+</text>
<text text-anchor="start" x="21" y="-36.25" font-family="Helvetica,sans-Serif" font-size="10.00">X</text>
<text text-anchor="start" x="7.5" y="-21" font-family="Helvetica,sans-Serif" font-size="10.00">+</text>
<text text-anchor="start" x="21" y="-21" font-family="Helvetica,sans-Serif" font-size="10.00">LinearAlgebraicSystem()</text>
<text text-anchor="start" x="7.5" y="-5.75" font-family="Helvetica,sans-Serif" font-size="10.00">+</text>
<text text-anchor="start" x="21" y="-5.75" font-family="Helvetica,sans-Serif" font-size="10.00">Resize()</text>
<polygon fill="#666666" stroke="#666666" points="0,-63 0,-63 138.5,-63 138.5,-63 0,-63"/>
<polygon fill="#666666" stroke="#666666" points="0,-32.5 0,-32.5 19,-32.5 19,-32.5 0,-32.5"/>
<polygon fill="#666666" stroke="#666666" points="19,-32.5 19,-32.5 138.5,-32.5 138.5,-32.5 19,-32.5"/>
<polygon fill="none" stroke="#666666" points="0,0 0,-80.25 138.5,-80.25 138.5,0 0,0"/>
</a>
</g>
</g>
<!-- Node2 -->
<g id="Node000002" class="node">
<title>Node2</title>
<g id="a_Node000002"><a xlink:href="classcsmp_1_1_sparse_matrix.html" target="_top" xlink:title="For the accumulation of element matrices in finite element calculations.">
<polygon fill="white" stroke="none" points="117.12,-335.75 21.38,-335.75 21.38,-133.5 117.12,-133.5 117.12,-335.75"/>
<text text-anchor="start" x="25.38" y="-322.25" font-family="Helvetica,sans-Serif" font-size="10.00">csmp::SparseMatrix</text>
<text text-anchor="start" x="67.75" y="-307" font-family="Helvetica,sans-Serif" font-size="10.00"> </text>
<text text-anchor="start" x="27.38" y="-291.75" font-family="Helvetica,sans-Serif" font-size="10.00">+</text>
<text text-anchor="start" x="39.38" y="-291.75" font-family="Helvetica,sans-Serif" font-size="10.00">SparseMatrix()</text>
<text text-anchor="start" x="27.38" y="-276.5" font-family="Helvetica,sans-Serif" font-size="10.00">+</text>
<text text-anchor="start" x="39.38" y="-276.5" font-family="Helvetica,sans-Serif" font-size="10.00">SparseMatrix()</text>
<text text-anchor="start" x="27.38" y="-261.25" font-family="Helvetica,sans-Serif" font-size="10.00">+</text>
<text text-anchor="start" x="39.38" y="-261.25" font-family="Helvetica,sans-Serif" font-size="10.00">SparseMatrix()</text>
<text text-anchor="start" x="27.38" y="-246" font-family="Helvetica,sans-Serif" font-size="10.00">+</text>
<text text-anchor="start" x="39.38" y="-246" font-family="Helvetica,sans-Serif" font-size="10.00">SparseMatrix()</text>
<text text-anchor="start" x="27.38" y="-230.75" font-family="Helvetica,sans-Serif" font-size="10.00">+</text>
<text text-anchor="start" x="39.38" y="-230.75" font-family="Helvetica,sans-Serif" font-size="10.00">operator=()</text>
<text text-anchor="start" x="27.38" y="-215.5" font-family="Helvetica,sans-Serif" font-size="10.00">+</text>
<text text-anchor="start" x="39.38" y="-215.5" font-family="Helvetica,sans-Serif" font-size="10.00">operator=()</text>
<text text-anchor="start" x="27.38" y="-200.25" font-family="Helvetica,sans-Serif" font-size="10.00">+</text>
<text text-anchor="start" x="39.38" y="-200.25" font-family="Helvetica,sans-Serif" font-size="10.00">~SparseMatrix()</text>
<text text-anchor="start" x="27.38" y="-185" font-family="Helvetica,sans-Serif" font-size="10.00">+</text>
<text text-anchor="start" x="39.38" y="-185" font-family="Helvetica,sans-Serif" font-size="10.00">operator+=()</text>
<text text-anchor="start" x="27.38" y="-169.75" font-family="Helvetica,sans-Serif" font-size="10.00">+</text>
<text text-anchor="start" x="39.38" y="-169.75" font-family="Helvetica,sans-Serif" font-size="10.00">operator()()</text>
<text text-anchor="start" x="27.38" y="-154.5" font-family="Helvetica,sans-Serif" font-size="10.00">+</text>
<text text-anchor="start" x="39.38" y="-154.5" font-family="Helvetica,sans-Serif" font-size="10.00">At()</text>
<text text-anchor="start" x="39.38" y="-139.25" font-family="Helvetica,sans-Serif" font-size="10.00">and 35 more...</text>
<polygon fill="#666666" stroke="#666666" points="21.38,-318.5 21.38,-318.5 117.12,-318.5 117.12,-318.5 21.38,-318.5"/>
<polygon fill="#666666" stroke="#666666" points="21.38,-303.25 21.38,-303.25 117.12,-303.25 117.12,-303.25 21.38,-303.25"/>
<polygon fill="none" stroke="#666666" points="21.38,-133.5 21.38,-335.75 117.12,-335.75 117.12,-133.5 21.38,-133.5"/>
</a>
</g>
</g>
<!-- Node2&#45;&gt;Node1 -->
<g id="edge1_Node000001_Node000002" class="edge">
<title>Node2&#45;&gt;Node1</title>
<g id="a_edge1_Node000001_Node000002"><a xlink:title=" ">
<path fill="none" stroke="#63b8ff" d="M69.25,-133.71C69.25,-119.58 69.25,-105.55 69.25,-92.85"/>
<polygon fill="none" stroke="#63b8ff" points="69.25,-93.05 65.25,-87.05 69.25,-81.05 73.25,-87.05 69.25,-93.05"/>
</a>
</g>
<text text-anchor="start" x="72.25" y="-103" font-family="Helvetica,sans-Serif" font-size="10.00" fill="grey">+LHS</text>
</g>
</g>
</svg>
