0  2  1  1
130  1
   1       1     2       0
   2       2   105       0
   3     289   159       0
   4     111     4       0
   5       5     6       0
   6       6   231       0
   7       7   466       0
   8       8   103       0
   9      10   376       1
  10      11   514       1
  11      12   447       1
  12       9   319       1
  13      13   353       1
  14      14   441       1
  15      15   304       1
  16      16   384       1
  17      17   382       1
  18      18    83       0
  19      19   169       0
  20      20   146       0
  21      21   179       0
  22      22   270       1
  23      23   301       1
  24      24   519       1
  25      28    71       0
  26      29   188       0
  27      30   175       0
  28      31    63       0
  29      32   143       0
  30      33    77       0
  31      34   141       0
  32      35   140       0
  33      36   155       0
  34      37   186       0
  35      38   153       0
  36      39   148       0
  37      46   165       0
  38      47    91       0
  39      48   163       0
  40      49   161       0
  41      61    64       0
  42      62   171       0
  43      63    62       0
  44      64    30       0
  45      69    72       0
  46      70   173       0
  47      71    70       0
  48      72    29       0
  49      75    78       0
  50      76   181       0
  51      77    76       0
  52      78    32       0
  53      81    84       0
  54      82   184       0
  55      83    82       0
  56      84    19       0
  57      89    92       0
  58      90   190       0
  59      91    90       0
  60      92    46       0
  61     103   221       0
  62     104   293       0
  63     105   104       0
  64     109     7       0
  65     110   230       0
  66     111   110       0
  67     133    12       1
  68     134   390       1
  69     472    34       0
  70     139   237       0
  71     140   139       0
  72     141    33       0
  73     142    35       0
  74     143   142       0
  75     146    38       0
  76     147    21       0
  77     148   147       0
  78     153    37       0
  79     154    39       0
  80     155   154       0
  81     159    48       0
  82     160   295       0
  83     161   160       0
  84     163    47       0
  85     164    49       0
  86     165   164       0
  87     169    61       0
  88     170    18       0
  89     171   170       0
  90     173    31       0
  91     174    69       0
  92     175   174       0
  93     179    75       0
  94     180    20       0
  95     181   180       0
  96     184    36       0
  97     185    81       0
  98     186   185       0
  99     188    89       0
 100     189    28       0
 101     190   189       0
 102     214   374       1
 103     221     1       0
 104     229   591       1
 105     230     5       0
 106     231   109       0
 107     236   138       0
 108     237     4       0
 109     270     9       1
 110     477     3       0
 111     293     3       0
 112     295     8       0
 113     301    14       1
 114     304    24       1
 115     319    17       1
 116     353    22       1
 117     374    13       1
 118     376   214       1
 119     382    16       1
 120     384   133       1
 121     390   594       1
 122     441   229       1
 123     447   134       1
 124     466   236       0
 125     472   138       0
 126     477   289       0
 127     514    23       1
 128     519    11       1
 129     591    10       1
 130     594    15       1
0
2
   1   50  50  1.0000000000000001e-15  100000
   2   320  260  1e-10  100000
# Generated by triangleMesher -aAnepCVOq30 blunt30deg.poly
