0  2  1  1
309  1
   1       2     1       0
   2       3     2       0
   3       4     3       0
   4       5     4       0
   5       6     5       0
   6       7     6       0
   7       8     7       0
   8       8     9       0
   9      10     9       0
  10      11    10       0
  11      11    12       0
  12       1    12       0
  13      13  1369       0
  14      14  1359       0
  15      29   991       0
  16     161  1275       0
  17      17  1292       0
  18    1250    18       0
  19      19   613       0
  20      20   157       0
  21     548  1686       0
  22      49  1156       0
  23    2238   488       0
  24      21  2285       0
  25      26  2221       1
  26      27   727       1
  27      28  2024       1
  28      25  2289       1
  29    1047    45       0
  30      30  1229       0
  31      31   662       0
  32      32  1779       0
  33     321  2296       0
  34      34  1679       1
  35      35  1914       1
  36      36  2216       1
  37      37   480       1
  38     507  2286       0
  39      39  1021       0
  40      40  2139       0
  41      41   232       0
  42      42   937       0
  43      43   893       0
  44      44  2282       0
  45     603    15       0
  46      46  1001       0
  47      49  1135       0
  48      50  1840       0
  49      51  2279       0
  50      54   205       0
  51      55   239       0
  52      56   998       0
  53      57   198       0
  54      59   216       0
  55      60   245       0
  56      61  1015       0
  57      62   210       0
  58      63   228       0
  59      64   975       0
  60      65  1025       0
  61      66   222       0
  62    1241   439       0
  63     105   831       0
  64     106  1041       0
  65     107   832       0
  66     108   892       0
  67     112   896       0
  68     113   236       0
  69     114   897       0
  70     871    43       0
  71     117   915       0
  72     118  1043       0
  73     119   916       0
  74     120   936       0
  75     123   940       0
  76     124  1044       0
  77     125   941       0
  78     126   330       0
  79     127   987       0
  80     128   249       0
  81     129   988       0
  82     130   976       0
  83     155  1393       0
  84    1383   323       0
  85    1385   156       0
  86    1312   315       0
  87     162   404       0
  88     163   162       0
  89     167  1922       1
  90     168  2178       1
  91     176  2288       1
  92     177  1672       1
  93     196  2251       0
  94     197   992       0
  95     198   197       0
  96     203  2254       0
  97     204   997       0
  98     205   204       0
  99     208  2255       0
 100     209  1002       0
 101     210   209       0
 102     214  2256       0
 103     215  1016       0
 104     216   215       0
 105     220  2257       0
 106     221  1022       0
 107     222   221       0
 108     982    64       0
 109     227  1026       0
 110     228   227       0
 111     837    42       0
 112     231  1040       0
 113     232   231       0
 114    1422   112       0
 115     235   407       0
 116     236   235       0
 117     237  2258       0
 118     238  1042       0
 119     239   238       0
 120     243  2260       0
 121     244  1045       0
 122     245   244       0
 123     247  2261       0
 124     248  1048       0
 125     249   248       0
 126     277   318       0
 127     278  1874       1
 128     311  1656       1
 129    1773  2294       0
 130     313  2297       1
 131     315  1249       0
 132    2273    33       0
 133    2287    33       0
 134     323  1358       0
 135     324  1397       0
 136     329   125       0
 137     330    20       0
 138     357  2013       1
 139     362   596       0
 140     821    40       0
 141     404    19       0
 142     406   234       0
 143     407    16       0
 144     439   755       0
 145     451  1668       1
 146     455  1834       0
 147     479  2182       1
 148     480  2028       1
 149     485  2264       0
 150     488  2228       0
 151     494  2019       1
 152     496  2214       1
 153     504   797       0
 154     517    38       0
 155     517   507       0
 156     527   890       1
 157     529  1144       0
 158     533  1964       0
 159     547  2280       0
 160     548   859       0
 161     596    51       0
 162     603   329       0
 163     613   406       0
 164     624  1753       0
 165     637  1674       1
 166     642  2023       1
 167     660    31       0
 168     662   362       0
 169    1841    23       0
 170     727  2186       1
 171     728    27       1
 172     737  2290       1
 173     739   278       1
 174     742  1114       1
 175    1235    30       0
 176     785  2222       1
 177     797    38       0
 178     821   367       0
 179     831   108       0
 180     832   106       0
 181     837   230       0
 182     859    74       0
 183     871   115       0
 184     890  1667       1
 185     892    44       0
 186     893   107       0
 187     896   115       0
 188     897   113       0
 189     915   120       0
 190     916   118       0
 191     936    41       0
 192     937   119       0
 193     940   126       0
 194     941   124       0
 195     975   129       0
 196     976    63       0
 197     982   226       0
 198     987   130       0
 199     988   128       0
 200     991   196       0
 201     992    39       0
 202     997    57       0
 203     998   203       0
 204    1001   208       0
 205    1002    45       0
 206    1015   214       0
 207    1016    62       0
 208    1021   220       0
 209    1022    29       0
 210    1025   226       0
 211    1026    66       0
 212    1040   105       0
 213    1041   230       0
 214    1042   117       0
 215    1043   237       0
 216    1044   243       0
 217    1045   123       0
 218    1047   247       0
 219    1048    46       0
 220    1059  2300       0
 221    1077  1661       1
 222    1096   311       1
 223    1114    35       1
 224    1149   529       0
 225    1144   660       0
 226    1149  1135       0
 227    1156   672       0
 228    1229   367       0
 229    1235   755       0
 230    1241    74       0
 231    1249  1294       0
 232    1250   163       0
 233    1275    16       0
 234    1292    18       0
 235    1294    17       0
 236    1311   161       0
 237    1312  1311       0
 238    1358  1371       0
 239    1359   324       0
 240    1369    14       0
 241    1371    13       0
 242    1383   156       0
 243    1385   157       0
 244    1393    15       0
 245    1397   155       0
 246    1412  1985       1
 247    1422   234       0
 248    1541  2219       1
 249    1656   737       1
 250    1661   451       1
 251    1667    34       1
 252    1668  1096       1
 253    1672   527       1
 254    1674   177       1
 255    1679  1077       1
 256    1686    22       0
 257    1753    50       0
 258    2250   312       0
 259    1779   624       0
 260    1834    23       0
 261    1840  1850       0
 262    1841   672       0
 263    1850   455       0
 264    1874  1412       1
 265    1914  2185       1
 266    1922   742       1
 267    1964   277       0
 268    1985    37       1
 269    2013   642       1
 270    2019   313       1
 271    2023    28       1
 272    2024   494       1
 273    2028   357       1
 274    2139   504       0
 275    2178   785       1
 276    2182   168       1
 277    2185   479       1
 278    2186   167       1
 279    2214    36       1
 280    2216  1541       1
 281    2219   176       1
 282    2221   637       1
 283    2222    26       1
 284    2228   312       0
 285    2238    24       0
 286    2250  1773       0
 287    2251    56       0
 288    2254    55       0
 289    2255    61       0
 290    2256    60       0
 291    2257    65       0
 292    2258    54       0
 293    2260    59       0
 294    2261   127       0
 295    2264   321       0
 296    2273   318       0
 297    2279   547       0
 298    2280    22       0
 299    2282   114       0
 300    2285   533       0
 301    2286    21       0
 302    2287   485       0
 303    2288   728       1
 304    2289   739       1
 305    2290    25       1
 306    2294    32       0
 307    2296  1059       0
 308    2297   496       1
 309    2300    24       0
0
4
   1   50  50  1.0099999999999999e-12  10000
   2   600  600  9.9999999999999998e-13  1000
   3   815.67100000000005  700  9.9999999999999998e-17  10
   4   740.721  744.49300000000005  1.0000000000000001e-05  5
# Generated by triangleMesher -aAnepCVOq32. well.poly
