0  2  1  1
128  1
   1       2  1057       1
   2       3  1088       1
   3       4   972       1
   4       1   855       1
   5       6   628       1
   6       7   870       1
   7       8  1072       1
   8       9   990       1
   9      15   653       1
  10      16   862       1
  11      18   840       1
  12      20   980       1
  13      21   912       1
  14      22  1064       1
  15      24  1080       1
  16      25  1042       1
  17      44   629       1
  18      53   652       1
  19      54   664       1
  20      55   858       1
  21      57   866       1
  22      60   880       1
  23      64   854       1
  24      66   976       1
  25      68   984       1
  26      72  1004       1
  27      73   923       1
  28      74  1060       1
  29      76  1068       1
  30      78  1076       1
  31      80  1084       1
  32      81  1056       1
  33     159   623       1
  34     165   648       1
  35     166   631       1
  36     169   656       1
  37     208   836       1
  38     212   850       1
  39     213   667       1
  40     214   856       1
  41     216   860       1
  42     218   864       1
  43     220   868       1
  44     223   873       1
  45     231   883       1
  46     234   915       1
  47     246   970       1
  48     248   974       1
  49     250   978       1
  50     252   982       1
  51     254   986       1
  52     258  1000       1
  53     268  1038       1
  54     272  1052       1
  55     273   926       1
  56     274  1058       1
  57     276  1062       1
  58     278  1066       1
  59     280  1070       1
  60     282  1074       1
  61     284  1078       1
  62     286  1082       1
  63     288  1086       1
  64     289  1089       1
  65     623     6       1
  66     628   165       1
  67     629   159       1
  68     631    44       1
  69     648    53       1
  70     652   208       1
  71     653   166       1
  72     656    15       1
  73     664   169       1
  74     667    54       1
  75     836    18       1
  76     840   212       1
  77     850    64       1
  78     854   246       1
  79     855   213       1
  80     856     1       1
  81     858   214       1
  82     860    55       1
  83     862   216       1
  84     864    16       1
  85     866   218       1
  86     868    57       1
  87     870   220       1
  88     873     7       1
  89     880   223       1
  90     883    60       1
  91     912   231       1
  92     915    21       1
  93     923   234       1
  94     926    73       1
  95     970     4       1
  96     972   248       1
  97     974    66       1
  98     976   250       1
  99     978    20       1
 100     980   252       1
 101     982    68       1
 102     984   254       1
 103     986     9       1
 104     990   258       1
 105    1000    72       1
 106    1004   268       1
 107    1038    25       1
 108    1042   272       1
 109    1052    81       1
 110    1056   289       1
 111    1057   273       1
 112    1058     2       1
 113    1060   274       1
 114    1062    74       1
 115    1064   276       1
 116    1066    22       1
 117    1068   278       1
 118    1070    76       1
 119    1072   280       1
 120    1074     8       1
 121    1076   282       1
 122    1078    78       1
 123    1080   284       1
 124    1082    24       1
 125    1084   286       1
 126    1086    80       1
 127    1088   288       1
 128    1089     3       1
0
1
   1   50  50  1e-13  2.5
# Generated by C:\SEBAST~1\CSP\UTILIT~1\TRIANGLE\TRIANG~1.EXE -aAnepq30CV test3.poly
