2113  2  1  1
   1    0  0  1    1
   2    100  0  1    1
   3    100  100  1    1
   4    0  100  1    1
   5    50  50  1    0
   6    0  50  1    1
   7    50  0  1    1
   8    100  50  1    1
   9    50  100  1    1
  10    25  25  1    0
  11    25  75  1    0
  12    75  25  1    0
  13    75  75  1    0
  14    25  50  1    0
  15    0  25  1    1
  16    25  0  1    1
  17    50  25  1    0
  18    0  75  1    1
  19    50  75  1    0
  20    25  100  1    1
  21    75  0  1    1
  22    100  25  1    1
  23    75  50  1    0
  24    100  75  1    1
  25    75  100  1    1
  26    12.5  37.5  1    0
  27    37.5  37.5  1    0
  28    37.5  62.5  1    0
  29    12.5  62.5  1    0
  30    12.5  12.5  1    0
  31    37.5  12.5  1    0
  32    62.5  12.5  1    0
  33    62.5  37.5  1    0
  34    12.5  87.5  1    0
  35    37.5  87.5  1    0
  36    62.5  62.5  1    0
  37    62.5  87.5  1    0
  38    87.5  12.5  1    0
  39    87.5  37.5  1    0
  40    87.5  62.5  1    0
  41    87.5  87.5  1    0
  42    25  37.5  1    0
  43    12.5  50  1    0
  44    0  37.5  1    1
  45    12.5  25  1    0
  46    37.5  50  1    0
  47    37.5  25  1    0
  48    50  37.5  1    0
  49    25  62.5  1    0
  50    50  62.5  1    0
  51    37.5  75  1    0
  52    12.5  75  1    0
  53    0  62.5  1    1
  54    0  12.5  1    1
  55    12.5  0  1    1
  56    25  12.5  1    0
  57    37.5  0  1    1
  58    50  12.5  1    0
  59    62.5  25  1    0
  60    62.5  0  1    1
  61    75  12.5  1    0
  62    75  37.5  1    0
  63    62.5  50  1    0
  64    0  87.5  1    1
  65    25  87.5  1    0
  66    12.5  100  1    1
  67    50  87.5  1    0
  68    37.5  100  1    1
  69    62.5  75  1    0
  70    75  62.5  1    0
  71    75  87.5  1    0
  72    62.5  100  1    1
  73    87.5  0  1    1
  74    100  12.5  1    1
  75    87.5  25  1    0
  76    100  37.5  1    1
  77    87.5  50  1    0
  78    100  62.5  1    1
  79    87.5  75  1    0
  80    100  87.5  1    1
  81    87.5  100  1    1
  82    18.75  43.75  1    0
  83    18.75  31.25  1    0
  84    31.25  31.25  1    0
  85    31.25  43.75  1    0
  86    6.25  43.75  1    0
  87    18.75  56.25  1    0
  88    6.25  56.25  1    0
  89    6.25  31.25  1    0
  90    6.25  18.75  1    0
  91    18.75  18.75  1    0
  92    43.75  43.75  1    0
  93    43.75  56.25  1    0
  94    31.25  56.25  1    0
  95    43.75  31.25  1    0
  96    31.25  18.75  1    0
  97    43.75  18.75  1    0
  98    56.25  31.25  1    0
  99    56.25  43.75  1    0
 100    31.25  68.75  1    0
 101    18.75  68.75  1    0
 102    43.75  68.75  1    0
 103    56.25  56.25  1    0
 104    56.25  68.75  1    0
 105    43.75  81.25  1    0
 106    31.25  81.25  1    0
 107    6.25  68.75  1    0
 108    18.75  81.25  1    0
 109    6.25  81.25  1    0
 110    6.25  6.25  1    0
 111    18.75  6.25  1    0
 112    31.25  6.25  1    0
 113    43.75  6.25  1    0
 114    56.25  6.25  1    0
 115    56.25  18.75  1    0
 116    68.75  18.75  1    0
 117    68.75  31.25  1    0
 118    68.75  6.25  1    0
 119    81.25  6.25  1    0
 120    81.25  18.75  1    0
 121    68.75  43.75  1    0
 122    81.25  31.25  1    0
 123    81.25  43.75  1    0
 124    68.75  56.25  1    0
 125    6.25  93.75  1    0
 126    18.75  93.75  1    0
 127    31.25  93.75  1    0
 128    43.75  93.75  1    0
 129    56.25  81.25  1    0
 130    56.25  93.75  1    0
 131    68.75  68.75  1    0
 132    68.75  81.25  1    0
 133    81.25  56.25  1    0
 134    81.25  68.75  1    0
 135    68.75  93.75  1    0
 136    81.25  81.25  1    0
 137    81.25  93.75  1    0
 138    93.75  6.25  1    0
 139    93.75  18.75  1    0
 140    93.75  31.25  1    0
 141    93.75  43.75  1    0
 142    93.75  56.25  1    0
 143    93.75  68.75  1    0
 144    93.75  81.25  1    0
 145    93.75  93.75  1    0
 146    18.75  37.5  1    0
 147    25  43.75  1    0
 148    18.75  50  1    0
 149    12.5  43.75  1    0
 150    25  31.25  1    0
 151    12.5  31.25  1    0
 152    18.75  25  1    0
 153    31.25  37.5  1    0
 154    31.25  25  1    0
 155    37.5  31.25  1    0
 156    37.5  43.75  1    0
 157    31.25  50  1    0
 158    6.25  50  1    0
 159    0  43.75  1    1
 160    6.25  37.5  1    0
 161    12.5  56.25  1    0
 162    25  56.25  1    0
 163    18.75  62.5  1    0
 164    6.25  62.5  1    0
 165    0  56.25  1    1
 166    0  31.25  1    1
 167    6.25  25  1    0
 168    12.5  18.75  1    0
 169    0  18.75  1    1
 170    6.25  12.5  1    0
 171    18.75  12.5  1    0
 172    25  18.75  1    0
 173    43.75  50  1    0
 174    43.75  37.5  1    0
 175    50  43.75  1    0
 176    37.5  56.25  1    0
 177    50  56.25  1    0
 178    43.75  62.5  1    0
 179    31.25  62.5  1    0
 180    43.75  25  1    0
 181    50  31.25  1    0
 182    37.5  18.75  1    0
 183    31.25  12.5  1    0
 184    43.75  12.5  1    0
 185    50  18.75  1    0
 186    56.25  37.5  1    0
 187    56.25  25  1    0
 188    62.5  31.25  1    0
 189    62.5  43.75  1    0
 190    56.25  50  1    0
 191    25  68.75  1    0
 192    37.5  68.75  1    0
 193    31.25  75  1    0
 194    18.75  75  1    0
 195    12.5  68.75  1    0
 196    50  68.75  1    0
 197    43.75  75  1    0
 198    56.25  62.5  1    0
 199    62.5  56.25  1    0
 200    62.5  68.75  1    0
 201    56.25  75  1    0
 202    37.5  81.25  1    0
 203    50  81.25  1    0
 204    43.75  87.5  1    0
 205    31.25  87.5  1    0
 206    25  81.25  1    0
 207    6.25  75  1    0
 208    0  68.75  1    1
 209    12.5  81.25  1    0
 210    18.75  87.5  1    0
 211    6.25  87.5  1    0
 212    0  81.25  1    1
 213    0  6.25  1    1
 214    6.25  0  1    1
 215    12.5  6.25  1    0
 216    18.75  0  1    1
 217    25  6.25  1    0
 218    31.25  0  1    1
 219    37.5  6.25  1    0
 220    43.75  0  1    1
 221    50  6.25  1    0
 222    56.25  12.5  1    0
 223    56.25  0  1    1
 224    62.5  6.25  1    0
 225    62.5  18.75  1    0
 226    68.75  25  1    0
 227    68.75  12.5  1    0
 228    75  18.75  1    0
 229    75  31.25  1    0
 230    68.75  37.5  1    0
 231    68.75  0  1    1
 232    75  6.25  1    0
 233    81.25  12.5  1    0
 234    81.25  0  1    1
 235    87.5  6.25  1    0
 236    87.5  18.75  1    0
 237    81.25  25  1    0
 238    75  43.75  1    0
 239    68.75  50  1    0
 240    81.25  37.5  1    0
 241    87.5  31.25  1    0
 242    87.5  43.75  1    0
 243    81.25  50  1    0
 244    75  56.25  1    0
 245    68.75  62.5  1    0
 246    0  93.75  1    1
 247    12.5  93.75  1    0
 248    6.25  100  1    1
 249    25  93.75  1    0
 250    18.75  100  1    1
 251    37.5  93.75  1    0
 252    31.25  100  1    1
 253    50  93.75  1    0
 254    43.75  100  1    1
 255    56.25  87.5  1    0
 256    62.5  81.25  1    0
 257    62.5  93.75  1    0
 258    56.25  100  1    1
 259    68.75  75  1    0
 260    75  68.75  1    0
 261    75  81.25  1    0
 262    68.75  87.5  1    0
 263    81.25  62.5  1    0
 264    87.5  56.25  1    0
 265    87.5  68.75  1    0
 266    81.25  75  1    0
 267    75  93.75  1    0
 268    68.75  100  1    1
 269    81.25  87.5  1    0
 270    87.5  81.25  1    0
 271    87.5  93.75  1    0
 272    81.25  100  1    1
 273    93.75  0  1    1
 274    100  6.25  1    1
 275    93.75  12.5  1    0
 276    100  18.75  1    1
 277    93.75  25  1    0
 278    100  31.25  1    1
 279    93.75  37.5  1    0
 280    100  43.75  1    1
 281    93.75  50  1    0
 282    100  56.25  1    1
 283    93.75  62.5  1    0
 284    100  68.75  1    1
 285    93.75  75  1    0
 286    100  81.25  1    1
 287    93.75  87.5  1    0
 288    100  93.75  1    1
 289    93.75  100  1    1
 290    21.875  40.625  1    0
 291    15.625  40.625  1    0
 292    15.625  34.375  1    0
 293    21.875  34.375  1    0
 294    21.875  46.875  1    0
 295    28.125  40.625  1    0
 296    28.125  46.875  1    0
 297    15.625  46.875  1    0
 298    21.875  53.125  1    0
 299    15.625  53.125  1    0
 300    9.375  46.875  1    0
 301    9.375  40.625  1    0
 302    21.875  28.125  1    0
 303    28.125  28.125  1    0
 304    28.125  34.375  1    0
 305    15.625  28.125  1    0
 306    9.375  34.375  1    0
 307    9.375  28.125  1    0
 308    15.625  21.875  1    0
 309    21.875  21.875  1    0
 310    34.375  34.375  1    0
 311    34.375  40.625  1    0
 312    34.375  28.125  1    0
 313    28.125  21.875  1    0
 314    34.375  21.875  1    0
 315    40.625  28.125  1    0
 316    40.625  34.375  1    0
 317    34.375  46.875  1    0
 318    40.625  40.625  1    0
 319    40.625  46.875  1    0
 320    34.375  53.125  1    0
 321    28.125  53.125  1    0
 322    3.125  46.875  1    0
 323    9.375  53.125  1    0
 324    3.125  53.125  1    0
 325    3.125  40.625  1    0
 326    3.125  34.375  1    0
 327    15.625  59.375  1    0
 328    9.375  59.375  1    0
 329    21.875  59.375  1    0
 330    28.125  59.375  1    0
 331    21.875  65.625  1    0
 332    15.625  65.625  1    0
 333    3.125  59.375  1    0
 334    9.375  65.625  1    0
 335    3.125  65.625  1    0
 336    3.125  28.125  1    0
 337    3.125  21.875  1    0
 338    9.375  21.875  1    0
 339    9.375  15.625  1    0
 340    15.625  15.625  1    0
 341    3.125  15.625  1    0
 342    3.125  9.375  1    0
 343    9.375  9.375  1    0
 344    21.875  15.625  1    0
 345    15.625  9.375  1    0
 346    21.875  9.375  1    0
 347    28.125  15.625  1    0
 348    46.875  46.875  1    0
 349    46.875  53.125  1    0
 350    40.625  53.125  1    0
 351    46.875  40.625  1    0
 352    46.875  34.375  1    0
 353    53.125  40.625  1    0
 354    53.125  46.875  1    0
 355    40.625  59.375  1    0
 356    34.375  59.375  1    0
 357    46.875  59.375  1    0
 358    53.125  53.125  1    0
 359    53.125  59.375  1    0
 360    46.875  65.625  1    0
 361    40.625  65.625  1    0
 362    34.375  65.625  1    0
 363    28.125  65.625  1    0
 364    46.875  28.125  1    0
 365    40.625  21.875  1    0
 366    46.875  21.875  1    0
 367    53.125  28.125  1    0
 368    53.125  34.375  1    0
 369    34.375  15.625  1    0
 370    40.625  15.625  1    0
 371    28.125  9.375  1    0
 372    34.375  9.375  1    0
 373    46.875  15.625  1    0
 374    40.625  9.375  1    0
 375    46.875  9.375  1    0
 376    53.125  15.625  1    0
 377    53.125  21.875  1    0
 378    59.375  34.375  1    0
 379    59.375  40.625  1    0
 380    59.375  28.125  1    0
 381    59.375  21.875  1    0
 382    65.625  28.125  1    0
 383    65.625  34.375  1    0
 384    59.375  46.875  1    0
 385    65.625  40.625  1    0
 386    65.625  46.875  1    0
 387    59.375  53.125  1    0
 388    28.125  71.875  1    0
 389    21.875  71.875  1    0
 390    34.375  71.875  1    0
 391    40.625  71.875  1    0
 392    34.375  78.125  1    0
 393    28.125  78.125  1    0
 394    15.625  71.875  1    0
 395    21.875  78.125  1    0
 396    15.625  78.125  1    0
 397    9.375  71.875  1    0
 398    46.875  71.875  1    0
 399    53.125  65.625  1    0
 400    53.125  71.875  1    0
 401    46.875  78.125  1    0
 402    40.625  78.125  1    0
 403    59.375  59.375  1    0
 404    59.375  65.625  1    0
 405    65.625  53.125  1    0
 406    65.625  59.375  1    0
 407    59.375  71.875  1    0
 408    65.625  65.625  1    0
 409    65.625  71.875  1    0
 410    59.375  78.125  1    0
 411    53.125  78.125  1    0
 412    40.625  84.375  1    0
 413    34.375  84.375  1    0
 414    46.875  84.375  1    0
 415    53.125  84.375  1    0
 416    46.875  90.625  1    0
 417    40.625  90.625  1    0
 418    28.125  84.375  1    0
 419    34.375  90.625  1    0
 420    28.125  90.625  1    0
 421    21.875  84.375  1    0
 422    3.125  71.875  1    0
 423    9.375  78.125  1    0
 424    3.125  78.125  1    0
 425    15.625  84.375  1    0
 426    9.375  84.375  1    0
 427    21.875  90.625  1    0
 428    15.625  90.625  1    0
 429    3.125  84.375  1    0
 430    9.375  90.625  1    0
 431    3.125  90.625  1    0
 432    3.125  3.125  1    0
 433    9.375  3.125  1    0
 434    15.625  3.125  1    0
 435    21.875  3.125  1    0
 436    28.125  3.125  1    0
 437    34.375  3.125  1    0
 438    40.625  3.125  1    0
 439    46.875  3.125  1    0
 440    53.125  3.125  1    0
 441    53.125  9.375  1    0
 442    59.375  9.375  1    0
 443    59.375  15.625  1    0
 444    59.375  3.125  1    0
 445    65.625  3.125  1    0
 446    65.625  9.375  1    0
 447    65.625  15.625  1    0
 448    65.625  21.875  1    0
 449    71.875  21.875  1    0
 450    71.875  28.125  1    0
 451    71.875  15.625  1    0
 452    71.875  9.375  1    0
 453    78.125  15.625  1    0
 454    78.125  21.875  1    0
 455    71.875  34.375  1    0
 456    78.125  28.125  1    0
 457    78.125  34.375  1    0
 458    71.875  40.625  1    0
 459    71.875  3.125  1    0
 460    78.125  3.125  1    0
 461    78.125  9.375  1    0
 462    84.375  9.375  1    0
 463    84.375  15.625  1    0
 464    84.375  3.125  1    0
 465    90.625  3.125  1    0
 466    90.625  9.375  1    0
 467    84.375  21.875  1    0
 468    90.625  15.625  1    0
 469    90.625  21.875  1    0
 470    84.375  28.125  1    0
 471    71.875  46.875  1    0
 472    78.125  40.625  1    0
 473    78.125  46.875  1    0
 474    71.875  53.125  1    0
 475    84.375  34.375  1    0
 476    84.375  40.625  1    0
 477    90.625  28.125  1    0
 478    90.625  34.375  1    0
 479    84.375  46.875  1    0
 480    90.625  40.625  1    0
 481    90.625  46.875  1    0
 482    84.375  53.125  1    0
 483    78.125  53.125  1    0
 484    71.875  59.375  1    0
 485    78.125  59.375  1    0
 486    71.875  65.625  1    0
 487    3.125  96.875  1    0
 488    9.375  96.875  1    0
 489    15.625  96.875  1    0
 490    21.875  96.875  1    0
 491    28.125  96.875  1    0
 492    34.375  96.875  1    0
 493    40.625  96.875  1    0
 494    46.875  96.875  1    0
 495    53.125  90.625  1    0
 496    53.125  96.875  1    0
 497    59.375  84.375  1    0
 498    59.375  90.625  1    0
 499    65.625  78.125  1    0
 500    65.625  84.375  1    0
 501    59.375  96.875  1    0
 502    65.625  90.625  1    0
 503    65.625  96.875  1    0
 504    71.875  71.875  1    0
 505    71.875  78.125  1    0
 506    78.125  65.625  1    0
 507    78.125  71.875  1    0
 508    71.875  84.375  1    0
 509    78.125  78.125  1    0
 510    78.125  84.375  1    0
 511    71.875  90.625  1    0
 512    84.375  59.375  1    0
 513    84.375  65.625  1    0
 514    90.625  53.125  1    0
 515    90.625  59.375  1    0
 516    84.375  71.875  1    0
 517    90.625  65.625  1    0
 518    90.625  71.875  1    0
 519    84.375  78.125  1    0
 520    71.875  96.875  1    0
 521    78.125  90.625  1    0
 522    78.125  96.875  1    0
 523    84.375  84.375  1    0
 524    84.375  90.625  1    0
 525    90.625  78.125  1    0
 526    90.625  84.375  1    0
 527    84.375  96.875  1    0
 528    90.625  90.625  1    0
 529    90.625  96.875  1    0
 530    96.875  3.125  1    0
 531    96.875  9.375  1    0
 532    96.875  15.625  1    0
 533    96.875  21.875  1    0
 534    96.875  28.125  1    0
 535    96.875  34.375  1    0
 536    96.875  40.625  1    0
 537    96.875  46.875  1    0
 538    96.875  53.125  1    0
 539    96.875  59.375  1    0
 540    96.875  65.625  1    0
 541    96.875  71.875  1    0
 542    96.875  78.125  1    0
 543    96.875  84.375  1    0
 544    96.875  90.625  1    0
 545    96.875  96.875  1    0
 546    18.75  40.625  1    0
 547    21.875  37.5  1    0
 548    25  40.625  1    0
 549    21.875  43.75  1    0
 550    15.625  37.5  1    0
 551    15.625  43.75  1    0
 552    12.5  40.625  1    0
 553    18.75  34.375  1    0
 554    12.5  34.375  1    0
 555    15.625  31.25  1    0
 556    21.875  31.25  1    0
 557    25  34.375  1    0
 558    25  46.875  1    0
 559    21.875  50  1    0
 560    18.75  46.875  1    0
 561    28.125  43.75  1    0
 562    28.125  37.5  1    0
 563    31.25  40.625  1    0
 564    31.25  46.875  1    0
 565    28.125  50  1    0
 566    15.625  50  1    0
 567    12.5  46.875  1    0
 568    18.75  53.125  1    0
 569    25  53.125  1    0
 570    21.875  56.25  1    0
 571    15.625  56.25  1    0
 572    12.5  53.125  1    0
 573    9.375  43.75  1    0
 574    9.375  50  1    0
 575    6.25  46.875  1    0
 576    6.25  40.625  1    0
 577    9.375  37.5  1    0
 578    25  28.125  1    0
 579    18.75  28.125  1    0
 580    21.875  25  1    0
 581    28.125  31.25  1    0
 582    28.125  25  1    0
 583    31.25  28.125  1    0
 584    31.25  34.375  1    0
 585    12.5  28.125  1    0
 586    15.625  25  1    0
 587    9.375  31.25  1    0
 588    6.25  34.375  1    0
 589    6.25  28.125  1    0
 590    9.375  25  1    0
 591    18.75  21.875  1    0
 592    12.5  21.875  1    0
 593    15.625  18.75  1    0
 594    21.875  18.75  1    0
 595    25  21.875  1    0
 596    34.375  37.5  1    0
 597    34.375  31.25  1    0
 598    37.5  34.375  1    0
 599    37.5  40.625  1    0
 600    34.375  43.75  1    0
 601    34.375  25  1    0
 602    37.5  28.125  1    0
 603    31.25  21.875  1    0
 604    28.125  18.75  1    0
 605    34.375  18.75  1    0
 606    37.5  21.875  1    0
 607    40.625  31.25  1    0
 608    40.625  25  1    0
 609    43.75  28.125  1    0
 610    43.75  34.375  1    0
 611    40.625  37.5  1    0
 612    37.5  46.875  1    0
 613    34.375  50  1    0
 614    40.625  43.75  1    0
 615    43.75  40.625  1    0
 616    43.75  46.875  1    0
 617    40.625  50  1    0
 618    31.25  53.125  1    0
 619    37.5  53.125  1    0
 620    34.375  56.25  1    0
 621    28.125  56.25  1    0
 622    3.125  50  1    0
 623    0  46.875  1    1
 624    3.125  43.75  1    0
 625    6.25  53.125  1    0
 626    9.375  56.25  1    0
 627    3.125  56.25  1    0
 628    0  53.125  1    1
 629    0  40.625  1    1
 630    3.125  37.5  1    0
 631    0  34.375  1    1
 632    3.125  31.25  1    0
 633    12.5  59.375  1    0
 634    18.75  59.375  1    0
 635    15.625  62.5  1    0
 636    9.375  62.5  1    0
 637    6.25  59.375  1    0
 638    25  59.375  1    0
 639    21.875  62.5  1    0
 640    31.25  59.375  1    0
 641    28.125  62.5  1    0
 642    18.75  65.625  1    0
 643    25  65.625  1    0
 644    21.875  68.75  1    0
 645    15.625  68.75  1    0
 646    12.5  65.625  1    0
 647    3.125  62.5  1    0
 648    0  59.375  1    1
 649    6.25  65.625  1    0
 650    9.375  68.75  1    0
 651    3.125  68.75  1    0
 652    0  65.625  1    1
 653    0  28.125  1    1
 654    3.125  25  1    0
 655    6.25  21.875  1    0
 656    0  21.875  1    1
 657    3.125  18.75  1    0
 658    9.375  18.75  1    0
 659    12.5  15.625  1    0
 660    6.25  15.625  1    0
 661    9.375  12.5  1    0
 662    15.625  12.5  1    0
 663    18.75  15.625  1    0
 664    0  15.625  1    1
 665    3.125  12.5  1    0
 666    6.25  9.375  1    0
 667    0  9.375  1    1
 668    3.125  6.25  1    0
 669    9.375  6.25  1    0
 670    12.5  9.375  1    0
 671    21.875  12.5  1    0
 672    25  15.625  1    0
 673    18.75  9.375  1    0
 674    15.625  6.25  1    0
 675    21.875  6.25  1    0
 676    25  9.375  1    0
 677    28.125  12.5  1    0
 678    31.25  15.625  1    0
 679    46.875  50  1    0
 680    46.875  43.75  1    0
 681    50  46.875  1    0
 682    43.75  53.125  1    0
 683    50  53.125  1    0
 684    46.875  56.25  1    0
 685    40.625  56.25  1    0
 686    46.875  37.5  1    0
 687    50  40.625  1    0
 688    46.875  31.25  1    0
 689    50  34.375  1    0
 690    53.125  43.75  1    0
 691    53.125  37.5  1    0
 692    56.25  40.625  1    0
 693    56.25  46.875  1    0
 694    53.125  50  1    0
 695    37.5  59.375  1    0
 696    43.75  59.375  1    0
 697    40.625  62.5  1    0
 698    34.375  62.5  1    0
 699    50  59.375  1    0
 700    46.875  62.5  1    0
 701    53.125  56.25  1    0
 702    56.25  53.125  1    0
 703    56.25  59.375  1    0
 704    53.125  62.5  1    0
 705    43.75  65.625  1    0
 706    50  65.625  1    0
 707    46.875  68.75  1    0
 708    40.625  68.75  1    0
 709    37.5  65.625  1    0
 710    31.25  65.625  1    0
 711    34.375  68.75  1    0
 712    28.125  68.75  1    0
 713    46.875  25  1    0
 714    50  28.125  1    0
 715    43.75  21.875  1    0
 716    40.625  18.75  1    0
 717    46.875  18.75  1    0
 718    50  21.875  1    0
 719    53.125  31.25  1    0
 720    53.125  25  1    0
 721    56.25  28.125  1    0
 722    56.25  34.375  1    0
 723    37.5  15.625  1    0
 724    34.375  12.5  1    0
 725    40.625  12.5  1    0
 726    43.75  15.625  1    0
 727    31.25  9.375  1    0
 728    28.125  6.25  1    0
 729    34.375  6.25  1    0
 730    37.5  9.375  1    0
 731    46.875  12.5  1    0
 732    50  15.625  1    0
 733    43.75  9.375  1    0
 734    40.625  6.25  1    0
 735    46.875  6.25  1    0
 736    50  9.375  1    0
 737    53.125  18.75  1    0
 738    53.125  12.5  1    0
 739    56.25  15.625  1    0
 740    56.25  21.875  1    0
 741    59.375  37.5  1    0
 742    59.375  31.25  1    0
 743    62.5  34.375  1    0
 744    62.5  40.625  1    0
 745    59.375  43.75  1    0
 746    59.375  25  1    0
 747    62.5  28.125  1    0
 748    59.375  18.75  1    0
 749    62.5  21.875  1    0
 750    65.625  31.25  1    0
 751    65.625  25  1    0
 752    68.75  28.125  1    0
 753    68.75  34.375  1    0
 754    65.625  37.5  1    0
 755    62.5  46.875  1    0
 756    59.375  50  1    0
 757    65.625  43.75  1    0
 758    68.75  40.625  1    0
 759    68.75  46.875  1    0
 760    65.625  50  1    0
 761    62.5  53.125  1    0
 762    59.375  56.25  1    0
 763    25  71.875  1    0
 764    31.25  71.875  1    0
 765    28.125  75  1    0
 766    21.875  75  1    0
 767    18.75  71.875  1    0
 768    37.5  71.875  1    0
 769    34.375  75  1    0
 770    43.75  71.875  1    0
 771    40.625  75  1    0
 772    31.25  78.125  1    0
 773    37.5  78.125  1    0
 774    34.375  81.25  1    0
 775    28.125  81.25  1    0
 776    25  78.125  1    0
 777    15.625  75  1    0
 778    12.5  71.875  1    0
 779    18.75  78.125  1    0
 780    21.875  81.25  1    0
 781    15.625  81.25  1    0
 782    12.5  78.125  1    0
 783    9.375  75  1    0
 784    6.25  71.875  1    0
 785    50  71.875  1    0
 786    46.875  75  1    0
 787    53.125  68.75  1    0
 788    56.25  65.625  1    0
 789    56.25  71.875  1    0
 790    53.125  75  1    0
 791    43.75  78.125  1    0
 792    50  78.125  1    0
 793    46.875  81.25  1    0
 794    40.625  81.25  1    0
 795    59.375  62.5  1    0
 796    62.5  59.375  1    0
 797    62.5  65.625  1    0
 798    59.375  68.75  1    0
 799    65.625  56.25  1    0
 800    68.75  53.125  1    0
 801    68.75  59.375  1    0
 802    65.625  62.5  1    0
 803    62.5  71.875  1    0
 804    59.375  75  1    0
 805    65.625  68.75  1    0
 806    68.75  65.625  1    0
 807    68.75  71.875  1    0
 808    65.625  75  1    0
 809    56.25  78.125  1    0
 810    62.5  78.125  1    0
 811    59.375  81.25  1    0
 812    53.125  81.25  1    0
 813    37.5  84.375  1    0
 814    43.75  84.375  1    0
 815    40.625  87.5  1    0
 816    34.375  87.5  1    0
 817    31.25  84.375  1    0
 818    50  84.375  1    0
 819    46.875  87.5  1    0
 820    56.25  84.375  1    0
 821    53.125  87.5  1    0
 822    43.75  90.625  1    0
 823    50  90.625  1    0
 824    46.875  93.75  1    0
 825    40.625  93.75  1    0
 826    37.5  90.625  1    0
 827    28.125  87.5  1    0
 828    25  84.375  1    0
 829    31.25  90.625  1    0
 830    34.375  93.75  1    0
 831    28.125  93.75  1    0
 832    25  90.625  1    0
 833    21.875  87.5  1    0
 834    18.75  84.375  1    0
 835    3.125  75  1    0
 836    0  71.875  1    1
 837    6.25  78.125  1    0
 838    9.375  81.25  1    0
 839    3.125  81.25  1    0
 840    0  78.125  1    1
 841    12.5  84.375  1    0
 842    15.625  87.5  1    0
 843    9.375  87.5  1    0
 844    6.25  84.375  1    0
 845    18.75  90.625  1    0
 846    21.875  93.75  1    0
 847    15.625  93.75  1    0
 848    12.5  90.625  1    0
 849    3.125  87.5  1    0
 850    0  84.375  1    1
 851    6.25  90.625  1    0
 852    9.375  93.75  1    0
 853    3.125  93.75  1    0
 854    0  90.625  1    1
 855    0  3.125  1    1
 856    3.125  0  1    1
 857    6.25  3.125  1    0
 858    9.375  0  1    1
 859    12.5  3.125  1    0
 860    15.625  0  1    1
 861    18.75  3.125  1    0
 862    21.875  0  1    1
 863    25  3.125  1    0
 864    28.125  0  1    1
 865    31.25  3.125  1    0
 866    34.375  0  1    1
 867    37.5  3.125  1    0
 868    40.625  0  1    1
 869    43.75  3.125  1    0
 870    46.875  0  1    1
 871    50  3.125  1    0
 872    53.125  6.25  1    0
 873    53.125  0  1    1
 874    56.25  3.125  1    0
 875    56.25  9.375  1    0
 876    59.375  12.5  1    0
 877    59.375  6.25  1    0
 878    62.5  9.375  1    0
 879    62.5  15.625  1    0
 880    59.375  0  1    1
 881    62.5  3.125  1    0
 882    65.625  6.25  1    0
 883    65.625  0  1    1
 884    68.75  3.125  1    0
 885    68.75  9.375  1    0
 886    65.625  12.5  1    0
 887    65.625  18.75  1    0
 888    68.75  15.625  1    0
 889    68.75  21.875  1    0
 890    71.875  25  1    0
 891    71.875  18.75  1    0
 892    75  21.875  1    0
 893    75  28.125  1    0
 894    71.875  31.25  1    0
 895    71.875  12.5  1    0
 896    75  15.625  1    0
 897    71.875  6.25  1    0
 898    75  9.375  1    0
 899    78.125  18.75  1    0
 900    78.125  12.5  1    0
 901    81.25  15.625  1    0
 902    81.25  21.875  1    0
 903    78.125  25  1    0
 904    75  34.375  1    0
 905    71.875  37.5  1    0
 906    78.125  31.25  1    0
 907    81.25  28.125  1    0
 908    81.25  34.375  1    0
 909    78.125  37.5  1    0
 910    75  40.625  1    0
 911    71.875  43.75  1    0
 912    71.875  0  1    1
 913    75  3.125  1    0
 914    78.125  6.25  1    0
 915    78.125  0  1    1
 916    81.25  3.125  1    0
 917    81.25  9.375  1    0
 918    84.375  12.5  1    0
 919    84.375  6.25  1    0
 920    87.5  9.375  1    0
 921    87.5  15.625  1    0
 922    84.375  18.75  1    0
 923    84.375  0  1    1
 924    87.5  3.125  1    0
 925    90.625  6.25  1    0
 926    90.625  0  1    1
 927    93.75  3.125  1    0
 928    93.75  9.375  1    0
 929    90.625  12.5  1    0
 930    87.5  21.875  1    0
 931    84.375  25  1    0
 932    90.625  18.75  1    0
 933    93.75  15.625  1    0
 934    93.75  21.875  1    0
 935    90.625  25  1    0
 936    87.5  28.125  1    0
 937    84.375  31.25  1    0
 938    75  46.875  1    0
 939    71.875  50  1    0
 940    78.125  43.75  1    0
 941    81.25  40.625  1    0
 942    81.25  46.875  1    0
 943    78.125  50  1    0
 944    75  53.125  1    0
 945    71.875  56.25  1    0
 946    84.375  37.5  1    0
 947    87.5  34.375  1    0
 948    87.5  40.625  1    0
 949    84.375  43.75  1    0
 950    90.625  31.25  1    0
 951    93.75  28.125  1    0
 952    93.75  34.375  1    0
 953    90.625  37.5  1    0
 954    87.5  46.875  1    0
 955    84.375  50  1    0
 956    90.625  43.75  1    0
 957    93.75  40.625  1    0
 958    93.75  46.875  1    0
 959    90.625  50  1    0
 960    81.25  53.125  1    0
 961    87.5  53.125  1    0
 962    84.375  56.25  1    0
 963    78.125  56.25  1    0
 964    75  59.375  1    0
 965    71.875  62.5  1    0
 966    81.25  59.375  1    0
 967    78.125  62.5  1    0
 968    75  65.625  1    0
 969    71.875  68.75  1    0
 970    0  96.875  1    1
 971    6.25  96.875  1    0
 972    3.125  100  1    1
 973    12.5  96.875  1    0
 974    9.375  100  1    1
 975    18.75  96.875  1    0
 976    15.625  100  1    1
 977    25  96.875  1    0
 978    21.875  100  1    1
 979    31.25  96.875  1    0
 980    28.125  100  1    1
 981    37.5  96.875  1    0
 982    34.375  100  1    1
 983    43.75  96.875  1    0
 984    40.625  100  1    1
 985    50  96.875  1    0
 986    46.875  100  1    1
 987    53.125  93.75  1    0
 988    56.25  90.625  1    0
 989    56.25  96.875  1    0
 990    53.125  100  1    1
 991    59.375  87.5  1    0
 992    62.5  84.375  1    0
 993    62.5  90.625  1    0
 994    59.375  93.75  1    0
 995    65.625  81.25  1    0
 996    68.75  78.125  1    0
 997    68.75  84.375  1    0
 998    65.625  87.5  1    0
 999    62.5  96.875  1    0
1000    59.375  100  1    1
1001    65.625  93.75  1    0
1002    68.75  90.625  1    0
1003    68.75  96.875  1    0
1004    65.625  100  1    1
1005    71.875  75  1    0
1006    75  71.875  1    0
1007    75  78.125  1    0
1008    71.875  81.25  1    0
1009    78.125  68.75  1    0
1010    81.25  65.625  1    0
1011    81.25  71.875  1    0
1012    78.125  75  1    0
1013    75  84.375  1    0
1014    71.875  87.5  1    0
1015    78.125  81.25  1    0
1016    81.25  78.125  1    0
1017    81.25  84.375  1    0
1018    78.125  87.5  1    0
1019    75  90.625  1    0
1020    71.875  93.75  1    0
1021    84.375  62.5  1    0
1022    87.5  59.375  1    0
1023    87.5  65.625  1    0
1024    84.375  68.75  1    0
1025    90.625  56.25  1    0
1026    93.75  53.125  1    0
1027    93.75  59.375  1    0
1028    90.625  62.5  1    0
1029    87.5  71.875  1    0
1030    84.375  75  1    0
1031    90.625  68.75  1    0
1032    93.75  65.625  1    0
1033    93.75  71.875  1    0
1034    90.625  75  1    0
1035    87.5  78.125  1    0
1036    84.375  81.25  1    0
1037    75  96.875  1    0
1038    71.875  100  1    1
1039    78.125  93.75  1    0
1040    81.25  90.625  1    0
1041    81.25  96.875  1    0
1042    78.125  100  1    1
1043    84.375  87.5  1    0
1044    87.5  84.375  1    0
1045    87.5  90.625  1    0
1046    84.375  93.75  1    0
1047    90.625  81.25  1    0
1048    93.75  78.125  1    0
1049    93.75  84.375  1    0
1050    90.625  87.5  1    0
1051    87.5  96.875  1    0
1052    84.375  100  1    1
1053    90.625  93.75  1    0
1054    93.75  90.625  1    0
1055    93.75  96.875  1    0
1056    90.625  100  1    1
1057    96.875  0  1    1
1058    100  3.125  1    1
1059    96.875  6.25  1    0
1060    100  9.375  1    1
1061    96.875  12.5  1    0
1062    100  15.625  1    1
1063    96.875  18.75  1    0
1064    100  21.875  1    1
1065    96.875  25  1    0
1066    100  28.125  1    1
1067    96.875  31.25  1    0
1068    100  34.375  1    1
1069    96.875  37.5  1    0
1070    100  40.625  1    1
1071    96.875  43.75  1    0
1072    100  46.875  1    1
1073    96.875  50  1    0
1074    100  53.125  1    1
1075    96.875  56.25  1    0
1076    100  59.375  1    1
1077    96.875  62.5  1    0
1078    100  65.625  1    1
1079    96.875  68.75  1    0
1080    100  71.875  1    1
1081    96.875  75  1    0
1082    100  78.125  1    1
1083    96.875  81.25  1    0
1084    100  84.375  1    1
1085    96.875  87.5  1    0
1086    100  90.625  1    1
1087    96.875  93.75  1    0
1088    100  96.875  1    1
1089    96.875  100  1    1
1090    20.3125  39.0625  1    0
1091    20.3125  42.1875  1    0
1092    17.1875  42.1875  1    0
1093    17.1875  39.0625  1    0
1094    23.4375  39.0625  1    0
1095    20.3125  35.9375  1    0
1096    23.4375  35.9375  1    0
1097    23.4375  42.1875  1    0
1098    26.5625  39.0625  1    0
1099    26.5625  42.1875  1    0
1100    23.4375  45.3125  1    0
1101    20.3125  45.3125  1    0
1102    14.0625  39.0625  1    0
1103    14.0625  35.9375  1    0
1104    17.1875  35.9375  1    0
1105    14.0625  42.1875  1    0
1106    17.1875  45.3125  1    0
1107    14.0625  45.3125  1    0
1108    10.9375  42.1875  1    0
1109    10.9375  39.0625  1    0
1110    17.1875  32.8125  1    0
1111    20.3125  32.8125  1    0
1112    14.0625  32.8125  1    0
1113    10.9375  35.9375  1    0
1114    10.9375  32.8125  1    0
1115    14.0625  29.6875  1    0
1116    17.1875  29.6875  1    0
1117    23.4375  32.8125  1    0
1118    20.3125  29.6875  1    0
1119    23.4375  29.6875  1    0
1120    26.5625  32.8125  1    0
1121    26.5625  35.9375  1    0
1122    23.4375  48.4375  1    0
1123    26.5625  45.3125  1    0
1124    26.5625  48.4375  1    0
1125    20.3125  48.4375  1    0
1126    23.4375  51.5625  1    0
1127    20.3125  51.5625  1    0
1128    17.1875  48.4375  1    0
1129    29.6875  42.1875  1    0
1130    29.6875  45.3125  1    0
1131    29.6875  39.0625  1    0
1132    29.6875  35.9375  1    0
1133    32.8125  39.0625  1    0
1134    32.8125  42.1875  1    0
1135    29.6875  48.4375  1    0
1136    32.8125  45.3125  1    0
1137    32.8125  48.4375  1    0
1138    29.6875  51.5625  1    0
1139    26.5625  51.5625  1    0
1140    14.0625  48.4375  1    0
1141    17.1875  51.5625  1    0
1142    14.0625  51.5625  1    0
1143    10.9375  48.4375  1    0
1144    10.9375  45.3125  1    0
1145    20.3125  54.6875  1    0
1146    17.1875  54.6875  1    0
1147    23.4375  54.6875  1    0
1148    26.5625  54.6875  1    0
1149    23.4375  57.8125  1    0
1150    20.3125  57.8125  1    0
1151    14.0625  54.6875  1    0
1152    17.1875  57.8125  1    0
1153    14.0625  57.8125  1    0
1154    10.9375  54.6875  1    0
1155    10.9375  51.5625  1    0
1156    7.8125  45.3125  1    0
1157    7.8125  42.1875  1    0
1158    7.8125  48.4375  1    0
1159    7.8125  51.5625  1    0
1160    4.6875  48.4375  1    0
1161    4.6875  45.3125  1    0
1162    7.8125  39.0625  1    0
1163    4.6875  42.1875  1    0
1164    4.6875  39.0625  1    0
1165    7.8125  35.9375  1    0
1166    23.4375  26.5625  1    0
1167    26.5625  26.5625  1    0
1168    26.5625  29.6875  1    0
1169    20.3125  26.5625  1    0
1170    17.1875  26.5625  1    0
1171    20.3125  23.4375  1    0
1172    23.4375  23.4375  1    0
1173    29.6875  29.6875  1    0
1174    29.6875  32.8125  1    0
1175    29.6875  26.5625  1    0
1176    26.5625  23.4375  1    0
1177    29.6875  23.4375  1    0
1178    32.8125  26.5625  1    0
1179    32.8125  29.6875  1    0
1180    32.8125  32.8125  1    0
1181    32.8125  35.9375  1    0
1182    14.0625  26.5625  1    0
1183    10.9375  29.6875  1    0
1184    10.9375  26.5625  1    0
1185    14.0625  23.4375  1    0
1186    17.1875  23.4375  1    0
1187    7.8125  32.8125  1    0
1188    7.8125  29.6875  1    0
1189    4.6875  35.9375  1    0
1190    4.6875  32.8125  1    0
1191    7.8125  26.5625  1    0
1192    4.6875  29.6875  1    0
1193    4.6875  26.5625  1    0
1194    7.8125  23.4375  1    0
1195    10.9375  23.4375  1    0
1196    17.1875  20.3125  1    0
1197    20.3125  20.3125  1    0
1198    14.0625  20.3125  1    0
1199    10.9375  20.3125  1    0
1200    14.0625  17.1875  1    0
1201    17.1875  17.1875  1    0
1202    23.4375  20.3125  1    0
1203    20.3125  17.1875  1    0
1204    23.4375  17.1875  1    0
1205    26.5625  20.3125  1    0
1206    35.9375  35.9375  1    0
1207    35.9375  39.0625  1    0
1208    35.9375  32.8125  1    0
1209    35.9375  29.6875  1    0
1210    39.0625  32.8125  1    0
1211    39.0625  35.9375  1    0
1212    35.9375  42.1875  1    0
1213    39.0625  39.0625  1    0
1214    39.0625  42.1875  1    0
1215    35.9375  45.3125  1    0
1216    35.9375  26.5625  1    0
1217    32.8125  23.4375  1    0
1218    35.9375  23.4375  1    0
1219    39.0625  26.5625  1    0
1220    39.0625  29.6875  1    0
1221    29.6875  20.3125  1    0
1222    32.8125  20.3125  1    0
1223    26.5625  17.1875  1    0
1224    29.6875  17.1875  1    0
1225    35.9375  20.3125  1    0
1226    32.8125  17.1875  1    0
1227    35.9375  17.1875  1    0
1228    39.0625  20.3125  1    0
1229    39.0625  23.4375  1    0
1230    42.1875  29.6875  1    0
1231    42.1875  32.8125  1    0
1232    42.1875  26.5625  1    0
1233    42.1875  23.4375  1    0
1234    45.3125  26.5625  1    0
1235    45.3125  29.6875  1    0
1236    42.1875  35.9375  1    0
1237    45.3125  32.8125  1    0
1238    45.3125  35.9375  1    0
1239    42.1875  39.0625  1    0
1240    35.9375  48.4375  1    0
1241    39.0625  45.3125  1    0
1242    39.0625  48.4375  1    0
1243    35.9375  51.5625  1    0
1244    32.8125  51.5625  1    0
1245    42.1875  42.1875  1    0
1246    42.1875  45.3125  1    0
1247    45.3125  39.0625  1    0
1248    45.3125  42.1875  1    0
1249    42.1875  48.4375  1    0
1250    45.3125  45.3125  1    0
1251    45.3125  48.4375  1    0
1252    42.1875  51.5625  1    0
1253    39.0625  51.5625  1    0
1254    32.8125  54.6875  1    0
1255    29.6875  54.6875  1    0
1256    35.9375  54.6875  1    0
1257    39.0625  54.6875  1    0
1258    35.9375  57.8125  1    0
1259    32.8125  57.8125  1    0
1260    29.6875  57.8125  1    0
1261    26.5625  57.8125  1    0
1262    1.5625  48.4375  1    0
1263    4.6875  51.5625  1    0
1264    1.5625  51.5625  1    0
1265    1.5625  45.3125  1    0
1266    1.5625  42.1875  1    0
1267    7.8125  54.6875  1    0
1268    4.6875  54.6875  1    0
1269    10.9375  57.8125  1    0
1270    7.8125  57.8125  1    0
1271    1.5625  54.6875  1    0
1272    4.6875  57.8125  1    0
1273    1.5625  57.8125  1    0
1274    1.5625  39.0625  1    0
1275    1.5625  35.9375  1    0
1276    1.5625  32.8125  1    0
1277    1.5625  29.6875  1    0
1278    14.0625  60.9375  1    0
1279    10.9375  60.9375  1    0
1280    17.1875  60.9375  1    0
1281    20.3125  60.9375  1    0
1282    17.1875  64.0625  1    0
1283    14.0625  64.0625  1    0
1284    7.8125  60.9375  1    0
1285    10.9375  64.0625  1    0
1286    7.8125  64.0625  1    0
1287    4.6875  60.9375  1    0
1288    23.4375  60.9375  1    0
1289    26.5625  60.9375  1    0
1290    23.4375  64.0625  1    0
1291    20.3125  64.0625  1    0
1292    29.6875  60.9375  1    0
1293    32.8125  60.9375  1    0
1294    29.6875  64.0625  1    0
1295    26.5625  64.0625  1    0
1296    20.3125  67.1875  1    0
1297    17.1875  67.1875  1    0
1298    23.4375  67.1875  1    0
1299    26.5625  67.1875  1    0
1300    23.4375  70.3125  1    0
1301    20.3125  70.3125  1    0
1302    14.0625  67.1875  1    0
1303    17.1875  70.3125  1    0
1304    14.0625  70.3125  1    0
1305    10.9375  67.1875  1    0
1306    1.5625  60.9375  1    0
1307    4.6875  64.0625  1    0
1308    1.5625  64.0625  1    0
1309    7.8125  67.1875  1    0
1310    4.6875  67.1875  1    0
1311    10.9375  70.3125  1    0
1312    7.8125  70.3125  1    0
1313    1.5625  67.1875  1    0
1314    4.6875  70.3125  1    0
1315    1.5625  70.3125  1    0
1316    1.5625  26.5625  1    0
1317    1.5625  23.4375  1    0
1318    4.6875  23.4375  1    0
1319    4.6875  20.3125  1    0
1320    7.8125  20.3125  1    0
1321    1.5625  20.3125  1    0
1322    1.5625  17.1875  1    0
1323    4.6875  17.1875  1    0
1324    7.8125  17.1875  1    0
1325    10.9375  17.1875  1    0
1326    10.9375  14.0625  1    0
1327    14.0625  14.0625  1    0
1328    7.8125  14.0625  1    0
1329    4.6875  14.0625  1    0
1330    7.8125  10.9375  1    0
1331    10.9375  10.9375  1    0
1332    17.1875  14.0625  1    0
1333    14.0625  10.9375  1    0
1334    17.1875  10.9375  1    0
1335    20.3125  14.0625  1    0
1336    1.5625  14.0625  1    0
1337    1.5625  10.9375  1    0
1338    4.6875  10.9375  1    0
1339    4.6875  7.8125  1    0
1340    7.8125  7.8125  1    0
1341    1.5625  7.8125  1    0
1342    1.5625  4.6875  1    0
1343    4.6875  4.6875  1    0
1344    10.9375  7.8125  1    0
1345    7.8125  4.6875  1    0
1346    10.9375  4.6875  1    0
1347    14.0625  7.8125  1    0
1348    23.4375  14.0625  1    0
1349    20.3125  10.9375  1    0
1350    23.4375  10.9375  1    0
1351    26.5625  14.0625  1    0
1352    17.1875  7.8125  1    0
1353    20.3125  7.8125  1    0
1354    14.0625  4.6875  1    0
1355    17.1875  4.6875  1    0
1356    23.4375  7.8125  1    0
1357    20.3125  4.6875  1    0
1358    23.4375  4.6875  1    0
1359    26.5625  7.8125  1    0
1360    26.5625  10.9375  1    0
1361    29.6875  14.0625  1    0
1362    29.6875  10.9375  1    0
1363    32.8125  14.0625  1    0
1364    48.4375  48.4375  1    0
1365    48.4375  51.5625  1    0
1366    45.3125  51.5625  1    0
1367    48.4375  45.3125  1    0
1368    48.4375  42.1875  1    0
1369    51.5625  45.3125  1    0
1370    51.5625  48.4375  1    0
1371    45.3125  54.6875  1    0
1372    42.1875  54.6875  1    0
1373    48.4375  54.6875  1    0
1374    51.5625  51.5625  1    0
1375    51.5625  54.6875  1    0
1376    48.4375  57.8125  1    0
1377    45.3125  57.8125  1    0
1378    42.1875  57.8125  1    0
1379    39.0625  57.8125  1    0
1380    48.4375  39.0625  1    0
1381    48.4375  35.9375  1    0
1382    51.5625  39.0625  1    0
1383    51.5625  42.1875  1    0
1384    48.4375  32.8125  1    0
1385    48.4375  29.6875  1    0
1386    51.5625  32.8125  1    0
1387    51.5625  35.9375  1    0
1388    54.6875  42.1875  1    0
1389    54.6875  45.3125  1    0
1390    54.6875  39.0625  1    0
1391    54.6875  35.9375  1    0
1392    57.8125  39.0625  1    0
1393    57.8125  42.1875  1    0
1394    54.6875  48.4375  1    0
1395    57.8125  45.3125  1    0
1396    57.8125  48.4375  1    0
1397    54.6875  51.5625  1    0
1398    39.0625  60.9375  1    0
1399    35.9375  60.9375  1    0
1400    42.1875  60.9375  1    0
1401    45.3125  60.9375  1    0
1402    42.1875  64.0625  1    0
1403    39.0625  64.0625  1    0
1404    35.9375  64.0625  1    0
1405    32.8125  64.0625  1    0
1406    48.4375  60.9375  1    0
1407    51.5625  57.8125  1    0
1408    51.5625  60.9375  1    0
1409    48.4375  64.0625  1    0
1410    45.3125  64.0625  1    0
1411    54.6875  54.6875  1    0
1412    54.6875  57.8125  1    0
1413    57.8125  51.5625  1    0
1414    57.8125  54.6875  1    0
1415    54.6875  60.9375  1    0
1416    57.8125  57.8125  1    0
1417    57.8125  60.9375  1    0
1418    54.6875  64.0625  1    0
1419    51.5625  64.0625  1    0
1420    45.3125  67.1875  1    0
1421    42.1875  67.1875  1    0
1422    48.4375  67.1875  1    0
1423    51.5625  67.1875  1    0
1424    48.4375  70.3125  1    0
1425    45.3125  70.3125  1    0
1426    39.0625  67.1875  1    0
1427    42.1875  70.3125  1    0
1428    39.0625  70.3125  1    0
1429    35.9375  67.1875  1    0
1430    32.8125  67.1875  1    0
1431    29.6875  67.1875  1    0
1432    35.9375  70.3125  1    0
1433    32.8125  70.3125  1    0
1434    29.6875  70.3125  1    0
1435    26.5625  70.3125  1    0
1436    48.4375  26.5625  1    0
1437    45.3125  23.4375  1    0
1438    48.4375  23.4375  1    0
1439    51.5625  26.5625  1    0
1440    51.5625  29.6875  1    0
1441    42.1875  20.3125  1    0
1442    45.3125  20.3125  1    0
1443    39.0625  17.1875  1    0
1444    42.1875  17.1875  1    0
1445    48.4375  20.3125  1    0
1446    45.3125  17.1875  1    0
1447    48.4375  17.1875  1    0
1448    51.5625  20.3125  1    0
1449    51.5625  23.4375  1    0
1450    54.6875  29.6875  1    0
1451    54.6875  32.8125  1    0
1452    54.6875  26.5625  1    0
1453    54.6875  23.4375  1    0
1454    57.8125  26.5625  1    0
1455    57.8125  29.6875  1    0
1456    57.8125  32.8125  1    0
1457    57.8125  35.9375  1    0
1458    35.9375  14.0625  1    0
1459    39.0625  14.0625  1    0
1460    32.8125  10.9375  1    0
1461    35.9375  10.9375  1    0
1462    42.1875  14.0625  1    0
1463    39.0625  10.9375  1    0
1464    42.1875  10.9375  1    0
1465    45.3125  14.0625  1    0
1466    29.6875  7.8125  1    0
1467    32.8125  7.8125  1    0
1468    26.5625  4.6875  1    0
1469    29.6875  4.6875  1    0
1470    35.9375  7.8125  1    0
1471    32.8125  4.6875  1    0
1472    35.9375  4.6875  1    0
1473    39.0625  7.8125  1    0
1474    48.4375  14.0625  1    0
1475    45.3125  10.9375  1    0
1476    48.4375  10.9375  1    0
1477    51.5625  14.0625  1    0
1478    51.5625  17.1875  1    0
1479    42.1875  7.8125  1    0
1480    45.3125  7.8125  1    0
1481    39.0625  4.6875  1    0
1482    42.1875  4.6875  1    0
1483    48.4375  7.8125  1    0
1484    45.3125  4.6875  1    0
1485    48.4375  4.6875  1    0
1486    51.5625  7.8125  1    0
1487    51.5625  10.9375  1    0
1488    54.6875  17.1875  1    0
1489    54.6875  20.3125  1    0
1490    54.6875  14.0625  1    0
1491    54.6875  10.9375  1    0
1492    57.8125  14.0625  1    0
1493    57.8125  17.1875  1    0
1494    57.8125  20.3125  1    0
1495    57.8125  23.4375  1    0
1496    60.9375  35.9375  1    0
1497    60.9375  39.0625  1    0
1498    60.9375  32.8125  1    0
1499    60.9375  29.6875  1    0
1500    64.0625  32.8125  1    0
1501    64.0625  35.9375  1    0
1502    60.9375  42.1875  1    0
1503    64.0625  39.0625  1    0
1504    64.0625  42.1875  1    0
1505    60.9375  45.3125  1    0
1506    60.9375  26.5625  1    0
1507    60.9375  23.4375  1    0
1508    64.0625  26.5625  1    0
1509    64.0625  29.6875  1    0
1510    60.9375  20.3125  1    0
1511    60.9375  17.1875  1    0
1512    64.0625  20.3125  1    0
1513    64.0625  23.4375  1    0
1514    67.1875  29.6875  1    0
1515    67.1875  32.8125  1    0
1516    67.1875  26.5625  1    0
1517    67.1875  23.4375  1    0
1518    70.3125  26.5625  1    0
1519    70.3125  29.6875  1    0
1520    67.1875  35.9375  1    0
1521    70.3125  32.8125  1    0
1522    70.3125  35.9375  1    0
1523    67.1875  39.0625  1    0
1524    60.9375  48.4375  1    0
1525    64.0625  45.3125  1    0
1526    64.0625  48.4375  1    0
1527    60.9375  51.5625  1    0
1528    67.1875  42.1875  1    0
1529    67.1875  45.3125  1    0
1530    70.3125  39.0625  1    0
1531    70.3125  42.1875  1    0
1532    67.1875  48.4375  1    0
1533    70.3125  45.3125  1    0
1534    70.3125  48.4375  1    0
1535    67.1875  51.5625  1    0
1536    64.0625  51.5625  1    0
1537    60.9375  54.6875  1    0
1538    64.0625  54.6875  1    0
1539    60.9375  57.8125  1    0
1540    26.5625  73.4375  1    0
1541    23.4375  73.4375  1    0
1542    29.6875  73.4375  1    0
1543    32.8125  73.4375  1    0
1544    29.6875  76.5625  1    0
1545    26.5625  76.5625  1    0
1546    20.3125  73.4375  1    0
1547    23.4375  76.5625  1    0
1548    20.3125  76.5625  1    0
1549    17.1875  73.4375  1    0
1550    35.9375  73.4375  1    0
1551    39.0625  73.4375  1    0
1552    35.9375  76.5625  1    0
1553    32.8125  76.5625  1    0
1554    42.1875  73.4375  1    0
1555    45.3125  73.4375  1    0
1556    42.1875  76.5625  1    0
1557    39.0625  76.5625  1    0
1558    32.8125  79.6875  1    0
1559    29.6875  79.6875  1    0
1560    35.9375  79.6875  1    0
1561    39.0625  79.6875  1    0
1562    35.9375  82.8125  1    0
1563    32.8125  82.8125  1    0
1564    26.5625  79.6875  1    0
1565    29.6875  82.8125  1    0
1566    26.5625  82.8125  1    0
1567    23.4375  79.6875  1    0
1568    14.0625  73.4375  1    0
1569    17.1875  76.5625  1    0
1570    14.0625  76.5625  1    0
1571    10.9375  73.4375  1    0
1572    20.3125  79.6875  1    0
1573    17.1875  79.6875  1    0
1574    23.4375  82.8125  1    0
1575    20.3125  82.8125  1    0
1576    14.0625  79.6875  1    0
1577    17.1875  82.8125  1    0
1578    14.0625  82.8125  1    0
1579    10.9375  79.6875  1    0
1580    10.9375  76.5625  1    0
1581    7.8125  73.4375  1    0
1582    7.8125  76.5625  1    0
1583    4.6875  73.4375  1    0
1584    48.4375  73.4375  1    0
1585    51.5625  70.3125  1    0
1586    51.5625  73.4375  1    0
1587    48.4375  76.5625  1    0
1588    45.3125  76.5625  1    0
1589    54.6875  67.1875  1    0
1590    54.6875  70.3125  1    0
1591    57.8125  64.0625  1    0
1592    57.8125  67.1875  1    0
1593    54.6875  73.4375  1    0
1594    57.8125  70.3125  1    0
1595    57.8125  73.4375  1    0
1596    54.6875  76.5625  1    0
1597    51.5625  76.5625  1    0
1598    45.3125  79.6875  1    0
1599    42.1875  79.6875  1    0
1600    48.4375  79.6875  1    0
1601    51.5625  79.6875  1    0
1602    48.4375  82.8125  1    0
1603    45.3125  82.8125  1    0
1604    42.1875  82.8125  1    0
1605    39.0625  82.8125  1    0
1606    60.9375  60.9375  1    0
1607    60.9375  64.0625  1    0
1608    64.0625  57.8125  1    0
1609    64.0625  60.9375  1    0
1610    60.9375  67.1875  1    0
1611    64.0625  64.0625  1    0
1612    64.0625  67.1875  1    0
1613    60.9375  70.3125  1    0
1614    67.1875  54.6875  1    0
1615    67.1875  57.8125  1    0
1616    70.3125  51.5625  1    0
1617    70.3125  54.6875  1    0
1618    67.1875  60.9375  1    0
1619    70.3125  57.8125  1    0
1620    70.3125  60.9375  1    0
1621    67.1875  64.0625  1    0
1622    60.9375  73.4375  1    0
1623    64.0625  70.3125  1    0
1624    64.0625  73.4375  1    0
1625    60.9375  76.5625  1    0
1626    57.8125  76.5625  1    0
1627    67.1875  67.1875  1    0
1628    67.1875  70.3125  1    0
1629    70.3125  64.0625  1    0
1630    70.3125  67.1875  1    0
1631    67.1875  73.4375  1    0
1632    70.3125  70.3125  1    0
1633    70.3125  73.4375  1    0
1634    67.1875  76.5625  1    0
1635    64.0625  76.5625  1    0
1636    57.8125  79.6875  1    0
1637    54.6875  79.6875  1    0
1638    60.9375  79.6875  1    0
1639    64.0625  79.6875  1    0
1640    60.9375  82.8125  1    0
1641    57.8125  82.8125  1    0
1642    54.6875  82.8125  1    0
1643    51.5625  82.8125  1    0
1644    39.0625  85.9375  1    0
1645    35.9375  85.9375  1    0
1646    42.1875  85.9375  1    0
1647    45.3125  85.9375  1    0
1648    42.1875  89.0625  1    0
1649    39.0625  89.0625  1    0
1650    32.8125  85.9375  1    0
1651    35.9375  89.0625  1    0
1652    32.8125  89.0625  1    0
1653    29.6875  85.9375  1    0
1654    48.4375  85.9375  1    0
1655    51.5625  85.9375  1    0
1656    48.4375  89.0625  1    0
1657    45.3125  89.0625  1    0
1658    54.6875  85.9375  1    0
1659    57.8125  85.9375  1    0
1660    54.6875  89.0625  1    0
1661    51.5625  89.0625  1    0
1662    45.3125  92.1875  1    0
1663    42.1875  92.1875  1    0
1664    48.4375  92.1875  1    0
1665    51.5625  92.1875  1    0
1666    48.4375  95.3125  1    0
1667    45.3125  95.3125  1    0
1668    39.0625  92.1875  1    0
1669    42.1875  95.3125  1    0
1670    39.0625  95.3125  1    0
1671    35.9375  92.1875  1    0
1672    26.5625  85.9375  1    0
1673    29.6875  89.0625  1    0
1674    26.5625  89.0625  1    0
1675    23.4375  85.9375  1    0
1676    32.8125  92.1875  1    0
1677    29.6875  92.1875  1    0
1678    35.9375  95.3125  1    0
1679    32.8125  95.3125  1    0
1680    26.5625  92.1875  1    0
1681    29.6875  95.3125  1    0
1682    26.5625  95.3125  1    0
1683    23.4375  92.1875  1    0
1684    23.4375  89.0625  1    0
1685    20.3125  85.9375  1    0
1686    20.3125  89.0625  1    0
1687    17.1875  85.9375  1    0
1688    1.5625  73.4375  1    0
1689    4.6875  76.5625  1    0
1690    1.5625  76.5625  1    0
1691    7.8125  79.6875  1    0
1692    4.6875  79.6875  1    0
1693    10.9375  82.8125  1    0
1694    7.8125  82.8125  1    0
1695    1.5625  79.6875  1    0
1696    4.6875  82.8125  1    0
1697    1.5625  82.8125  1    0
1698    14.0625  85.9375  1    0
1699    10.9375  85.9375  1    0
1700    17.1875  89.0625  1    0
1701    14.0625  89.0625  1    0
1702    7.8125  85.9375  1    0
1703    10.9375  89.0625  1    0
1704    7.8125  89.0625  1    0
1705    4.6875  85.9375  1    0
1706    20.3125  92.1875  1    0
1707    17.1875  92.1875  1    0
1708    23.4375  95.3125  1    0
1709    20.3125  95.3125  1    0
1710    14.0625  92.1875  1    0
1711    17.1875  95.3125  1    0
1712    14.0625  95.3125  1    0
1713    10.9375  92.1875  1    0
1714    1.5625  85.9375  1    0
1715    4.6875  89.0625  1    0
1716    1.5625  89.0625  1    0
1717    7.8125  92.1875  1    0
1718    4.6875  92.1875  1    0
1719    10.9375  95.3125  1    0
1720    7.8125  95.3125  1    0
1721    1.5625  92.1875  1    0
1722    4.6875  95.3125  1    0
1723    1.5625  95.3125  1    0
1724    1.5625  1.5625  1    0
1725    4.6875  1.5625  1    0
1726    7.8125  1.5625  1    0
1727    10.9375  1.5625  1    0
1728    14.0625  1.5625  1    0
1729    17.1875  1.5625  1    0
1730    20.3125  1.5625  1    0
1731    23.4375  1.5625  1    0
1732    26.5625  1.5625  1    0
1733    29.6875  1.5625  1    0
1734    32.8125  1.5625  1    0
1735    35.9375  1.5625  1    0
1736    39.0625  1.5625  1    0
1737    42.1875  1.5625  1    0
1738    45.3125  1.5625  1    0
1739    48.4375  1.5625  1    0
1740    51.5625  1.5625  1    0
1741    51.5625  4.6875  1    0
1742    54.6875  4.6875  1    0
1743    54.6875  7.8125  1    0
1744    54.6875  1.5625  1    0
1745    57.8125  1.5625  1    0
1746    57.8125  4.6875  1    0
1747    57.8125  7.8125  1    0
1748    57.8125  10.9375  1    0
1749    60.9375  10.9375  1    0
1750    60.9375  14.0625  1    0
1751    60.9375  7.8125  1    0
1752    60.9375  4.6875  1    0
1753    64.0625  7.8125  1    0
1754    64.0625  10.9375  1    0
1755    64.0625  14.0625  1    0
1756    64.0625  17.1875  1    0
1757    60.9375  1.5625  1    0
1758    64.0625  1.5625  1    0
1759    64.0625  4.6875  1    0
1760    67.1875  4.6875  1    0
1761    67.1875  7.8125  1    0
1762    67.1875  1.5625  1    0
1763    70.3125  1.5625  1    0
1764    70.3125  4.6875  1    0
1765    67.1875  10.9375  1    0
1766    70.3125  7.8125  1    0
1767    70.3125  10.9375  1    0
1768    67.1875  14.0625  1    0
1769    67.1875  17.1875  1    0
1770    67.1875  20.3125  1    0
1771    70.3125  14.0625  1    0
1772    70.3125  17.1875  1    0
1773    70.3125  20.3125  1    0
1774    70.3125  23.4375  1    0
1775    73.4375  23.4375  1    0
1776    73.4375  26.5625  1    0
1777    73.4375  20.3125  1    0
1778    73.4375  17.1875  1    0
1779    76.5625  20.3125  1    0
1780    76.5625  23.4375  1    0
1781    73.4375  29.6875  1    0
1782    76.5625  26.5625  1    0
1783    76.5625  29.6875  1    0
1784    73.4375  32.8125  1    0
1785    73.4375  14.0625  1    0
1786    73.4375  10.9375  1    0
1787    76.5625  14.0625  1    0
1788    76.5625  17.1875  1    0
1789    73.4375  7.8125  1    0
1790    73.4375  4.6875  1    0
1791    76.5625  7.8125  1    0
1792    76.5625  10.9375  1    0
1793    79.6875  17.1875  1    0
1794    79.6875  20.3125  1    0
1795    79.6875  14.0625  1    0
1796    79.6875  10.9375  1    0
1797    82.8125  14.0625  1    0
1798    82.8125  17.1875  1    0
1799    79.6875  23.4375  1    0
1800    82.8125  20.3125  1    0
1801    82.8125  23.4375  1    0
1802    79.6875  26.5625  1    0
1803    73.4375  35.9375  1    0
1804    76.5625  32.8125  1    0
1805    76.5625  35.9375  1    0
1806    73.4375  39.0625  1    0
1807    79.6875  29.6875  1    0
1808    79.6875  32.8125  1    0
1809    82.8125  26.5625  1    0
1810    82.8125  29.6875  1    0
1811    79.6875  35.9375  1    0
1812    82.8125  32.8125  1    0
1813    82.8125  35.9375  1    0
1814    79.6875  39.0625  1    0
1815    76.5625  39.0625  1    0
1816    73.4375  42.1875  1    0
1817    76.5625  42.1875  1    0
1818    73.4375  45.3125  1    0
1819    73.4375  1.5625  1    0
1820    76.5625  1.5625  1    0
1821    76.5625  4.6875  1    0
1822    79.6875  4.6875  1    0
1823    79.6875  7.8125  1    0
1824    79.6875  1.5625  1    0
1825    82.8125  1.5625  1    0
1826    82.8125  4.6875  1    0
1827    82.8125  7.8125  1    0
1828    82.8125  10.9375  1    0
1829    85.9375  10.9375  1    0
1830    85.9375  14.0625  1    0
1831    85.9375  7.8125  1    0
1832    85.9375  4.6875  1    0
1833    89.0625  7.8125  1    0
1834    89.0625  10.9375  1    0
1835    85.9375  17.1875  1    0
1836    89.0625  14.0625  1    0
1837    89.0625  17.1875  1    0
1838    85.9375  20.3125  1    0
1839    85.9375  1.5625  1    0
1840    89.0625  1.5625  1    0
1841    89.0625  4.6875  1    0
1842    92.1875  4.6875  1    0
1843    92.1875  7.8125  1    0
1844    92.1875  1.5625  1    0
1845    95.3125  1.5625  1    0
1846    95.3125  4.6875  1    0
1847    92.1875  10.9375  1    0
1848    95.3125  7.8125  1    0
1849    95.3125  10.9375  1    0
1850    92.1875  14.0625  1    0
1851    85.9375  23.4375  1    0
1852    89.0625  20.3125  1    0
1853    89.0625  23.4375  1    0
1854    85.9375  26.5625  1    0
1855    92.1875  17.1875  1    0
1856    92.1875  20.3125  1    0
1857    95.3125  14.0625  1    0
1858    95.3125  17.1875  1    0
1859    92.1875  23.4375  1    0
1860    95.3125  20.3125  1    0
1861    95.3125  23.4375  1    0
1862    92.1875  26.5625  1    0
1863    89.0625  26.5625  1    0
1864    85.9375  29.6875  1    0
1865    89.0625  29.6875  1    0
1866    85.9375  32.8125  1    0
1867    73.4375  48.4375  1    0
1868    76.5625  45.3125  1    0
1869    76.5625  48.4375  1    0
1870    73.4375  51.5625  1    0
1871    79.6875  42.1875  1    0
1872    79.6875  45.3125  1    0
1873    82.8125  39.0625  1    0
1874    82.8125  42.1875  1    0
1875    79.6875  48.4375  1    0
1876    82.8125  45.3125  1    0
1877    82.8125  48.4375  1    0
1878    79.6875  51.5625  1    0
1879    76.5625  51.5625  1    0
1880    73.4375  54.6875  1    0
1881    76.5625  54.6875  1    0
1882    73.4375  57.8125  1    0
1883    85.9375  35.9375  1    0
1884    85.9375  39.0625  1    0
1885    89.0625  32.8125  1    0
1886    89.0625  35.9375  1    0
1887    85.9375  42.1875  1    0
1888    89.0625  39.0625  1    0
1889    89.0625  42.1875  1    0
1890    85.9375  45.3125  1    0
1891    92.1875  29.6875  1    0
1892    92.1875  32.8125  1    0
1893    95.3125  26.5625  1    0
1894    95.3125  29.6875  1    0
1895    92.1875  35.9375  1    0
1896    95.3125  32.8125  1    0
1897    95.3125  35.9375  1    0
1898    92.1875  39.0625  1    0
1899    85.9375  48.4375  1    0
1900    89.0625  45.3125  1    0
1901    89.0625  48.4375  1    0
1902    85.9375  51.5625  1    0
1903    82.8125  51.5625  1    0
1904    92.1875  42.1875  1    0
1905    92.1875  45.3125  1    0
1906    95.3125  39.0625  1    0
1907    95.3125  42.1875  1    0
1908    92.1875  48.4375  1    0
1909    95.3125  45.3125  1    0
1910    95.3125  48.4375  1    0
1911    92.1875  51.5625  1    0
1912    89.0625  51.5625  1    0
1913    82.8125  54.6875  1    0
1914    79.6875  54.6875  1    0
1915    85.9375  54.6875  1    0
1916    89.0625  54.6875  1    0
1917    85.9375  57.8125  1    0
1918    82.8125  57.8125  1    0
1919    79.6875  57.8125  1    0
1920    76.5625  57.8125  1    0
1921    73.4375  60.9375  1    0
1922    76.5625  60.9375  1    0
1923    73.4375  64.0625  1    0
1924    79.6875  60.9375  1    0
1925    82.8125  60.9375  1    0
1926    79.6875  64.0625  1    0
1927    76.5625  64.0625  1    0
1928    73.4375  67.1875  1    0
1929    76.5625  67.1875  1    0
1930    73.4375  70.3125  1    0
1931    1.5625  98.4375  1    0
1932    4.6875  98.4375  1    0
1933    7.8125  98.4375  1    0
1934    10.9375  98.4375  1    0
1935    14.0625  98.4375  1    0
1936    17.1875  98.4375  1    0
1937    20.3125  98.4375  1    0
1938    23.4375  98.4375  1    0
1939    26.5625  98.4375  1    0
1940    29.6875  98.4375  1    0
1941    32.8125  98.4375  1    0
1942    35.9375  98.4375  1    0
1943    39.0625  98.4375  1    0
1944    42.1875  98.4375  1    0
1945    45.3125  98.4375  1    0
1946    48.4375  98.4375  1    0
1947    51.5625  95.3125  1    0
1948    51.5625  98.4375  1    0
1949    54.6875  92.1875  1    0
1950    54.6875  95.3125  1    0
1951    57.8125  89.0625  1    0
1952    57.8125  92.1875  1    0
1953    54.6875  98.4375  1    0
1954    57.8125  95.3125  1    0
1955    57.8125  98.4375  1    0
1956    60.9375  85.9375  1    0
1957    60.9375  89.0625  1    0
1958    64.0625  82.8125  1    0
1959    64.0625  85.9375  1    0
1960    60.9375  92.1875  1    0
1961    64.0625  89.0625  1    0
1962    64.0625  92.1875  1    0
1963    60.9375  95.3125  1    0
1964    67.1875  79.6875  1    0
1965    67.1875  82.8125  1    0
1966    70.3125  76.5625  1    0
1967    70.3125  79.6875  1    0
1968    67.1875  85.9375  1    0
1969    70.3125  82.8125  1    0
1970    70.3125  85.9375  1    0
1971    67.1875  89.0625  1    0
1972    60.9375  98.4375  1    0
1973    64.0625  95.3125  1    0
1974    64.0625  98.4375  1    0
1975    67.1875  92.1875  1    0
1976    67.1875  95.3125  1    0
1977    70.3125  89.0625  1    0
1978    70.3125  92.1875  1    0
1979    67.1875  98.4375  1    0
1980    70.3125  95.3125  1    0
1981    70.3125  98.4375  1    0
1982    73.4375  73.4375  1    0
1983    73.4375  76.5625  1    0
1984    76.5625  70.3125  1    0
1985    76.5625  73.4375  1    0
1986    73.4375  79.6875  1    0
1987    76.5625  76.5625  1    0
1988    76.5625  79.6875  1    0
1989    73.4375  82.8125  1    0
1990    79.6875  67.1875  1    0
1991    79.6875  70.3125  1    0
1992    82.8125  64.0625  1    0
1993    82.8125  67.1875  1    0
1994    79.6875  73.4375  1    0
1995    82.8125  70.3125  1    0
1996    82.8125  73.4375  1    0
1997    79.6875  76.5625  1    0
1998    73.4375  85.9375  1    0
1999    76.5625  82.8125  1    0
2000    76.5625  85.9375  1    0
2001    73.4375  89.0625  1    0
2002    79.6875  79.6875  1    0
2003    79.6875  82.8125  1    0
2004    82.8125  76.5625  1    0
2005    82.8125  79.6875  1    0
2006    79.6875  85.9375  1    0
2007    82.8125  82.8125  1    0
2008    82.8125  85.9375  1    0
2009    79.6875  89.0625  1    0
2010    76.5625  89.0625  1    0
2011    73.4375  92.1875  1    0
2012    76.5625  92.1875  1    0
2013    73.4375  95.3125  1    0
2014    85.9375  60.9375  1    0
2015    85.9375  64.0625  1    0
2016    89.0625  57.8125  1    0
2017    89.0625  60.9375  1    0
2018    85.9375  67.1875  1    0
2019    89.0625  64.0625  1    0
2020    89.0625  67.1875  1    0
2021    85.9375  70.3125  1    0
2022    92.1875  54.6875  1    0
2023    92.1875  57.8125  1    0
2024    95.3125  51.5625  1    0
2025    95.3125  54.6875  1    0
2026    92.1875  60.9375  1    0
2027    95.3125  57.8125  1    0
2028    95.3125  60.9375  1    0
2029    92.1875  64.0625  1    0
2030    85.9375  73.4375  1    0
2031    89.0625  70.3125  1    0
2032    89.0625  73.4375  1    0
2033    85.9375  76.5625  1    0
2034    92.1875  67.1875  1    0
2035    92.1875  70.3125  1    0
2036    95.3125  64.0625  1    0
2037    95.3125  67.1875  1    0
2038    92.1875  73.4375  1    0
2039    95.3125  70.3125  1    0
2040    95.3125  73.4375  1    0
2041    92.1875  76.5625  1    0
2042    89.0625  76.5625  1    0
2043    85.9375  79.6875  1    0
2044    89.0625  79.6875  1    0
2045    85.9375  82.8125  1    0
2046    73.4375  98.4375  1    0
2047    76.5625  95.3125  1    0
2048    76.5625  98.4375  1    0
2049    79.6875  92.1875  1    0
2050    79.6875  95.3125  1    0
2051    82.8125  89.0625  1    0
2052    82.8125  92.1875  1    0
2053    79.6875  98.4375  1    0
2054    82.8125  95.3125  1    0
2055    82.8125  98.4375  1    0
2056    85.9375  85.9375  1    0
2057    85.9375  89.0625  1    0
2058    89.0625  82.8125  1    0
2059    89.0625  85.9375  1    0
2060    85.9375  92.1875  1    0
2061    89.0625  89.0625  1    0
2062    89.0625  92.1875  1    0
2063    85.9375  95.3125  1    0
2064    92.1875  79.6875  1    0
2065    92.1875  82.8125  1    0
2066    95.3125  76.5625  1    0
2067    95.3125  79.6875  1    0
2068    92.1875  85.9375  1    0
2069    95.3125  82.8125  1    0
2070    95.3125  85.9375  1    0
2071    92.1875  89.0625  1    0
2072    85.9375  98.4375  1    0
2073    89.0625  95.3125  1    0
2074    89.0625  98.4375  1    0
2075    92.1875  92.1875  1    0
2076    92.1875  95.3125  1    0
2077    95.3125  89.0625  1    0
2078    95.3125  92.1875  1    0
2079    92.1875  98.4375  1    0
2080    95.3125  95.3125  1    0
2081    95.3125  98.4375  1    0
2082    98.4375  1.5625  1    0
2083    98.4375  4.6875  1    0
2084    98.4375  7.8125  1    0
2085    98.4375  10.9375  1    0
2086    98.4375  14.0625  1    0
2087    98.4375  17.1875  1    0
2088    98.4375  20.3125  1    0
2089    98.4375  23.4375  1    0
2090    98.4375  26.5625  1    0
2091    98.4375  29.6875  1    0
2092    98.4375  32.8125  1    0
2093    98.4375  35.9375  1    0
2094    98.4375  39.0625  1    0
2095    98.4375  42.1875  1    0
2096    98.4375  45.3125  1    0
2097    98.4375  48.4375  1    0
2098    98.4375  51.5625  1    0
2099    98.4375  54.6875  1    0
2100    98.4375  57.8125  1    0
2101    98.4375  60.9375  1    0
2102    98.4375  64.0625  1    0
2103    98.4375  67.1875  1    0
2104    98.4375  70.3125  1    0
2105    98.4375  73.4375  1    0
2106    98.4375  76.5625  1    0
2107    98.4375  79.6875  1    0
2108    98.4375  82.8125  1    0
2109    98.4375  85.9375  1    0
2110    98.4375  89.0625  1    0
2111    98.4375  92.1875  1    0
2112    98.4375  95.3125  1    0
2113    98.4375  98.4375  1    0
# Generated by C:\SEBAST~1\CSP\UTILIT~1\TRIANGLE\TRIANG~1.EXE -aAnepq30CV test3.poly
