0  2  1  1
268  1
   1       2  2761       1
   2       3   963       1
   3       4  2007       1
   4       1  2869       1
   5       5  1184       1
   6       6  1977       1
   7       7  1776       1
   8       8  2028       1
   9       9  2655       1
  10      10  2152       1
  11      11  1389       1
  12      12  1371       1
  13      14  1959       1
  14      15  2416       1
  15      18  2886       1
  16      20  1461       1
  17      22  2913       1
  18      23  2570       1
  19      24  1240       1
  20      25  1786       1
  21      26  1341       1
  22      28  2784       1
  23      29  2757       1
  24      34  1827       1
  25      37  2256       1
  26      41  2309       1
  27      45  2320       1
  28      48   400       1
  29      51  1661       1
  30      54  1393       1
  31      58  1400       1
  32      63  1495       1
  33      73  2302       1
  34      81  1749       1
  35      92  2116       1
  36     103  2861       1
  37     104  1914       1
  38     110  2358       1
  39     114  1655       1
  40     116  1205       1
  41     122  2218       1
  42     126  2259       1
  43     131  2231       1
  44     132  2261       1
  45     137  2390       1
  46     146  1817       1
  47     153  2618       1
  48     162  2664       1
  49     168   417       1
  50     172  2126       1
  51     178  1807       1
  52     180  2640       1
  53     181  2010       1
  54     187  2594       1
  55     188  2576       1
  56     194   403       1
  57     223  2497       1
  58     227  2467       1
  59     272  1772       1
  60     273  2605       1
  61     285  1730       1
  62     295  1108       1
  63     303  1023       1
  64     304   310       1
  65     310     9       1
  66     346  1279       1
  67     385  1030       1
  68     386  2101       1
  69     400   194       1
  70     403  2119       1
  71     404  1813       1
  72     407  2123       1
  73     417   172       1
  74     505  2195       1
  75     513  2876       1
  76     541  2221       1
  77     545   932       1
  78     566  2228       1
  79     573  2239       1
  80     577  2243       1
  81     582  2385       1
  82     588  2265       1
  83     614  2386       1
  84     638  1492       1
  85     648  2308       1
  86     650  2305       1
  87     661  1743       1
  88     698  2344       1
  89     702  2349       1
  90     710  1659       1
  91     716  2359       1
  92     719  1217       1
  93     750  2382       1
  94     759  1504       1
  95     762  2753       1
  96     776  1923       1
  97     787  1368       1
  98     794  1789       1
  99     799  1342       1
 100     804  1381       1
 101     809  2391       1
 102     932   126       1
 103     938  2759       1
 104     939  2765       1
 105     942   964       1
 106     959  2461       1
 107     963  2456       1
 108     964    26       1
 109     965     3       1
 110     972  2600       1
 111     973  2896       1
 112     976  2470       1
 113     977  2472       1
 114     981  2567       1
 115     982  1717       1
 116     987  2479       1
 117     990  1826       1
 118     996  1816       1
 119    1023   168       1
 120    1026  2501       1
 121    1030  2608       1
 122    1108  2558       1
 123    1117   188       1
 124    1121  2574       1
 125    1124  2575       1
 126    1144  2586       1
 127    1162  2897       1
 128    1178  2963       1
 129    1184   404       1
 130    1205  2617       1
 131    1208  2623       1
 132    1213  2626       1
 133    1217  1213       1
 134    1235  2635       1
 135    1238    24       1
 136    1240   295       1
 137    1243  2003       1
 138    1245  2009       1
 139    1262  2654       1
 140    1274  2662       1
 141    1275  2661       1
 142    1279  1275       1
 143    1283  2887       1
 144    1286  2154       1
 145    1341   799       1
 146    1342    12       1
 147    1368    58       1
 148    1371   787       1
 149    1381    54       1
 150    1389   804       1
 151    1393   794       1
 152    1400   776       1
 153    1435  2770       1
 154    1440   762       1
 155    1442  2768       1
 156    1461   759       1
 157    1474   939       1
 158    1492     7       1
 159    1495   638       1
 160    1504    63       1
 161    1655   716       1
 162    1659   114       1
 163    1661   710       1
 164    1716   981       1
 165    1717  2870       1
 166    1730  1238       1
 167    1743    14       1
 168    1749   661       1
 169    1772   513       1
 170    1776   809       1
 171    1786   959       1
 172    1789    25       1
 173    1807   304       1
 174    1813   122       1
 175    1816    11       1
 176    1817   996       1
 177    1826   146       1
 178    1827   990       1
 179    1914   976       1
 180    1923    28       1
 181    1959   698       1
 182    1977   750       1
 183    2003   180       1
 184    2007  1243       1
 185    2009     4       1
 186    2010  1245       1
 187    2028   614       1
 188    2101   385       1
 189    2116   386       1
 190    2119    92       1
 191    2123    48       1
 192    2126   407       1
 193    2152   505       1
 194    2154    10       1
 195    2195   223       1
 196    2218   541       1
 197    2221    45       1
 198    2228   131       1
 199    2231   573       1
 200    2239    37       1
 201    2243   132       1
 202    2256   577       1
 203    2259   582       1
 204    2261   588       1
 205    2265     8       1
 206    2302   648       1
 207    2305    81       1
 208    2308    41       1
 209    2309   650       1
 210    2320   545       1
 211    2344   110       1
 212    2349    51       1
 213    2358   702       1
 214    2359     6       1
 215    2382   719       1
 216    2385    15       1
 217    2386   137       1
 218    2390   987       1
 219    2391    73       1
 220    2416   566       1
 221    2456   942       1
 222    2461   965       1
 223    2467   973       1
 224    2470   227       1
 225    2472   972       1
 226    2479    34       1
 227    2497  1026       1
 228    2501   104       1
 229    2558   178       1
 230    2567  1117       1
 231    2570  1121       1
 232    2574   272       1
 233    2575   273       1
 234    2576  1124       1
 235    2586   982       1
 236    2594  1144       1
 237    2600  1162       1
 238    2605  1178       1
 239    2608     5       1
 240    2617   153       1
 241    2618  1208       1
 242    2623    18       1
 243    2626   116       1
 244    2635   285       1
 245    2640  1235       1
 246    2654   303       1
 247    2655  1262       1
 248    2661   103       1
 249    2662   162       1
 250    2664  1286       1
 251    2753  1435       1
 252    2757  1440       1
 253    2759  1442       1
 254    2761   938       1
 255    2765     2       1
 256    2768    29       1
 257    2770    20       1
 258    2784  1474       1
 259    2861  1274       1
 260    2869  1716       1
 261    2870     1       1
 262    2876   181       1
 263    2886  1283       1
 264    2887   346       1
 265    2896    22       1
 266    2897   187       1
 267    2913   977       1
 268    2963    23       1
0
1
   1   10  10  1.0000000000000001e-15  25
# Generated by trianglemesher -aAnepq30CVF elder-fine.poly
