1172  3  1
   1      45   380   385  1.0000000000000001e-15
   2     589   405   588  1.0000000000000001e-15
   3     261   222     1  1.0000000000000001e-15
   4     244    69    72  1.0000000000000001e-15
   5     559   493   558  1.0000000000000001e-15
   6      27   385   583  1.0000000000000001e-15
   7     294   103     8  1e-10
   8     393   149   391  1.0000000000000001e-15
   9     302   275   300  1.0000000000000001e-15
  10     198     1     2  1.0000000000000001e-15
  11     139   239   411  1.0000000000000001e-15
  12     439   252   350  1.0000000000000001e-15
  13      33   454   223  1.0000000000000001e-15
  14     233   230     5  1.0000000000000001e-15
  15      41   512   275  1.0000000000000001e-15
  16     597   598     7  1.0000000000000001e-15
  17     601   197   545  1.0000000000000001e-15
  18     274    56   273  1.0000000000000001e-15
  19     202     5     6  1.0000000000000001e-15
  20     392   391   196  1.0000000000000001e-15
  21     354   105   104  1.0000000000000001e-15
  22     232   203   271  1.0000000000000001e-15
  23     216    38   153  1.0000000000000001e-15
  24     518   515   520  1.0000000000000001e-15
  25      62   204   543  1.0000000000000001e-15
  26     334    51   333  1.0000000000000001e-15
  27     259   175   174  1.0000000000000001e-15
  28      44   409   410  1.0000000000000001e-15
  29     155   528   253  1.0000000000000001e-15
  30     508    96   507  1.0000000000000001e-15
  31     130   238   429  1.0000000000000001e-15
  32     573   328   319  1.0000000000000001e-15
  33     261   198    97  1.0000000000000001e-15
  34      90   209    91  1.0000000000000001e-15
  35       4   111   309  1.0000000000000001e-15
  36      18    83   246  1.0000000000000001e-15
  37     481   152   480  1.0000000000000001e-15
  38     444   445    26  1.0000000000000001e-15
  39     271   202     6  1.0000000000000001e-15
  40     351   266   268  1.0000000000000001e-15
  41      29    71    28  1e-10
  42     387   160   296  1.0000000000000001e-15
  43     217   242   451  1.0000000000000001e-15
  44     320   213   298  1.0000000000000001e-15
  45     485   361   484  1.0000000000000001e-15
  46     244    72   502  1.0000000000000001e-15
  47      62   171   204  1.0000000000000001e-15
  48      30    63    31  1e-10
  49     420   143   215  1.0000000000000001e-15
  50      33   143    32  1e-10
  51     152   305   306  1.0000000000000001e-15
  52      32    77    33  1e-10
  53     183   181   284  1.0000000000000001e-15
  54      33    77   454  1.0000000000000001e-15
  55     111   194   309  1.0000000000000001e-15
  56      34   140    35  1e-10
  57      37   155    36  1e-10
  58      84    19   596  1.0000000000000001e-15
  59     207    37   186  1.0000000000000001e-15
  60      19    83    18  1e-10
  61     596    19   423  1.0000000000000001e-15
  62      37   207   567  1.0000000000000001e-15
  63     395   488    85  1.0000000000000001e-15
  64      38   148    39  1e-10
  65     437   352    40  1.0000000000000001e-15
  66     352   219   347  1.0000000000000001e-15
  67     513    41   516  1.0000000000000001e-15
  68     511    42   462  1.0000000000000001e-15
  69     303    24   304  1.0000000000000001e-15
  70     593    15   594  1.0000000000000001e-15
  71     255   163   529  1.0000000000000001e-15
  72      27   266   385  1.0000000000000001e-15
  73     407   408   113  1.0000000000000001e-15
  74     275   132   300  1.0000000000000001e-15
  75      57   402   404  1.0000000000000001e-15
  76     334   335    51  1.0000000000000001e-15
  77     458    46   457  1.0000000000000001e-15
  78      47   165    46  1e-10
  79     257   531    70  1.0000000000000001e-15
  80      46    91    47  1e-10
  81     255   529   168  1.0000000000000001e-15
  82      91   254    47  1.0000000000000001e-15
  83       8   103   329  1.0000000000000001e-15
  84      48   161    49  1e-10
  85     218    61   422  1.0000000000000001e-15
  86     346   347    66  1.0000000000000001e-15
  87     524   525   107  1.0000000000000001e-15
  88     346   553   451  1.0000000000000001e-15
  89      58   273    56  1.0000000000000001e-15
  90     509   510    53  1.0000000000000001e-15
  91      96   112   102  1.0000000000000001e-15
  92      60   210   399  1.0000000000000001e-15
  93     281   558    43  1.0000000000000001e-15
  94     257   530   177  1.0000000000000001e-15
  95     402    57    97  1.0000000000000001e-15
  96     126   263   265  1.0000000000000001e-15
  97     271   272    98  1.0000000000000001e-15
  98     504   102   503  1.0000000000000001e-15
  99      97   198   401  1.0000000000000001e-15
 100     262   263   126  1.0000000000000001e-15
 101      98   202   271  1.0000000000000001e-15
 102     503   102   311  1.0000000000000001e-15
 103     444    44   410  1.0000000000000001e-15
 104      76   181   183  1.0000000000000001e-15
 105     245    75    78  1.0000000000000001e-15
 106      80   227   251  1.0000000000000001e-15
 107      64    62    63  1e-10
 108      64   422    61  1.0000000000000001e-15
 109     541    67   538  1.0000000000000001e-15
 110      61   171    62  1e-10
 111     343   344    82  1.0000000000000001e-15
 112      62    64    61  1e-10
 113      30   175   532  1.0000000000000001e-15
 114      63    30    64  1e-10
 115      34   141   448  1.0000000000000001e-15
 116     433    93   434  1.0000000000000001e-15
 117     345    68   256  1.0000000000000001e-15
 118     345   346    66  1.0000000000000001e-15
 119      93   279   280  1.0000000000000001e-15
 120     531    71    70  1.0000000000000001e-15
 121     485   571   486  1.0000000000000001e-15
 122     169    61   218  1.0000000000000001e-15
 123     530   257   173  1.0000000000000001e-15
 124      70    71    72  1e-10
 125     257    70   173  1.0000000000000001e-15
 126      31   175    30  1e-10
 127     247   476   191  1.0000000000000001e-15
 128      70    72    69  1e-10
 129     188    89   260  1.0000000000000001e-15
 130      71    29    72  1e-10
 131     458   459    92  1.0000000000000001e-15
 132     450   565   192  1.0000000000000001e-15
 133     282    67    65  1.0000000000000001e-15
 134     364   106   108  1.0000000000000001e-15
 135      78    76    77  1e-10
 136     426   196   425  1.0000000000000001e-15
 137      38   216   480  1.0000000000000001e-15
 138      75   181    76  1e-10
 139     284   181   180  1.0000000000000001e-15
 140      76    78    75  1e-10
 141     208    35   140  1.0000000000000001e-15
 142      77    32    78  1e-10
 143     211    79   288  1.0000000000000001e-15
 144      88   562   408  1.0000000000000001e-15
 145     142   215   143  1.0000000000000001e-15
 146     461   462   251  1.0000000000000001e-15
 147     342    36   253  1.0000000000000001e-15
 148      82    83    84  1e-10
 149     455   148   224  1.0000000000000001e-15
 150      36   186    37  1e-10
 151     154   528   155  1.0000000000000001e-15
 152      82    84    81  1e-10
 153     572   248   555  1.0000000000000001e-15
 154      83    19    84  1e-10
 155     343   184   342  1.0000000000000001e-15
 156     527    85   602  1.0000000000000001e-15
 157      66   486   345  1.0000000000000001e-15
 158     286   287    79  1.0000000000000001e-15
 159     364   108   363  1.0000000000000001e-15
 160     579   201   578  1.0000000000000001e-15
 161     494   128   203  1.0000000000000001e-15
 162     128   495   273  1.0000000000000001e-15
 163      92    90    91  1e-10
 164     192   502   600  1.0000000000000001e-15
 165      90   190   209  1.0000000000000001e-15
 166      89   190    90  1e-10
 167     433   168    93  1.0000000000000001e-15
 168      90    92    89  1e-10
 169     164   225   165  1.0000000000000001e-15
 170      91    46    92  1e-10
 171     282   280    74  1.0000000000000001e-15
 172     322   432   435  1.0000000000000001e-15
 173     496   497   125  1.0000000000000001e-15
 174      51   242   217  1.0000000000000001e-15
 175     261   262   199  1.0000000000000001e-15
 176     497   317    94  1.0000000000000001e-15
 177     194   465   114  1.0000000000000001e-15
 178     144   359   360  1.0000000000000001e-15
 179     584     2   355  1.0000000000000001e-15
 180     222   453   119  1.0000000000000001e-15
 181     272   271   203  1.0000000000000001e-15
 182     195   205   311  1.0000000000000001e-15
 183     337   338   116  1.0000000000000001e-15
 184     338   337   176  1.0000000000000001e-15
 185     399   210   398  1.0000000000000001e-15
 186     224   314   151  1.0000000000000001e-15
 187     539   541   542  1.0000000000000001e-15
 188     177   540   534  1.0000000000000001e-15
 189     503   311   506  1.0000000000000001e-15
 190      56   325   312  1.0000000000000001e-15
 191     198   261     1  1.0000000000000001e-15
 192     221     2     1  1e-10
 193     159   290   289  1.0000000000000001e-15
 194     292   105   221  1e-10
 195     127   362   363  1.0000000000000001e-15
 196     103   294   292  1e-10
 197     403   587   586  1.0000000000000001e-15
 198     105   354   355  1.0000000000000001e-15
 199     241   333   217  1.0000000000000001e-15
 200     295   296   160  1.0000000000000001e-15
 201     354   362   127  1.0000000000000001e-15
 202     584   575   200  1.0000000000000001e-15
 203     235   111     4  1e-10
 204     109   299   235  1e-10
 205     465   112   114  1.0000000000000001e-15
 206     230   299   231  1e-10
 207     233   465   194  1.0000000000000001e-15
 208     111   235   299  1e-10
 209     228   359   226  1.0000000000000001e-15
 210     237   239   139  1.0000000000000001e-15
 211     469   470   498  1.0000000000000001e-15
 212     406   499   563  1.0000000000000001e-15
 213     111   110   234  1.0000000000000001e-15
 214     310   473   239  1.0000000000000001e-15
 215     170   339   171  1.0000000000000001e-15
 216     115   535   536  1.0000000000000001e-15
 217     175   259   532  1.0000000000000001e-15
 218      86   123   368  1.0000000000000001e-15
 219     430   130   429  1.0000000000000001e-15
 220      33   223   141  1.0000000000000001e-15
 221     118   505   326  1.0000000000000001e-15
 222     510   327   283  1.0000000000000001e-15
 223     103   373   329  1.0000000000000001e-15
 224     331   296   330  1.0000000000000001e-15
 225     469   236   470  1.0000000000000001e-15
 226     428   494   203  1.0000000000000001e-15
 227     112   474   473  1.0000000000000001e-15
 228     100   245   145  1.0000000000000001e-15
 229     530   173    31  1.0000000000000001e-15
 230     534   122   177  1.0000000000000001e-15
 231     423   169   218  1.0000000000000001e-15
 232     423   368   123  1.0000000000000001e-15
 233     189   366   190  1.0000000000000001e-15
 234     279   124   191  1.0000000000000001e-15
 235      73   551   565  1.0000000000000001e-15
 236      29   600   502  1.0000000000000001e-15
 237     262    57   263  1.0000000000000001e-15
 238      55   264   263  1.0000000000000001e-15
 239     293   297   362  1.0000000000000001e-15
 240     574   355   127  1.0000000000000001e-15
 241      44   132   277  1.0000000000000001e-15
 242     272   273    58  1.0000000000000001e-15
 243     107   332   331  1.0000000000000001e-15
 244     165   225   457  1.0000000000000001e-15
 245     223   430   448  1.0000000000000001e-15
 246      79   211   250  1.0000000000000001e-15
 247     266   131   264  1.0000000000000001e-15
 248      51   335   336  1.0000000000000001e-15
 249     388   276   300  1.0000000000000001e-15
 250     274   275    52  1.0000000000000001e-15
 251      16   381   383  1.0000000000000001e-15
 252     397   489    65  1.0000000000000001e-15
 253     436   437    40  1.0000000000000001e-15
 254     361   371    50  1.0000000000000001e-15
 255     224   148   147  1.0000000000000001e-15
 256     394   395   527  1.0000000000000001e-15
 257     539    65    67  1.0000000000000001e-15
 258     489   490   137  1.0000000000000001e-15
 259     472   139   140  1e-10
 260     597   469   406  1.0000000000000001e-15
 261     121   208   411  1.0000000000000001e-15
 262     468   467   237  1e-10
 263     139   411   140  1.0000000000000001e-15
 264     472   140    34  1e-10
 265      35   141    34  1e-10
 266     141   142   143  1e-10
 267     316   145   215  1.0000000000000001e-15
 268     141    35   142  1e-10
 269     215   142   452  1.0000000000000001e-15
 270     141   143    33  1e-10
 271     144   145   316  1.0000000000000001e-15
 272     100   144   360  1.0000000000000001e-15
 273     100   145   144  1.0000000000000001e-15
 274     420   421    32  1.0000000000000001e-15
 275     148   146   147  1e-10
 276     146    20    21  1e-10
 277     148   455    39  1.0000000000000001e-15
 278     146    21   147  1e-10
 279     425   314   424  1.0000000000000001e-15
 280     146   148    38  1e-10
 281     196   391   425  1.0000000000000001e-15
 282     391   149   314  1.0000000000000001e-15
 283     566   567   207  1.0000000000000001e-15
 284     150   481   482  1.0000000000000001e-15
 285     136   547   365  1.0000000000000001e-15
 286     156   158   365  1.0000000000000001e-15
 287     286    79   117  1.0000000000000001e-15
 288     117   285   286  1.0000000000000001e-15
 289      39   153    38  1e-10
 290     153   154   155  1e-10
 291      39   456   154  1.0000000000000001e-15
 292     153    39   154  1e-10
 293     155   253    36  1.0000000000000001e-15
 294     153   155    37  1e-10
 295     546   601   545  1.0000000000000001e-15
 296     342   184    36  1.0000000000000001e-15
 297     185   357   186  1.0000000000000001e-15
 298     566   568   157  1.0000000000000001e-15
 299     456    39   455  1.0000000000000001e-15
 300     158   456   365  1.0000000000000001e-15
 301     161   159   160  1e-10
 302     289   298   477  1.0000000000000001e-15
 303     129   206   387  1.0000000000000001e-15
 304     289   478   479  1e-10
 305     160   387   161  1.0000000000000001e-15
 306     159   161    48  1e-10
 307     529   163    47  1.0000000000000001e-15
 308     433   323   432  1.0000000000000001e-15
 309      49   163    48  1e-10
 310     163   164   165  1e-10
 311     206    49   161  1.0000000000000001e-15
 312     163    49   164  1e-10
 313     164   427   225  1.0000000000000001e-15
 314     163   165    47  1e-10
 315      46   165   457  1.0000000000000001e-15
 316     317   166   240  1.0000000000000001e-15
 317     497    94   125  1.0000000000000001e-15
 318     458    92    46  1.0000000000000001e-15
 319      93   168   124  1.0000000000000001e-15
 320     163   255    48  1.0000000000000001e-15
 321     171   169   170  1e-10
 322     169    19    18  1e-10
 323     172   339   340  1.0000000000000001e-15
 324     169    18   170  1e-10
 325     171   339   204  1.0000000000000001e-15
 326     169   171    61  1e-10
 327     170   340   339  1.0000000000000001e-15
 328     536   537   419  1.0000000000000001e-15
 329      69   173    70  1e-10
 330     173   174   175  1e-10
 331     178   548   176  1.0000000000000001e-15
 332     173    69   174  1e-10
 333     259   174   318  1.0000000000000001e-15
 334     173   175    31  1e-10
 335     549   550   176  1.0000000000000001e-15
 336     337   422   533  1.0000000000000001e-15
 337     258    31    63  1.0000000000000001e-15
 338     540   115   538  1.0000000000000001e-15
 339     337   178   176  1.0000000000000001e-15
 340     532   533    30  1.0000000000000001e-15
 341     181   179   180  1e-10
 342     179    21    20  1e-10
 343     284   305   182  1.0000000000000001e-15
 344     179    20   180  1e-10
 345     305   284   180  1.0000000000000001e-15
 346     179   181    75  1e-10
 347     152   150   286  1.0000000000000001e-15
 348     183   285   454  1.0000000000000001e-15
 349     285   183   182  1.0000000000000001e-15
 350      77    76   183  1.0000000000000001e-15
 351      81   184    82  1e-10
 352     184   185   186  1e-10
 353      81    84   248  1.0000000000000001e-15
 354     184    81   185  1e-10
 355     186   357   207  1.0000000000000001e-15
 356     184   186    36  1e-10
 357     185   358   357  1.0000000000000001e-15
 358     123   555   248  1.0000000000000001e-15
 359     190   188   189  1e-10
 360     188    29    28  1e-10
 361     367   366   189  1.0000000000000001e-15
 362     188    28   189  1e-10
 363     190   366   209  1.0000000000000001e-15
 364     188   190    89  1e-10
 365      71   247    28  1.0000000000000001e-15
 366     122   476   247  1.0000000000000001e-15
 367     192   125   450  1.0000000000000001e-15
 368      99   244   502  1.0000000000000001e-15
 369     255   291   370  1.0000000000000001e-15
 370     193   322   321  1.0000000000000001e-15
 371     230   234   110  1.0000000000000001e-15
 372     195   102   112  1.0000000000000001e-15
 373     111   234   194  1.0000000000000001e-15
 374       5   202   205  1.0000000000000001e-15
 375     426    75   245  1.0000000000000001e-15
 376     394   136   393  1.0000000000000001e-15
 377     526   546   547  1.0000000000000001e-15
 378     246   344   603  1.0000000000000001e-15
 379     355     2   105  1.0000000000000001e-15
 380     199   262   126  1.0000000000000001e-15
 381     199   524   453  1.0000000000000001e-15
 382       1   222   221  1.0000000000000001e-15
 383     403   577   578  1.0000000000000001e-15
 384     401   402    97  1.0000000000000001e-15
 385     590   378   579  1.0000000000000001e-15
 386     588    55   404  1.0000000000000001e-15
 387     232   271     6  1.0000000000000001e-15
 388     202    98   205  1.0000000000000001e-15
 389     232     6   231  1.0000000000000001e-15
 390     203   232   428  1.0000000000000001e-15
 391     172   535   204  1.0000000000000001e-15
 392     258   543   535  1.0000000000000001e-15
 393      98    58   205  1.0000000000000001e-15
 394     195   311   102  1.0000000000000001e-15
 395     240   206   129  1.0000000000000001e-15
 396     315   167   225  1.0000000000000001e-15
 397     187   566   207  1.0000000000000001e-15
 398      37   567   153  1.0000000000000001e-15
 399     208   121   226  1.0000000000000001e-15
 400      32   143   420  1.0000000000000001e-15
 401     191   124   209  1.0000000000000001e-15
 402     209   124   254  1.0000000000000001e-15
 403     393   392   210  1.0000000000000001e-15
 404     210   392   398  1.0000000000000001e-15
 405     287   288    79  1.0000000000000001e-15
 406     409    88   408  1.0000000000000001e-15
 407     349   212   288  1.0000000000000001e-15
 408     374   375   219  1.0000000000000001e-15
 409     160   479   295  1e-10
 410     321   364   320  1.0000000000000001e-15
 411     452   142    35  1.0000000000000001e-15
 412       5   230   231  1e-10
 413     226   316   452  1.0000000000000001e-15
 414     481   150   152  1.0000000000000001e-15
 415     480   152   306  1.0000000000000001e-15
 416     315   166   167  1.0000000000000001e-15
 417     336   242    51  1.0000000000000001e-15
 418     368   218   116  1.0000000000000001e-15
 419     169   423    19  1.0000000000000001e-15
 420     219    13   374  1.0000000000000001e-15
 421     375   377   372  1.0000000000000001e-15
 422     464   303   304  1.0000000000000001e-15
 423     413   396   400  1.0000000000000001e-15
 424       2   221   105  1e-10
 425     104   105   292  1e-10
 426     453   222   199  1.0000000000000001e-15
 427     119   329   373  1.0000000000000001e-15
 428     250   223   117  1.0000000000000001e-15
 429     448   429    34  1.0000000000000001e-15
 430     424   147    21  1.0000000000000001e-15
 431     151   314   149  1.0000000000000001e-15
 432     427   164    49  1.0000000000000001e-15
 433     240   315   427  1.0000000000000001e-15
 434     226   359   144  1.0000000000000001e-15
 435     226   121   475  1.0000000000000001e-15
 436     460   227   228  1.0000000000000001e-15
 437     399   251   400  1.0000000000000001e-15
 438     473   121   239  1.0000000000000001e-15
 439     228   474   460  1.0000000000000001e-15
 440     349   350   212  1.0000000000000001e-15
 441     446    26   445  1.0000000000000001e-15
 442       5   231     6  1e-10
 443     232   231   341  1.0000000000000001e-15
 444     299   230   110  1e-10
 445     341   231   109  1.0000000000000001e-15
 446     428   232   120  1.0000000000000001e-15
 447       5   205   233  1.0000000000000001e-15
 448     195   233   205  1.0000000000000001e-15
 449     230   233   234  1.0000000000000001e-15
 450     233   194   234  1.0000000000000001e-15
 451     236   467   468  1e-10
 452     109   235     7  1e-10
 453     472   429   471  1.0000000000000001e-15
 454     139   468   237  1e-10
 455     310     4   309  1.0000000000000001e-15
 456     466     7   235  1e-10
 457     564   120   563  1.0000000000000001e-15
 458     597   466   469  1.0000000000000001e-15
 459     310   237     4  1.0000000000000001e-15
 460     473   114   112  1.0000000000000001e-15
 461     240   129   554  1.0000000000000001e-15
 462     240   241   317  1.0000000000000001e-15
 463     331   332   554  1.0000000000000001e-15
 464     241   332   333  1.0000000000000001e-15
 465      40   135   242  1.0000000000000001e-15
 466     242   135   451  1.0000000000000001e-15
 467     381   243   379  1.0000000000000001e-15
 468     382   412    16  1.0000000000000001e-15
 469      72    29   502  1.0000000000000001e-15
 470     548   549   176  1.0000000000000001e-15
 471      78    32   421  1.0000000000000001e-15
 472     426   100   196  1.0000000000000001e-15
 473      83    82   344  1.0000000000000001e-15
 474     246   101   537  1.0000000000000001e-15
 475     476    74   279  1.0000000000000001e-15
 476     367   191   366  1.0000000000000001e-15
 477     555    86   356  1.0000000000000001e-15
 478     358   187   357  1.0000000000000001e-15
 479      54   396   413  1.0000000000000001e-15
 480     491   492   369  1.0000000000000001e-15
 481      79   250   117  1.0000000000000001e-15
 482     409   431   211  1.0000000000000001e-15
 483     461   227   460  1.0000000000000001e-15
 484     511   461    53  1.0000000000000001e-15
 485      50   371   372  1.0000000000000001e-15
 486     442   252   592  1.0000000000000001e-15
 487     156   544   158  1.0000000000000001e-15
 488     342   544   545  1.0000000000000001e-15
 489     209   254    91  1.0000000000000001e-15
 490     124   168   254  1.0000000000000001e-15
 491     168   162   255  1.0000000000000001e-15
 492     290   291   193  1.0000000000000001e-15
 493     551   256   550  1.0000000000000001e-15
 494      66   308   486  1.0000000000000001e-15
 495     177   122   257  1.0000000000000001e-15
 496     531   122   247  1.0000000000000001e-15
 497     535   543   204  1.0000000000000001e-15
 498     115   177   258  1.0000000000000001e-15
 499     174    69   318  1.0000000000000001e-15
 500     178   259   548  1.0000000000000001e-15
 501     459    89    92  1.0000000000000001e-15
 502     125   192   260  1.0000000000000001e-15
 503     262    97    57  1.0000000000000001e-15
 504     222   261   199  1.0000000000000001e-15
 505      97   262   261  1.0000000000000001e-15
 506     263    57    55  1.0000000000000001e-15
 507     264    55    45  1.0000000000000001e-15
 508      95   107   525  1.0000000000000001e-15
 509     266   264    45  1.0000000000000001e-15
 510     265   264   131  1.0000000000000001e-15
 511     264   265   263  1.0000000000000001e-15
 512     335   334   265  1.0000000000000001e-15
 513     385   266    45  1.0000000000000001e-15
 514     269   267   268  1.0000000000000001e-15
 515     266   269   268  1.0000000000000001e-15
 516      40   336   436  1.0000000000000001e-15
 517     269   266    27  1.0000000000000001e-15
 518     351   487   336  1.0000000000000001e-15
 519     270   573     9  1.0000000000000001e-15
 520     348   267   269  1.0000000000000001e-15
 521     328    27   386  1.0000000000000001e-15
 522     348    22   438  1.0000000000000001e-15
 523     203   128   272  1.0000000000000001e-15
 524     272   128   273  1.0000000000000001e-15
 525      98   272    58  1.0000000000000001e-15
 526     494   495   128  1.0000000000000001e-15
 527     274    52   325  1.0000000000000001e-15
 528     277   274   273  1.0000000000000001e-15
 529     275   274   132  1.0000000000000001e-15
 530     388    26   440  1.0000000000000001e-15
 531     300   276   302  1.0000000000000001e-15
 532     440   276   388  1.0000000000000001e-15
 533     443   302   276  1.0000000000000001e-15
 534      44   277    88  1.0000000000000001e-15
 535     274   277   132  1.0000000000000001e-15
 536     517    23   515  1.0000000000000001e-15
 537     283   303    42  1.0000000000000001e-15
 538     280   279    74  1.0000000000000001e-15
 539      93   124   279  1.0000000000000001e-15
 540     534   282    74  1.0000000000000001e-15
 541     435    87   322  1.0000000000000001e-15
 542     281   434   449  1.0000000000000001e-15
 543     449   557   281  1.0000000000000001e-15
 544     489   282    65  1.0000000000000001e-15
 545     449   282   137  1.0000000000000001e-15
 546     327   118   326  1.0000000000000001e-15
 547     303   283   278  1.0000000000000001e-15
 548     305   180    20  1.0000000000000001e-15
 549     182   183   284  1.0000000000000001e-15
 550     285   182   286  1.0000000000000001e-15
 551     285   117   454  1.0000000000000001e-15
 552     152   286   182  1.0000000000000001e-15
 553     287   286   150  1.0000000000000001e-15
 554     483   287   150  1.0000000000000001e-15
 555      59   349   288  1.0000000000000001e-15
 556      59   288   287  1.0000000000000001e-15
 557     211   288   212  1.0000000000000001e-15
 558       3   477   298  1.0000000000000001e-15
 559     213   297   298  1.0000000000000001e-15
 560     290   370   291  1.0000000000000001e-15
 561     370   290   159  1.0000000000000001e-15
 562     255   162   291  1.0000000000000001e-15
 563     322   291   162  1.0000000000000001e-15
 564     221   103   292  1e-10
 565     297   293     3  1.0000000000000001e-15
 566     293   294     3  1e-10
 567     104   292   293  1e-10
 568     294   293   292  1e-10
 569     330   295     8  1.0000000000000001e-15
 570     477     3   294  1e-10
 571     295   479   478  1e-10
 572     330     8   329  1.0000000000000001e-15
 573     119   331   330  1.0000000000000001e-15
 574     298   297     3  1.0000000000000001e-15
 575     108   127   363  1.0000000000000001e-15
 576     289   290   298  1.0000000000000001e-15
 577     320   290   193  1.0000000000000001e-15
 578     299   110   111  1e-10
 579     109   231   299  1e-10
 580     388   132    44  1.0000000000000001e-15
 581     440   443   276  1.0000000000000001e-15
 582     513   516   518  1.0000000000000001e-15
 583     302    41   275  1.0000000000000001e-15
 584     517   301    23  1.0000000000000001e-15
 585     522   303   278  1.0000000000000001e-15
 586     463   418   220  1.0000000000000001e-15
 587     306   305    20  1.0000000000000001e-15
 588     389   304    15  1.0000000000000001e-15
 589     182   305   152  1.0000000000000001e-15
 590      20   146   306  1.0000000000000001e-15
 591     146    38   480  1.0000000000000001e-15
 592     486   308   485  1.0000000000000001e-15
 593     150   482   483  1.0000000000000001e-15
 594     371   308    66  1.0000000000000001e-15
 595     361   349    59  1.0000000000000001e-15
 596     194   114   309  1.0000000000000001e-15
 597     473   310   114  1.0000000000000001e-15
 598     114   310   309  1.0000000000000001e-15
 599     239   237   310  1.0000000000000001e-15
 600     205    58   311  1.0000000000000001e-15
 601     503   506   312  1.0000000000000001e-15
 602      56   274   325  1.0000000000000001e-15
 603     507   102   504  1.0000000000000001e-15
 604     312   505   504  1.0000000000000001e-15
 605     313   509   508  1.0000000000000001e-15
 606     424   224   147  1.0000000000000001e-15
 607     314   425   391  1.0000000000000001e-15
 608     315   225   427  1.0000000000000001e-15
 609     240   166   315  1.0000000000000001e-15
 610     316   215   452  1.0000000000000001e-15
 611     144   316   226  1.0000000000000001e-15
 612     241   217   317  1.0000000000000001e-15
 613      94   317   217  1.0000000000000001e-15
 614      69   244   318  1.0000000000000001e-15
 615     549   548   318  1.0000000000000001e-15
 616      27   328   269  1.0000000000000001e-15
 617     290   320   298  1.0000000000000001e-15
 618     320   193   321  1.0000000000000001e-15
 619     193   291   322  1.0000000000000001e-15
 620     106   321   324  1.0000000000000001e-15
 621     322   162   432  1.0000000000000001e-15
 622     578   585    87  1.0000000000000001e-15
 623     162   433   432  1.0000000000000001e-15
 624     281    43   323  1.0000000000000001e-15
 625     321   322   324  1.0000000000000001e-15
 626     322    87   324  1.0000000000000001e-15
 627     326   325    52  1.0000000000000001e-15
 628     504   505   313  1.0000000000000001e-15
 629      52   512   326  1.0000000000000001e-15
 630     513   327   326  1.0000000000000001e-15
 631     326   512   513  1.0000000000000001e-15
 632     278   283   327  1.0000000000000001e-15
 633      17   319   328  1.0000000000000001e-15
 634     348   573   270  1.0000000000000001e-15
 635     103   221   373  1.0000000000000001e-15
 636     330   329   119  1.0000000000000001e-15
 637     331   119   107  1.0000000000000001e-15
 638     295   330   296  1.0000000000000001e-15
 639     107    95   332  1.0000000000000001e-15
 640     129   296   331  1.0000000000000001e-15
 641     333   332    95  1.0000000000000001e-15
 642     331   554   129  1.0000000000000001e-15
 643     334   333    95  1.0000000000000001e-15
 644      51   217   333  1.0000000000000001e-15
 645      95   265   334  1.0000000000000001e-15
 646     335   265   131  1.0000000000000001e-15
 647     351   131   266  1.0000000000000001e-15
 648     336    40   242  1.0000000000000001e-15
 649     131   351   335  1.0000000000000001e-15
 650     487   267   436  1.0000000000000001e-15
 651     176   550   338  1.0000000000000001e-15
 652     116   218   422  1.0000000000000001e-15
 653     256    68   338  1.0000000000000001e-15
 654      68   116   338  1.0000000000000001e-15
 655     340   170    18  1.0000000000000001e-15
 656     172   204   339  1.0000000000000001e-15
 657      18   246   340  1.0000000000000001e-15
 658     340   246   537  1.0000000000000001e-15
 659     598   109     7  1.0000000000000001e-15
 660     120   232   341  1.0000000000000001e-15
 661     544   253   158  1.0000000000000001e-15
 662     342   545   343  1.0000000000000001e-15
 663     344   343   197  1.0000000000000001e-15
 664      82   184   343  1.0000000000000001e-15
 665     344   197   603  1.0000000000000001e-15
 666     344   246    83  1.0000000000000001e-15
 667     551   552   256  1.0000000000000001e-15
 668     451    73   450  1.0000000000000001e-15
 669     345   552   553  1.0000000000000001e-15
 670     347   346   135  1.0000000000000001e-15
 671     352   347   135  1.0000000000000001e-15
 672     372   371   219  1.0000000000000001e-15
 673     573   269   328  1.0000000000000001e-15
 674      22   348   270  1.0000000000000001e-15
 675     483   484    59  1.0000000000000001e-15
 676     377   439   372  1.0000000000000001e-15
 677      50   350   349  1.0000000000000001e-15
 678     229   441   442  1.0000000000000001e-15
 679     487   351   268  1.0000000000000001e-15
 680     336   335   351  1.0000000000000001e-15
 681      40   352   135  1.0000000000000001e-15
 682     219   352    13  1.0000000000000001e-15
 683     104   293   362  1.0000000000000001e-15
 684      13   352   353  1.0000000000000001e-15
 685     354   127   355  1.0000000000000001e-15
 686     574   127   108  1.0000000000000001e-15
 687     574   584   355  1.0000000000000001e-15
 688     482   570   307  1.0000000000000001e-15
 689     570   482   569  1.0000000000000001e-15
 690     358   185    81  1.0000000000000001e-15
 691     187   207   357  1.0000000000000001e-15
 692      81   248   358  1.0000000000000001e-15
 693     358   248   572  1.0000000000000001e-15
 694     228   227   359  1.0000000000000001e-15
 695     360   227    80  1.0000000000000001e-15
 696     227   360   359  1.0000000000000001e-15
 697     360    80   398  1.0000000000000001e-15
 698     371   361   308  1.0000000000000001e-15
 699      50   349   361  1.0000000000000001e-15
 700     362   354   104  1.0000000000000001e-15
 701     363   297   213  1.0000000000000001e-15
 702     297   363   362  1.0000000000000001e-15
 703     364   363   213  1.0000000000000001e-15
 704     320   364   213  1.0000000000000001e-15
 705     106   364   321  1.0000000000000001e-15
 706     151   149   365  1.0000000000000001e-15
 707     136   365   149  1.0000000000000001e-15
 708     367   189    28  1.0000000000000001e-15
 709     191   209   366  1.0000000000000001e-15
 710      28   247   367  1.0000000000000001e-15
 711     191   367   247  1.0000000000000001e-15
 712     116    68   368  1.0000000000000001e-15
 713     368    68   486  1.0000000000000001e-15
 714     417   249   416  1.0000000000000001e-15
 715     369   384   383  1.0000000000000001e-15
 716     159    48   370  1.0000000000000001e-15
 717     255   370    48  1.0000000000000001e-15
 718      66   347   371  1.0000000000000001e-15
 719     219   371   347  1.0000000000000001e-15
 720     372   219   375  1.0000000000000001e-15
 721     252   439   377  1.0000000000000001e-15
 722     221   222   373  1.0000000000000001e-15
 723     119   373   222  1.0000000000000001e-15
 724     375   374   214  1.0000000000000001e-15
 725     214   377   375  1.0000000000000001e-15
 726     377   214   376  1.0000000000000001e-15
 727     591   229   592  1.0000000000000001e-15
 728     592   229   442  1.0000000000000001e-15
 729     376   591   592  1.0000000000000001e-15
 730     379   378    43  1.0000000000000001e-15
 731      55   405    45  1.0000000000000001e-15
 732      43    25   379  1.0000000000000001e-15
 733     381   379    25  1.0000000000000001e-15
 734     580   378   581  1.0000000000000001e-15
 735     380   580   581  1.0000000000000001e-15
 736     383   381    25  1.0000000000000001e-15
 737      17   386   382  1.0000000000000001e-15
 738     381   412   243  1.0000000000000001e-15
 739     493   383    25  1.0000000000000001e-15
 740     582   380   581  1.0000000000000001e-15
 741     384   369   133  1.0000000000000001e-15
 742     384    16   383  1.0000000000000001e-15
 743     582   583   385  1.0000000000000001e-15
 744     386   243   412  1.0000000000000001e-15
 745     328   386    17  1.0000000000000001e-15
 746     129   387   296  1.0000000000000001e-15
 747     206   161   387  1.0000000000000001e-15
 748     132   388   300  1.0000000000000001e-15
 749     444   388    44  1.0000000000000001e-15
 750     389   463   464  1.0000000000000001e-15
 751      54   415   416  1.0000000000000001e-15
 752     397   416   249  1.0000000000000001e-15
 753     415    54   413  1.0000000000000001e-15
 754     391   392   393  1.0000000000000001e-15
 755     196   100   392  1.0000000000000001e-15
 756     100   360   398  1.0000000000000001e-15
 757     394   393   210  1.0000000000000001e-15
 758     136   149   393  1.0000000000000001e-15
 759     210    60   394  1.0000000000000001e-15
 760     394    60   395  1.0000000000000001e-15
 761      60   396   395  1.0000000000000001e-15
 762     397   488   396  1.0000000000000001e-15
 763     400    60   399  1.0000000000000001e-15
 764     396    54   397  1.0000000000000001e-15
 765     416   397    54  1.0000000000000001e-15
 766     489   397   249  1.0000000000000001e-15
 767     100   398   392  1.0000000000000001e-15
 768     399   398    80  1.0000000000000001e-15
 769      80   251   399  1.0000000000000001e-15
 770     400   251   220  1.0000000000000001e-15
 771     400   220   413  1.0000000000000001e-15
 772     396    60   400  1.0000000000000001e-15
 773     198     2   584  1.0000000000000001e-15
 774     401   200   402  1.0000000000000001e-15
 775     402   200   576  1.0000000000000001e-15
 776      57   404    55  1.0000000000000001e-15
 777     575   576   200  1.0000000000000001e-15
 778     403   576   577  1.0000000000000001e-15
 779     586   402   576  1.0000000000000001e-15
 780     589   579   580  1.0000000000000001e-15
 781     404   587   588  1.0000000000000001e-15
 782      45   405   380  1.0000000000000001e-15
 783     498   499   406  1.0000000000000001e-15
 784     466   597     7  1.0000000000000001e-15
 785     500   499   238  1.0000000000000001e-15
 786     501   407   500  1.0000000000000001e-15
 787     431   130   430  1.0000000000000001e-15
 788      88   409    44  1.0000000000000001e-15
 789     431   409   408  1.0000000000000001e-15
 790     410   409   211  1.0000000000000001e-15
 791     211   212   410  1.0000000000000001e-15
 792     445   444   410  1.0000000000000001e-15
 793     121   411   239  1.0000000000000001e-15
 794     208   140   411  1.0000000000000001e-15
 795      16   412   381  1.0000000000000001e-15
 796     386   412   382  1.0000000000000001e-15
 797     220   418   413  1.0000000000000001e-15
 798     593   415   418  1.0000000000000001e-15
 799      15   593   389  1.0000000000000001e-15
 800     417   556   134  1.0000000000000001e-15
 801     415   413   418  1.0000000000000001e-15
 802     415   414   416  1.0000000000000001e-15
 803     595   556   414  1.0000000000000001e-15
 804     414   556   416  1.0000000000000001e-15
 805     133   492    12  1.0000000000000001e-15
 806     369   560   561  1.0000000000000001e-15
 807     220   462   463  1.0000000000000001e-15
 808     418   389   593  1.0000000000000001e-15
 809     101   602   542  1.0000000000000001e-15
 810     115   536   538  1.0000000000000001e-15
 811     215   145   420  1.0000000000000001e-15
 812     420   145   421  1.0000000000000001e-15
 813     145   245   421  1.0000000000000001e-15
 814     245    78   421  1.0000000000000001e-15
 815      64    30   533  1.0000000000000001e-15
 816     116   422   337  1.0000000000000001e-15
 817     368   423   218  1.0000000000000001e-15
 818     596   123   248  1.0000000000000001e-15
 819     424    21   425  1.0000000000000001e-15
 820     314   224   424  1.0000000000000001e-15
 821      21   179   425  1.0000000000000001e-15
 822     179    75   426  1.0000000000000001e-15
 823     179   426   425  1.0000000000000001e-15
 824     100   426   245  1.0000000000000001e-15
 825      49   206   427  1.0000000000000001e-15
 826     427   206   240  1.0000000000000001e-15
 827     564   428   120  1.0000000000000001e-15
 828     428   113   494  1.0000000000000001e-15
 829     238   470   471  1.0000000000000001e-15
 830     448   430   429  1.0000000000000001e-15
 831     223   250   430  1.0000000000000001e-15
 832     431   430   250  1.0000000000000001e-15
 833     211   431   250  1.0000000000000001e-15
 834     501   408   407  1.0000000000000001e-15
 835     162   168   433  1.0000000000000001e-15
 836     432   323   435  1.0000000000000001e-15
 837     434    93   280  1.0000000000000001e-15
 838     281   323   433  1.0000000000000001e-15
 839     449   434   280  1.0000000000000001e-15
 840     281   433   434  1.0000000000000001e-15
 841     323    43   435  1.0000000000000001e-15
 842     590    43   378  1.0000000000000001e-15
 843     267   438   436  1.0000000000000001e-15
 844     437    22   353  1.0000000000000001e-15
 845     437   436   438  1.0000000000000001e-15
 846     352   437   353  1.0000000000000001e-15
 847     348   438   267  1.0000000000000001e-15
 848     437   438    22  1.0000000000000001e-15
 849     350    50   439  1.0000000000000001e-15
 850     372   439    50  1.0000000000000001e-15
 851      26   446   442  1.0000000000000001e-15
 852     440   523   443  1.0000000000000001e-15
 853      14   443   523  1.0000000000000001e-15
 854      26   442   440  1.0000000000000001e-15
 855     523   441    14  1.0000000000000001e-15
 856      14   301   443  1.0000000000000001e-15
 857     302   443   301  1.0000000000000001e-15
 858     445   410   212  1.0000000000000001e-15
 859     388   444    26  1.0000000000000001e-15
 860     212   350   445  1.0000000000000001e-15
 861     350   252   446  1.0000000000000001e-15
 862     350   446   445  1.0000000000000001e-15
 863     252   442   446  1.0000000000000001e-15
 864      12   492   447  1.0000000000000001e-15
 865     417   134   447  1.0000000000000001e-15
 866     223   448   141  1.0000000000000001e-15
 867     282   449   280  1.0000000000000001e-15
 868     449   137   557  1.0000000000000001e-15
 869     125    94   450  1.0000000000000001e-15
 870     450    94   451  1.0000000000000001e-15
 871     451    94   217  1.0000000000000001e-15
 872     135   346   451  1.0000000000000001e-15
 873      35   208   452  1.0000000000000001e-15
 874     452   208   226  1.0000000000000001e-15
 875     524   199   126  1.0000000000000001e-15
 876     107   119   453  1.0000000000000001e-15
 877     454    77   183  1.0000000000000001e-15
 878     117   223   454  1.0000000000000001e-15
 879     224   151   455  1.0000000000000001e-15
 880     151   365   456  1.0000000000000001e-15
 881     151   456   455  1.0000000000000001e-15
 882     528   456   158  1.0000000000000001e-15
 883     225   167   457  1.0000000000000001e-15
 884     457   167   458  1.0000000000000001e-15
 885     167   496   458  1.0000000000000001e-15
 886     459   260    89  1.0000000000000001e-15
 887     496   459   458  1.0000000000000001e-15
 888     125   260   459  1.0000000000000001e-15
 889     508   460    96  1.0000000000000001e-15
 890     227   461   251  1.0000000000000001e-15
 891     460    53   461  1.0000000000000001e-15
 892     510   511    53  1.0000000000000001e-15
 893     462    42   463  1.0000000000000001e-15
 894     220   251   462  1.0000000000000001e-15
 895     464   463    42  1.0000000000000001e-15
 896     389   418   463  1.0000000000000001e-15
 897     303   464    42  1.0000000000000001e-15
 898     304   389   464  1.0000000000000001e-15
 899     233   195   465  1.0000000000000001e-15
 900     112   465   195  1.0000000000000001e-15
 901     467     4   237  1e-10
 902     466   467   236  1e-10
 903     466   235   467  1e-10
 904       4   467   235  1e-10
 905     139   138   468  1e-10
 906     236   468   138  1e-10
 907     470   236   138  1.0000000000000001e-15
 908     466   236   469  1.0000000000000001e-15
 909     471   470   138  1.0000000000000001e-15
 910     469   498   406  1.0000000000000001e-15
 911     472    34   429  1.0000000000000001e-15
 912     238   471   429  1.0000000000000001e-15
 913     139   472   138  1e-10
 914     471   138   472  1.0000000000000001e-15
 915     474   112    96  1.0000000000000001e-15
 916     475   121   473  1.0000000000000001e-15
 917     460   474    96  1.0000000000000001e-15
 918     475   474   228  1.0000000000000001e-15
 919     474   475   473  1.0000000000000001e-15
 920     226   475   228  1.0000000000000001e-15
 921      74   476   122  1.0000000000000001e-15
 922     191   476   279  1.0000000000000001e-15
 923     478     8   295  1e-10
 924     477   478   289  1e-10
 925     477   294   478  1e-10
 926       8   478   294  1e-10
 927     160   159   479  1e-10
 928     289   479   159  1e-10
 929     480   306   146  1.0000000000000001e-15
 930     480   216   481  1.0000000000000001e-15
 931     216   157   481  1.0000000000000001e-15
 932     482   481   157  1.0000000000000001e-15
 933     569   157   568  1.0000000000000001e-15
 934     483   482   307  1.0000000000000001e-15
 935     484   483   307  1.0000000000000001e-15
 936     287   483    59  1.0000000000000001e-15
 937     485   484   307  1.0000000000000001e-15
 938     361    59   484  1.0000000000000001e-15
 939     307   570   571  1.0000000000000001e-15
 940     361   485   308  1.0000000000000001e-15
 941     368   486    86  1.0000000000000001e-15
 942     345   486    68  1.0000000000000001e-15
 943     267   487   268  1.0000000000000001e-15
 944     436   336   487  1.0000000000000001e-15
 945     396   488   395  1.0000000000000001e-15
 946     397    65   488  1.0000000000000001e-15
 947     490   489   249  1.0000000000000001e-15
 948     282   489   137  1.0000000000000001e-15
 949     561   249   491  1.0000000000000001e-15
 950     281   557   558  1.0000000000000001e-15
 951     249   417   491  1.0000000000000001e-15
 952     369   492   133  1.0000000000000001e-15
 953     491   417   492  1.0000000000000001e-15
 954     447   492   417  1.0000000000000001e-15
 955     560   493   559  1.0000000000000001e-15
 956     383   493   369  1.0000000000000001e-15
 957     113   562   494  1.0000000000000001e-15
 958     495   277   273  1.0000000000000001e-15
 959     562   495   494  1.0000000000000001e-15
 960      88   277   495  1.0000000000000001e-15
 961     166   496   167  1.0000000000000001e-15
 962     459   496   125  1.0000000000000001e-15
 963     496   166   497  1.0000000000000001e-15
 964     317   497   166  1.0000000000000001e-15
 965     470   238   498  1.0000000000000001e-15
 966     499   498   238  1.0000000000000001e-15
 967     500   238   130  1.0000000000000001e-15
 968     599   597   406  1.0000000000000001e-15
 969     500   130   501  1.0000000000000001e-15
 970     407   499   500  1.0000000000000001e-15
 971     130   431   501  1.0000000000000001e-15
 972     431   408   501  1.0000000000000001e-15
 973      29   188   600  1.0000000000000001e-15
 974      99   502   192  1.0000000000000001e-15
 975     506   311    58  1.0000000000000001e-15
 976     504   503   312  1.0000000000000001e-15
 977     505   312   325  1.0000000000000001e-15
 978     504   313   507  1.0000000000000001e-15
 979     326   505   325  1.0000000000000001e-15
 980     118   313   505  1.0000000000000001e-15
 981      58    56   506  1.0000000000000001e-15
 982      56   312   506  1.0000000000000001e-15
 983     508   507   313  1.0000000000000001e-15
 984     102   507    96  1.0000000000000001e-15
 985     509   313   118  1.0000000000000001e-15
 986     460   508    53  1.0000000000000001e-15
 987     510   509   118  1.0000000000000001e-15
 988      53   508   509  1.0000000000000001e-15
 989     327   510   118  1.0000000000000001e-15
 990     510   283   511  1.0000000000000001e-15
 991      42   511   283  1.0000000000000001e-15
 992     461   511   462  1.0000000000000001e-15
 993     275   512    52  1.0000000000000001e-15
 994     512    41   513  1.0000000000000001e-15
 995     516   517   515  1.0000000000000001e-15
 996     278   327   513  1.0000000000000001e-15
 997      23   514   515  1.0000000000000001e-15
 998     521   518   520  1.0000000000000001e-15
 999     515   514   520  1.0000000000000001e-15
1000     517    41   302  1.0000000000000001e-15
1001     518   516   515  1.0000000000000001e-15
1002      41   517   516  1.0000000000000001e-15
1003     301   517   302  1.0000000000000001e-15
1004     520    11   519  1.0000000000000001e-15
1005     513   518   278  1.0000000000000001e-15
1006     278   518   521  1.0000000000000001e-15
1007     278   521   522  1.0000000000000001e-15
1008      11   520   514  1.0000000000000001e-15
1009     520   519   521  1.0000000000000001e-15
1010     522   519    24  1.0000000000000001e-15
1011     519   522   521  1.0000000000000001e-15
1012     303   522    24  1.0000000000000001e-15
1013     440   442   523  1.0000000000000001e-15
1014     441   523   442  1.0000000000000001e-15
1015     524   126   525  1.0000000000000001e-15
1016     107   453   524  1.0000000000000001e-15
1017     126   265   525  1.0000000000000001e-15
1018     265    95   525  1.0000000000000001e-15
1019     527   526   136  1.0000000000000001e-15
1020     526   602   601  1.0000000000000001e-15
1021     394   527   136  1.0000000000000001e-15
1022      85   527   395  1.0000000000000001e-15
1023     456   528   154  1.0000000000000001e-15
1024     158   253   528  1.0000000000000001e-15
1025      47   254   529  1.0000000000000001e-15
1026     168   529   254  1.0000000000000001e-15
1027      31   258   530  1.0000000000000001e-15
1028     177   530   258  1.0000000000000001e-15
1029     122   531   257  1.0000000000000001e-15
1030     247    71   531  1.0000000000000001e-15
1031     259   178   532  1.0000000000000001e-15
1032     532   178   533  1.0000000000000001e-15
1033     337   533   178  1.0000000000000001e-15
1034     422    64   533  1.0000000000000001e-15
1035     282   534    67  1.0000000000000001e-15
1036      74   122   534  1.0000000000000001e-15
1037     536   535   172  1.0000000000000001e-15
1038     258   535   115  1.0000000000000001e-15
1039     537   536   172  1.0000000000000001e-15
1040     538   536   419  1.0000000000000001e-15
1041     537   172   340  1.0000000000000001e-15
1042     101   419   537  1.0000000000000001e-15
1043     541   538   419  1.0000000000000001e-15
1044     540   538    67  1.0000000000000001e-15
1045      85   488   539  1.0000000000000001e-15
1046      65   539   488  1.0000000000000001e-15
1047     534   540    67  1.0000000000000001e-15
1048     177   115   540  1.0000000000000001e-15
1049     542   541   419  1.0000000000000001e-15
1050      67   541   539  1.0000000000000001e-15
1051     101   542   419  1.0000000000000001e-15
1052     539   542    85  1.0000000000000001e-15
1053     258    63   543  1.0000000000000001e-15
1054      62   543    63  1.0000000000000001e-15
1055     545   544   156  1.0000000000000001e-15
1056     342   253   544  1.0000000000000001e-15
1057     546   545   156  1.0000000000000001e-15
1058     545   197   343  1.0000000000000001e-15
1059     547   546   156  1.0000000000000001e-15
1060     546   526   601  1.0000000000000001e-15
1061     365   547   156  1.0000000000000001e-15
1062     526   547   136  1.0000000000000001e-15
1063     259   318   548  1.0000000000000001e-15
1064     549   318   244  1.0000000000000001e-15
1065     244    99   549  1.0000000000000001e-15
1066     550   549    99  1.0000000000000001e-15
1067     551   550    99  1.0000000000000001e-15
1068     338   550   256  1.0000000000000001e-15
1069     565   551    99  1.0000000000000001e-15
1070     552   551    73  1.0000000000000001e-15
1071     553   552    73  1.0000000000000001e-15
1072     345   256   552  1.0000000000000001e-15
1073     451   553    73  1.0000000000000001e-15
1074     345   553   346  1.0000000000000001e-15
1075     332   241   554  1.0000000000000001e-15
1076     240   554   241  1.0000000000000001e-15
1077      86   555   123  1.0000000000000001e-15
1078     356   568   572  1.0000000000000001e-15
1079     134   556   390  1.0000000000000001e-15
1080     417   416   556  1.0000000000000001e-15
1081     559   557   137  1.0000000000000001e-15
1082     558    25    43  1.0000000000000001e-15
1083     559   558   557  1.0000000000000001e-15
1084     493    25   558  1.0000000000000001e-15
1085     137   490   559  1.0000000000000001e-15
1086     560   559   490  1.0000000000000001e-15
1087     561   560   490  1.0000000000000001e-15
1088     369   493   560  1.0000000000000001e-15
1089     249   561   490  1.0000000000000001e-15
1090     369   561   491  1.0000000000000001e-15
1091     408   562   113  1.0000000000000001e-15
1092     495   562    88  1.0000000000000001e-15
1093     499   407   563  1.0000000000000001e-15
1094     564   407   113  1.0000000000000001e-15
1095     407   564   563  1.0000000000000001e-15
1096     428   564   113  1.0000000000000001e-15
1097     192   565    99  1.0000000000000001e-15
1098     450    73   565  1.0000000000000001e-15
1099     568   566   187  1.0000000000000001e-15
1100     216   566   157  1.0000000000000001e-15
1101     566   216   567  1.0000000000000001e-15
1102     216   153   567  1.0000000000000001e-15
1103     572   568   187  1.0000000000000001e-15
1104     569   568   356  1.0000000000000001e-15
1105     569   356   570  1.0000000000000001e-15
1106     482   157   569  1.0000000000000001e-15
1107     356    86   570  1.0000000000000001e-15
1108     307   571   485  1.0000000000000001e-15
1109     570    86   571  1.0000000000000001e-15
1110     486   571    86  1.0000000000000001e-15
1111     572   187   358  1.0000000000000001e-15
1112     356   572   555  1.0000000000000001e-15
1113     573   348   269  1.0000000000000001e-15
1114       9   573   319  1.0000000000000001e-15
1115     575   574   108  1.0000000000000001e-15
1116     574   575   584  1.0000000000000001e-15
1117     108   106   575  1.0000000000000001e-15
1118     577   576   575  1.0000000000000001e-15
1119     577   575   106  1.0000000000000001e-15
1120     576   403   586  1.0000000000000001e-15
1121     585   106   324  1.0000000000000001e-15
1122     403   578   201  1.0000000000000001e-15
1123     585   577   106  1.0000000000000001e-15
1124     590   579   578  1.0000000000000001e-15
1125     590   578    87  1.0000000000000001e-15
1126     579   378   580  1.0000000000000001e-15
1127     581   378   379  1.0000000000000001e-15
1128     405   580   380  1.0000000000000001e-15
1129     379   243   581  1.0000000000000001e-15
1130     380   582   385  1.0000000000000001e-15
1131     581   243   582  1.0000000000000001e-15
1132     583   386    27  1.0000000000000001e-15
1133     582   243   583  1.0000000000000001e-15
1134     243   386   583  1.0000000000000001e-15
1135     200   401   584  1.0000000000000001e-15
1136     584   401   198  1.0000000000000001e-15
1137      87   585   324  1.0000000000000001e-15
1138     578   577   585  1.0000000000000001e-15
1139     587   403   201  1.0000000000000001e-15
1140     404   402   586  1.0000000000000001e-15
1141     588   587   201  1.0000000000000001e-15
1142     404   586   587  1.0000000000000001e-15
1143     589   588   201  1.0000000000000001e-15
1144     588   405    55  1.0000000000000001e-15
1145     579   589   201  1.0000000000000001e-15
1146     405   589   580  1.0000000000000001e-15
1147      87   435   590  1.0000000000000001e-15
1148      43   590   435  1.0000000000000001e-15
1149     592   252   377  1.0000000000000001e-15
1150     376    10   591  1.0000000000000001e-15
1151     376   592   377  1.0000000000000001e-15
1152     390   595   594  1.0000000000000001e-15
1153     415   593   414  1.0000000000000001e-15
1154     594   595   593  1.0000000000000001e-15
1155     556   595   390  1.0000000000000001e-15
1156     593   595   414  1.0000000000000001e-15
1157     123   596   423  1.0000000000000001e-15
1158     248    84   596  1.0000000000000001e-15
1159     599   406   563  1.0000000000000001e-15
1160     598   341   109  1.0000000000000001e-15
1161     599   598   597  1.0000000000000001e-15
1162     120   341   598  1.0000000000000001e-15
1163     563   120   599  1.0000000000000001e-15
1164     598   599   120  1.0000000000000001e-15
1165     188   260   600  1.0000000000000001e-15
1166     192   600   260  1.0000000000000001e-15
1167     526   527   602  1.0000000000000001e-15
1168     603   197   601  1.0000000000000001e-15
1169     542   602    85  1.0000000000000001e-15
1170     603   602   101  1.0000000000000001e-15
1171     602   603   601  1.0000000000000001e-15
1172     603   101   246  1.0000000000000001e-15
# Generated by triangleMesher -aAnepCVOq30 blunt30deg.poly
