0  2  1  1
2617  1
   1       1     2       0
   2       2     3       0
   3     606     4       1
   4     491  5281       1
   5     492  4443       1
   6     504  4200       1
   7     495   504       1
   8     585  3187       1
   9     507  3875       1
  10     589  5702       1
  11     511   589       1
  12       5  5852       1
  13       1  5810       1
  14       7  2383       1
  15       8     7       1
  16       9    10       0
  17    5261    11       0
  18    1593    13       0
  19    5816    14       0
  20      15  5811       0
  21    5759    16       0
  22      17  5716       0
  23    4831  5433       0
  24      18   917       0
  25      19  3450       0
  26     609  3430       0
  27    3428    21       0
  28      24  2200       0
  29    1168    25       0
  30    1401    26       0
  31      27  1129       0
  32      27    28       0
  33    1323  1109       0
  34      29   880       0
  35      30    31       0
  36    1115    31       0
  37    1240    32       0
  38    1362    33       0
  39      34  2197       0
  40      36    35       0
  41    1308    37       0
  42    1339  1307       0
  43      39    38       0
  44    1341    39       0
  45      40  1474       0
  46      41  1286       0
  47      43    42       0
  48      43  1186       0
  49      44   921       0
  50      46  2194       0
  51    1179    47       0
  52      47    48       0
  53     614  1930       0
  54      49    50       0
  55      50  1567       0
  56      52    51       0
  57     922    52       0
  58      53    54       0
  59    1799    54       0
  60      55  1269       0
  61      56    57       0
  62    1344    57       0
  63    2270    59       0
  64      59    60       0
  65    2396    60       0
  66      62    61       0
  67    2484    62       0
  68     617    63       0
  69      65    66       0
  70      67  3257       0
  71    1727    69       0
  72      70  1985       0
  73      71  1083       0
  74      72    71       0
  75    1805  4034       0
  76    4203    74       0
  77      75  3824       0
  78      76  4298       0
  79      77  3181       0
  80      78  3737       0
  81    2759    79       0
  82      80  3669       0
  83      81  4551       0
  84      82  5218       0
  85      83  4285       0
  86      84  4010       0
  87      87  2492       0
  88    2499    88       0
  89      88    89       0
  90      89  3247       0
  91      91    90       0
  92    3699    91       0
  93      86    93       0
  94    3515    94       0
  95      95    94       0
  96      96    95       0
  97      96    97       0
  98      97    98       0
  99      98    99       0
 100    3791   100       0
 101     100   101       0
 102     101   102       0
 103     102   103       0
 104     104  3750       0
 105    2589   105       0
 106    1661   106       0
 107    1470   107       0
 108    1596   108       0
 109     109  1684       0
 110     622   110       0
 111     111  1759       0
 112     112  1246       0
 113     114   115       0
 114     116   115       0
 115     116   117       0
 116    2170   118       0
 117    1794   119       0
 118     121   120       0
 119     121   122       0
 120     124  1631       0
 121     125   124       0
 122     126   125       0
 123     126   127       0
 124     127   128       0
 125    2770   128       0
 126     129  2767       0
 127     131   132       0
 128     132   133       0
 129     133   134       0
 130     134   135       0
 131     135  1715       0
 132     136  1728       0
 133     137   138       0
 134     138   139       0
 135     139  2496       0
 136     140  1723       0
 137    1288   142       0
 138     143   144       0
 139     144   145       0
 140     147   146       0
 141     147  1314       0
 142    2013  1889       0
 143     150  2597       0
 144     150   151       0
 145     152   873       0
 146     799   154       0
 147     154    64       0
 148    1188   155       0
 149     152   156       0
 150    1463   158       0
 151    1733   159       0
 152    1415   160       0
 153     162   161       0
 154    1682   162       0
 155    1379   163       0
 156    1438   164       0
 157    1501   165       0
 158     167   166       0
 159     167  1699       0
 160    1420   169       0
 161    1372   164       0
 162    1690   113       0
 163     170   171       0
 164     171   166       0
 165    1493   173       0
 166    1190   174       0
 167     174   113       0
 168    1351  1497       0
 169     176   172       0
 170     629  1646       0
 171    1873   178       0
 172    1687   179       0
 173    1589   180       0
 174    1408  1336       0
 175     183  1312       0
 176     183   160       0
 177    2092   184       0
 178     185  1306       0
 179     631   187       0
 180    2513   188       0
 181     177   188       0
 182     177   802       0
 183     189  1862       0
 184     191  1466       0
 185     193  1455       0
 186    1330   194       0
 187     195  1139       0
 188     195   196       0
 189    1138   197       0
 190    1390   198       0
 191    1527   199       0
 192     201   632       0
 193     202  1108       0
 194     203  1119       0
 195     203   204       0
 196    1141   205       0
 197     635   206       0
 198    1243   207       0
 199     208  1219       0
 200     208   209       0
 201     209   210       0
 202     212   211       0
 203     212  1922       0
 204     213  2348       0
 205     214  2290       0
 206     215  2424       0
 207     216  2081       0
 208     217  2137       0
 209     218  3914       0
 210    4708  4688       0
 211     220  4649       0
 212     221  4539       0
 213     223  5802       0
 214     225  5843       0
 215    5845   225       0
 216     226  5806       0
 217    5815     3       0
 218     229  4894       0
 219     230  5832       0
 220    5854   231       0
 221     231  5838       0
 222     233  5767       0
 223     233  5442       0
 224    5645   235       0
 225     236  5708       0
 226     237  5754       0
 227     238  5751       0
 228     239  5655       0
 229    5771   240       0
 230     241  4830       0
 231    4259   244       0
 232     244  5194       0
 233     245  5354       0
 234    5321   246       0
 235     247  5454       0
 236     248  5573       0
 237     249  5317       0
 238    5081   251       0
 239    3888   252       0
 240     253  5049       0
 241    5178   254       0
 242     255  5418       0
 243     256  5602       0
 244     257  5721       0
 245     258  5642       0
 246     259  5248       0
 247    3497   646       0
 248     261  4864       0
 249     262  5088       0
 250     264  5064       0
 251     265   264       0
 252    2047   267       0
 253     267  2210       0
 254    2135   269       0
 255    1915   269       0
 256     272  2521       0
 257     273  2284       0
 258    2294   274       0
 259     276   275       0
 260    1837   277       0
 261     278  1578       0
 262     278   649       0
 263      23   279       0
 264     279  1724       0
 265     281  3527       0
 266     281   282       0
 267     282   283       0
 268     283   284       0
 269     285   284       0
 270     285   286       0
 271     286   287       0
 272     288   287       0
 273     288   289       0
 274    2740   290       0
 275    2546   291       0
 276     291   292       0
 277     292   293       0
 278    3235   294       0
 279     294   295       0
 280     296   295       0
 281    3596   297       0
 282    3423   298       0
 283     300  3424       0
 284     301  3425       0
 285     302   301       0
 286     303   302       0
 287     303   304       0
 288    2019   305       0
 289    1927   306       0
 290    2611   308       0
 291     308   309       0
 292     310  3190       0
 293     311   310       0
 294     312   311       0
 295    3749   313       0
 296     314   313       0
 297     314   315       0
 298     316   315       0
 299     317   316       0
 300     318   317       0
 301    2495   319       0
 302     319   320       0
 303     320  3487       0
 304     321  3507       0
 305     323   322       0
 306     323   324       0
 307     324  3482       0
 308     325   326       0
 309     326   327       0
 310     327  3347       0
 311     328   329       0
 312     329   330       0
 313     330   331       0
 314     332   331       0
 315    3603   332       0
 316     333   334       0
 317     334   335       0
 318     336   335       0
 319     336   337       0
 320     337  2483       0
 321     338  1957       0
 322    1604   339       0
 323    1597   340       0
 324    1928   341       0
 325     343  1708       0
 326     344  1386       0
 327     345   346       0
 328    2315   347       0
 329     347   348       0
 330     348  2036       0
 331     350  1790       0
 332     351  2239       0
 333     352  1510       0
 334     355  3286       0
 335     356   355       0
 336     356   357       0
 337     357  2183       0
 338    1117  1615       0
 339    2783   361       0
 340     362  2781       0
 341    2609   363       0
 342     363  2346       0
 343     365   364       0
 344    2140   367       0
 345     368  3241       0
 346    2894   369       0
 347    2895   370       0
 348    2898   371       0
 349     131  2391       0
 350     373  3269       0
 351     374   373       0
 352     375  3285       0
 353     376  4204       0
 354     378   377       0
 355    2871   379       0
 356     379  4188       0
 357    2889   380       0
 358     381   382       0
 359     382  3166       0
 360     159   384       0
 361     172  1247       0
 362    3687   385       0
 363     386   938       0
 364    3961   389       0
 365    3448   390       0
 366    5471   814       0
 367     656   392       0
 368     393  5198       0
 369     394  5271       0
 370    5190   395       0
 371    3759   396       0
 372    5182   398       0
 373    4328   399       0
 374    4945   400       0
 375    5615  5690       0
 376    5122  5762       0
 377    5372  2285       0
 378     404   829       0
 379     405  3532       0
 380     406  2886       0
 381     407  3370       0
 382     408  3306       0
 383     409  2990       0
 384     410  2939       0
 385     411  2703       0
 386    3324   412       0
 387     413  3418       0
 388     414   822       0
 389     415  4334       0
 390     416  3776       0
 391     417  3762       0
 392     418  3413       0
 393    3213   421       0
 394    2765   422       0
 395    3184   423       0
 396    2793   424       0
 397    2986   669       0
 398    2651   426       0
 399    3027   427       0
 400    3209   742       0
 401     743   429       0
 402    4179   430       0
 403    4887   431       0
 404    3741   432       0
 405    3414   433       0
 406    3591   434       0
 407     435  2017       0
 408    3696   437       0
 409     674   837       0
 410    3500   439       0
 411     439   440       0
 412     440   441       0
 413     441   442       0
 414     442   443       0
 415     443   444       0
 416     444   445       0
 417     445   446       0
 418     447   446       0
 419    3403   448       0
 420    3873   449       0
 421    3533   450       0
 422    4367   451       0
 423     945   452       0
 424    5275   453       0
 425    4211   454       0
 426    3675   455       0
 427     456  4125       0
 428     457  3825       0
 429     458  4220       0
 430     459  3981       0
 431     460  5128       0
 432    4290   461       0
 433     462  3856       0
 434    3310   463       0
 435     464  3372       0
 436     465  2774       0
 437     466  2892       0
 438    3315   467       0
 439    3768   468       0
 440     680  4437       0
 441     470  3944       0
 442     681   471       0
 443     471   472       0
 444    2795   360       0
 445     473  3193       0
 446     683  2890       0
 447    3312   475       0
 448     476  3211       0
 449     477  4172       0
 450    3766   478       0
 451     480   479       0
 452     354  3501       0
 453     481  3311       0
 454    3974   482       0
 455     484   483       0
 456    3826   484       0
 457     485  4313       0
 458     486  4239       0
 459     488   487       0
 460    4135  4115       0
 461     490   491       0
 462    3986   492       0
 463     493  3864       0
 464    3186   496       0
 465    3449   497       0
 466     498  3785       0
 467    3421   499       0
 468     500  2375       0
 469    3422   502       0
 470    3470   503       0
 471    3185   504       0
 472     505  3417       0
 473     506  5283       0
 474     508  5564       0
 475     509  5805       0
 476     510   511       0
 477    3378   513       0
 478    4178   514       0
 479    5100   515       0
 480    5199   517       0
 481     695  4995       0
 482     857  3758       0
 483    4840   521       0
 484    5096   522       0
 485     523  5444       0
 486     524   523       0
 487     526   525       0
 488     526  3911       0
 489     527  3598       0
 490     529  3754       0
 491     530  4895       0
 492    3476   531       0
 493     533  4173       0
 494    3480   534       0
 495     535   960       0
 496     916   536       0
 497    5652  5251       0
 498     539   538       0
 499     541  4832       0
 500     542   541       0
 501     543  5102       0
 502     544  2297       0
 503     770   545       0
 504     973   546       0
 505    1921   547       0
 506    2225   548       0
 507    2425   549       0
 508    1004   550       0
 509    2145   551       0
 510     552  2310       0
 511     553  2421       0
 512    2079   554       0
 513    1923   555       0
 514     556  1053       0
 515     557  3369       0
 516     558  4794       0
 517     559  4730       0
 518    4639   560       0
 519    4581   561       0
 520    4516   562       0
 521    1030   563       0
 522     397  1807       0
 523     984   564       0
 524    2772   565       0
 525     299  3460       0
 526     120  2946       0
 527     566  1951       0
 528     567  1374       0
 529     568  1094       0
 530     155   568       0
 531    1630   764       0
 532     957   570       0
 533    3721   711       0
 534     569  1385       0
 535    1223   574       0
 536     575  1091       0
 537     575   142       0
 538    1918   577       0
 539    1453   578       0
 540     578   186       0
 541     191  1465       0
 542     580   579       0
 543     581   580       0
 544     581   576       0
 545     582  3044       0
 546     583  4243       0
 547     584  3526       0
 548     586  5236       0
 549     587  5710       0
 550     588   589       0
 551     590  5506       1
 552     543     6       0
 553     591  5320       1
 554       4  5505       1
 555     592  5834       1
 556     592   223       0
 557       6  5581       1
 558     542  5313       1
 559     539  5360       1
 560     525  5508       1
 561      18   525       1
 562     537    18       1
 563     532  3693       1
 564     524  4281       1
 565     516   524       1
 566     515  5545       1
 567     571   515       1
 568     387  3611       0
 569    2493    86       0
 570    3805   593       0
 571     594   111       0
 572     594  1689       0
 573    2370   130       0
 574     271   130       0
 575     271   268       0
 576     268   122       0
 577     345   131       0
 578     350   345       0
 579     366  2168       0
 580     595   366       0
 581     365   595       0
 582     359  1561       0
 583     260   137       0
 584     145   260       0
 585     388   143       0
 586     385   388       0
 587     593   596       0
 588     596  3700       0
 589    3196  2598       0
 590    1654    64       0
 591     597  1718       0
 592     597   349       0
 593    1097    72       0
 594     971   343       0
 595     159  1795       0
 596      68  1464       0
 597    1458   157       0
 598     598   175       0
 599     123  1459       0
 600     191   184       0
 601     186  2045       0
 602     266   599       0
 603     273  2917       0
 604     270   273       0
 605     435   270       0
 606     420  2839       0
 607     404   420       0
 608     404   600       0
 609    2480    73       0
 610     871    65       0
 611     207   200       0
 612    1245   207       0
 613     192   199       0
 614     199  1572       0
 615      23   274       0
 616     318   274       0
 617     601  2684       0
 618     377   601       0
 619     599  1978       0
 620     342  2295       0
 621    2332   291       0
 622     305   306       0
 623     305  2021       0
 624     602  4893       0
 625     390   387       0
 626    3688   572       0
 627     512   572       0
 628     265   512       0
 629     396   265       0
 630     396   519       0
 631     519   520       0
 632    5092   488       0
 633     480   488       0
 634     472   480       0
 635     472   529       0
 636     529  3601       0
 637     533   462       0
 638     533    22       0
 639     528  4175       0
 640    5257  4395       0
 641      11   259       0
 642     540     9       0
 643    5331   540       0
 644     234   543       0
 645     242  5637       0
 646     508   242       0
 647    5495   508       0
 648     251   586       0
 649    5499  5351       0
 650     505    85       0
 651     419   505       0
 652     434   419       0
 653     434   455       0
 654     455   582       0
 655    2575  2561       0
 656     403   500       0
 657     403   501       0
 658    2574   494       0
 659    3853  4473       0
 660     222   489       0
 661    4493   489       0
 662    4478   603       0
 663     604   605       0
 664      12  1883       0
 665    4930  2808       0
 666     228   243       0
 667     228  5569       0
 668     223   235       0
 669      67  2766       0
 670    1460  1303       0
 671     111  1692       0
 672     152   724       0
 673     725  1929       0
 674     726  1714       0
 675     727  1116       0
 676     145  3807       0
 677    3806  2786       0
 678       4  4237       0
 679    3747   605       0
 680    4475   603       0
 681    2120   211       0
 682    2655   601       0
 683     604  4055       0
 684     607  5201       1
 685     608  3412       0
 686    3463    20       0
 687     610   997       0
 688     611  1170       0
 689     612  1834       0
 690     613  1872       0
 691    1514  1145       0
 692     615  1281       0
 693     616    55       0
 694     617   793       0
 695     618  2481       0
 696     619  3375       0
 697     620  4926       0
 698     621  1471       0
 699     622  1802       0
 700     623  1311       0
 701     624  1585       0
 702     625   153       0
 703     626  1371       0
 704     627  1292       0
 705     628  1683       0
 706     629   177       0
 707     630  1335       0
 708     631  1686       0
 709     632  1244       0
 710     633  1140       0
 711     634  1107       0
 712     635  1199       0
 713     636  2141       0
 714     637  2387       0
 715     638   983       0
 716     639  2353       0
 717     640  1818       0
 718     641  3366       0
 719     642  4788       0
 720    4547  4548       0
 721     644  5864       0
 722     645  5350       0
 723    5041   813       0
 724     647  4870       0
 725    4884   263       0
 726     649   184       0
 727     650  1469       0
 728     651   812       0
 729     652  2143       0
 730     653  1602       0
 731     654  3893       0
 732     655  3681       0
 733     656   391       0
 734     657   394       0
 735    5053  4848       0
 736     659  3260       0
 737     660  3495       0
 738     661  3327       0
 739     662  3742       0
 740     663  4180       0
 741     664  3935       0
 742     665  3593       0
 743     666   948       0
 744     667  2788       0
 745     668  3320       0
 746    3004   425       0
 747     670  1011       0
 748     671  3937       0
 749     672  4168       0
 750     673  3764       0
 751     674  3496       0
 752     675  4216       0
 753     676   838       0
 754     677  4238       0
 755     678  3331       0
 756     679  3531       0
 757     680  3771       0
 758     681  3767       0
 759     682  3321       0
 760    3201   474       0
 761     684   747       0
 762     685  3943       0
 763     686  3823       0
 764     687  3243       0
 765     688   498       0
 766     689  2286       0
 767     690   848       0
 768     691  3419       0
 769     692  3222       0
 770     693  1019       0
 771    5553   750       0
 772     695  4886       0
 773     696  5112       0
 774     697  5052       0
 775     698  4212       0
 776     699  4843       0
 777     700  3599       0
 778     701  3451       0
 779     702   754       0
 780     703  2149       0
 781     704  1024       0
 782     705   757       0
 783     706  2498       0
 784     707  4674       0
 785     708  2771       0
 786     709  1031       0
 787     710  4177       0
 788    3322   766       0
 789     712  2604       0
 790     713  2068       0
 791     714  4310       1
 792     715  5846       1
 793     716  5859       1
 794     717  3012       0
 795     718  3760       0
 796     719  2594       0
 797     720  1102       0
 798     721    73       0
 799    2226   377       0
 800     723   908       0
 801     724   595       0
 802     725  1776       0
 803    1800   783       0
 804    1421   146       0
 805     728  4489       0
 806     729  5099       0
 807     730  3772       1
 808     731    19       0
 809     732   879       0
 810     733  1506       0
 811     734  1249       0
 812     735  4630       0
 813     736  3894       0
 814     737  4040       0
 815     738  3769       0
 816     739  3203       0
 817     740   668       0
 818     741  1012       0
 819     883   428       0
 820     743  3778       0
 821     744  3465       0
 822     745   673       0
 823     746  3456       0
 824     747  3770       0
 825     748  1841       0
 826     749   886       0
 827    5544   516       0
 828     751  3457       0
 829     752  3459       0
 830     753  3452       0
 831     754   110       0
 832     755  1934       0
 833     756   893       0
 834     757   550       0
 835     758  2138       0
 836     759  4657       0
 837     760  2146       0
 838     761   978       0
 839     762   986       0
 840     763   898       0
 841     764  3513       0
 842     765  4833       0
 843    1383   573       0
 844     767  1793       0
 845     768   899       0
 846     769   931       0
 847     770   702       0
 848     771  3613       0
 849     772  5800       1
 850     773  5189       1
 851     774  5824       1
 852     775   717       0
 853     776  2812       0
 854     777   593       0
 855     778  2152       0
 856     779  1087       0
 857     780  2139       0
 858     781   907       0
 859     782  1603       0
 860    1688   594       0
 861     784   915       0
 862     785  3206       1
 863     786  3427       0
 864     787  3479       0
 865     788  1254       0
 866     789   920       0
 867     790  1310       0
 868     791   906       0
 869     792    53       0
 870     793    64       0
 871     794   600       0
 872     795  4766       0
 873     796  2151       0
 874     797   926       0
 875     798   925       0
 876     799   625       0
 877     800  1099       0
 878     801   567       0
 879     802   189       0
 880     803  1313       0
 881     804  1106       0
 882     805  1113       0
 883     806   633       0
 884     807  1935       0
 885     808   932       0
 886     809  1065       0
 887     810  4245       0
 888     811  4614       0
 889     812  1801       0
 890     813  5034       0
 891     814  3208       0
 892     815  1685       0
 893     816  5087       0
 894     817  1472       0
 895     818  1008       0
 896     819   108       0
 897     820  3953       0
 898     821  3952       0
 899     822   663       0
 900     823  4215       0
 901     824  3467       0
 902     825  3466       0
 903     826  4837       0
 904     827  3775       0
 905     828   946       0
 906     829   944       0
 907     830  2994       0
 908     831  3204       0
 909     832  3001       0
 910     833  1014       0
 911     834  4241       0
 912     835  4182       0
 913     836  4181       0
 914    3307   438       0
 915     838   452       0
 916     839   453       0
 917     840  3455       0
 918     841  4062       0
 919     842   682       0
 920     843   479       0
 921     844  3210       0
 922     845  2775       0
 923     846  1018       0
 924     847  4058       0
 925     848   502       0
 926     849  4151       0
 927     850  3469       0
 928     851  3468       0
 929     852  3863       0
 930     853  3420       0
 931     854  5095       0
 932     855  5319       0
 933     856  5272       0
 934    4839   518       0
 935     858  3458       0
 936     859  3471       0
 937     860  2381       0
 938     861  1052       0
 939     862  4682       0
 940     863  2792       0
 941     864  4183       0
 942     865  3927       0
 943     866   712       0
 944     867  5871       1
 945     868  5825       1
 946     869  3702       0
 947     870  1600       0
 948     871   721       0
 949     872   972       0
 950    2485   153       0
 951     874  1867       0
 952     875   976       0
 953     876   975       0
 954     877  4479       0
 955     878     6       1
 956     879    21       0
 957     880   734       0
 958     881  3957       0
 959     882  3472       0
 960     883  3218       0
 961     884   677       0
 962     885  5424       1
 963     886  4834       0
 964     887  5707       1
 965     888  3780       0
 966     889  2299       0
 967     890   760       0
 968     891  2791       0
 969     892  2322       0
 970     893  2150       0
 971     894  1942       0
 972     895  2154       0
 973     896  1035       0
 974     897  3781       0
 975     898  1806       0
 976     899  2300       0
 977     900  1050       0
 978     901  1075       0
 979     902  2502       0
 980     903  5753       1
 981     904  5765       1
 982     905  3779       0
 983     906    51       0
 984     907  1933       0
 985     908  1937       0
 986     909  2159       0
 987     910  2156       0
 988     911  1079       0
 989     912   994       0
 990     913  1250       0
 991     914  3429       0
 992     915  3205       0
 993     916  3474       0
 994     917  3475       0
 995     918   998       0
 996     919  1124       0
 997     920  1473       0
 998     921  1475       0
 999     922  1253       0
1000     923  4769       0
1001     924  4765       0
1002     925   186       0
1003     926   113       0
1004     927  1001       0
1005     928  1423       0
1006     929  1305       0
1007     930   807       0
1008     931  1938       0
1009     932  2298       0
1010     933  1045       0
1011     934  1924       0
1012     935  4815       0
1013     936  4828       0
1014     937   650       0
1015     938  3783       0
1016     939  3782       0
1017    5519    82       0
1018     941   423       0
1019     942  3576       0
1020     943  2794       0
1021     944   405       0
1022     945  5293       0
1023     946  3473       0
1024     947  3923       0
1025     948   420       0
1026     949  1013       0
1027     950  3374       0
1028     951   473       0
1029     952  3577       0
1030     953  2796       0
1031     954   684       0
1032     955  3784       0
1033     956   503       0
1034     957  4838       0
1035     958  5273       0
1036     959  4174       0
1037     960   701       0
1038     961  4663       0
1039     962  2155       0
1040     963  2497       0
1041     964  1021       0
1042     965  4706       0
1043     966   865       0
1044     967   866       0
1045     968  5780       1
1046     969   869       0
1047     970  1248       0
1048     971  1195       0
1049     972   545       0
1050     973  2306       0
1051     974  2305       0
1052     975   142       0
1053     976   188       0
1054     977   574       0
1055     978  2500       0
1056     979  2599       0
1057     980  1058       0
1058     981  2147       0
1059     982  1820       0
1060     983   902       0
1061     984   896       0
1062     985   761       0
1063     986  3461       0
1064     987  2153       0
1065     988  1067       0
1066     989  1074       0
1067     990  2501       0
1068     991  3786       0
1069     992  1042       0
1070     993  2303       0
1071     994   546       0
1072     995   610       0
1073     996   732       0
1074     997   919       0
1075     998   609       0
1076     999  3462       0
1077    1000  1044       0
1078    1001   155       0
1079    1002   928       0
1080    1003  2032       0
1081    1004   933       0
1082    1005   808       0
1083    1006  4802       0
1084    1007  3723       0
1085    1008   106       0
1086    1009   389       0
1087    1010  3216       0
1088    1011   950       0
1089    1012  3560       0
1090    1013  3217       0
1091    1014  3219       0
1092    1015  3329       0
1093    1016  1048       0
1094    1017  3220       0
1095    1018  3212       0
1096    1019   749       0
1097    1020  5101       0
1098    1021   706       0
1099    1022   861       0
1100    1023  2309       0
1101    1024  2157       0
1102    1025  2390       0
1103    1026  1073       0
1104    1027  1112       0
1105    1028  1988       0
1106    1029  1076       0
1107    1030   980       0
1108    1031   763       0
1109    1032  1944       0
1110    1033  1984       0
1111    1034  1061       0
1112    1035  1936       0
1113    1036  1063       0
1114    1037  1945       0
1115    1038  1946       0
1116    1039  1992       0
1117    1040  1049       0
1118    1041  2301       0
1119    1042  1382       0
1120    1043  2522       0
1121    1044   788       0
1122    1045  2304       0
1123    1046  3962       0
1124    1047  3561       0
1125    1048   833       0
1126    1049  1823       0
1127    1050  1040       0
1128    1051  2158       0
1129    1052  1026       0
1130    1053   964       0
1131    1054  1071       0
1132    1055  1822       0
1133    1056  1070       0
1134    1057  2148       0
1135    1058   892       0
1136    1059  2029       0
1137    1060  1821       0
1138    1061   809       0
1139    1062  1993       0
1140    1063   900       0
1141    1064  1824       0
1142    1065  1038       0
1143    1066  1825       0
1144    1067  1034       0
1145    1068  1384       0
1146    1069  1043       0
1147    1070   989       0
1148    1071  1029       0
1149    1072  1054       0
1150    1073   641       0
1151    1074  1033       0
1152    1075  1056       0
1153    1076  1051       0
1154    1077  1943       0
1155    1754   349       0
1156    1079    72       0
1157    1080  1078       0
1158    1082  1027       0
1159    1083  1082       0
1160    1087   911       0
1161    1091   977       0
1162    1092  1002       0
1163    1094  1092       0
1164    1081  1080       0
1165    1097  1081       0
1166    1099   927       0
1167    1106   204       0
1168    1107   804       0
1169    1108   806       0
1170    1109  1120       0
1171    1110    26       0
1172    1112   970       0
1173    1113   634       0
1174    1114  1123       0
1175    1115  1125       0
1176    1116  1126       0
1177    1117  1157       0
1178    1119   202       0
1179    1120  1130       0
1180    1102   779       0
1181    1123    30       0
1182    1124  1114       0
1183    1125  1000       0
1184    1126   876       0
1185    1129  1110       0
1186    1130    28       0
1187    1133  1158       0
1188    1138   196       0
1189    1139   194       0
1190    1140  1198       0
1191    1141   805       0
1192    1142  1285       0
1193    1143  1225       0
1194    1144  1628       0
1195    1145  1162       0
1196    2163   156       0
1197    1104  2174       0
1198    1158   624       0
1199    1160  1185       0
1200    1161  1207       0
1201    1162  1178       0
1202    1163  1144       0
1203    1165  1148       0
1204    1176  1212       0
1205    1177    42       0
1206    1178    48       0
1207    1179  1163       0
1208    1181  1165       0
1209    1185  1177       0
1210    1186  1176       0
1211    1188  1181       0
1212    1190   173       0
1213    1198   201       0
1214    1199   205       0
1215    1157  1387       0
1216    1206  1224       0
1217    1207  1142       0
1218    1170    33       0
1219    1212  1161       0
1220    1224  1160       0
1221    1225  1206       0
1222    1240   611       0
1223    1241  1480       0
1224    1242  1389       0
1225    1243   206       0
1226    1244   200       0
1227    1246  1278       0
1228    1247   384       0
1229    1248   870       0
1230    1249   995       0
1231    1250    32       0
1232    1253   792       0
1233    1254   913       0
1234    1257  1284       0
1235    1258  1329       0
1236    1261   141       0
1237    1168  1104       0
1238    1277   197       0
1239    1278   623       0
1240    1252  1296       0
1241    1281   791       0
1242    1284  1143       0
1243    1285  1258       0
1244    1286  1257       0
1245    1288  1261       0
1246    1296   733       0
1247    1303  1740       0
1248    1305   182       0
1249    1306  1337       0
1250    1307  1338       0
1251    1308  1342       0
1252    1310    41       0
1253    1311   797       0
1254    1312   929       0
1255    1313   160       0
1256    1314  1133       0
1257    1321  1346       0
1258    1195   720       0
1259    1262  1853       0
1260    1329    44       0
1261    1335   803       0
1262    1337   630       0
1263    1338    38       0
1264    1339    37       0
1265    1340    40       0
1266    1342   612       0
1267    1344    58       0
1268    1346    25       0
1269    1323    29       0
1270    1351   175       0
1271    1341  1340       0
1272    1349  1262       0
1273    1362  1349       0
1274    1368  1519       0
1275    1223   359       0
1276    1371  1373       0
1277    1372   169       0
1278    1373   164       0
1279    1292   800       0
1280    1382  1068       0
1281    1383  1069       0
1282    1384   569       0
1283    1385   573       0
1284    1386  1426       0
1285    1387   359       0
1286    1389   193       0
1287    1390  1241       0
1288    1269  1428       0
1289    1219  1430       0
1290    1336   181       0
1291    1408  1410       0
1292    1410   182       0
1293    1415   161       0
1294    1420  1368       0
1295    1421   727       0
1296    1422   165       0
1297    1423   801       0
1298    1428    56       0
1299    1401  1252       0
1300    1379  1444       0
1301    1438  1422       0
1302    1426   173       0
1303    1430  1447       0
1304    1444   626       0
1305    1447  1452       0
1306    1452   200       0
1307    1453   967       0
1308    1455  1528       0
1309    1456   198       0
1310    1457   598       0
1311    1458   123       0
1312    1459  1457       0
1313    1460   598       0
1314    1463   157       0
1315    1464   157       0
1316    1465   713       0
1317    1466   190       0
1318    1467   778       0
1319    1469   817       0
1320    1470   818       0
1321    1471   107       0
1322    1472   340       0
1323    1473    66       0
1324    1474   790       0
1325    1475   613       0
1326    1476  2009       0
1327    1330  1242       0
1328    1480  1277       0
1329    1493   172       0
1330    1497   176       0
1331    1514   614       0
1332    1519   628       0
1333    1374   566       0
1334    1527  1456       0
1335    1528   192       0
1336    1529  1982       0
1337    1506  1321       0
1338    1245  1571       0
1339    1530  1529       0
1340    1571   192       0
1341    1572  1530       0
1342    1577  1476       0
1343    1589  1577       0
1344    1593  1898       0
1345    1594  1958       0
1346    1595  1735       0
1347    1596   621       0
1348    1597   815       0
1349    1598  1752       0
1350    1599  1647       0
1351    1600    70       0
1352    1501   627       0
1353    1602   349       0
1354    1603   597       0
1355    1604   937       0
1356    1561  1467       0
1357    1628    46       0
1358    1630  1668       0
1359    1669   123       0
1360    1726   158       0
1361    1645  1765       0
1362    1646  1598       0
1363    1647   875       0
1364    1621  1676       0
1365    1654   146       0
1366    1661  1645       0
1367    1668  1677       0
1368    1677   569       0
1369    1680  2544       0
1370    1682   163       0
1371    1683   168       0
1372    1684   819       0
1373    1685   651       0
1374    1686   798       0
1375    1688   783       0
1376    1689   119       0
1377    1690   170       0
1378    1334   175       0
1379    1585   148       0
1380    1708   344       0
1381    1714  1599       0
1382    1718   353       0
1383    1691  1078       0
1384    1687  1633       0
1385    1726  1545       0
1386    1727    68       0
1387    1728    68       0
1388    1733  1545       0
1389    1735   339       0
1390    1676   722       0
1391    1740   119       0
1392    1692  1334       0
1393    1752   178       0
1394    1754  1691       0
1395    1633   180       0
1396    1765  1594       0
1397    1723  1785       0
1398    1776   782       0
1399    1785  1788       0
1400    1790  1791       0
1401    1791   351       0
1402    1793  1072       0
1403    1794   118       0
1404    1795   343       0
1405    1567   615       0
1406    1799   616       0
1407    1800   726       0
1408    1801   341       0
1409    1802   109       0
1410    1805  1875       0
1411    1806  1808       0
1412    1807   563       0
1413    1808   397       0
1414    1810  1812       0
1415    1812  1814       0
1416    1814  1816       0
1417    1817   397       0
1418    1818  1064       0
1419    1820  1066       0
1420    1821   640       0
1421    1822   767       0
1422    1823   982       0
1423    1824  1039       0
1424    1825  1028       0
1425    1834    36       0
1426    1848   179       0
1427    1853    34       0
1428    1759   112       0
1429    1861  2007       0
1430    1862  1861       0
1431    1788   141       0
1432    1873  1848       0
1433    1875  1893       0
1434    1817  1816       0
1435    1669  1631       0
1436    1578  1907       0
1437    1837   276       0
1438    1666  2190       0
1439    1893    73       0
1440    1898  1911       0
1441    1841  1666       0
1442    1916   436       0
1443    1918   576       0
1444    1920   304       0
1445    1921   755       0
1446    1922   930       0
1447    1923  1037       0
1448    1924  1003       0
1449    1925  2076       0
1450    1926  2362       0
1451    1927  2220       0
1452    1928   652       0
1453    1929   166       0
1454    1930    49       0
1455    1872    45       0
1456    1933   211       0
1457    1934   703       0
1458    1935   636       0
1459    1936   709       0
1460    1937   781       0
1461    1938   547       0
1462    1939  2080       0
1463    1940  2085       0
1464    1941   217       0
1465    1942  2033       0
1466    1943  1059       0
1467    1944  1057       0
1468    1945   987       0
1469    1946   934       0
1470    1555   353       0
1471    1510  1948       0
1472    1948   353       0
1473    1951  1555       0
1474    1957  1595       0
1475    1958   105       0
1476    1977   599       0
1477    1978  1621       0
1478    1979   266       0
1479    1982    23       0
1480    1984  1060       0
1481    1985    69       0
1482    1988  1055       0
1483    1992  1062       0
1484    1993   988       0
1485    1724   280       0
1486    1867   168       0
1487    2007   190       0
1488    2009   181       0
1489    1889   149       0
1490    1907   277       0
1491    1883  2069       0
1492    2017  1916       0
1493    2019  1920       0
1494    2692   291       0
1495    2023  2077       0
1496    2024  2078       0
1497    1699   874       0
1498    2028  1032       0
1499    2029  1940       0
1500    2030  2082       0
1501    2031  2108       0
1502    2032  1941       0
1503    2033   555       0
1504    2045  1977       0
1505    2068   579       0
1506    2069    65       0
1507    1911  2214       0
1508    2021   383       0
1509    2075  2022       0
1510    2076  2024       0
1511    2077  1926       0
1512    2078   216       0
1513    2079  2023       0
1514    2080  2028       0
1515    2081  2031       0
1516    2082   554       0
1517    2085  2030       0
1518    2036   653       0
1519    2013   148       0
1520    2104  2215       0
1521    2106  2075       0
1522    2108  1939       0
1523    2135   268       0
1524    2136  2223       0
1525    2137  1023       0
1526    2138   894       0
1527    2139   974       0
1528    2140   366       0
1529    2141   796       0
1530    2142   769       0
1531    2143   342       0
1532    2144   722       0
1533    2145   895       0
1534    2146   889       0
1535    2147  1077       0
1536    2148   901       0
1537    2149   912       0
1538    2150   548       0
1539    2151   213       0
1540    2152   719       0
1541    2153  1036       0
1542    2154   705       0
1543    2155   860       0
1544    2156   780       0
1545    2157   756       0
1546    2158   981       0
1547    2159   992       0
1548    2092   185       0
1549    2163  1148       0
1550    1715   136       0
1551    2168  1680       0
1552    1775  2236       0
1553    2170  1775       0
1554    1615   358       0
1555    2192  2244       0
1556    2193  2409       0
1557    2194    45       0
1558    2200  2201       0
1559    2047  1979       0
1560    2215   383       0
1561    2220   307       0
1562    2127  2106       0
1563    2223  2258       0
1564    2225  2142       0
1565    2226  2144       0
1566    2236   117       0
1567    2174    24       0
1568    2239   352       0
1569    2183   358       0
1570    2244  1925       0
1571    2197    35       0
1572    2201    23       0
1573    2120  2127       0
1574    2258  2277       0
1575    2270    58       0
1576    2277   122       0
1577    2284   272       0
1578    2285  5155       0
1579    2286  2419       0
1580    2287   851       0
1581    2288  2422       0
1582    2289  2379       0
1583    2290   890       0
1584    2291  2380       0
1585    2292  2426       0
1586    2294   275       0
1587    2295   910       0
1588    2296   785       1
1589    2297  2384       0
1590    2298   214       0
1591    2299   638       0
1592    2300   551       0
1593    2301   215       0
1594    2302  2386       0
1595    2303   766       0
1596    2304   549       0
1597    2305   723       0
1598    2306   872       0
1599    2309   963       0
1600    2310   990       0
1601    1796   372       0
1602    2315   346       0
1603    2322   985       0
1604    2332   306       0
1605    2348   962       0
1606    2353  2192       0
1607    2362  2193       0
1608    2374  3871       0
1609    2375  2287       0
1610    2376  2420       0
1611    2377  2443       0
1612    2378  2423       0
1613    2379   552       0
1614    2380   637       0
1615    2381  2291       0
1616    2383  2296       1
1617    2384     8       0
1618    2386   909       0
1619    2387  1005       0
1620    2390   758       0
1621    2391  1796       0
1622    2396    61       0
1623    2409   553       0
1624    2456   403       0
1625    2420   639       0
1626    2421  2377       0
1627    2422  2376       0
1628    2423  2288       0
1629    2424  2378       0
1630    2425  2292       0
1631    2426   704       0
1632    2441  2418       0
1633    2419   501       0
1634    2443  2289       0
1635    2456  2441       0
1636    2473  3079       0
1637    2474  2963       0
1638    2475  3100       0
1639    2476  2965       0
1640    2477  2938       0
1641    2478  2653       0
1642    2479  3298       0
1643    2480   794       0
1644    2481   789       0
1645    1919  2482       0
1646    2483  2588       0
1647    2484    63       0
1648    2485   873       0
1649    2492    86       0
1650    2493   969       0
1651    2495   151       0
1652    2497  1022       0
1653    2498  1025       0
1654    2499    87       0
1655    2500   891       0
1656    2501   768       0
1657    2502  1041       0
1658    2513   187       0
1659    2521   271       0
1660    2522   993       0
1661    2214  2610       0
1662    1915   270       0
1663    2544   350       0
1664    2546   290       0
1665    2561   582       0
1666    2562  2631       1
1667    2574  2639       0
1668    2575   500       0
1669    2581  2707       0
1670    2582  2701       0
1671    2583  2721       0
1672    2584  2654       0
1673    2585  2652       0
1674    2586  1919       0
1675    2482   576       0
1676    2588   338       0
1677    2589   104       0
1678    2594   365       0
1679    2597   149       0
1680    2599   564       0
1681    2604   577       0
1682    2610    12       0
1683    2631  2673       1
1684    2346   364       0
1685    2647  2705       0
1686    2648  2700       0
1687    2649  2970       0
1688    2650  2868       0
1689    2651  2584       0
1690    2652   411       0
1691    2653  2585       0
1692    2654  2477       0
1693    2655  2586       0
1694    2621  2022       0
1695    2673  2695       1
1696    2678  2702       0
1697    2679  2699       0
1698    2680  2706       0
1699    2681  2704       0
1700    2682  2708       0
1701    2683  2867       0
1702    2684   318       0
1703    2692  2621       0
1704    2695     8       1
1705    2699  2647       0
1706    2700  2678       0
1707    2701  2679       0
1708    2702  2581       0
1709    2703  2680       0
1710    2704   426       0
1711    2705  2681       0
1712    2706  2648       0
1713    2707  2683       0
1714    2708  2582       0
1715    2719  2729       0
1716    2721  2719       0
1717    2725  2745       0
1718    2745  2583       0
1719    2729   448       0
1720    2731  2976       0
1721    2762  2992       0
1722    2763  2988       0
1723    2764   660       0
1724    2765   830       0
1725    2767   130       0
1726    2370   114       0
1727    2210   114       0
1728    2770   129       0
1729    2771   888       0
1730    2772  2888       0
1731    2773  3363       0
1732    2774   679       0
1733    2775   683       0
1734    2776  2893       0
1735    2777  2891       0
1736    2609   362       0
1737    2780  2896       0
1738    2781   361       0
1739    2783  2899       0
1740    2784   370       0
1741    2786   143       0
1742    2787   385       0
1743    2788   739       0
1744    2789  3005       0
1745    2790  3003       0
1746    2791   708       0
1747    2792   979       0
1748    2793  1010       0
1749    2794   409       0
1750    2795  1017       0
1751    2796   371       0
1752    2550  2915       0
1753    2811   266       0
1754    2827  3141       0
1755    2828  3104       0
1756    2829  3097       0
1757    2830  2940       0
1758    2831  2937       0
1759    2839   435       0
1760    2808  2958       0
1761    2611   307       0
1762    2740   289       0
1763    2639   501       0
1764    2860  2971       0
1765    2861  2964       0
1766    2867  2649       0
1767    2868  2682       0
1768    2882  2989       0
1769    2883  2987       0
1770    2884  2993       0
1771    2885  2991       0
1772    2886  2764       0
1773    2888   863       0
1774    2890  2776       0
1775    2891   465       0
1776    2892  2777       0
1777    2893   475       0
1778    2894   368       0
1779    2895  2780       0
1780    2896   369       0
1781    2898  2784       0
1782    2899   360       0
1783    2902  3059       0
1784    2903  3002       0
1785    2904  3063       0
1786    2905  3061       0
1787    2917  2811       0
1788    2812  2302       0
1789    2933  3093       0
1790    2934  3089       0
1791    2935  3028       0
1792    2936  3025       0
1793    2937  2478       0
1794    2938  2830       0
1795    2939  2831       0
1796    2940   425       0
1797    2962  4403       0
1798    2963  2860       0
1799    2964  2473       0
1800    2965  2725       0
1801    2970  2861       0
1802    2971  2650       0
1803    2986  2882       0
1804    2987   832       0
1805    2988  2883       0
1806    2989  2762       0
1807    2990  2884       0
1808    2991   424       0
1809    2992  2885       0
1810    2993  2763       0
1811    2994   667       0
1812    3001  2902       0
1813    3002   669       0
1814    3003  2903       0
1815    3004  2904       0
1816    3005  2905       0
1817    2915   383       0
1818    3021  3090       0
1819    3022  3080       0
1820    3023  3094       0
1821    3024  3103       0
1822    3025  2827       0
1823    3026  2935       0
1824    3027  2936       0
1825    3028   412       0
1826    3048  3175       0
1827    3059  2789       0
1828    3061   410       0
1829    3063  2790       0
1830    3079  3021       0
1831    3080  2474       0
1832    3084  3085       0
1833    3085  2476       0
1834    3089  3022       0
1835    3090  2933       0
1836    3093  3024       0
1837    3094  2934       0
1838    3091  4088       0
1839    3103  2828       0
1840    3104  3026       0
1841    3097  3084       0
1842    3141  3023       0
1843    3184   740       0
1844    3185   691       0
1845    3186   495       0
1846    3187  3188       1
1847    3188   495       1
1848    3190   309       0
1849    3193   842       0
1850    3194  3314       0
1851    3195  3313       0
1852    3197  3367       0
1853    3198  3393       0
1854    3199   422       0
1855    3200   474       0
1856    3201   845       0
1857    3012   776       0
1858    3202   711       0
1859    3203   421       0
1860    3204   408       0
1861    3205   544       0
1862    3206   730       1
1863    3207   618       0
1864    3209  1015       0
1865    3210   463       0
1866    3211   954       0
1867    3212   467       0
1868    3213   666       0
1869    3214  3326       0
1870    3215  3325       0
1871    3216   825       0
1872    3217   413       0
1873    3218   742       0
1874    3219   949       0
1875    3220   840       0
1876    3222   748       0
1877    2190   513       0
1878    3235   293       0
1879    3241   367       0
1880    2766   600       0
1881    3257  3207       0
1882    3260   406       0
1883    3166  2104       0
1884    3269   372       0
1885    2958    12       0
1886    3286   354       0
1887    3298   447       0
1888    3175  3993       0
1889    3306   824       0
1890    3310   746       0
1891    3312  3194       0
1892    3313   466       0
1893    3314   476       0
1894    3315  3195       0
1895    3316  3365       0
1896    3317  3308       0
1897    3318  3368       0
1898    3319  3578       0
1899    3320  3199       0
1900    3321  3200       0
1901    3322  3202       0
1902    3324  3214       0
1903    3325   427       0
1904    3326  1016       0
1905    3327   943       0
1906    3328  4355       0
1907    3329   670       0
1908    3331   953       0
1909    3334   966       0
1910    3243  3385       0
1911    3252  2479       0
1912    2946    67       0
1913    3365   556       0
1914    3366  3317       0
1915    3367  3316       0
1916    3368  3197       0
1917    3369  3318       0
1918    3370   831       0
1919    3372   844       0
1920    3311   686       0
1921    3374  3215       0
1922    3378  3334       0
1923    2976  2475       0
1924    3363   381       0
1925    3308  3198       0
1926    3393  3319       0
1927    3385   494       0
1928    3412   731       0
1929    3413   882       0
1930    3414   745       0
1931    3415  3592       0
1932    3416  3673       0
1933    3417  4936       0
1934    3418   823       0
1935    3419   956       0
1936    3420   496       0
1937    3421   688       0
1938    3422   850       0
1939    3423   297       0
1940    3424   299       0
1941    3425   300       0
1942    3427   537       0
1943    3428   858       0
1944    3429   787       0
1945    3430   996       0
1946    3432  4857       0
1947    3434  3684       0
1948    3435  3682       0
1949    3436   775       0
1950    3437  3443       0
1951    3438  3445       0
1952    3439  3612       0
1953    3440  3444       0
1954    3441  3446       0
1955    3442  3447       0
1956    3443  3439       0
1957    3444  3438       0
1958    3445  3442       0
1959    3446  3437       0
1960    3447   387       0
1961    3448  3441       0
1962    3449   853       0
1963    3450   859       0
1964    3451   753       0
1965    3452   536       0
1966    3453  3614       0
1967    3454  3689       0
1968    3455   951       0
1969    3456   678       0
1970    3457   700       0
1971    3458   959       0
1972    3459   534       0
1973    3460   897       0
1974    3461   298       0
1975    3462   535       0
1976    3463   918       0
1977    3464  3615       0
1978    3465   428       0
1979    3466   941       0
1980    3467   661       0
1981    3468   499       0
1982    3469   689       0
1983    3470   955       0
1984    3471    20       0
1985    3472   738       0
1986    3473   433       0
1987    3474   786       0
1988    3475   608       0
1989    3476  3619       0
1990    3479   999       0
1991    3480   914       0
1992    3482   325       0
1993    3347   328       0
1994    3495   407       0
1995    3496   437       0
1996    3498   436       0
1997    3500   942       0
1998    3501   952       0
1999    3507   322       0
2000    3515    93       0
2001    3523  3145       0
2002    3526   585       0
2003    3645    92       0
2004    3196   151       0
2005    3531   464       0
2006    3532   659       0
2007    3560   449       0
2008    3561   741       0
2009    3576   438       0
2010    3577   481       0
2011    3578   218       0
2012    3403  3252       0
2013    3373  3846       0
2014    3585  3373       0
2015    3589   697       0
2016    3591  3674       0
2017    3592   828       0
2018    3593  3416       0
2019    3596   296       0
2020    3599   752       0
2021    3600   698       0
2022    3603   333       0
2023    3607  3683       0
2024    3608  3720       0
2025    3609  3685       0
2026    2785  3686       0
2027    3611  3436       0
2028    3612   821       0
2029    3613  3453       0
2030    3614   905       0
2031    3615   557       0
2032    2496   140       0
2033    3645  2598       0
2034    3247    90       0
2035    3533  1047       0
2036    3487   321       0
2037    3568    79       0
2038    3673   419       0
2039    3674  3415       0
2040    3675  3716       0
2041    3527   280       0
2042    3681  3607       0
2043    3682  3608       0
2044    3683  3434       0
2045    3684  2785       0
2046    3685  3435       0
2047    3686   388       0
2048    3687  3609       0
2049    3688   390       0
2050    3689   655       0
2051    3690  3930       0
2052    3693   537       1
2053    3699    92       0
2054    3702   718       0
2055    3716   947       0
2056    3717   687       0
2057    3720   771       0
2058    3723  3464       0
2059    3696  3498       0
2060    3740  3936       0
2061    3741   827       0
2062    3742   834       0
2063    3743  4364       0
2064    3744  4235       0
2065    3745  3939       0
2066    3746  4236       0
2067    3747   877       0
2068    3748   604       0
2069    3749   312       0
2070    3750   103       0
2071    3431  4361       0
2072    3755  4057       0
2073    3756   478       0
2074    3758   519       0
2075    3761  3763       0
2076    3762  3765       0
2077    3763   432       0
2078    3764  3761       0
2079    3765   836       0
2080    3766   843       0
2081    3767   470       0
2082    3768   846       0
2083    3769   665       0
2084    3770   477       0
2085    3771   468       0
2086    3772   607       1
2087    3773  3954       0
2088    3774  3955       0
2089    3775   431       0
2090    3776   664       0
2091    3778   671       0
2092    3779   991       0
2093    3780   762       0
2094    3781   565       0
2095    3782  1009       0
2096    3783   820       0
2097    3784   690       0
2098    3785   852       0
2099    3786   386       0
2100    3787  4250       0
2101    3738  3963       0
2102    3791    99       0
2103    3805  2787       0
2104    3806   593       0
2105    3807  3809       0
2106    3809   596       0
2107    2871   378       0
2108    3813  4000       0
2109    3815  3979       0
2110    3181  3048       0
2111    3822  4023       0
2112    3823   482       0
2113    3824  4299       0
2114    3825  4300       0
2115    3826   841       0
2116    3307   837       0
2117    3842  4003       0
2118    3846   619       0
2119    3375  3328       0
2120    3853  4009       0
2121    3854  4011       0
2122    3858  5770       1
2123    3859  3860       0
2124    3860   531       0
2125    3863   497       0
2126    3864   849       0
2127    3497  4026       0
2128    3871  2418       0
2129    3873  3523       0
2130    3875  4033       1
2131    3893  3440       0
2132    3894  3454       0
2133    3145  2829       0
2134    3901  4046       0
2135    3669  3585       0
2136    3914  3690       0
2137    3700    92       0
2138    3922  4217       0
2139    3923  3922       0
2140    3721  3928       0
2141    3927   512       0
2142    3930  1046       0
2143    3737  3568       0
2144    3935  3740       0
2145    3936   417       0
2146    3937   744       0
2147    3938  4286       0
2148    3939   605       0
2149    3943  3756       0
2150    3944  3755       0
2151    3950  4117       0
2152    3952  3773       0
2153    3953  3774       0
2154    3954   939       0
2155    3955   654       0
2156    3957   736       0
2157    3961   881       0
2158    3962  3787       0
2159    3963  1007       0
2160    3838  4126       0
2161    4009   494       0
2162    4010  3854       0
2163    4023   493       0
2164    4026   260       0
2165    4033   585       1
2166    4034    74       0
2167    3981  3815       0
2168    3888  2136       0
2169    3760   777       0
2170    3928   572       0
2171    4055  3938       0
2172    4057   469       0
2173    4058   486       0
2174    3208  4102       0
2175    4115  5183       0
2176    4062   485       0
2177    3974  3813       0
2178    4125  3838       0
2179    4088    80       0
2180    4011   737       0
2181    4151  3717       0
2182    4168   430       0
2183    4169  4488       0
2184    4090  4508       0
2185    4170  4490       0
2186    4172   685       0
2187    4173   751       0
2188    4174    22       0
2189    4175  4176       0
2190    4176    22       0
2191    4177   765       0
2192    4178   864       0
2193    4179   826       0
2194    4180   415       0
2195    4181   418       0
2196    4182   416       0
2197    3513   710       0
2198    4183   692       0
2199    2889  2773       0
2200    4188   380       0
2201    4200   492       1
2202    4203    75       0
2203    4204   375       0
2204    4211   884       0
2205    4213  4454       0
2206    4215   662       0
2207    4216   450       0
2208    4217   454       0
2209    4234  3746       0
2210    4235  3745       0
2211    4236   606       0
2212    4237  3744       0
2213    4238   839       0
2214    4239   487       0
2215    4241   414       0
2216    4242  4368       0
2217    4243  4213       0
2218    4245  3738       0
2219    4250   936       0
2220    3598  3600       0
2221    3619   532       0
2222    4281  4282       1
2223    4282  4283       1
2224    4283   532       1
2225    4286  3743       0
2226    4289  4975       0
2227    4285  3950       0
2228    3986  3822       0
2229    3993    78       0
2230    4299    76       0
2231    4300   456       0
2232    4000   483       0
2233    4212  4394       0
2234    4040    85       0
2235    3044  4400       0
2236    4043   583       0
2237    4117    84       0
2238    4492   489       0
2239    4334   835       0
2240    4313   847       0
2241    4364  4234       0
2242    4233   940       0
2243    4367  4242       0
2244    4368   675       0
2245    4220   457       0
2246    4290  4289       0
2247    4388   491       1
2248    4298  3842       0
2249    4394   528       0
2250    4395  4396       0
2251    4396  4397       0
2252    4397   528       0
2253    4400  2962       0
2254    4403  4043       0
2255    3979   458       0
2256    4102   137       0
2257    4412  4471       0
2258    4355    81       0
2259    4430  5309       0
2260    4443  4388       1
2261    4471   222       0
2262    4453  4486       0
2263    4473  4554       0
2264    4475  4453       0
2265    4472   603       0
2266    4479   728       0
2267    4478  3748       0
2268    4486  4169       0
2269    4522   562       0
2270    4490  4521       0
2271    4493  4472       0
2272    4410  4501       0
2273    4492  4410       0
2274    4501  4135       0
2275    4508  4412       0
2276    4515  4562       0
2277    4516  4557       0
2278    4517  4511       0
2279    4521   562       0
2280    4522  4488       0
2281    4511  4090       0
2282    4539  4517       0
2283    4609   643       0
2284    4454  5142       0
2285    4551  4233       0
2286    4554   222       0
2287    4489  4170       0
2288    4557  4515       0
2289    4544  4569       0
2290    4562  4544       0
2291    4569   561       0
2292    4548  4565       0
2293    4565   221       0
2294    4577  4594       0
2295    4581  4577       0
2296    4583  4585       0
2297    4585  4547       0
2298    4594   811       0
2299    4609  4583       0
2300    4596  4627       0
2301    4614  4596       0
2302    4613  4621       0
2303    4621   643       0
2304    4627   560       0
2305    4630  4613       0
2306    4631  4644       0
2307    4636  4641       0
2308    4639  4631       0
2309    4641   735       0
2310    4649  4636       0
2311    4656  4662       0
2312    4657  4656       0
2313    4653  4659       0
2314    4659   220       0
2315    4663  4653       0
2316    4662   707       0
2317    4670  4672       0
2318    4672   961       0
2319    4673  4683       0
2320    4674  4673       0
2321    4644   759       0
2322    4682  4670       0
2323    4683   965       0
2324    4725   219       0
2325    4689  4700       0
2326    4700   862       0
2327    4705  4722       0
2328    4706  4705       0
2329    4708  4689       0
2330    4712  4720       0
2331    4720  4688       0
2332    4722   559       0
2333    4725  4712       0
2334    4728  4779       0
2335    4730  4734       0
2336    4731  4735       0
2337    4734  4728       0
2338    4735  4741       0
2339    4741   219       0
2340    4747  4754       0
2341    4753  4761       0
2342    4754   924       0
2343    4760  4776       0
2344    4761  4731       0
2345    4766  4753       0
2346    4765  4760       0
2347    4769  4771       0
2348    4771   795       0
2349    4776   558       0
2350    4779  4747       0
2351    4788  4789       0
2352    4789   923       0
2353    4792  4800       0
2354    4794  4792       0
2355    4800   935       0
2356    4802   642       0
2357    4249  4818       0
2358    4370  4817       0
2359    4815  4249       0
2360    4817  1006       0
2361    4818   810       0
2362    4828  4370       0
2363    4955     9       0
2364    4832   540       0
2365    4833   570       0
2366    4834   514       0
2367    4837   429       0
2368    4838   854       0
2369    3285   374       0
2370    4839   857       0
2371    4840   696       0
2372    4841  4846       0
2373    4843  3859       0
2374    4845   527       0
2375    4846   699       0
2376    4848  5457       0
2377    4857   461       0
2378    3911  3589       0
2379    4003    77       0
2380    4046   459       0
2381    4126   376       0
2382    4884   648       0
2383    4887   672       0
2384    4893  2550       0
2385    5713   398       0
2386    4361   530       0
2387    4926  4385       0
2388    4437   469       0
2389    4293  5054       1
2390    4533  5484       1
2391    4995   518       0
2392    4895  4841       0
2393    4385    83       0
2394    5041   646       0
2395    5052  4845       0
2396    4975   460       0
2397    5064   263       0
2398    5007  5193       0
2399    5081   645       0
2400    5082   587       0
2401    4870   262       0
2402    5063   392       0
2403    5087   393       0
2404    5088   648       0
2405    3759   395       0
2406    5093  5382       0
2407    5094  5200       0
2408    5095  1020       0
2409    5096   856       0
2410    4886   517       0
2411    5099   784       0
2412    5034   261       0
2413    5100   958       0
2414    5101   571       0
2415    5102   729       0
2416    2759  2731       0
2417    3100  3091       0
2418    3856  3432       0
2419    3601   462       0
2420    3754  3431       0
2421    5112   520       0
2422    5352   401       0
2423    5128  3901       0
2424    5131  5217       0
2425    5142   584       0
2426    4104  5328       0
2427    4955  4831       0
2428    4942   258       0
2429    5400   538       0
2430    5182  1810       0
2431    5190   657       0
2432    5196   586       0
2433    5197  5082       0
2434    5198  5063       0
2435    5199  5093       0
2436    5200   522       0
2437    5201   878       1
2438    5218  5131       0
2439    4782  5697       0
2440    5236  5197       0
2441    5217   620       0
2442    4389   246       0
2443    5248  4942       0
2444    5257   259       0
2445    5251  4956       0
2446    4259  5262       0
2447    4930   243       0
2448    4894   228       0
2449    5266  5359       1
2450    5267   542       1
2451    4864   647       0
2452    5271   816       0
2453    5272   521       0
2454    5273   693       0
2455    5162  5403       0
2456    5275   676       0
2457    5281   606       1
2458    5155  2374       0
2459    5293   451       0
2460    2606  5483       1
2461    4945  4430       0
2462    5309   658       0
2463    5317  5523       0
2464    5319  5094       0
2465    5092   520       0
2466    5261  5327       0
2467    5331   234       0
2468    5189  3858       1
2469    5351   251       0
2470    4372  5686       1
2471    5354  4389       0
2472    5262   243       0
2473    5359   539       1
2474    5360  5267       1
2475    5313  2562       1
2476    5382   694       0
2477    5328   507       0
2478    5327    10       0
2479    5049   252       0
2480    5403   247       0
2481    5433    17       0
2482    5648   234       0
2483    5443   968       1
2484    5444   855       0
2485    5445  5558       0
2486    5454  5445       0
2487    4936   506       0
2488    5457   399       0
2489    4713  5748       1
2490    5194  5007       0
2491    4829   509       0
2492    5372   402       0
2493    5054  5764       1
2494    5495  5196       0
2495    5472  4829       0
2496    5350   250       0
2497    5499    85       0
2498    5280   590       1
2499    5505  5280       1
2500    5508  5266       1
2501    5185  5520       0
2502    5520   249       0
2503    5523   250       0
2504    5283  4104       0
2505    5534  5443       1
2506    5544   750       0
2507    5545   516       1
2508    5471   391       0
2509    5553   694       0
2510    5320  5594       1
2511    5558   248       0
2512    5564  5472       0
2513    5569   235       0
2514    5394  5185       0
2515    5519   940       0
2516    5581  5534       1
2517    5594  5606       1
2518    5573  5394       0
2519    5606   571       1
2520    5608   240       0
2521    5602   255       0
2522    4830   242       0
2523    5352  4679       0
2524    5178   253       0
2525    5122  4679       0
2526    3292  5718       1
2527    5183   490       0
2528    5633  5678       0
2529    5634  5819       0
2530    2307  5772       1
2531    5691   400       0
2532    5637     3       0
2533    5506  4533       1
2534    5645   236       0
2535    5588  4713       1
2536    5652    11       0
2537    5053   658       0
2538    5655  5608       0
2539    5638   232       0
2540    5691  5615       0
2541    5690  4782       0
2542    5694   401       0
2543    5697  5694       0
2544    5193   245       0
2545    5702   507       1
2546    5400  4956       0
2547    5707  4293       1
2548    5119  5738       1
2549    5424  4372       1
2550    5710   588       0
2551    5418   254       0
2552    5713  4328       0
2553    5648  5442       0
2554    5635   772       1
2555    5716    16       0
2556    5718   903       1
2557    5642   257       0
2558    5484   904       1
2559    5678   237       0
2560    5686   591       1
2561    5738   885       1
2562    5748  5635       1
2563    5746  5756       0
2564    5751   239       0
2565    5762   402       0
2566    5764   773       1
2567    5765  5588       1
2568    5767  5638       0
2569    5769    13       0
2570    5770  5119       1
2571    5721   256       0
2572    5753  2606       1
2573    5754   238       0
2574    5771   241       0
2575    5766  5860       1
2576    5780   868       1
2577    5759    15       0
2578    5321  5162       0
2579    5802  5634       0
2580    5805   510       0
2581    5756   226       0
2582    5483   714       1
2583    5772   887       1
2584    5811    14       0
2585    5815   227       0
2586    4310  2307       1
2587    5708  5633       0
2588    5819   224       0
2589    5820   716       1
2590    5800  3292       1
2591    5822  5803       1
2592    5823  5827       1
2593    5824     1       1
2594    5816  5768       0
2595    5825  5820       1
2596    5803  5829       1
2597    5829   592       1
2598    5827   774       1
2599    5769  5768       0
2600    5832   229       0
2601    5834   867       1
2602    5838   232       0
2603    5843   224       0
2604    5844  5872       1
2605    5845  5746       0
2606    5846  5823       1
2607    5806   227       0
2608    5852   511       1
2609    5835     5       1
2610    5859  5874       1
2611    5860  5835       1
2612    5810  5766       1
2613    5854   644       0
2614    5864   230       0
2615    5871  5844       1
2616    5872   715       1
2617    5874  5822       1
0
81
   1   96601.320999999996  9761.8232000000007  9  1000
   2   96720.917000000001  9739.7693999999992  12  1000
   3   96600  9700  9  1000
   4   96600  9600  8  5000
   5   96600.270000000004  9561.1209999999992  7  5000
   6   96600.039999999994  9540.9500000000007  6  1000
   7   96600  9500  5  2000
   8   96600.038  9452.7199999999993  4  5000
   9   96600  9300  3  8000
  10   96599.327000000005  9252.5310000000009  2  8000
  11   96600  9000  1  10000
  12   99000  9720  12  5000
  13   98000  9715  11  1000
  14   98900  9660  11  100
  15   98600  9630  10  10000
  16   98000  9630  10  1000
  17   98710  9577  9  1000
  18   98710  9565  9  500
  19   98600  9528  9  500
  20   98400  9525  9  1000
  21   98600  9510  9  2000
  22   98000  9480  8  8500
  23   98000  9425  7  3500
  24   98000  9410  6  500
  25   98000  9380  5  3000
  26   98000  9310  4  5000
  27   98000  9200  3  5000
  28   98000  9080  2  5000
  29   98000  9000  1  10000
  30   98900  9580  9  1500
  31   98600  9528  9  1500
  32   99100  9770  12  1000
  33   99080  9750  10  1000
  34   99050  9700  9  500
  35   98950  9585  8  8000
  36   98910  9557  7  2000
  37   98890  9540  6  1000
  38   98860  9520  5  2000
  39   98826  9507  5  1000
  40   98855  9545  8  1000
  41   98830  9530  7  1000
  42   98820  9510  6  1000
  43   98815  9504  5  1000
  44   98807  9502  7  1000
  45   98802  9495  6  1000
  46   98780  9465  5  1000
  47   98740  9520  9  1000
  48   98727  9484  8  1000
  49   98762  9500  8  8000
  50   98830  9548  9  1000
  51   98800  9525  9  1000
  52   98755  9467  8  1000
  53   98720  9420  7  1000
  54   98710  9404  6  500
  55   98700  9385  5  1000
  56   98663  9340  4  8000
  57   99200  9780  13  500
  58   99700  9769  12  2000
  59   99200  9750  9  1000
  60   99200  9700  9  2000
  61   99200  9640  8  5000
  62   99200  9570  7  2000
  63   99200  9550  6  500
  64   99200  9525  5  2000
  65   99200  9440  4  5000
  66   99200  9300  3  8000
  67   99200  9180  2  8000
  68   99000  9000  1  10000
  69   100000  9700  10  1000
  70   100000  9640  9  1000
  71   100000  9600  9  1000
  72   100000  9585  8  5000
  73   99999.879000000001  9417.2999999999993  8  5000
  74   100002.09  9445.0499999999993  7  2000
  75   100000  9400  6  1000
  76   100000  9370  5  2000
  77   100000  9280  4  8000
  78   100000  9200  3  8000
  79   100200  9000  2  8000
  80   100121.94100000001  8913.1000000000004  1  10000
  81   100000  9800  13  10000
# Generated by ./triangle -aAnepCVOq30 irish1x.poly
