22 2 1 0
1 0. 1900. 1.
2 0. 700. 1.
3 0. 500. 1.
4 0. 0. 1.
5 500. 1700. 4.
6 1000. 1500. 4.
7 1290. 1400. 4.
8 1300. 1400. 4. 
9 1415. 1150. 0.
10 1510. 950. 0.
11 1575. 800. 0.
12 1680. 600. 0.
13 1990. 0. 2. 0.
14 2000. 0. 2. 0.
15 1500. 1500. 4. 
16 1900. 1500. 4. 
17 2400. 1700. 4.
18 2600. 2000. 4.
19 3100. 2200. 4.
20 3100. 1300. 3.
21 3100. 1100. 3.
22 3100. 0. 3.
28 0
1 1 2
2 2 3
3 3 4
4 4 13
5 3 12
6 2 11
7 1 5
8 5 6
9 6 7
10 7 8
11 7 11
12 11 12
13 12 13
14 13 14
15 14 10
16 9 10
17 8 9
18 8 15
19 15 16 
20 16 17
21 17 18
22 18 19
23 19 20
24 9 20
25 20 21
26 10 21
27 21 22
28 14 22
0
7 1
1 500. 1000. 1.0e-14 250.0
2 500. 600.  1.0e-16 250.0
3 500. 300.  1.0e-15 250.0
4 1995. 5. 1.0e-12 15.0
5 2500. 1500. 1.0e-14 250.0
6 2000. 1100. 1.0e-16 250.0
7 2500. 500. 1.0e-15 250.0
