489	2	1	0
1	0.116278	0.093285	1
2	0.143804	0.079665	1
3	0.178571	0.065443	1
4	0.207608	0.055171	1
5	0.340041	-0.00558	1
6	0.377278	-0.019715	1
7	0.259278	0.077285	1
8	0.279196	0.065384	1
9	0.28838	0.061643	1
10	0.323073	0.049313	1
11	0.336508	0.042085	1
12	0.346278	0.035285	1
13	0.326278	0.089285	1
14	0.335232	0.085764	1
15	0.344756	0.080662	1
16	0.352935	0.074938	1
17	0.356278	0.073285	1
18	0.342278	0.089285	1
19	0.350658	0.084304	1
20	0.381927	0.070253	1
21	0.395772	0.064881	1
22	0.401278	0.061285	1
23	0.383278	0.084285	1
24	0.393962	0.079221	1
25	0.406704	0.074882	1
26	0.414278	0.071285	1
27	0.335278	0.112285	1
28	0.364923	0.098688	1
29	0.415598	0.078081	1
30	0.422985	0.072897	1
31	0.47042	0.052679	1
32	0.618427	-0.005562	1
33	0.644278	-0.016715	1
34	0.249278	0.005285	1
35	0.239764	0.008485	1
36	0.211701	0.020926	1
37	0.195522	0.029295	1
38	0.163666	0.047315	1
39	0.144474	0.055014	1
40	0.131921	0.064163	1
41	0.109103	0.075266	1
42	0.093278	0.083285	1
43	0.168278	0.014285	1
44	0.13792	0.027662	1
45	0.110369	0.038407	1
46	0.105617	0.042058	1
47	0.072074	0.057417	1
48	0.008018	0.082213	1
49	-0.003722	0.086285	1
50	0.169278	-0.050715	1
51	0.130805	-0.031404	1
52	0.088425	-0.011704	1
53	0.041047	0.009891	1
54	0.003647	0.031312	1
55	-0.02163	0.043778	1
56	-0.041329	0.052526	1
57	-0.081722	0.068285	1
58	-0.263722	0.034285	1
59	-0.250544	0.027737	1
60	-0.236994	0.020532	1
61	-0.223635	0.012396	1
62	-0.283722	0.036285	1
63	-0.275009	0.029738	1
64	-0.265602	0.025568	1
65	-0.255175	0.019752	1
66	-0.279722	0.012285	1
67	-0.244472	-0.007888	1
68	-0.17535	-0.041329	1
69	-0.156061	-0.05055	1
70	-0.137722	-0.058715	1
71	-0.312722	0.008285	1
72	-0.308086	0.0037	1
73	-0.299402	-0.000448	1
74	-0.285352	-0.008155	1
75	-0.273448	-0.011896	1
76	-0.227105	-0.03494	1
77	-0.183273	-0.057038	1
78	-0.176722	-0.061715	1
79	-0.339722	0.072285	1
80	-0.329073	0.062775	1
81	-0.30705	0.048149	1
82	-0.29625	0.03888	1
83	-0.290553	0.035309	1
84	-0.286722	0.031285	1
85	-0.319722	0.029285	1
86	-0.322866	0.034544	1
87	-0.331964	0.043047	1
88	-0.352272	0.058665	1
89	-0.379134	0.072234	1
90	-0.389436	0.079795	1
91	-0.394722	0.088285	1
92	-0.384722	0.064285	1
93	-0.392612	0.07023	1
94	-0.467464	0.109541	1
95	-0.485209	0.115096	1
96	-0.513029	0.126959	1
97	-0.539168	0.136827	1
98	-0.545722	0.140285	1
99	-0.356722	0.004285	1
100	-0.33595	-0.007685	1
101	-0.312492	-0.016628	1
102	-0.299847	-0.022329	1
103	-0.286722	-0.029715	1
104	-0.291722	-0.023715	1
105	-0.275969	-0.032594	1
106	-0.255972	-0.043226	1
107	-0.236722	-0.054715	1
108	-0.342722	-0.033715	1
109	-0.312828	-0.049702	1
110	-0.283722	-0.065715	1
111	-0.435722	0.027285	1
112	-0.415203	0.016714	1
113	-0.386403	0.000393	1
114	-0.352322	-0.020567	1
115	-0.336722	-0.031715	1
116	-0.479728	0.01523	1
117	-0.454782	0.003511	1
118	-0.447014	-0.002367	1
119	-0.421609	-0.01339	1
120	-0.406387	-0.017379	1
121	-0.336403	-0.053023	1
122	-0.293722	-0.073715	1
123	-0.486239	-0.007228	1
124	-0.472697	-0.008803	1
125	-0.466398	-0.010482	1
126	-0.465349	-0.013107	1
127	-0.454008	-0.018283	1
128	-0.441472	-0.02648	1
129	-0.439722	-0.028715	1
130	-0.502759	-0.001695	1
131	-0.496905	-0.005277	1
132	-0.493668	-0.008101	1
133	-0.488295	-0.011614	1
134	-0.541722	0.009285	1
135	-0.531206	0.003462	1
136	-0.521766	-0.00296	1
137	-0.513294	-0.010124	1
138	-0.510722	-0.012715	1
139	-0.537722	-0.001715	1
140	-0.53486	-0.002802	1
141	-0.509237	-0.018154	1
142	-0.263365	0.034277	1
143	-0.250188	0.027729	1
144	-0.236638	0.020524	1
145	-0.223279	0.012388	1
146	-0.283365	0.036277	1
147	-0.274652	0.02973	1
148	-0.265245	0.025561	1
149	-0.254819	0.019744	1
150	-0.279365	0.012277	1
151	-0.244115	-0.007896	1
152	-0.174993	-0.041337	1
153	-0.155704	-0.050558	1
154	-0.137365	-0.058723	1
155	-0.312365	0.008277	1
156	-0.307729	0.003692	1
157	-0.299046	-0.000455	1
158	-0.284996	-0.008162	1
159	-0.273091	-0.011904	1
160	-0.226748	-0.034948	1
161	-0.182916	-0.057045	1
162	-0.176365	-0.061723	1
163	-0.356365	0.004277	1
164	-0.335594	-0.007693	1
165	-0.312136	-0.016635	1
166	-0.29949	-0.022336	1
167	-0.286365	-0.029723	1
168	-0.291365	-0.023723	1
169	-0.275612	-0.032602	1
170	-0.255616	-0.043234	1
171	-0.236365	-0.054723	1
172	-0.537365	-0.001723	1
173	-0.534503	-0.002809	1
174	-0.508881	-0.018162	1
175	-0.541365	0.009277	1
176	-0.530849	0.003454	1
177	-0.521409	-0.002968	1
178	-0.512937	-0.010131	1
179	-0.510365	-0.012723	1
180	-0.507722	-0.009839	1
181	-0.503147	-0.010341	1
182	-0.497401	-0.013466	1
183	-0.493607	-0.019658	1
184	-0.507616	-0.009783	1
185	-0.503098	-0.01026	1
186	-0.497044	-0.013473	1
187	-0.493251	-0.019666	1
188	-0.502403	-0.001703	1
189	-0.496549	-0.005284	1
190	-0.493311	-0.008108	1
191	-0.487939	-0.011621	1
192	-0.48611	-0.007061	1
193	-0.47262	-0.008677	1
194	-0.466314	-0.010368	1
195	-0.465219	-0.013025	1
196	-0.453651	-0.018291	1
197	-0.441116	-0.026487	1
198	-0.439365	-0.028723	1
199	-0.479371	0.015222	1
200	-0.454426	0.003504	1
201	-0.446657	-0.002375	1
202	-0.421252	-0.013398	1
203	-0.40603	-0.017387	1
204	-0.336046	-0.05303	1
205	-0.293365	-0.073723	1
206	-0.342365	-0.033723	1
207	-0.312472	-0.04971	1
208	-0.283365	-0.065723	1
209	-0.435365	0.027277	1
210	-0.414847	0.016706	1
211	-0.386046	0.000386	1
212	-0.351965	-0.020575	1
213	-0.336365	-0.031723	1
214	-0.320078	0.029292	1
215	-0.323222	0.034551	1
216	-0.332321	0.043055	1
217	-0.352629	0.058673	1
218	-0.379491	0.072241	1
219	-0.389792	0.079803	1
220	-0.395078	0.088292	1
221	-0.340078	0.072292	1
222	-0.329429	0.062782	1
223	-0.307406	0.048156	1
224	-0.296607	0.038888	1
225	-0.29091	0.035317	1
226	-0.287078	0.031292	1
227	-0.384365	0.064277	1
228	-0.392255	0.070223	1
229	-0.467108	0.109533	1
230	-0.484853	0.115088	1
231	-0.512672	0.126951	1
232	-0.538812	0.136819	1
233	-0.545365	0.140277	1
234	0.169635	-0.050723	1
235	0.131162	-0.031412	1
236	0.088781	-0.011712	1
237	0.041404	0.009883	1
238	0.004004	0.031304	1
239	-0.021274	0.043771	1
240	-0.040973	0.052518	1
241	-0.081365	0.068277	1
242	0.168635	0.014277	1
243	0.138276	0.027655	1
244	0.110726	0.038399	1
245	0.105973	0.04205	1
246	0.07243	0.057409	1
247	0.008375	0.082205	1
248	-0.003365	0.086277	1
249	0.248922	0.005292	1
250	0.239407	0.008493	1
251	0.211345	0.020934	1
252	0.195166	0.029302	1
253	0.16331	0.047322	1
254	0.144118	0.055022	1
255	0.131565	0.064171	1
256	0.108747	0.075273	1
257	0.092922	0.083292	1
258	0.115922	0.093292	1
259	0.143448	0.079673	1
260	0.178214	0.06545	1
261	0.207252	0.055178	1
262	0.339684	-0.005573	1
263	0.376922	-0.019708	1
264	0.259635	0.077277	1
265	0.279553	0.065377	1
266	0.288736	0.061635	1
267	0.323429	0.049305	1
268	0.336865	0.042078	1
269	0.346635	0.035277	1
270	0.326635	0.089277	1
271	0.335588	0.085756	1
272	0.345112	0.080654	1
273	0.353291	0.07493	1
274	0.356635	0.073277	1
275	0.342635	0.089277	1
276	0.351014	0.084296	1
277	0.382284	0.070245	1
278	0.396128	0.064873	1
279	0.401635	0.061277	1
280	0.383635	0.084277	1
281	0.394318	0.079214	1
282	0.40706	0.074874	1
283	0.414635	0.071277	1
284	0.335635	0.112277	1
285	0.365279	0.09868	1
286	0.415783	0.078148	1
287	0.423154	0.072979	1
288	0.470777	0.052671	1
289	0.618784	-0.00557	1
290	0.644635	-0.016723	1
291	-0.529562	-0.019297	1
292	-0.52242	-0.022136	1
293	-0.51606	-0.027045	1
294	-0.454643	-0.057597	1
295	-0.434365	-0.068723	1
296	-0.610722	0.023285	1
297	-0.579068	0.006583	1
298	-0.564426	0.001973	1
299	-0.551954	-0.004895	1
300	-0.529918	-0.01929	1
301	-0.533596	-0.020101	1
302	-0.533737	-0.020252	1
303	-0.574159	0.000188	1
304	-0.597722	0.013285	1
305	-0.529608	-0.019413	1
306	-0.522776	-0.022128	1
307	-0.516416	-0.027038	1
308	-0.454999	-0.05759	1
309	-0.434722	-0.068715	1
310	-1.3	0.7	1
311	-1.3	-0.7	1
312	1.3	-0.7	1
313	1.3	0.7	1
314	-0.7	0.267381	1
315	-0.7	-0.232619	1
316	0.7	-0.232619	1
317	0.7	0.267381	1
318	-0.044813	-0.007842	1
319	-0.13074	0.032396	1
320	-0.153952	0.042383	1
321	-0.161722	0.047285	1
322	-0.044832	-0.007577	1
323	-0.130158	0.032404	1
324	-0.153574	0.042419	1
325	-0.161365	0.047277	1
326	-0.036918	-0.010049	1
327	-0.025454	-0.015353	1
328	-0.013808	-0.01972	1
329	-0.000365	-0.023723	1
330	0.016635	-0.048723	1
331	0.000928	-0.039951	1
332	-0.022927	-0.025215	1
333	-0.035937	-0.016558	1
334	-0.044449	-0.007897	1
335	-0.281078	0.046292	1
336	-0.276132	0.045353	1
337	-0.254859	0.035468	1
338	-0.239993	0.029683	1
339	-0.224998	0.021926	1
340	-0.200715	0.009836	1
341	-0.175856	-0.006306	1
342	-0.280722	0.046285	1
343	-0.275776	0.045345	1
344	-0.254503	0.035461	1
345	-0.239637	0.029675	1
346	-0.224642	0.021918	1
347	-0.200359	0.009829	1
348	-0.17631	-0.005845	1
349	-0.154823	-0.016231	1
350	-0.133233	-0.026512	1
351	-0.120659	-0.033708	1
352	-0.117722	-0.037715	1
353	-0.101722	-0.061715	1
354	-0.109299	-0.052541	1
355	-0.134304	-0.031878	1
356	-0.143359	-0.02592	1
357	-0.147335	-0.019954	1
358	-0.133133	-0.026717	1
359	-0.120739	-0.033764	1
360	-0.117621	-0.03792	1
361	-0.154722	-0.016436	1
362	-0.147592	-0.019832	1
363	-0.101621	-0.06192	1
364	-0.109372	-0.052635	1
365	-0.134203	-0.032083	1
366	-0.143449	-0.025996	1
367	-0.213722	0.038285	1
368	-0.191677	0.027096	1
369	-0.175535	0.017199	1
370	-0.165126	0.008583	1
371	-0.142481	-0.00157	1
372	-0.126275	-0.010602	1
373	-0.094823	-0.026392	1
374	-0.06542	-0.040773	1
375	-0.015936	-0.062552	1
376	-0.005722	-0.065715	1
377	0.009278	-0.102715	1
378	0.003605	-0.097184	1
379	-0.021261	-0.081592	1
380	-0.081223	-0.040256	1
381	-0.093489	-0.029817	1
382	-0.09769	-0.025107	1
383	-0.213621	0.03808	1
384	-0.191577	0.026891	1
385	-0.175435	0.016994	1
386	-0.165186	0.008511	1
387	-0.142381	-0.001775	1
388	-0.126175	-0.010807	1
389	0.009178	-0.10251	1
390	0.003669	-0.097082	1
391	-0.021361	-0.081387	1
392	-0.081323	-0.040051	1
393	-0.093589	-0.029612	1
394	-0.097411	-0.025247	1
395	-0.094722	-0.026597	1
396	-0.06532	-0.040978	1
397	-0.015836	-0.062757	1
398	-0.005621	-0.06592	1
399	-0.039722	0.045285	1
400	-0.026265	0.036072	1
401	-0.009672	0.022382	1
402	0.028348	-0.002767	1
403	0.059896	-0.018169	1
404	0.089657	-0.035282	1
405	0.122098	-0.056636	1
406	0.149925	-0.075311	1
407	0.163278	-0.083715	1
408	-0.067078	0.045292	1
409	-0.04698	0.035088	1
410	-0.008951	0.014657	1
411	0.003766	0.006582	1
412	0.01608	0.001828	1
413	0.022674	0.000758	1
414	0.027992	-0.002759	1
415	0.059539	-0.018161	1
416	0.089301	-0.035274	1
417	0.121741	-0.056628	1
418	0.149569	-0.075303	1
419	0.162922	-0.083708	1
420	-0.040078	0.045292	1
421	-0.026621	0.03608	1
422	-0.010029	0.022389	1
423	0.022276	0.001021	1
424	-0.066722	0.045285	1
425	-0.046623	0.035081	1
426	-0.008594	0.01465	1
427	0.004122	0.006574	1
428	0.016124	0.001941	1
429	0.283278	0.093285	1
430	0.293757	0.087171	1
431	0.319459	0.076693	1
432	0.341602	0.065502	1
433	0.355521	0.057752	1
434	0.371377	0.049883	1
435	0.385612	0.043082	1
436	0.41511	0.032722	1
437	0.456707	0.016194	1
438	0.525707	-0.010457	1
439	0.548278	-0.019715	1
440	0.356125	0.057283	1
441	0.37102	0.049891	1
442	0.385255	0.04309	1
443	0.414753	0.03273	1
444	0.456351	0.016202	1
445	0.525351	-0.010449	1
446	0.547922	-0.019708	1
447	0.282922	0.093292	1
448	0.2934	0.087179	1
449	0.319102	0.0767	1
450	0.341246	0.06551	1
451	0.355164	0.05776	1
452	0.355724	0.057482	1
453	0.269922	0.089292	1
454	0.286718	0.083897	1
455	0.308268	0.075435	1
456	0.325073	0.067843	1
457	0.345239	0.060211	1
458	0.270278	0.089285	1
459	0.287074	0.083889	1
460	0.308624	0.075427	1
461	0.32543	0.067835	1
462	0.345596	0.060204	1
463	-0.253722	0.018285	1
464	-0.220722	0.009285	1
465	-0.220365	0.009277	1
466	-0.253365	0.018277	1
467	-0.000722	-0.023715	1
468	0.016278	-0.048715	1
469	-0.597365	0.013277	1
470	-0.610365	0.023277	1
471	-0.574078	0.000333	1
472	-0.578993	0.006724	1
473	-0.578711	0.006575	1
474	-0.564396	0.002069	1
475	-0.56407	0.001966	1
476	-0.551874	-0.004751	1
477	-0.551597	-0.004903	1
478	-0.529815	-0.019132	1
479	-0.533696	-0.020123	1
480	-0.533865	-0.020038	1
481	-0.573802	0.00018	1
482	-0.5299	-0.019372	1
483	-0.529779	-0.019345	1
484	-0.014301	-0.019762	1
485	0.000363	-0.039928	1
486	-0.023376	-0.025209	1
487	-0.036481	-0.016573	1
488	-0.037246	-0.010113	1
489	-0.025429	-0.01555	1
490	0
1	1	2
2	2	3
3	3	4
4	4	5
5	5	6
6	7	8
7	8	9
8	9	10
9	10	11
10	11	12
11	13	14
12	14	15
13	15	16
14	16	17
15	18	19
16	19	20
17	20	21
18	21	22
19	23	24
20	24	25
21	25	26
22	27	28
23	28	29
24	29	30
25	30	31
26	31	32
27	32	33
28	34	35
29	35	36
30	36	37
31	37	38
32	38	39
33	39	40
34	40	41
35	41	42
36	43	44
37	44	45
38	45	46
39	46	47
40	47	48
41	48	49
42	50	51
43	51	52
44	52	53
45	53	54
46	54	55
47	55	56
48	56	57
49	58	59
50	59	60
51	60	61
52	62	63
53	63	64
54	64	65
55	66	67
56	67	68
57	68	69
58	69	70
59	71	72
60	72	73
61	73	74
62	74	75
63	75	76
64	76	77
65	77	78
66	79	80
67	80	81
68	81	82
69	82	83
70	83	84
71	85	86
72	86	87
73	87	88
74	88	89
75	89	90
76	90	91
77	92	93
78	93	94
79	94	95
80	95	96
81	96	97
82	97	98
83	99	100
84	100	101
85	101	102
86	102	103
87	104	105
88	105	106
89	106	107
90	108	109
91	109	110
92	111	112
93	112	113
94	113	114
95	114	115
96	116	117
97	117	118
98	118	119
99	119	120
100	120	121
101	121	122
102	123	124
103	124	125
104	125	126
105	126	127
106	127	128
107	128	129
108	130	131
109	131	132
110	132	133
111	134	135
112	135	136
113	136	137
114	137	138
115	139	140
116	140	141
117	142	143
118	143	144
119	144	145
120	146	147
121	147	148
122	148	149
123	150	151
124	151	152
125	152	153
126	153	154
127	155	156
128	156	157
129	157	158
130	158	159
131	159	160
132	160	161
133	161	162
134	163	164
135	164	165
136	165	166
137	166	167
138	168	169
139	169	170
140	170	171
141	172	173
142	173	174
143	175	176
144	176	177
145	177	178
146	178	179
147	180	181
148	181	182
149	182	183
150	184	185
151	185	186
152	186	187
153	188	189
154	189	190
155	190	191
156	192	193
157	193	194
158	194	195
159	195	196
160	196	197
161	197	198
162	199	200
163	200	201
164	201	202
165	202	203
166	203	204
167	204	205
168	206	207
169	207	208
170	209	210
171	210	211
172	211	212
173	212	213
174	214	215
175	215	216
176	216	217
177	217	218
178	218	219
179	219	220
180	221	222
181	222	223
182	223	224
183	224	225
184	225	226
185	227	228
186	228	229
187	229	230
188	230	231
189	231	232
190	232	233
191	234	235
192	235	236
193	236	237
194	237	238
195	238	239
196	239	240
197	240	241
198	242	243
199	243	244
200	244	245
201	245	246
202	246	247
203	247	248
204	249	250
205	250	251
206	251	252
207	252	253
208	253	254
209	254	255
210	255	256
211	256	257
212	258	259
213	259	260
214	260	261
215	261	262
216	262	263
217	264	265
218	265	266
219	266	267
220	267	268
221	268	269
222	270	271
223	271	272
224	272	273
225	273	274
226	275	276
227	276	277
228	277	278
229	278	279
230	280	281
231	281	282
232	282	283
233	284	285
234	285	286
235	286	287
236	287	288
237	288	289
238	289	290
239	291	292
240	292	293
241	293	294
242	294	295
243	296	297
244	297	298
245	298	299
246	299	300
247	300	301
248	302	303
249	303	304
250	305	306
251	306	307
252	307	308
253	308	309
254	310	311
255	311	312
256	312	313
257	313	310
258	314	315
259	315	316
260	316	317
261	317	314
262	318	319
263	319	320
264	320	321
265	322	323
266	323	324
267	324	325
268	326	327
269	327	328
270	328	329
271	330	331
272	331	332
273	332	333
274	333	334
275	335	336
276	336	337
277	337	338
278	338	339
279	339	340
280	340	341
281	342	343
282	343	344
283	344	345
284	345	346
285	346	347
286	347	348
287	348	349
288	349	350
289	350	351
290	351	352
291	353	354
292	354	355
293	355	356
294	356	357
295	357	358
296	358	359
297	359	360
298	341	361
299	361	362
300	363	364
301	364	365
302	365	366
303	366	362
304	367	368
305	368	369
306	369	370
307	370	371
308	371	372
309	372	373
310	373	374
311	374	375
312	375	376
313	377	378
314	378	379
315	379	380
316	380	381
317	381	382
318	383	384
319	384	385
320	385	386
321	386	387
322	387	388
323	388	382
324	389	390
325	390	391
326	391	392
327	392	393
328	393	394
329	394	395
330	395	396
331	396	397
332	397	398
333	399	400
334	400	401
335	401	402
336	402	403
337	403	404
338	404	405
339	405	406
340	406	407
341	408	409
342	409	410
343	410	411
344	411	412
345	412	413
346	413	414
347	414	415
348	415	416
349	416	417
350	417	418
351	418	419
352	420	421
353	421	422
354	422	423
355	424	425
356	425	426
357	426	427
358	427	428
359	428	423
360	429	430
361	430	431
362	431	432
363	432	433
364	433	434
365	434	435
366	435	436
367	436	437
368	437	438
369	438	439
370	440	441
371	441	442
372	442	443
373	443	444
374	444	445
375	445	446
376	447	448
377	448	449
378	449	450
379	450	451
380	451	452
381	453	454
382	454	455
383	455	456
384	456	457
385	457	440
386	458	459
387	459	460
388	460	461
389	461	462
390	462	452
391	352	360
392	65	463
393	61	464
394	62	146
395	58	142
396	145	465
397	465	464
398	66	150
399	149	466
400	463	466
401	71	155
402	221	79
403	154	70
404	162	78
405	99	163
406	167	103
407	104	168
408	171	107
409	110	208
410	122	205
411	115	213
412	129	198
413	133	191
414	183	187
415	138	179
416	141	174
417	309	295
418	139	172
419	175	134
420	184	180
421	188	130
422	192	123
423	199	116
424	206	108
425	209	111
426	227	92
427	91	220
428	325	321
429	233	98
430	85	214
431	84	226
432	241	57
433	248	49
434	42	257
435	1	258
436	264	7
437	270	13
438	275	18
439	270	13
440	284	27
441	280	23
442	329	467
443	330	468
444	234	50
445	242	43
446	34	249
447	6	263
448	269	12
449	274	17
450	279	22
451	283	26
452	290	33
453	304	469
454	296	470
455	471	469
456	470	472
457	472	473
458	473	474
459	474	475
460	475	476
461	476	477
462	477	478
463	478	291
464	479	480
465	480	481
466	481	471
467	301	479
468	482	302
469	483	305
470	483	482
471	484	467
472	468	485
473	485	486
474	486	487
475	487	318
476	488	489
477	489	484
478	334	488
479	322	326
480	335	342
481	353	363
482	398	376
483	367	383
484	389	377
485	424	408
486	429	447
487	399	420
488	407	419
489	458	453
490	439	446
0
36
1	-1.267385672	-0.6720607	1.00E-15	10.
2	-0.688466049	-0.22191561	1.00E-15	10.
3	-0.529747712	-0.019290615	1.00E-12	0.0001
4	-0.34853854	-0.023196626	1.00E-12	0.0001
5	-0.318465772	-0.046588965	1.00E-12	0.0001
6	-0.387471025	-0.026940869	1.00E-12	0.0001
7	-0.460511677	-0.015237926	1.00E-12	0.0001
8	-0.490486567	-0.010063154	1.00E-12	0.0001
9	-0.497127701	-0.013662391	1.00E-12	0.0001
10	-0.516839924	-0.006988513	1.00E-12	0.0001
11	-0.517413905	-0.013141643	1.00E-12	0.0001
12	-0.420447629	0.084946787	1.00E-12	0.0001
13	-0.337188116	0.046917205	1.00E-12	0.0001
14	-0.199084955	-0.029757526	1.00E-12	0.0001
15	-0.230492792	-0.03316928	1.00E-12	0.0001
16	-0.266038108	-0.037771205	1.00E-12	0.0001
17	-0.305171145	-0.019857238	1.00E-12	0.0001
18	-0.264685888	0.025134953	1.00E-12	0.0001
19	-0.290363938	0.034906582	1.00E-12	0.0001
20	-0.254699636	0.02988187	1.00E-12	0.0001
21	0.066965708	-0.001824014	1.00E-12	0.0001
22	0.444735083	0.063690848	1.00E-12	0.0001
23	0.395464861	0.078762454	1.00E-12	0.0001
24	0.361751239	0.079402182	1.00E-12	0.0001
25	0.351990669	0.075675935	1.00E-12	0.0001
26	0.313430345	0.052796534	1.00E-12	0.0001
27	0.23667915	0.041758205	1.00E-12	0.0001
28	0.163669448	0.047192604	1.00E-12	0.0001
29	0.086642577	0.050814443	1.00E-12	0.0001
30	0.355887	0.0574248	1.00E-12	0.0001
31	-0.044634381	-0.007900924	1.00E-12	0.0001
32	0.0233263	0.000425675	1.00E-12	0.0001
33	-0.0446344	-0.00790092	1.00E-12	0.0001
34	0.367805	0.0515409	1.00E-12	0.0001
35	-0.166101	0.00934083	1.00E-12	0.0001
36	-0.149289	-0.0189422	1.00E-12	0.0001
